M48
;DRILL file {KiCad 4.0.7} date 04/22/20 14:45:26
;FORMAT={-:-/ absolute / metric / decimal}
FMAT,2
METRIC,TZ
T1C0.400
T2C1.000
%
G90
G05
M71
T1
X63.45Y-99.1
X63.45Y-101.05
X63.45Y-102.7
X63.5Y-95.95
X63.5Y-97.35
X64.8Y-103.5
X64.95Y-94.
X65.75Y-92.1
X66.3Y-82.1
X66.5Y-106.5
X66.85Y-97.25
X67.4Y-81.2
X68.5Y-80.
X68.5Y-106.5
X69.6Y-79.
X70.04Y-87.14
X70.08Y-89.58
X70.75Y-106.5
X71.2Y-78.6
X72.45Y-92.2
X72.6Y-91.3
X72.75Y-90.25
X72.75Y-106.5
X73.1Y-78.6
X73.53Y-83.59
X73.7Y-96.875
X74.15Y-99.37
X74.46Y-97.85
X74.8Y-106.5
X74.9Y-78.5
X75.Y-100.46
X75.07Y-96.59
X75.3Y-90.45
X75.45Y-89.3
X75.8Y-102.7
X75.91Y-83.64
X75.93Y-84.64
X75.94Y-100.6
X76.8Y-106.4
X77.Y-78.5
X78.5Y-106.4
X79.2Y-78.4
X80.1Y-106.3
X81.4Y-78.5
X81.6Y-106.4
X83.3Y-78.4
X83.4Y-92.2
X83.5Y-106.5
X84.25Y-95.75
X85.Y-78.5
X85.Y-93.
X85.Y-94.5
X85.3Y-106.5
X86.9Y-78.5
X87.1Y-106.5
X88.7Y-106.5
X89.Y-78.5
X90.6Y-106.5
X91.1Y-78.4
X92.6Y-106.5
X92.875Y-94.35
X93.1Y-78.5
X93.35Y-93.65
X93.425Y-92.175
X93.425Y-94.975
X93.5Y-91.275
X94.8Y-106.5
X94.9Y-78.6
X96.02Y-91.33
X96.02Y-92.18
X96.6Y-78.6
X96.9Y-106.4
X98.4Y-78.6
X98.54Y-102.57
X99.3Y-80.9
X99.5Y-106.6
X100.Y-102.5
X100.2Y-82.8
X101.2Y-106.5
X101.24Y-102.66
X101.8Y-80.7
X102.02Y-90.8
X102.05Y-92.
X102.7Y-102.58
X102.8Y-106.3
X104.29Y-92.57
T2
X65.2Y-97.7
X65.85Y-101.1
X69.4Y-101.05
X73.Y-100.95
X111.5Y-83.8
X111.5Y-89.3
X111.5Y-94.2
X111.58Y-99.1
T0
M30
