G04 #@! TF.FileFunction,Legend,Top*
%FSLAX46Y46*%
G04 Gerber Fmt 4.6, Leading zero omitted, Abs format (unit mm)*
G04 Created by KiCad (PCBNEW 4.0.7) date 04/28/20 20:56:53*
%MOMM*%
%LPD*%
G01*
G04 APERTURE LIST*
%ADD10C,0.100000*%
%ADD11C,0.120000*%
%ADD12C,0.150000*%
G04 APERTURE END LIST*
D10*
D11*
X97560000Y-86710000D02*
X96560000Y-86710000D01*
X96560000Y-88410000D02*
X97560000Y-88410000D01*
X102700000Y-92180000D02*
X101500000Y-92180000D01*
X101500000Y-90420000D02*
X102700000Y-90420000D01*
X79460000Y-85680000D02*
X80660000Y-85680000D01*
X80660000Y-87440000D02*
X79460000Y-87440000D01*
X111700000Y-96650000D02*
X110700000Y-96650000D01*
X110700000Y-98350000D02*
X111700000Y-98350000D01*
X97500000Y-95850000D02*
X96500000Y-95850000D01*
X96500000Y-97550000D02*
X97500000Y-97550000D01*
X91432000Y-85764000D02*
X90432000Y-85764000D01*
X90432000Y-87464000D02*
X91432000Y-87464000D01*
X79130000Y-87700000D02*
X78130000Y-87700000D01*
X78130000Y-89400000D02*
X79130000Y-89400000D01*
X83140000Y-92690000D02*
X84140000Y-92690000D01*
X84140000Y-90990000D02*
X83140000Y-90990000D01*
X98845000Y-102475000D02*
X98845000Y-101275000D01*
X100605000Y-101275000D02*
X100605000Y-102475000D01*
X97650000Y-99430000D02*
X96450000Y-99430000D01*
X96450000Y-97670000D02*
X97650000Y-97670000D01*
X83920000Y-97430000D02*
X85120000Y-97430000D01*
X85120000Y-99190000D02*
X83920000Y-99190000D01*
X92500000Y-94705000D02*
X91300000Y-94705000D01*
X91300000Y-92945000D02*
X92500000Y-92945000D01*
X92500000Y-92880000D02*
X91300000Y-92880000D01*
X91300000Y-91120000D02*
X92500000Y-91120000D01*
X71100000Y-97945000D02*
X72300000Y-97945000D01*
X72300000Y-99705000D02*
X71100000Y-99705000D01*
X72675000Y-96400000D02*
X69475000Y-96400000D01*
X69475000Y-94900000D02*
X72675000Y-94900000D01*
X69475000Y-94900000D02*
X69475000Y-96400000D01*
X100800000Y-102150000D02*
X100800000Y-103150000D01*
X102500000Y-103150000D02*
X102500000Y-102150000D01*
X111700000Y-86750000D02*
X110700000Y-86750000D01*
X110700000Y-88450000D02*
X111700000Y-88450000D01*
X101550000Y-94745000D02*
X102750000Y-94745000D01*
X102750000Y-96505000D02*
X101550000Y-96505000D01*
X83190000Y-89070000D02*
X84390000Y-89070000D01*
X84390000Y-90830000D02*
X83190000Y-90830000D01*
X97700000Y-90380000D02*
X96500000Y-90380000D01*
X96500000Y-88620000D02*
X97700000Y-88620000D01*
X101750000Y-86560000D02*
X102750000Y-86560000D01*
X102750000Y-84860000D02*
X101750000Y-84860000D01*
X101700000Y-82660000D02*
X102900000Y-82660000D01*
X102900000Y-84420000D02*
X101700000Y-84420000D01*
X87550000Y-96660000D02*
X87550000Y-95460000D01*
X89310000Y-95460000D02*
X89310000Y-96660000D01*
X87550000Y-91660000D02*
X87550000Y-90460000D01*
X89310000Y-90460000D02*
X89310000Y-91660000D01*
X87340000Y-99320000D02*
X86340000Y-99320000D01*
X86340000Y-101020000D02*
X87340000Y-101020000D01*
X75150000Y-96475000D02*
X75150000Y-97475000D01*
X76850000Y-97475000D02*
X76850000Y-96475000D01*
X102770000Y-103200000D02*
X102770000Y-102000000D01*
X104530000Y-102000000D02*
X104530000Y-103200000D01*
X97760000Y-84640000D02*
X96560000Y-84640000D01*
X96560000Y-82880000D02*
X97760000Y-82880000D01*
X82770000Y-101020000D02*
X81570000Y-101020000D01*
X81570000Y-99260000D02*
X82770000Y-99260000D01*
X96575000Y-84820000D02*
X97775000Y-84820000D01*
X97775000Y-86580000D02*
X96575000Y-86580000D01*
X81950000Y-83702000D02*
X83150000Y-83702000D01*
X83150000Y-85462000D02*
X81950000Y-85462000D01*
X97520000Y-90560000D02*
X96520000Y-90560000D01*
X96520000Y-92260000D02*
X97520000Y-92260000D01*
X97530000Y-93790000D02*
X96530000Y-93790000D01*
X96530000Y-95490000D02*
X97530000Y-95490000D01*
X95800000Y-99595000D02*
X97000000Y-99595000D01*
X97000000Y-101355000D02*
X95800000Y-101355000D01*
X100720000Y-89235000D02*
X101650000Y-89235000D01*
X103880000Y-89235000D02*
X102950000Y-89235000D01*
X103880000Y-89235000D02*
X103880000Y-87075000D01*
X100720000Y-89235000D02*
X100720000Y-87775000D01*
X82920000Y-88185000D02*
X83850000Y-88185000D01*
X86080000Y-88185000D02*
X85150000Y-88185000D01*
X86080000Y-88185000D02*
X86080000Y-86025000D01*
X82920000Y-88185000D02*
X82920000Y-86725000D01*
X80580000Y-96340000D02*
X81510000Y-96340000D01*
X83740000Y-96340000D02*
X82810000Y-96340000D01*
X83740000Y-96340000D02*
X83740000Y-94180000D01*
X80580000Y-96340000D02*
X80580000Y-94880000D01*
X90340000Y-95095000D02*
X90340000Y-96025000D01*
X90340000Y-98255000D02*
X90340000Y-97325000D01*
X90340000Y-98255000D02*
X92500000Y-98255000D01*
X90340000Y-95095000D02*
X91800000Y-95095000D01*
X86510000Y-97030000D02*
X86510000Y-96100000D01*
X86510000Y-93870000D02*
X86510000Y-94800000D01*
X86510000Y-93870000D02*
X84350000Y-93870000D01*
X86510000Y-97030000D02*
X85050000Y-97030000D01*
X89595000Y-90035000D02*
X90525000Y-90035000D01*
X92755000Y-90035000D02*
X91825000Y-90035000D01*
X92755000Y-90035000D02*
X92755000Y-87875000D01*
X89595000Y-90035000D02*
X89595000Y-88575000D01*
X100845000Y-99135000D02*
X101775000Y-99135000D01*
X104005000Y-99135000D02*
X103075000Y-99135000D01*
X104005000Y-99135000D02*
X104005000Y-96975000D01*
X100845000Y-99135000D02*
X100845000Y-97675000D01*
X75140000Y-92470000D02*
X75140000Y-91270000D01*
X76900000Y-91270000D02*
X76900000Y-92470000D01*
X73060000Y-87766000D02*
X74260000Y-87766000D01*
X74260000Y-89526000D02*
X73060000Y-89526000D01*
X73120000Y-84520000D02*
X73120000Y-85720000D01*
X71360000Y-85720000D02*
X71360000Y-84520000D01*
X107100000Y-98380000D02*
X105900000Y-98380000D01*
X105900000Y-96620000D02*
X107100000Y-96620000D01*
X107020000Y-88400000D02*
X105820000Y-88400000D01*
X105820000Y-86640000D02*
X107020000Y-86640000D01*
X87976000Y-85462000D02*
X86776000Y-85462000D01*
X86776000Y-83702000D02*
X87976000Y-83702000D01*
D12*
X93833334Y-87732143D02*
X93785715Y-87779762D01*
X93642858Y-87827381D01*
X93547620Y-87827381D01*
X93404762Y-87779762D01*
X93309524Y-87684524D01*
X93261905Y-87589286D01*
X93214286Y-87398810D01*
X93214286Y-87255952D01*
X93261905Y-87065476D01*
X93309524Y-86970238D01*
X93404762Y-86875000D01*
X93547620Y-86827381D01*
X93642858Y-86827381D01*
X93785715Y-86875000D01*
X93833334Y-86922619D01*
X94404762Y-87255952D02*
X94309524Y-87208333D01*
X94261905Y-87160714D01*
X94214286Y-87065476D01*
X94214286Y-87017857D01*
X94261905Y-86922619D01*
X94309524Y-86875000D01*
X94404762Y-86827381D01*
X94595239Y-86827381D01*
X94690477Y-86875000D01*
X94738096Y-86922619D01*
X94785715Y-87017857D01*
X94785715Y-87065476D01*
X94738096Y-87160714D01*
X94690477Y-87208333D01*
X94595239Y-87255952D01*
X94404762Y-87255952D01*
X94309524Y-87303571D01*
X94261905Y-87351190D01*
X94214286Y-87446429D01*
X94214286Y-87636905D01*
X94261905Y-87732143D01*
X94309524Y-87779762D01*
X94404762Y-87827381D01*
X94595239Y-87827381D01*
X94690477Y-87779762D01*
X94738096Y-87732143D01*
X94785715Y-87636905D01*
X94785715Y-87446429D01*
X94738096Y-87351190D01*
X94690477Y-87303571D01*
X94595239Y-87255952D01*
X105872381Y-91486666D02*
X105396190Y-91820000D01*
X105872381Y-92058095D02*
X104872381Y-92058095D01*
X104872381Y-91677142D01*
X104920000Y-91581904D01*
X104967619Y-91534285D01*
X105062857Y-91486666D01*
X105205714Y-91486666D01*
X105300952Y-91534285D01*
X105348571Y-91581904D01*
X105396190Y-91677142D01*
X105396190Y-92058095D01*
X104872381Y-91153333D02*
X104872381Y-90534285D01*
X105253333Y-90867619D01*
X105253333Y-90724761D01*
X105300952Y-90629523D01*
X105348571Y-90581904D01*
X105443810Y-90534285D01*
X105681905Y-90534285D01*
X105777143Y-90581904D01*
X105824762Y-90629523D01*
X105872381Y-90724761D01*
X105872381Y-91010476D01*
X105824762Y-91105714D01*
X105777143Y-91153333D01*
X79182381Y-84692857D02*
X78706190Y-85026191D01*
X79182381Y-85264286D02*
X78182381Y-85264286D01*
X78182381Y-84883333D01*
X78230000Y-84788095D01*
X78277619Y-84740476D01*
X78372857Y-84692857D01*
X78515714Y-84692857D01*
X78610952Y-84740476D01*
X78658571Y-84788095D01*
X78706190Y-84883333D01*
X78706190Y-85264286D01*
X79182381Y-83740476D02*
X79182381Y-84311905D01*
X79182381Y-84026191D02*
X78182381Y-84026191D01*
X78325238Y-84121429D01*
X78420476Y-84216667D01*
X78468095Y-84311905D01*
X78182381Y-83121429D02*
X78182381Y-83026190D01*
X78230000Y-82930952D01*
X78277619Y-82883333D01*
X78372857Y-82835714D01*
X78563333Y-82788095D01*
X78801429Y-82788095D01*
X78991905Y-82835714D01*
X79087143Y-82883333D01*
X79134762Y-82930952D01*
X79182381Y-83026190D01*
X79182381Y-83121429D01*
X79134762Y-83216667D01*
X79087143Y-83264286D01*
X78991905Y-83311905D01*
X78801429Y-83359524D01*
X78563333Y-83359524D01*
X78372857Y-83311905D01*
X78277619Y-83264286D01*
X78230000Y-83216667D01*
X78182381Y-83121429D01*
X110933334Y-101607143D02*
X110885715Y-101654762D01*
X110742858Y-101702381D01*
X110647620Y-101702381D01*
X110504762Y-101654762D01*
X110409524Y-101559524D01*
X110361905Y-101464286D01*
X110314286Y-101273810D01*
X110314286Y-101130952D01*
X110361905Y-100940476D01*
X110409524Y-100845238D01*
X110504762Y-100750000D01*
X110647620Y-100702381D01*
X110742858Y-100702381D01*
X110885715Y-100750000D01*
X110933334Y-100797619D01*
X111885715Y-101702381D02*
X111314286Y-101702381D01*
X111600000Y-101702381D02*
X111600000Y-100702381D01*
X111504762Y-100845238D01*
X111409524Y-100940476D01*
X111314286Y-100988095D01*
X93663334Y-97317143D02*
X93615715Y-97364762D01*
X93472858Y-97412381D01*
X93377620Y-97412381D01*
X93234762Y-97364762D01*
X93139524Y-97269524D01*
X93091905Y-97174286D01*
X93044286Y-96983810D01*
X93044286Y-96840952D01*
X93091905Y-96650476D01*
X93139524Y-96555238D01*
X93234762Y-96460000D01*
X93377620Y-96412381D01*
X93472858Y-96412381D01*
X93615715Y-96460000D01*
X93663334Y-96507619D01*
X93996667Y-96412381D02*
X94615715Y-96412381D01*
X94282381Y-96793333D01*
X94425239Y-96793333D01*
X94520477Y-96840952D01*
X94568096Y-96888571D01*
X94615715Y-96983810D01*
X94615715Y-97221905D01*
X94568096Y-97317143D01*
X94520477Y-97364762D01*
X94425239Y-97412381D01*
X94139524Y-97412381D01*
X94044286Y-97364762D01*
X93996667Y-97317143D01*
X90640334Y-85371143D02*
X90592715Y-85418762D01*
X90449858Y-85466381D01*
X90354620Y-85466381D01*
X90211762Y-85418762D01*
X90116524Y-85323524D01*
X90068905Y-85228286D01*
X90021286Y-85037810D01*
X90021286Y-84894952D01*
X90068905Y-84704476D01*
X90116524Y-84609238D01*
X90211762Y-84514000D01*
X90354620Y-84466381D01*
X90449858Y-84466381D01*
X90592715Y-84514000D01*
X90640334Y-84561619D01*
X91545096Y-84466381D02*
X91068905Y-84466381D01*
X91021286Y-84942571D01*
X91068905Y-84894952D01*
X91164143Y-84847333D01*
X91402239Y-84847333D01*
X91497477Y-84894952D01*
X91545096Y-84942571D01*
X91592715Y-85037810D01*
X91592715Y-85275905D01*
X91545096Y-85371143D01*
X91497477Y-85418762D01*
X91402239Y-85466381D01*
X91164143Y-85466381D01*
X91068905Y-85418762D01*
X91021286Y-85371143D01*
X76653334Y-87367143D02*
X76605715Y-87414762D01*
X76462858Y-87462381D01*
X76367620Y-87462381D01*
X76224762Y-87414762D01*
X76129524Y-87319524D01*
X76081905Y-87224286D01*
X76034286Y-87033810D01*
X76034286Y-86890952D01*
X76081905Y-86700476D01*
X76129524Y-86605238D01*
X76224762Y-86510000D01*
X76367620Y-86462381D01*
X76462858Y-86462381D01*
X76605715Y-86510000D01*
X76653334Y-86557619D01*
X77510477Y-86462381D02*
X77320000Y-86462381D01*
X77224762Y-86510000D01*
X77177143Y-86557619D01*
X77081905Y-86700476D01*
X77034286Y-86890952D01*
X77034286Y-87271905D01*
X77081905Y-87367143D01*
X77129524Y-87414762D01*
X77224762Y-87462381D01*
X77415239Y-87462381D01*
X77510477Y-87414762D01*
X77558096Y-87367143D01*
X77605715Y-87271905D01*
X77605715Y-87033810D01*
X77558096Y-86938571D01*
X77510477Y-86890952D01*
X77415239Y-86843333D01*
X77224762Y-86843333D01*
X77129524Y-86890952D01*
X77081905Y-86938571D01*
X77034286Y-87033810D01*
X80208334Y-92482143D02*
X80160715Y-92529762D01*
X80017858Y-92577381D01*
X79922620Y-92577381D01*
X79779762Y-92529762D01*
X79684524Y-92434524D01*
X79636905Y-92339286D01*
X79589286Y-92148810D01*
X79589286Y-92005952D01*
X79636905Y-91815476D01*
X79684524Y-91720238D01*
X79779762Y-91625000D01*
X79922620Y-91577381D01*
X80017858Y-91577381D01*
X80160715Y-91625000D01*
X80208334Y-91672619D01*
X80684524Y-92577381D02*
X80875000Y-92577381D01*
X80970239Y-92529762D01*
X81017858Y-92482143D01*
X81113096Y-92339286D01*
X81160715Y-92148810D01*
X81160715Y-91767857D01*
X81113096Y-91672619D01*
X81065477Y-91625000D01*
X80970239Y-91577381D01*
X80779762Y-91577381D01*
X80684524Y-91625000D01*
X80636905Y-91672619D01*
X80589286Y-91767857D01*
X80589286Y-92005952D01*
X80636905Y-92101190D01*
X80684524Y-92148810D01*
X80779762Y-92196429D01*
X80970239Y-92196429D01*
X81065477Y-92148810D01*
X81113096Y-92101190D01*
X81160715Y-92005952D01*
X98333334Y-105242381D02*
X98000000Y-104766190D01*
X97761905Y-105242381D02*
X97761905Y-104242381D01*
X98142858Y-104242381D01*
X98238096Y-104290000D01*
X98285715Y-104337619D01*
X98333334Y-104432857D01*
X98333334Y-104575714D01*
X98285715Y-104670952D01*
X98238096Y-104718571D01*
X98142858Y-104766190D01*
X97761905Y-104766190D01*
X98714286Y-104337619D02*
X98761905Y-104290000D01*
X98857143Y-104242381D01*
X99095239Y-104242381D01*
X99190477Y-104290000D01*
X99238096Y-104337619D01*
X99285715Y-104432857D01*
X99285715Y-104528095D01*
X99238096Y-104670952D01*
X98666667Y-105242381D01*
X99285715Y-105242381D01*
X93553334Y-99002381D02*
X93220000Y-98526190D01*
X92981905Y-99002381D02*
X92981905Y-98002381D01*
X93362858Y-98002381D01*
X93458096Y-98050000D01*
X93505715Y-98097619D01*
X93553334Y-98192857D01*
X93553334Y-98335714D01*
X93505715Y-98430952D01*
X93458096Y-98478571D01*
X93362858Y-98526190D01*
X92981905Y-98526190D01*
X94410477Y-98335714D02*
X94410477Y-99002381D01*
X94172381Y-97954762D02*
X93934286Y-98669048D01*
X94553334Y-98669048D01*
X81053334Y-98812381D02*
X80720000Y-98336190D01*
X80481905Y-98812381D02*
X80481905Y-97812381D01*
X80862858Y-97812381D01*
X80958096Y-97860000D01*
X81005715Y-97907619D01*
X81053334Y-98002857D01*
X81053334Y-98145714D01*
X81005715Y-98240952D01*
X80958096Y-98288571D01*
X80862858Y-98336190D01*
X80481905Y-98336190D01*
X81958096Y-97812381D02*
X81481905Y-97812381D01*
X81434286Y-98288571D01*
X81481905Y-98240952D01*
X81577143Y-98193333D01*
X81815239Y-98193333D01*
X81910477Y-98240952D01*
X81958096Y-98288571D01*
X82005715Y-98383810D01*
X82005715Y-98621905D01*
X81958096Y-98717143D01*
X81910477Y-98764762D01*
X81815239Y-98812381D01*
X81577143Y-98812381D01*
X81481905Y-98764762D01*
X81434286Y-98717143D01*
X93653334Y-95882381D02*
X93320000Y-95406190D01*
X93081905Y-95882381D02*
X93081905Y-94882381D01*
X93462858Y-94882381D01*
X93558096Y-94930000D01*
X93605715Y-94977619D01*
X93653334Y-95072857D01*
X93653334Y-95215714D01*
X93605715Y-95310952D01*
X93558096Y-95358571D01*
X93462858Y-95406190D01*
X93081905Y-95406190D01*
X94510477Y-94882381D02*
X94320000Y-94882381D01*
X94224762Y-94930000D01*
X94177143Y-94977619D01*
X94081905Y-95120476D01*
X94034286Y-95310952D01*
X94034286Y-95691905D01*
X94081905Y-95787143D01*
X94129524Y-95834762D01*
X94224762Y-95882381D01*
X94415239Y-95882381D01*
X94510477Y-95834762D01*
X94558096Y-95787143D01*
X94605715Y-95691905D01*
X94605715Y-95453810D01*
X94558096Y-95358571D01*
X94510477Y-95310952D01*
X94415239Y-95263333D01*
X94224762Y-95263333D01*
X94129524Y-95310952D01*
X94081905Y-95358571D01*
X94034286Y-95453810D01*
X95053334Y-93412381D02*
X94720000Y-92936190D01*
X94481905Y-93412381D02*
X94481905Y-92412381D01*
X94862858Y-92412381D01*
X94958096Y-92460000D01*
X95005715Y-92507619D01*
X95053334Y-92602857D01*
X95053334Y-92745714D01*
X95005715Y-92840952D01*
X94958096Y-92888571D01*
X94862858Y-92936190D01*
X94481905Y-92936190D01*
X95529524Y-93412381D02*
X95720000Y-93412381D01*
X95815239Y-93364762D01*
X95862858Y-93317143D01*
X95958096Y-93174286D01*
X96005715Y-92983810D01*
X96005715Y-92602857D01*
X95958096Y-92507619D01*
X95910477Y-92460000D01*
X95815239Y-92412381D01*
X95624762Y-92412381D01*
X95529524Y-92460000D01*
X95481905Y-92507619D01*
X95434286Y-92602857D01*
X95434286Y-92840952D01*
X95481905Y-92936190D01*
X95529524Y-92983810D01*
X95624762Y-93031429D01*
X95815239Y-93031429D01*
X95910477Y-92983810D01*
X95958096Y-92936190D01*
X96005715Y-92840952D01*
X71007143Y-97727381D02*
X70673809Y-97251190D01*
X70435714Y-97727381D02*
X70435714Y-96727381D01*
X70816667Y-96727381D01*
X70911905Y-96775000D01*
X70959524Y-96822619D01*
X71007143Y-96917857D01*
X71007143Y-97060714D01*
X70959524Y-97155952D01*
X70911905Y-97203571D01*
X70816667Y-97251190D01*
X70435714Y-97251190D01*
X71959524Y-97727381D02*
X71388095Y-97727381D01*
X71673809Y-97727381D02*
X71673809Y-96727381D01*
X71578571Y-96870238D01*
X71483333Y-96965476D01*
X71388095Y-97013095D01*
X72816667Y-97060714D02*
X72816667Y-97727381D01*
X72578571Y-96679762D02*
X72340476Y-97394048D01*
X72959524Y-97394048D01*
X67286905Y-96202381D02*
X67286905Y-95202381D01*
X67525000Y-95202381D01*
X67667858Y-95250000D01*
X67763096Y-95345238D01*
X67810715Y-95440476D01*
X67858334Y-95630952D01*
X67858334Y-95773810D01*
X67810715Y-95964286D01*
X67763096Y-96059524D01*
X67667858Y-96154762D01*
X67525000Y-96202381D01*
X67286905Y-96202381D01*
X68715477Y-95202381D02*
X68525000Y-95202381D01*
X68429762Y-95250000D01*
X68382143Y-95297619D01*
X68286905Y-95440476D01*
X68239286Y-95630952D01*
X68239286Y-96011905D01*
X68286905Y-96107143D01*
X68334524Y-96154762D01*
X68429762Y-96202381D01*
X68620239Y-96202381D01*
X68715477Y-96154762D01*
X68763096Y-96107143D01*
X68810715Y-96011905D01*
X68810715Y-95773810D01*
X68763096Y-95678571D01*
X68715477Y-95630952D01*
X68620239Y-95583333D01*
X68429762Y-95583333D01*
X68334524Y-95630952D01*
X68286905Y-95678571D01*
X68239286Y-95773810D01*
X101687334Y-106021143D02*
X101639715Y-106068762D01*
X101496858Y-106116381D01*
X101401620Y-106116381D01*
X101258762Y-106068762D01*
X101163524Y-105973524D01*
X101115905Y-105878286D01*
X101068286Y-105687810D01*
X101068286Y-105544952D01*
X101115905Y-105354476D01*
X101163524Y-105259238D01*
X101258762Y-105164000D01*
X101401620Y-105116381D01*
X101496858Y-105116381D01*
X101639715Y-105164000D01*
X101687334Y-105211619D01*
X102068286Y-105211619D02*
X102115905Y-105164000D01*
X102211143Y-105116381D01*
X102449239Y-105116381D01*
X102544477Y-105164000D01*
X102592096Y-105211619D01*
X102639715Y-105306857D01*
X102639715Y-105402095D01*
X102592096Y-105544952D01*
X102020667Y-106116381D01*
X102639715Y-106116381D01*
X107827143Y-89676666D02*
X107874762Y-89724285D01*
X107922381Y-89867142D01*
X107922381Y-89962380D01*
X107874762Y-90105238D01*
X107779524Y-90200476D01*
X107684286Y-90248095D01*
X107493810Y-90295714D01*
X107350952Y-90295714D01*
X107160476Y-90248095D01*
X107065238Y-90200476D01*
X106970000Y-90105238D01*
X106922381Y-89962380D01*
X106922381Y-89867142D01*
X106970000Y-89724285D01*
X107017619Y-89676666D01*
X107255714Y-88819523D02*
X107922381Y-88819523D01*
X106874762Y-89057619D02*
X107589048Y-89295714D01*
X107589048Y-88676666D01*
X105502381Y-95632857D02*
X105026190Y-95966191D01*
X105502381Y-96204286D02*
X104502381Y-96204286D01*
X104502381Y-95823333D01*
X104550000Y-95728095D01*
X104597619Y-95680476D01*
X104692857Y-95632857D01*
X104835714Y-95632857D01*
X104930952Y-95680476D01*
X104978571Y-95728095D01*
X105026190Y-95823333D01*
X105026190Y-96204286D01*
X105502381Y-94680476D02*
X105502381Y-95251905D01*
X105502381Y-94966191D02*
X104502381Y-94966191D01*
X104645238Y-95061429D01*
X104740476Y-95156667D01*
X104788095Y-95251905D01*
X105502381Y-93728095D02*
X105502381Y-94299524D01*
X105502381Y-94013810D02*
X104502381Y-94013810D01*
X104645238Y-94109048D01*
X104740476Y-94204286D01*
X104788095Y-94299524D01*
X79367143Y-90622381D02*
X79033809Y-90146190D01*
X78795714Y-90622381D02*
X78795714Y-89622381D01*
X79176667Y-89622381D01*
X79271905Y-89670000D01*
X79319524Y-89717619D01*
X79367143Y-89812857D01*
X79367143Y-89955714D01*
X79319524Y-90050952D01*
X79271905Y-90098571D01*
X79176667Y-90146190D01*
X78795714Y-90146190D01*
X80319524Y-90622381D02*
X79748095Y-90622381D01*
X80033809Y-90622381D02*
X80033809Y-89622381D01*
X79938571Y-89765238D01*
X79843333Y-89860476D01*
X79748095Y-89908095D01*
X80700476Y-89717619D02*
X80748095Y-89670000D01*
X80843333Y-89622381D01*
X81081429Y-89622381D01*
X81176667Y-89670000D01*
X81224286Y-89717619D01*
X81271905Y-89812857D01*
X81271905Y-89908095D01*
X81224286Y-90050952D01*
X80652857Y-90622381D01*
X81271905Y-90622381D01*
X65502381Y-82639523D02*
X66216667Y-82639523D01*
X66359524Y-82687143D01*
X66454762Y-82782381D01*
X66502381Y-82925238D01*
X66502381Y-83020476D01*
X65597619Y-82210952D02*
X65550000Y-82163333D01*
X65502381Y-82068095D01*
X65502381Y-81829999D01*
X65550000Y-81734761D01*
X65597619Y-81687142D01*
X65692857Y-81639523D01*
X65788095Y-81639523D01*
X65930952Y-81687142D01*
X66502381Y-82258571D01*
X66502381Y-81639523D01*
X65502381Y-80734761D02*
X65502381Y-81210952D01*
X65978571Y-81258571D01*
X65930952Y-81210952D01*
X65883333Y-81115714D01*
X65883333Y-80877618D01*
X65930952Y-80782380D01*
X65978571Y-80734761D01*
X66073810Y-80687142D01*
X66311905Y-80687142D01*
X66407143Y-80734761D01*
X66454762Y-80782380D01*
X66502381Y-80877618D01*
X66502381Y-81115714D01*
X66454762Y-81210952D01*
X66407143Y-81258571D01*
X94122381Y-90242857D02*
X93646190Y-90576191D01*
X94122381Y-90814286D02*
X93122381Y-90814286D01*
X93122381Y-90433333D01*
X93170000Y-90338095D01*
X93217619Y-90290476D01*
X93312857Y-90242857D01*
X93455714Y-90242857D01*
X93550952Y-90290476D01*
X93598571Y-90338095D01*
X93646190Y-90433333D01*
X93646190Y-90814286D01*
X94122381Y-89290476D02*
X94122381Y-89861905D01*
X94122381Y-89576191D02*
X93122381Y-89576191D01*
X93265238Y-89671429D01*
X93360476Y-89766667D01*
X93408095Y-89861905D01*
X93122381Y-88957143D02*
X93122381Y-88338095D01*
X93503333Y-88671429D01*
X93503333Y-88528571D01*
X93550952Y-88433333D01*
X93598571Y-88385714D01*
X93693810Y-88338095D01*
X93931905Y-88338095D01*
X94027143Y-88385714D01*
X94074762Y-88433333D01*
X94122381Y-88528571D01*
X94122381Y-88814286D01*
X94074762Y-88909524D01*
X94027143Y-88957143D01*
X105737143Y-85802666D02*
X105784762Y-85850285D01*
X105832381Y-85993142D01*
X105832381Y-86088380D01*
X105784762Y-86231238D01*
X105689524Y-86326476D01*
X105594286Y-86374095D01*
X105403810Y-86421714D01*
X105260952Y-86421714D01*
X105070476Y-86374095D01*
X104975238Y-86326476D01*
X104880000Y-86231238D01*
X104832381Y-86088380D01*
X104832381Y-85993142D01*
X104880000Y-85850285D01*
X104927619Y-85802666D01*
X104832381Y-85469333D02*
X104832381Y-84802666D01*
X105832381Y-85231238D01*
X105912381Y-83704666D02*
X105436190Y-84038000D01*
X105912381Y-84276095D02*
X104912381Y-84276095D01*
X104912381Y-83895142D01*
X104960000Y-83799904D01*
X105007619Y-83752285D01*
X105102857Y-83704666D01*
X105245714Y-83704666D01*
X105340952Y-83752285D01*
X105388571Y-83799904D01*
X105436190Y-83895142D01*
X105436190Y-84276095D01*
X105912381Y-82752285D02*
X105912381Y-83323714D01*
X105912381Y-83038000D02*
X104912381Y-83038000D01*
X105055238Y-83133238D01*
X105150476Y-83228476D01*
X105198095Y-83323714D01*
X88293334Y-99302381D02*
X87960000Y-98826190D01*
X87721905Y-99302381D02*
X87721905Y-98302381D01*
X88102858Y-98302381D01*
X88198096Y-98350000D01*
X88245715Y-98397619D01*
X88293334Y-98492857D01*
X88293334Y-98635714D01*
X88245715Y-98730952D01*
X88198096Y-98778571D01*
X88102858Y-98826190D01*
X87721905Y-98826190D01*
X88626667Y-98302381D02*
X89293334Y-98302381D01*
X88864762Y-99302381D01*
X87392381Y-90036666D02*
X86916190Y-90370000D01*
X87392381Y-90608095D02*
X86392381Y-90608095D01*
X86392381Y-90227142D01*
X86440000Y-90131904D01*
X86487619Y-90084285D01*
X86582857Y-90036666D01*
X86725714Y-90036666D01*
X86820952Y-90084285D01*
X86868571Y-90131904D01*
X86916190Y-90227142D01*
X86916190Y-90608095D01*
X86820952Y-89465238D02*
X86773333Y-89560476D01*
X86725714Y-89608095D01*
X86630476Y-89655714D01*
X86582857Y-89655714D01*
X86487619Y-89608095D01*
X86440000Y-89560476D01*
X86392381Y-89465238D01*
X86392381Y-89274761D01*
X86440000Y-89179523D01*
X86487619Y-89131904D01*
X86582857Y-89084285D01*
X86630476Y-89084285D01*
X86725714Y-89131904D01*
X86773333Y-89179523D01*
X86820952Y-89274761D01*
X86820952Y-89465238D01*
X86868571Y-89560476D01*
X86916190Y-89608095D01*
X87011429Y-89655714D01*
X87201905Y-89655714D01*
X87297143Y-89608095D01*
X87344762Y-89560476D01*
X87392381Y-89465238D01*
X87392381Y-89274761D01*
X87344762Y-89179523D01*
X87297143Y-89131904D01*
X87201905Y-89084285D01*
X87011429Y-89084285D01*
X86916190Y-89131904D01*
X86868571Y-89179523D01*
X86820952Y-89274761D01*
X86087143Y-102127143D02*
X86039524Y-102174762D01*
X85896667Y-102222381D01*
X85801429Y-102222381D01*
X85658571Y-102174762D01*
X85563333Y-102079524D01*
X85515714Y-101984286D01*
X85468095Y-101793810D01*
X85468095Y-101650952D01*
X85515714Y-101460476D01*
X85563333Y-101365238D01*
X85658571Y-101270000D01*
X85801429Y-101222381D01*
X85896667Y-101222381D01*
X86039524Y-101270000D01*
X86087143Y-101317619D01*
X87039524Y-102222381D02*
X86468095Y-102222381D01*
X86753809Y-102222381D02*
X86753809Y-101222381D01*
X86658571Y-101365238D01*
X86563333Y-101460476D01*
X86468095Y-101508095D01*
X87658571Y-101222381D02*
X87753810Y-101222381D01*
X87849048Y-101270000D01*
X87896667Y-101317619D01*
X87944286Y-101412857D01*
X87991905Y-101603333D01*
X87991905Y-101841429D01*
X87944286Y-102031905D01*
X87896667Y-102127143D01*
X87849048Y-102174762D01*
X87753810Y-102222381D01*
X87658571Y-102222381D01*
X87563333Y-102174762D01*
X87515714Y-102127143D01*
X87468095Y-102031905D01*
X87420476Y-101841429D01*
X87420476Y-101603333D01*
X87468095Y-101412857D01*
X87515714Y-101317619D01*
X87563333Y-101270000D01*
X87658571Y-101222381D01*
X77817143Y-97832857D02*
X77864762Y-97880476D01*
X77912381Y-98023333D01*
X77912381Y-98118571D01*
X77864762Y-98261429D01*
X77769524Y-98356667D01*
X77674286Y-98404286D01*
X77483810Y-98451905D01*
X77340952Y-98451905D01*
X77150476Y-98404286D01*
X77055238Y-98356667D01*
X76960000Y-98261429D01*
X76912381Y-98118571D01*
X76912381Y-98023333D01*
X76960000Y-97880476D01*
X77007619Y-97832857D01*
X77912381Y-96880476D02*
X77912381Y-97451905D01*
X77912381Y-97166191D02*
X76912381Y-97166191D01*
X77055238Y-97261429D01*
X77150476Y-97356667D01*
X77198095Y-97451905D01*
X76912381Y-96023333D02*
X76912381Y-96213810D01*
X76960000Y-96309048D01*
X77007619Y-96356667D01*
X77150476Y-96451905D01*
X77340952Y-96499524D01*
X77721905Y-96499524D01*
X77817143Y-96451905D01*
X77864762Y-96404286D01*
X77912381Y-96309048D01*
X77912381Y-96118571D01*
X77864762Y-96023333D01*
X77817143Y-95975714D01*
X77721905Y-95928095D01*
X77483810Y-95928095D01*
X77388571Y-95975714D01*
X77340952Y-96023333D01*
X77293333Y-96118571D01*
X77293333Y-96309048D01*
X77340952Y-96404286D01*
X77388571Y-96451905D01*
X77483810Y-96499524D01*
X107640381Y-102242857D02*
X107164190Y-102576191D01*
X107640381Y-102814286D02*
X106640381Y-102814286D01*
X106640381Y-102433333D01*
X106688000Y-102338095D01*
X106735619Y-102290476D01*
X106830857Y-102242857D01*
X106973714Y-102242857D01*
X107068952Y-102290476D01*
X107116571Y-102338095D01*
X107164190Y-102433333D01*
X107164190Y-102814286D01*
X107640381Y-101290476D02*
X107640381Y-101861905D01*
X107640381Y-101576191D02*
X106640381Y-101576191D01*
X106783238Y-101671429D01*
X106878476Y-101766667D01*
X106926095Y-101861905D01*
X106640381Y-100385714D02*
X106640381Y-100861905D01*
X107116571Y-100909524D01*
X107068952Y-100861905D01*
X107021333Y-100766667D01*
X107021333Y-100528571D01*
X107068952Y-100433333D01*
X107116571Y-100385714D01*
X107211810Y-100338095D01*
X107449905Y-100338095D01*
X107545143Y-100385714D01*
X107592762Y-100433333D01*
X107640381Y-100528571D01*
X107640381Y-100766667D01*
X107592762Y-100861905D01*
X107545143Y-100909524D01*
X96385143Y-82494381D02*
X96051809Y-82018190D01*
X95813714Y-82494381D02*
X95813714Y-81494381D01*
X96194667Y-81494381D01*
X96289905Y-81542000D01*
X96337524Y-81589619D01*
X96385143Y-81684857D01*
X96385143Y-81827714D01*
X96337524Y-81922952D01*
X96289905Y-81970571D01*
X96194667Y-82018190D01*
X95813714Y-82018190D01*
X97337524Y-82494381D02*
X96766095Y-82494381D01*
X97051809Y-82494381D02*
X97051809Y-81494381D01*
X96956571Y-81637238D01*
X96861333Y-81732476D01*
X96766095Y-81780095D01*
X98194667Y-81494381D02*
X98004190Y-81494381D01*
X97908952Y-81542000D01*
X97861333Y-81589619D01*
X97766095Y-81732476D01*
X97718476Y-81922952D01*
X97718476Y-82303905D01*
X97766095Y-82399143D01*
X97813714Y-82446762D01*
X97908952Y-82494381D01*
X98099429Y-82494381D01*
X98194667Y-82446762D01*
X98242286Y-82399143D01*
X98289905Y-82303905D01*
X98289905Y-82065810D01*
X98242286Y-81970571D01*
X98194667Y-81922952D01*
X98099429Y-81875333D01*
X97908952Y-81875333D01*
X97813714Y-81922952D01*
X97766095Y-81970571D01*
X97718476Y-82065810D01*
X81437143Y-102312381D02*
X81103809Y-101836190D01*
X80865714Y-102312381D02*
X80865714Y-101312381D01*
X81246667Y-101312381D01*
X81341905Y-101360000D01*
X81389524Y-101407619D01*
X81437143Y-101502857D01*
X81437143Y-101645714D01*
X81389524Y-101740952D01*
X81341905Y-101788571D01*
X81246667Y-101836190D01*
X80865714Y-101836190D01*
X82389524Y-102312381D02*
X81818095Y-102312381D01*
X82103809Y-102312381D02*
X82103809Y-101312381D01*
X82008571Y-101455238D01*
X81913333Y-101550476D01*
X81818095Y-101598095D01*
X82722857Y-101312381D02*
X83389524Y-101312381D01*
X82960952Y-102312381D01*
X94686381Y-85732857D02*
X94210190Y-86066191D01*
X94686381Y-86304286D02*
X93686381Y-86304286D01*
X93686381Y-85923333D01*
X93734000Y-85828095D01*
X93781619Y-85780476D01*
X93876857Y-85732857D01*
X94019714Y-85732857D01*
X94114952Y-85780476D01*
X94162571Y-85828095D01*
X94210190Y-85923333D01*
X94210190Y-86304286D01*
X94686381Y-84780476D02*
X94686381Y-85351905D01*
X94686381Y-85066191D02*
X93686381Y-85066191D01*
X93829238Y-85161429D01*
X93924476Y-85256667D01*
X93972095Y-85351905D01*
X94114952Y-84209048D02*
X94067333Y-84304286D01*
X94019714Y-84351905D01*
X93924476Y-84399524D01*
X93876857Y-84399524D01*
X93781619Y-84351905D01*
X93734000Y-84304286D01*
X93686381Y-84209048D01*
X93686381Y-84018571D01*
X93734000Y-83923333D01*
X93781619Y-83875714D01*
X93876857Y-83828095D01*
X93924476Y-83828095D01*
X94019714Y-83875714D01*
X94067333Y-83923333D01*
X94114952Y-84018571D01*
X94114952Y-84209048D01*
X94162571Y-84304286D01*
X94210190Y-84351905D01*
X94305429Y-84399524D01*
X94495905Y-84399524D01*
X94591143Y-84351905D01*
X94638762Y-84304286D01*
X94686381Y-84209048D01*
X94686381Y-84018571D01*
X94638762Y-83923333D01*
X94591143Y-83875714D01*
X94495905Y-83828095D01*
X94305429Y-83828095D01*
X94210190Y-83875714D01*
X94162571Y-83923333D01*
X94114952Y-84018571D01*
X82117143Y-83242381D02*
X81783809Y-82766190D01*
X81545714Y-83242381D02*
X81545714Y-82242381D01*
X81926667Y-82242381D01*
X82021905Y-82290000D01*
X82069524Y-82337619D01*
X82117143Y-82432857D01*
X82117143Y-82575714D01*
X82069524Y-82670952D01*
X82021905Y-82718571D01*
X81926667Y-82766190D01*
X81545714Y-82766190D01*
X83069524Y-83242381D02*
X82498095Y-83242381D01*
X82783809Y-83242381D02*
X82783809Y-82242381D01*
X82688571Y-82385238D01*
X82593333Y-82480476D01*
X82498095Y-82528095D01*
X83545714Y-83242381D02*
X83736190Y-83242381D01*
X83831429Y-83194762D01*
X83879048Y-83147143D01*
X83974286Y-83004286D01*
X84021905Y-82813810D01*
X84021905Y-82432857D01*
X83974286Y-82337619D01*
X83926667Y-82290000D01*
X83831429Y-82242381D01*
X83640952Y-82242381D01*
X83545714Y-82290000D01*
X83498095Y-82337619D01*
X83450476Y-82432857D01*
X83450476Y-82670952D01*
X83498095Y-82766190D01*
X83545714Y-82813810D01*
X83640952Y-82861429D01*
X83831429Y-82861429D01*
X83926667Y-82813810D01*
X83974286Y-82766190D01*
X84021905Y-82670952D01*
X99927143Y-93227143D02*
X99879524Y-93274762D01*
X99736667Y-93322381D01*
X99641429Y-93322381D01*
X99498571Y-93274762D01*
X99403333Y-93179524D01*
X99355714Y-93084286D01*
X99308095Y-92893810D01*
X99308095Y-92750952D01*
X99355714Y-92560476D01*
X99403333Y-92465238D01*
X99498571Y-92370000D01*
X99641429Y-92322381D01*
X99736667Y-92322381D01*
X99879524Y-92370000D01*
X99927143Y-92417619D01*
X100879524Y-93322381D02*
X100308095Y-93322381D01*
X100593809Y-93322381D02*
X100593809Y-92322381D01*
X100498571Y-92465238D01*
X100403333Y-92560476D01*
X100308095Y-92608095D01*
X101831905Y-93322381D02*
X101260476Y-93322381D01*
X101546190Y-93322381D02*
X101546190Y-92322381D01*
X101450952Y-92465238D01*
X101355714Y-92560476D01*
X101260476Y-92608095D01*
X99937143Y-94537143D02*
X99889524Y-94584762D01*
X99746667Y-94632381D01*
X99651429Y-94632381D01*
X99508571Y-94584762D01*
X99413333Y-94489524D01*
X99365714Y-94394286D01*
X99318095Y-94203810D01*
X99318095Y-94060952D01*
X99365714Y-93870476D01*
X99413333Y-93775238D01*
X99508571Y-93680000D01*
X99651429Y-93632381D01*
X99746667Y-93632381D01*
X99889524Y-93680000D01*
X99937143Y-93727619D01*
X100889524Y-94632381D02*
X100318095Y-94632381D01*
X100603809Y-94632381D02*
X100603809Y-93632381D01*
X100508571Y-93775238D01*
X100413333Y-93870476D01*
X100318095Y-93918095D01*
X101270476Y-93727619D02*
X101318095Y-93680000D01*
X101413333Y-93632381D01*
X101651429Y-93632381D01*
X101746667Y-93680000D01*
X101794286Y-93727619D01*
X101841905Y-93822857D01*
X101841905Y-93918095D01*
X101794286Y-94060952D01*
X101222857Y-94632381D01*
X101841905Y-94632381D01*
X95067143Y-102532381D02*
X94733809Y-102056190D01*
X94495714Y-102532381D02*
X94495714Y-101532381D01*
X94876667Y-101532381D01*
X94971905Y-101580000D01*
X95019524Y-101627619D01*
X95067143Y-101722857D01*
X95067143Y-101865714D01*
X95019524Y-101960952D01*
X94971905Y-102008571D01*
X94876667Y-102056190D01*
X94495714Y-102056190D01*
X95448095Y-101627619D02*
X95495714Y-101580000D01*
X95590952Y-101532381D01*
X95829048Y-101532381D01*
X95924286Y-101580000D01*
X95971905Y-101627619D01*
X96019524Y-101722857D01*
X96019524Y-101818095D01*
X95971905Y-101960952D01*
X95400476Y-102532381D01*
X96019524Y-102532381D01*
X96400476Y-101627619D02*
X96448095Y-101580000D01*
X96543333Y-101532381D01*
X96781429Y-101532381D01*
X96876667Y-101580000D01*
X96924286Y-101627619D01*
X96971905Y-101722857D01*
X96971905Y-101818095D01*
X96924286Y-101960952D01*
X96352857Y-102532381D01*
X96971905Y-102532381D01*
X105104762Y-89917619D02*
X105009524Y-89870000D01*
X104914286Y-89774762D01*
X104771429Y-89631905D01*
X104676190Y-89584286D01*
X104580952Y-89584286D01*
X104628571Y-89822381D02*
X104533333Y-89774762D01*
X104438095Y-89679524D01*
X104390476Y-89489048D01*
X104390476Y-89155714D01*
X104438095Y-88965238D01*
X104533333Y-88870000D01*
X104628571Y-88822381D01*
X104819048Y-88822381D01*
X104914286Y-88870000D01*
X105009524Y-88965238D01*
X105057143Y-89155714D01*
X105057143Y-89489048D01*
X105009524Y-89679524D01*
X104914286Y-89774762D01*
X104819048Y-89822381D01*
X104628571Y-89822381D01*
X105438095Y-88917619D02*
X105485714Y-88870000D01*
X105580952Y-88822381D01*
X105819048Y-88822381D01*
X105914286Y-88870000D01*
X105961905Y-88917619D01*
X106009524Y-89012857D01*
X106009524Y-89108095D01*
X105961905Y-89250952D01*
X105390476Y-89822381D01*
X106009524Y-89822381D01*
X87415619Y-87471238D02*
X87368000Y-87566476D01*
X87272762Y-87661714D01*
X87129905Y-87804571D01*
X87082286Y-87899810D01*
X87082286Y-87995048D01*
X87320381Y-87947429D02*
X87272762Y-88042667D01*
X87177524Y-88137905D01*
X86987048Y-88185524D01*
X86653714Y-88185524D01*
X86463238Y-88137905D01*
X86368000Y-88042667D01*
X86320381Y-87947429D01*
X86320381Y-87756952D01*
X86368000Y-87661714D01*
X86463238Y-87566476D01*
X86653714Y-87518857D01*
X86987048Y-87518857D01*
X87177524Y-87566476D01*
X87272762Y-87661714D01*
X87320381Y-87756952D01*
X87320381Y-87947429D01*
X86320381Y-87185524D02*
X86320381Y-86566476D01*
X86701333Y-86899810D01*
X86701333Y-86756952D01*
X86748952Y-86661714D01*
X86796571Y-86614095D01*
X86891810Y-86566476D01*
X87129905Y-86566476D01*
X87225143Y-86614095D01*
X87272762Y-86661714D01*
X87320381Y-86756952D01*
X87320381Y-87042667D01*
X87272762Y-87137905D01*
X87225143Y-87185524D01*
X80387619Y-95555238D02*
X80340000Y-95650476D01*
X80244762Y-95745714D01*
X80101905Y-95888571D01*
X80054286Y-95983810D01*
X80054286Y-96079048D01*
X80292381Y-96031429D02*
X80244762Y-96126667D01*
X80149524Y-96221905D01*
X79959048Y-96269524D01*
X79625714Y-96269524D01*
X79435238Y-96221905D01*
X79340000Y-96126667D01*
X79292381Y-96031429D01*
X79292381Y-95840952D01*
X79340000Y-95745714D01*
X79435238Y-95650476D01*
X79625714Y-95602857D01*
X79959048Y-95602857D01*
X80149524Y-95650476D01*
X80244762Y-95745714D01*
X80292381Y-95840952D01*
X80292381Y-96031429D01*
X79625714Y-94745714D02*
X80292381Y-94745714D01*
X79244762Y-94983810D02*
X79959048Y-95221905D01*
X79959048Y-94602857D01*
X91054762Y-99622619D02*
X90959524Y-99575000D01*
X90864286Y-99479762D01*
X90721429Y-99336905D01*
X90626190Y-99289286D01*
X90530952Y-99289286D01*
X90578571Y-99527381D02*
X90483333Y-99479762D01*
X90388095Y-99384524D01*
X90340476Y-99194048D01*
X90340476Y-98860714D01*
X90388095Y-98670238D01*
X90483333Y-98575000D01*
X90578571Y-98527381D01*
X90769048Y-98527381D01*
X90864286Y-98575000D01*
X90959524Y-98670238D01*
X91007143Y-98860714D01*
X91007143Y-99194048D01*
X90959524Y-99384524D01*
X90864286Y-99479762D01*
X90769048Y-99527381D01*
X90578571Y-99527381D01*
X91911905Y-98527381D02*
X91435714Y-98527381D01*
X91388095Y-99003571D01*
X91435714Y-98955952D01*
X91530952Y-98908333D01*
X91769048Y-98908333D01*
X91864286Y-98955952D01*
X91911905Y-99003571D01*
X91959524Y-99098810D01*
X91959524Y-99336905D01*
X91911905Y-99432143D01*
X91864286Y-99479762D01*
X91769048Y-99527381D01*
X91530952Y-99527381D01*
X91435714Y-99479762D01*
X91388095Y-99432143D01*
X85964762Y-93707619D02*
X85869524Y-93660000D01*
X85774286Y-93564762D01*
X85631429Y-93421905D01*
X85536190Y-93374286D01*
X85440952Y-93374286D01*
X85488571Y-93612381D02*
X85393333Y-93564762D01*
X85298095Y-93469524D01*
X85250476Y-93279048D01*
X85250476Y-92945714D01*
X85298095Y-92755238D01*
X85393333Y-92660000D01*
X85488571Y-92612381D01*
X85679048Y-92612381D01*
X85774286Y-92660000D01*
X85869524Y-92755238D01*
X85917143Y-92945714D01*
X85917143Y-93279048D01*
X85869524Y-93469524D01*
X85774286Y-93564762D01*
X85679048Y-93612381D01*
X85488571Y-93612381D01*
X86774286Y-92612381D02*
X86583809Y-92612381D01*
X86488571Y-92660000D01*
X86440952Y-92707619D01*
X86345714Y-92850476D01*
X86298095Y-93040952D01*
X86298095Y-93421905D01*
X86345714Y-93517143D01*
X86393333Y-93564762D01*
X86488571Y-93612381D01*
X86679048Y-93612381D01*
X86774286Y-93564762D01*
X86821905Y-93517143D01*
X86869524Y-93421905D01*
X86869524Y-93183810D01*
X86821905Y-93088571D01*
X86774286Y-93040952D01*
X86679048Y-92993333D01*
X86488571Y-92993333D01*
X86393333Y-93040952D01*
X86345714Y-93088571D01*
X86298095Y-93183810D01*
X90717619Y-90265238D02*
X90670000Y-90360476D01*
X90574762Y-90455714D01*
X90431905Y-90598571D01*
X90384286Y-90693810D01*
X90384286Y-90789048D01*
X90622381Y-90741429D02*
X90574762Y-90836667D01*
X90479524Y-90931905D01*
X90289048Y-90979524D01*
X89955714Y-90979524D01*
X89765238Y-90931905D01*
X89670000Y-90836667D01*
X89622381Y-90741429D01*
X89622381Y-90550952D01*
X89670000Y-90455714D01*
X89765238Y-90360476D01*
X89955714Y-90312857D01*
X90289048Y-90312857D01*
X90479524Y-90360476D01*
X90574762Y-90455714D01*
X90622381Y-90550952D01*
X90622381Y-90741429D01*
X89622381Y-89979524D02*
X89622381Y-89312857D01*
X90622381Y-89741429D01*
X100742762Y-99099619D02*
X100647524Y-99052000D01*
X100552286Y-98956762D01*
X100409429Y-98813905D01*
X100314190Y-98766286D01*
X100218952Y-98766286D01*
X100266571Y-99004381D02*
X100171333Y-98956762D01*
X100076095Y-98861524D01*
X100028476Y-98671048D01*
X100028476Y-98337714D01*
X100076095Y-98147238D01*
X100171333Y-98052000D01*
X100266571Y-98004381D01*
X100457048Y-98004381D01*
X100552286Y-98052000D01*
X100647524Y-98147238D01*
X100695143Y-98337714D01*
X100695143Y-98671048D01*
X100647524Y-98861524D01*
X100552286Y-98956762D01*
X100457048Y-99004381D01*
X100266571Y-99004381D01*
X101647524Y-99004381D02*
X101076095Y-99004381D01*
X101361809Y-99004381D02*
X101361809Y-98004381D01*
X101266571Y-98147238D01*
X101171333Y-98242476D01*
X101076095Y-98290095D01*
X78122381Y-92312857D02*
X77646190Y-92646191D01*
X78122381Y-92884286D02*
X77122381Y-92884286D01*
X77122381Y-92503333D01*
X77170000Y-92408095D01*
X77217619Y-92360476D01*
X77312857Y-92312857D01*
X77455714Y-92312857D01*
X77550952Y-92360476D01*
X77598571Y-92408095D01*
X77646190Y-92503333D01*
X77646190Y-92884286D01*
X77217619Y-91931905D02*
X77170000Y-91884286D01*
X77122381Y-91789048D01*
X77122381Y-91550952D01*
X77170000Y-91455714D01*
X77217619Y-91408095D01*
X77312857Y-91360476D01*
X77408095Y-91360476D01*
X77550952Y-91408095D01*
X78122381Y-91979524D01*
X78122381Y-91360476D01*
X77122381Y-90741429D02*
X77122381Y-90646190D01*
X77170000Y-90550952D01*
X77217619Y-90503333D01*
X77312857Y-90455714D01*
X77503333Y-90408095D01*
X77741429Y-90408095D01*
X77931905Y-90455714D01*
X78027143Y-90503333D01*
X78074762Y-90550952D01*
X78122381Y-90646190D01*
X78122381Y-90741429D01*
X78074762Y-90836667D01*
X78027143Y-90884286D01*
X77931905Y-90931905D01*
X77741429Y-90979524D01*
X77503333Y-90979524D01*
X77312857Y-90931905D01*
X77217619Y-90884286D01*
X77170000Y-90836667D01*
X77122381Y-90741429D01*
X73017143Y-90798381D02*
X72683809Y-90322190D01*
X72445714Y-90798381D02*
X72445714Y-89798381D01*
X72826667Y-89798381D01*
X72921905Y-89846000D01*
X72969524Y-89893619D01*
X73017143Y-89988857D01*
X73017143Y-90131714D01*
X72969524Y-90226952D01*
X72921905Y-90274571D01*
X72826667Y-90322190D01*
X72445714Y-90322190D01*
X73398095Y-89893619D02*
X73445714Y-89846000D01*
X73540952Y-89798381D01*
X73779048Y-89798381D01*
X73874286Y-89846000D01*
X73921905Y-89893619D01*
X73969524Y-89988857D01*
X73969524Y-90084095D01*
X73921905Y-90226952D01*
X73350476Y-90798381D01*
X73969524Y-90798381D01*
X74921905Y-90798381D02*
X74350476Y-90798381D01*
X74636190Y-90798381D02*
X74636190Y-89798381D01*
X74540952Y-89941238D01*
X74445714Y-90036476D01*
X74350476Y-90084095D01*
X74412381Y-85782857D02*
X73936190Y-86116191D01*
X74412381Y-86354286D02*
X73412381Y-86354286D01*
X73412381Y-85973333D01*
X73460000Y-85878095D01*
X73507619Y-85830476D01*
X73602857Y-85782857D01*
X73745714Y-85782857D01*
X73840952Y-85830476D01*
X73888571Y-85878095D01*
X73936190Y-85973333D01*
X73936190Y-86354286D01*
X73507619Y-85401905D02*
X73460000Y-85354286D01*
X73412381Y-85259048D01*
X73412381Y-85020952D01*
X73460000Y-84925714D01*
X73507619Y-84878095D01*
X73602857Y-84830476D01*
X73698095Y-84830476D01*
X73840952Y-84878095D01*
X74412381Y-85449524D01*
X74412381Y-84830476D01*
X73412381Y-84497143D02*
X73412381Y-83878095D01*
X73793333Y-84211429D01*
X73793333Y-84068571D01*
X73840952Y-83973333D01*
X73888571Y-83925714D01*
X73983810Y-83878095D01*
X74221905Y-83878095D01*
X74317143Y-83925714D01*
X74364762Y-83973333D01*
X74412381Y-84068571D01*
X74412381Y-84354286D01*
X74364762Y-84449524D01*
X74317143Y-84497143D01*
X107132381Y-95638857D02*
X106656190Y-95972191D01*
X107132381Y-96210286D02*
X106132381Y-96210286D01*
X106132381Y-95829333D01*
X106180000Y-95734095D01*
X106227619Y-95686476D01*
X106322857Y-95638857D01*
X106465714Y-95638857D01*
X106560952Y-95686476D01*
X106608571Y-95734095D01*
X106656190Y-95829333D01*
X106656190Y-96210286D01*
X106227619Y-95257905D02*
X106180000Y-95210286D01*
X106132381Y-95115048D01*
X106132381Y-94876952D01*
X106180000Y-94781714D01*
X106227619Y-94734095D01*
X106322857Y-94686476D01*
X106418095Y-94686476D01*
X106560952Y-94734095D01*
X107132381Y-95305524D01*
X107132381Y-94686476D01*
X106465714Y-93829333D02*
X107132381Y-93829333D01*
X106084762Y-94067429D02*
X106799048Y-94305524D01*
X106799048Y-93686476D01*
X107582381Y-85332857D02*
X107106190Y-85666191D01*
X107582381Y-85904286D02*
X106582381Y-85904286D01*
X106582381Y-85523333D01*
X106630000Y-85428095D01*
X106677619Y-85380476D01*
X106772857Y-85332857D01*
X106915714Y-85332857D01*
X107010952Y-85380476D01*
X107058571Y-85428095D01*
X107106190Y-85523333D01*
X107106190Y-85904286D01*
X106677619Y-84951905D02*
X106630000Y-84904286D01*
X106582381Y-84809048D01*
X106582381Y-84570952D01*
X106630000Y-84475714D01*
X106677619Y-84428095D01*
X106772857Y-84380476D01*
X106868095Y-84380476D01*
X107010952Y-84428095D01*
X107582381Y-84999524D01*
X107582381Y-84380476D01*
X106582381Y-83475714D02*
X106582381Y-83951905D01*
X107058571Y-83999524D01*
X107010952Y-83951905D01*
X106963333Y-83856667D01*
X106963333Y-83618571D01*
X107010952Y-83523333D01*
X107058571Y-83475714D01*
X107153810Y-83428095D01*
X107391905Y-83428095D01*
X107487143Y-83475714D01*
X107534762Y-83523333D01*
X107582381Y-83618571D01*
X107582381Y-83856667D01*
X107534762Y-83951905D01*
X107487143Y-83999524D01*
X86733143Y-83334381D02*
X86399809Y-82858190D01*
X86161714Y-83334381D02*
X86161714Y-82334381D01*
X86542667Y-82334381D01*
X86637905Y-82382000D01*
X86685524Y-82429619D01*
X86733143Y-82524857D01*
X86733143Y-82667714D01*
X86685524Y-82762952D01*
X86637905Y-82810571D01*
X86542667Y-82858190D01*
X86161714Y-82858190D01*
X87114095Y-82429619D02*
X87161714Y-82382000D01*
X87256952Y-82334381D01*
X87495048Y-82334381D01*
X87590286Y-82382000D01*
X87637905Y-82429619D01*
X87685524Y-82524857D01*
X87685524Y-82620095D01*
X87637905Y-82762952D01*
X87066476Y-83334381D01*
X87685524Y-83334381D01*
X88542667Y-82334381D02*
X88352190Y-82334381D01*
X88256952Y-82382000D01*
X88209333Y-82429619D01*
X88114095Y-82572476D01*
X88066476Y-82762952D01*
X88066476Y-83143905D01*
X88114095Y-83239143D01*
X88161714Y-83286762D01*
X88256952Y-83334381D01*
X88447429Y-83334381D01*
X88542667Y-83286762D01*
X88590286Y-83239143D01*
X88637905Y-83143905D01*
X88637905Y-82905810D01*
X88590286Y-82810571D01*
X88542667Y-82762952D01*
X88447429Y-82715333D01*
X88256952Y-82715333D01*
X88161714Y-82762952D01*
X88114095Y-82810571D01*
X88066476Y-82905810D01*
M02*
