G04 #@! TF.FileFunction,Soldermask,Top*
%FSLAX46Y46*%
G04 Gerber Fmt 4.6, Leading zero omitted, Abs format (unit mm)*
G04 Created by KiCad (PCBNEW 4.0.7) date 04/21/20 19:12:33*
%MOMM*%
%LPD*%
G01*
G04 APERTURE LIST*
%ADD10C,0.100000*%
%ADD11R,1.900000X1.700000*%
%ADD12R,1.900000X1.650000*%
%ADD13R,1.650000X1.900000*%
%ADD14R,1.700000X1.900000*%
%ADD15R,2.900000X2.400000*%
%ADD16O,4.900000X2.400000*%
%ADD17R,4.400000X2.400000*%
%ADD18R,2.400000X2.400000*%
%ADD19R,1.400000X2.900000*%
%ADD20R,2.400000X4.400000*%
%ADD21R,5.480000X2.900000*%
%ADD22R,5.480000X1.900000*%
G04 APERTURE END LIST*
D10*
D11*
X76750000Y-89200000D03*
X74050000Y-89200000D03*
D12*
X105940000Y-99320000D03*
X108440000Y-99320000D03*
X96010000Y-99300000D03*
X98510000Y-99300000D03*
D13*
X86360000Y-86594000D03*
X86360000Y-84094000D03*
D12*
X74150000Y-87100000D03*
X76650000Y-87100000D03*
X95600000Y-89250000D03*
X98100000Y-89250000D03*
X74150000Y-85100000D03*
X76650000Y-85100000D03*
D11*
X98670000Y-97400000D03*
X95970000Y-97400000D03*
D14*
X93790000Y-99220000D03*
X93790000Y-96520000D03*
D11*
X78406000Y-91440000D03*
X81106000Y-91440000D03*
X93670000Y-93150000D03*
X96370000Y-93150000D03*
X93850000Y-83150000D03*
X96550000Y-83150000D03*
X70050000Y-98450000D03*
X67350000Y-98450000D03*
D14*
X70100000Y-96450000D03*
X70100000Y-93750000D03*
D15*
X72600000Y-98000000D03*
X72600000Y-94000000D03*
D16*
X91350000Y-101950000D03*
X81700000Y-102000000D03*
X91250000Y-80400000D03*
X81550000Y-80450000D03*
D13*
X98880000Y-92890000D03*
X98880000Y-95390000D03*
D12*
X105650000Y-89525000D03*
X108150000Y-89525000D03*
D17*
X111580000Y-99100000D03*
X111500000Y-94200000D03*
D18*
X69350000Y-100900000D03*
X72950000Y-100800000D03*
X64950000Y-97700000D03*
X64950000Y-101000000D03*
D14*
X105830000Y-97300000D03*
X105830000Y-94600000D03*
X84400000Y-86850000D03*
X84400000Y-84150000D03*
D19*
X100750000Y-98680000D03*
X102250000Y-98680000D03*
X103750000Y-98680000D03*
D20*
X102250000Y-94720000D03*
D10*
G36*
X103450000Y-96495000D02*
X102950000Y-97645000D01*
X101550000Y-97645000D01*
X101050000Y-96495000D01*
X103450000Y-96495000D01*
X103450000Y-96495000D01*
G37*
D19*
X100425000Y-88880000D03*
X101925000Y-88880000D03*
X103425000Y-88880000D03*
D20*
X101925000Y-84920000D03*
D10*
G36*
X103125000Y-86695000D02*
X102625000Y-87845000D01*
X101225000Y-87845000D01*
X100725000Y-86695000D01*
X103125000Y-86695000D01*
X103125000Y-86695000D01*
G37*
D19*
X79200000Y-88680000D03*
X80700000Y-88680000D03*
X82200000Y-88680000D03*
D20*
X80700000Y-84720000D03*
D10*
G36*
X81900000Y-86495000D02*
X81400000Y-87645000D01*
X80000000Y-87645000D01*
X79500000Y-86495000D01*
X81900000Y-86495000D01*
X81900000Y-86495000D01*
G37*
D21*
X65750000Y-84600000D03*
X65750000Y-92100000D03*
D22*
X65750000Y-88350000D03*
D14*
X93590000Y-89130000D03*
X93590000Y-86430000D03*
D13*
X98450000Y-82950000D03*
X98450000Y-85450000D03*
D17*
X111500000Y-83800000D03*
X111500000Y-89300000D03*
D19*
X75462000Y-98754000D03*
X76962000Y-98754000D03*
X78462000Y-98754000D03*
D20*
X76962000Y-94794000D03*
D10*
G36*
X78162000Y-96569000D02*
X77662000Y-97719000D01*
X76262000Y-97719000D01*
X75762000Y-96569000D01*
X78162000Y-96569000D01*
X78162000Y-96569000D01*
G37*
D19*
X88550000Y-98680000D03*
X90050000Y-98680000D03*
X91550000Y-98680000D03*
D20*
X90050000Y-94720000D03*
D10*
G36*
X91250000Y-96495000D02*
X90750000Y-97645000D01*
X89350000Y-97645000D01*
X88850000Y-96495000D01*
X91250000Y-96495000D01*
X91250000Y-96495000D01*
G37*
D19*
X84050000Y-94032000D03*
X82550000Y-94032000D03*
X81050000Y-94032000D03*
D20*
X82550000Y-97992000D03*
D10*
G36*
X81350000Y-96217000D02*
X81850000Y-95067000D01*
X83250000Y-95067000D01*
X83750000Y-96217000D01*
X81350000Y-96217000D01*
X81350000Y-96217000D01*
G37*
D19*
X88460000Y-88640000D03*
X89960000Y-88640000D03*
X91460000Y-88640000D03*
D20*
X89960000Y-84680000D03*
D10*
G36*
X91160000Y-86455000D02*
X90660000Y-87605000D01*
X89260000Y-87605000D01*
X88760000Y-86455000D01*
X91160000Y-86455000D01*
X91160000Y-86455000D01*
G37*
D14*
X105400000Y-87400000D03*
X105400000Y-84700000D03*
D11*
X98300000Y-87400000D03*
X95600000Y-87400000D03*
D14*
X86390000Y-96470000D03*
X86390000Y-99170000D03*
X86310000Y-89930000D03*
X86310000Y-92630000D03*
D12*
X76434000Y-91440000D03*
X73934000Y-91440000D03*
M02*
