G04 #@! TF.FileFunction,Legend,Top*
%FSLAX46Y46*%
G04 Gerber Fmt 4.6, Leading zero omitted, Abs format (unit mm)*
G04 Created by KiCad (PCBNEW 4.0.7) date 04/22/20 14:45:24*
%MOMM*%
%LPD*%
G01*
G04 APERTURE LIST*
%ADD10C,0.100000*%
%ADD11C,0.120000*%
%ADD12C,0.150000*%
G04 APERTURE END LIST*
D10*
D11*
X96450000Y-86750000D02*
X95450000Y-86750000D01*
X95450000Y-88450000D02*
X96450000Y-88450000D01*
X102700000Y-92180000D02*
X101500000Y-92180000D01*
X101500000Y-90420000D02*
X102700000Y-90420000D01*
X74900000Y-88770000D02*
X76100000Y-88770000D01*
X76100000Y-90530000D02*
X74900000Y-90530000D01*
X107690000Y-98470000D02*
X106690000Y-98470000D01*
X106690000Y-100170000D02*
X107690000Y-100170000D01*
X96575000Y-95050000D02*
X95575000Y-95050000D01*
X95575000Y-96750000D02*
X96575000Y-96750000D01*
X85510000Y-84844000D02*
X85510000Y-85844000D01*
X87210000Y-85844000D02*
X87210000Y-84844000D01*
X75900000Y-86250000D02*
X74900000Y-86250000D01*
X74900000Y-87950000D02*
X75900000Y-87950000D01*
X76446000Y-83732000D02*
X75446000Y-83732000D01*
X75446000Y-85432000D02*
X76446000Y-85432000D01*
X98845000Y-103125000D02*
X98845000Y-101925000D01*
X100605000Y-101925000D02*
X100605000Y-103125000D01*
X96850000Y-98655000D02*
X95650000Y-98655000D01*
X95650000Y-96895000D02*
X96850000Y-96895000D01*
X80356000Y-92320000D02*
X79156000Y-92320000D01*
X79156000Y-90560000D02*
X80356000Y-90560000D01*
X91330000Y-93050000D02*
X90130000Y-93050000D01*
X90130000Y-91290000D02*
X91330000Y-91290000D01*
X91430000Y-91120000D02*
X90230000Y-91120000D01*
X90230000Y-89360000D02*
X91430000Y-89360000D01*
X68150000Y-97920000D02*
X69350000Y-97920000D01*
X69350000Y-99680000D02*
X68150000Y-99680000D01*
X69750000Y-96350000D02*
X66550000Y-96350000D01*
X66550000Y-94850000D02*
X69750000Y-94850000D01*
X66550000Y-94850000D02*
X66550000Y-96350000D01*
X100800000Y-102150000D02*
X100800000Y-103150000D01*
X102500000Y-103150000D02*
X102500000Y-102150000D01*
X107400000Y-88675000D02*
X106400000Y-88675000D01*
X106400000Y-90375000D02*
X107400000Y-90375000D01*
X106710000Y-95350000D02*
X106710000Y-96550000D01*
X104950000Y-96550000D02*
X104950000Y-95350000D01*
X85280000Y-84900000D02*
X85280000Y-86100000D01*
X83520000Y-86100000D02*
X83520000Y-84900000D01*
X103450000Y-94920000D02*
X104650000Y-94920000D01*
X104650000Y-94920000D02*
X104650000Y-97620000D01*
X99850000Y-98920000D02*
X99850000Y-94920000D01*
X99850000Y-94920000D02*
X101050000Y-94920000D01*
X103125000Y-85120000D02*
X104325000Y-85120000D01*
X104325000Y-85120000D02*
X104325000Y-87820000D01*
X99525000Y-89120000D02*
X99525000Y-85120000D01*
X99525000Y-85120000D02*
X100725000Y-85120000D01*
X81900000Y-84920000D02*
X83100000Y-84920000D01*
X83100000Y-84920000D02*
X83100000Y-87620000D01*
X78300000Y-88920000D02*
X78300000Y-84920000D01*
X78300000Y-84920000D02*
X79500000Y-84920000D01*
X96600000Y-90280000D02*
X95400000Y-90280000D01*
X95400000Y-88520000D02*
X96600000Y-88520000D01*
X102275000Y-80875000D02*
X101275000Y-80875000D01*
X101275000Y-82575000D02*
X102275000Y-82575000D01*
X78162000Y-94994000D02*
X79362000Y-94994000D01*
X79362000Y-94994000D02*
X79362000Y-97694000D01*
X74562000Y-98994000D02*
X74562000Y-94994000D01*
X74562000Y-94994000D02*
X75762000Y-94994000D01*
X91330000Y-95590000D02*
X92530000Y-95590000D01*
X92530000Y-95590000D02*
X92530000Y-98290000D01*
X87730000Y-99590000D02*
X87730000Y-95590000D01*
X87730000Y-95590000D02*
X88930000Y-95590000D01*
X81350000Y-97792000D02*
X80150000Y-97792000D01*
X80150000Y-97792000D02*
X80150000Y-95092000D01*
X84950000Y-93792000D02*
X84950000Y-97792000D01*
X84950000Y-97792000D02*
X83750000Y-97792000D01*
X91150000Y-84120000D02*
X92350000Y-84120000D01*
X92350000Y-84120000D02*
X92350000Y-86820000D01*
X87550000Y-88120000D02*
X87550000Y-84120000D01*
X87550000Y-84120000D02*
X88750000Y-84120000D01*
X106280000Y-85450000D02*
X106280000Y-86650000D01*
X104520000Y-86650000D02*
X104520000Y-85450000D01*
X85510000Y-98420000D02*
X85510000Y-97220000D01*
X87270000Y-97220000D02*
X87270000Y-98420000D01*
X85430000Y-91880000D02*
X85430000Y-90680000D01*
X87190000Y-90680000D02*
X87190000Y-91880000D01*
X74684000Y-92290000D02*
X75684000Y-92290000D01*
X75684000Y-90590000D02*
X74684000Y-90590000D01*
X71800000Y-96600000D02*
X71800000Y-97600000D01*
X73500000Y-97600000D02*
X73500000Y-96600000D01*
X102770000Y-103200000D02*
X102770000Y-102000000D01*
X104530000Y-102000000D02*
X104530000Y-103200000D01*
X102375000Y-80705000D02*
X101175000Y-80705000D01*
X101175000Y-78945000D02*
X102375000Y-78945000D01*
X72225000Y-94330000D02*
X71025000Y-94330000D01*
X71025000Y-92570000D02*
X72225000Y-92570000D01*
X95450000Y-84970000D02*
X96650000Y-84970000D01*
X96650000Y-86730000D02*
X95450000Y-86730000D01*
X75346000Y-81670000D02*
X76546000Y-81670000D01*
X76546000Y-83430000D02*
X75346000Y-83430000D01*
X96550000Y-90850000D02*
X95550000Y-90850000D01*
X95550000Y-92550000D02*
X96550000Y-92550000D01*
X96660000Y-93360000D02*
X95660000Y-93360000D01*
X95660000Y-95060000D02*
X96660000Y-95060000D01*
X95650000Y-98920000D02*
X96850000Y-98920000D01*
X96850000Y-100680000D02*
X95650000Y-100680000D01*
D12*
X93407143Y-87766666D02*
X93454762Y-87814285D01*
X93502381Y-87957142D01*
X93502381Y-88052380D01*
X93454762Y-88195238D01*
X93359524Y-88290476D01*
X93264286Y-88338095D01*
X93073810Y-88385714D01*
X92930952Y-88385714D01*
X92740476Y-88338095D01*
X92645238Y-88290476D01*
X92550000Y-88195238D01*
X92502381Y-88052380D01*
X92502381Y-87957142D01*
X92550000Y-87814285D01*
X92597619Y-87766666D01*
X92930952Y-87195238D02*
X92883333Y-87290476D01*
X92835714Y-87338095D01*
X92740476Y-87385714D01*
X92692857Y-87385714D01*
X92597619Y-87338095D01*
X92550000Y-87290476D01*
X92502381Y-87195238D01*
X92502381Y-87004761D01*
X92550000Y-86909523D01*
X92597619Y-86861904D01*
X92692857Y-86814285D01*
X92740476Y-86814285D01*
X92835714Y-86861904D01*
X92883333Y-86909523D01*
X92930952Y-87004761D01*
X92930952Y-87195238D01*
X92978571Y-87290476D01*
X93026190Y-87338095D01*
X93121429Y-87385714D01*
X93311905Y-87385714D01*
X93407143Y-87338095D01*
X93454762Y-87290476D01*
X93502381Y-87195238D01*
X93502381Y-87004761D01*
X93454762Y-86909523D01*
X93407143Y-86861904D01*
X93311905Y-86814285D01*
X93121429Y-86814285D01*
X93026190Y-86861904D01*
X92978571Y-86909523D01*
X92930952Y-87004761D01*
X105497334Y-91892381D02*
X105164000Y-91416190D01*
X104925905Y-91892381D02*
X104925905Y-90892381D01*
X105306858Y-90892381D01*
X105402096Y-90940000D01*
X105449715Y-90987619D01*
X105497334Y-91082857D01*
X105497334Y-91225714D01*
X105449715Y-91320952D01*
X105402096Y-91368571D01*
X105306858Y-91416190D01*
X104925905Y-91416190D01*
X105830667Y-90892381D02*
X106449715Y-90892381D01*
X106116381Y-91273333D01*
X106259239Y-91273333D01*
X106354477Y-91320952D01*
X106402096Y-91368571D01*
X106449715Y-91463810D01*
X106449715Y-91701905D01*
X106402096Y-91797143D01*
X106354477Y-91844762D01*
X106259239Y-91892381D01*
X105973524Y-91892381D01*
X105878286Y-91844762D01*
X105830667Y-91797143D01*
X71057143Y-89802381D02*
X70723809Y-89326190D01*
X70485714Y-89802381D02*
X70485714Y-88802381D01*
X70866667Y-88802381D01*
X70961905Y-88850000D01*
X71009524Y-88897619D01*
X71057143Y-88992857D01*
X71057143Y-89135714D01*
X71009524Y-89230952D01*
X70961905Y-89278571D01*
X70866667Y-89326190D01*
X70485714Y-89326190D01*
X72009524Y-89802381D02*
X71438095Y-89802381D01*
X71723809Y-89802381D02*
X71723809Y-88802381D01*
X71628571Y-88945238D01*
X71533333Y-89040476D01*
X71438095Y-89088095D01*
X72628571Y-88802381D02*
X72723810Y-88802381D01*
X72819048Y-88850000D01*
X72866667Y-88897619D01*
X72914286Y-88992857D01*
X72961905Y-89183333D01*
X72961905Y-89421429D01*
X72914286Y-89611905D01*
X72866667Y-89707143D01*
X72819048Y-89754762D01*
X72723810Y-89802381D01*
X72628571Y-89802381D01*
X72533333Y-89754762D01*
X72485714Y-89707143D01*
X72438095Y-89611905D01*
X72390476Y-89421429D01*
X72390476Y-89183333D01*
X72438095Y-88992857D01*
X72485714Y-88897619D01*
X72533333Y-88850000D01*
X72628571Y-88802381D01*
X108029334Y-97971143D02*
X107981715Y-98018762D01*
X107838858Y-98066381D01*
X107743620Y-98066381D01*
X107600762Y-98018762D01*
X107505524Y-97923524D01*
X107457905Y-97828286D01*
X107410286Y-97637810D01*
X107410286Y-97494952D01*
X107457905Y-97304476D01*
X107505524Y-97209238D01*
X107600762Y-97114000D01*
X107743620Y-97066381D01*
X107838858Y-97066381D01*
X107981715Y-97114000D01*
X108029334Y-97161619D01*
X108981715Y-98066381D02*
X108410286Y-98066381D01*
X108696000Y-98066381D02*
X108696000Y-97066381D01*
X108600762Y-97209238D01*
X108505524Y-97304476D01*
X108410286Y-97352095D01*
X93607143Y-96041666D02*
X93654762Y-96089285D01*
X93702381Y-96232142D01*
X93702381Y-96327380D01*
X93654762Y-96470238D01*
X93559524Y-96565476D01*
X93464286Y-96613095D01*
X93273810Y-96660714D01*
X93130952Y-96660714D01*
X92940476Y-96613095D01*
X92845238Y-96565476D01*
X92750000Y-96470238D01*
X92702381Y-96327380D01*
X92702381Y-96232142D01*
X92750000Y-96089285D01*
X92797619Y-96041666D01*
X92702381Y-95708333D02*
X92702381Y-95089285D01*
X93083333Y-95422619D01*
X93083333Y-95279761D01*
X93130952Y-95184523D01*
X93178571Y-95136904D01*
X93273810Y-95089285D01*
X93511905Y-95089285D01*
X93607143Y-95136904D01*
X93654762Y-95184523D01*
X93702381Y-95279761D01*
X93702381Y-95565476D01*
X93654762Y-95660714D01*
X93607143Y-95708333D01*
X86133334Y-82757143D02*
X86085715Y-82804762D01*
X85942858Y-82852381D01*
X85847620Y-82852381D01*
X85704762Y-82804762D01*
X85609524Y-82709524D01*
X85561905Y-82614286D01*
X85514286Y-82423810D01*
X85514286Y-82280952D01*
X85561905Y-82090476D01*
X85609524Y-81995238D01*
X85704762Y-81900000D01*
X85847620Y-81852381D01*
X85942858Y-81852381D01*
X86085715Y-81900000D01*
X86133334Y-81947619D01*
X87038096Y-81852381D02*
X86561905Y-81852381D01*
X86514286Y-82328571D01*
X86561905Y-82280952D01*
X86657143Y-82233333D01*
X86895239Y-82233333D01*
X86990477Y-82280952D01*
X87038096Y-82328571D01*
X87085715Y-82423810D01*
X87085715Y-82661905D01*
X87038096Y-82757143D01*
X86990477Y-82804762D01*
X86895239Y-82852381D01*
X86657143Y-82852381D01*
X86561905Y-82804762D01*
X86514286Y-82757143D01*
X71983334Y-87557143D02*
X71935715Y-87604762D01*
X71792858Y-87652381D01*
X71697620Y-87652381D01*
X71554762Y-87604762D01*
X71459524Y-87509524D01*
X71411905Y-87414286D01*
X71364286Y-87223810D01*
X71364286Y-87080952D01*
X71411905Y-86890476D01*
X71459524Y-86795238D01*
X71554762Y-86700000D01*
X71697620Y-86652381D01*
X71792858Y-86652381D01*
X71935715Y-86700000D01*
X71983334Y-86747619D01*
X72840477Y-86652381D02*
X72650000Y-86652381D01*
X72554762Y-86700000D01*
X72507143Y-86747619D01*
X72411905Y-86890476D01*
X72364286Y-87080952D01*
X72364286Y-87461905D01*
X72411905Y-87557143D01*
X72459524Y-87604762D01*
X72554762Y-87652381D01*
X72745239Y-87652381D01*
X72840477Y-87604762D01*
X72888096Y-87557143D01*
X72935715Y-87461905D01*
X72935715Y-87223810D01*
X72888096Y-87128571D01*
X72840477Y-87080952D01*
X72745239Y-87033333D01*
X72554762Y-87033333D01*
X72459524Y-87080952D01*
X72411905Y-87128571D01*
X72364286Y-87223810D01*
X72479334Y-84989143D02*
X72431715Y-85036762D01*
X72288858Y-85084381D01*
X72193620Y-85084381D01*
X72050762Y-85036762D01*
X71955524Y-84941524D01*
X71907905Y-84846286D01*
X71860286Y-84655810D01*
X71860286Y-84512952D01*
X71907905Y-84322476D01*
X71955524Y-84227238D01*
X72050762Y-84132000D01*
X72193620Y-84084381D01*
X72288858Y-84084381D01*
X72431715Y-84132000D01*
X72479334Y-84179619D01*
X72955524Y-85084381D02*
X73146000Y-85084381D01*
X73241239Y-85036762D01*
X73288858Y-84989143D01*
X73384096Y-84846286D01*
X73431715Y-84655810D01*
X73431715Y-84274857D01*
X73384096Y-84179619D01*
X73336477Y-84132000D01*
X73241239Y-84084381D01*
X73050762Y-84084381D01*
X72955524Y-84132000D01*
X72907905Y-84179619D01*
X72860286Y-84274857D01*
X72860286Y-84512952D01*
X72907905Y-84608190D01*
X72955524Y-84655810D01*
X73050762Y-84703429D01*
X73241239Y-84703429D01*
X73336477Y-84655810D01*
X73384096Y-84608190D01*
X73431715Y-84512952D01*
X98131334Y-106116381D02*
X97798000Y-105640190D01*
X97559905Y-106116381D02*
X97559905Y-105116381D01*
X97940858Y-105116381D01*
X98036096Y-105164000D01*
X98083715Y-105211619D01*
X98131334Y-105306857D01*
X98131334Y-105449714D01*
X98083715Y-105544952D01*
X98036096Y-105592571D01*
X97940858Y-105640190D01*
X97559905Y-105640190D01*
X98512286Y-105211619D02*
X98559905Y-105164000D01*
X98655143Y-105116381D01*
X98893239Y-105116381D01*
X98988477Y-105164000D01*
X99036096Y-105211619D01*
X99083715Y-105306857D01*
X99083715Y-105402095D01*
X99036096Y-105544952D01*
X98464667Y-106116381D01*
X99083715Y-106116381D01*
X99702381Y-98041666D02*
X99226190Y-98375000D01*
X99702381Y-98613095D02*
X98702381Y-98613095D01*
X98702381Y-98232142D01*
X98750000Y-98136904D01*
X98797619Y-98089285D01*
X98892857Y-98041666D01*
X99035714Y-98041666D01*
X99130952Y-98089285D01*
X99178571Y-98136904D01*
X99226190Y-98232142D01*
X99226190Y-98613095D01*
X99035714Y-97184523D02*
X99702381Y-97184523D01*
X98654762Y-97422619D02*
X99369048Y-97660714D01*
X99369048Y-97041666D01*
X79033334Y-93552381D02*
X78700000Y-93076190D01*
X78461905Y-93552381D02*
X78461905Y-92552381D01*
X78842858Y-92552381D01*
X78938096Y-92600000D01*
X78985715Y-92647619D01*
X79033334Y-92742857D01*
X79033334Y-92885714D01*
X78985715Y-92980952D01*
X78938096Y-93028571D01*
X78842858Y-93076190D01*
X78461905Y-93076190D01*
X79938096Y-92552381D02*
X79461905Y-92552381D01*
X79414286Y-93028571D01*
X79461905Y-92980952D01*
X79557143Y-92933333D01*
X79795239Y-92933333D01*
X79890477Y-92980952D01*
X79938096Y-93028571D01*
X79985715Y-93123810D01*
X79985715Y-93361905D01*
X79938096Y-93457143D01*
X79890477Y-93504762D01*
X79795239Y-93552381D01*
X79557143Y-93552381D01*
X79461905Y-93504762D01*
X79414286Y-93457143D01*
X88336381Y-92368666D02*
X87860190Y-92702000D01*
X88336381Y-92940095D02*
X87336381Y-92940095D01*
X87336381Y-92559142D01*
X87384000Y-92463904D01*
X87431619Y-92416285D01*
X87526857Y-92368666D01*
X87669714Y-92368666D01*
X87764952Y-92416285D01*
X87812571Y-92463904D01*
X87860190Y-92559142D01*
X87860190Y-92940095D01*
X87336381Y-91511523D02*
X87336381Y-91702000D01*
X87384000Y-91797238D01*
X87431619Y-91844857D01*
X87574476Y-91940095D01*
X87764952Y-91987714D01*
X88145905Y-91987714D01*
X88241143Y-91940095D01*
X88288762Y-91892476D01*
X88336381Y-91797238D01*
X88336381Y-91606761D01*
X88288762Y-91511523D01*
X88241143Y-91463904D01*
X88145905Y-91416285D01*
X87907810Y-91416285D01*
X87812571Y-91463904D01*
X87764952Y-91511523D01*
X87717333Y-91606761D01*
X87717333Y-91797238D01*
X87764952Y-91892476D01*
X87812571Y-91940095D01*
X87907810Y-91987714D01*
X88332381Y-90366666D02*
X87856190Y-90700000D01*
X88332381Y-90938095D02*
X87332381Y-90938095D01*
X87332381Y-90557142D01*
X87380000Y-90461904D01*
X87427619Y-90414285D01*
X87522857Y-90366666D01*
X87665714Y-90366666D01*
X87760952Y-90414285D01*
X87808571Y-90461904D01*
X87856190Y-90557142D01*
X87856190Y-90938095D01*
X88332381Y-89890476D02*
X88332381Y-89700000D01*
X88284762Y-89604761D01*
X88237143Y-89557142D01*
X88094286Y-89461904D01*
X87903810Y-89414285D01*
X87522857Y-89414285D01*
X87427619Y-89461904D01*
X87380000Y-89509523D01*
X87332381Y-89604761D01*
X87332381Y-89795238D01*
X87380000Y-89890476D01*
X87427619Y-89938095D01*
X87522857Y-89985714D01*
X87760952Y-89985714D01*
X87856190Y-89938095D01*
X87903810Y-89890476D01*
X87951429Y-89795238D01*
X87951429Y-89604761D01*
X87903810Y-89509523D01*
X87856190Y-89461904D01*
X87760952Y-89414285D01*
X68057143Y-97702381D02*
X67723809Y-97226190D01*
X67485714Y-97702381D02*
X67485714Y-96702381D01*
X67866667Y-96702381D01*
X67961905Y-96750000D01*
X68009524Y-96797619D01*
X68057143Y-96892857D01*
X68057143Y-97035714D01*
X68009524Y-97130952D01*
X67961905Y-97178571D01*
X67866667Y-97226190D01*
X67485714Y-97226190D01*
X69009524Y-97702381D02*
X68438095Y-97702381D01*
X68723809Y-97702381D02*
X68723809Y-96702381D01*
X68628571Y-96845238D01*
X68533333Y-96940476D01*
X68438095Y-96988095D01*
X69866667Y-97035714D02*
X69866667Y-97702381D01*
X69628571Y-96654762D02*
X69390476Y-97369048D01*
X70009524Y-97369048D01*
X64361905Y-96152381D02*
X64361905Y-95152381D01*
X64600000Y-95152381D01*
X64742858Y-95200000D01*
X64838096Y-95295238D01*
X64885715Y-95390476D01*
X64933334Y-95580952D01*
X64933334Y-95723810D01*
X64885715Y-95914286D01*
X64838096Y-96009524D01*
X64742858Y-96104762D01*
X64600000Y-96152381D01*
X64361905Y-96152381D01*
X65790477Y-95152381D02*
X65600000Y-95152381D01*
X65504762Y-95200000D01*
X65457143Y-95247619D01*
X65361905Y-95390476D01*
X65314286Y-95580952D01*
X65314286Y-95961905D01*
X65361905Y-96057143D01*
X65409524Y-96104762D01*
X65504762Y-96152381D01*
X65695239Y-96152381D01*
X65790477Y-96104762D01*
X65838096Y-96057143D01*
X65885715Y-95961905D01*
X65885715Y-95723810D01*
X65838096Y-95628571D01*
X65790477Y-95580952D01*
X65695239Y-95533333D01*
X65504762Y-95533333D01*
X65409524Y-95580952D01*
X65361905Y-95628571D01*
X65314286Y-95723810D01*
X100283334Y-105882143D02*
X100235715Y-105929762D01*
X100092858Y-105977381D01*
X99997620Y-105977381D01*
X99854762Y-105929762D01*
X99759524Y-105834524D01*
X99711905Y-105739286D01*
X99664286Y-105548810D01*
X99664286Y-105405952D01*
X99711905Y-105215476D01*
X99759524Y-105120238D01*
X99854762Y-105025000D01*
X99997620Y-104977381D01*
X100092858Y-104977381D01*
X100235715Y-105025000D01*
X100283334Y-105072619D01*
X100664286Y-105072619D02*
X100711905Y-105025000D01*
X100807143Y-104977381D01*
X101045239Y-104977381D01*
X101140477Y-105025000D01*
X101188096Y-105072619D01*
X101235715Y-105167857D01*
X101235715Y-105263095D01*
X101188096Y-105405952D01*
X100616667Y-105977381D01*
X101235715Y-105977381D01*
X107353334Y-88287143D02*
X107305715Y-88334762D01*
X107162858Y-88382381D01*
X107067620Y-88382381D01*
X106924762Y-88334762D01*
X106829524Y-88239524D01*
X106781905Y-88144286D01*
X106734286Y-87953810D01*
X106734286Y-87810952D01*
X106781905Y-87620476D01*
X106829524Y-87525238D01*
X106924762Y-87430000D01*
X107067620Y-87382381D01*
X107162858Y-87382381D01*
X107305715Y-87430000D01*
X107353334Y-87477619D01*
X108210477Y-87715714D02*
X108210477Y-88382381D01*
X107972381Y-87334762D02*
X107734286Y-88049048D01*
X108353334Y-88049048D01*
X107798381Y-95228857D02*
X107322190Y-95562191D01*
X107798381Y-95800286D02*
X106798381Y-95800286D01*
X106798381Y-95419333D01*
X106846000Y-95324095D01*
X106893619Y-95276476D01*
X106988857Y-95228857D01*
X107131714Y-95228857D01*
X107226952Y-95276476D01*
X107274571Y-95324095D01*
X107322190Y-95419333D01*
X107322190Y-95800286D01*
X107798381Y-94276476D02*
X107798381Y-94847905D01*
X107798381Y-94562191D02*
X106798381Y-94562191D01*
X106941238Y-94657429D01*
X107036476Y-94752667D01*
X107084095Y-94847905D01*
X107798381Y-93324095D02*
X107798381Y-93895524D01*
X107798381Y-93609810D02*
X106798381Y-93609810D01*
X106941238Y-93705048D01*
X107036476Y-93800286D01*
X107084095Y-93895524D01*
X83257143Y-82952381D02*
X82923809Y-82476190D01*
X82685714Y-82952381D02*
X82685714Y-81952381D01*
X83066667Y-81952381D01*
X83161905Y-82000000D01*
X83209524Y-82047619D01*
X83257143Y-82142857D01*
X83257143Y-82285714D01*
X83209524Y-82380952D01*
X83161905Y-82428571D01*
X83066667Y-82476190D01*
X82685714Y-82476190D01*
X84209524Y-82952381D02*
X83638095Y-82952381D01*
X83923809Y-82952381D02*
X83923809Y-81952381D01*
X83828571Y-82095238D01*
X83733333Y-82190476D01*
X83638095Y-82238095D01*
X84590476Y-82047619D02*
X84638095Y-82000000D01*
X84733333Y-81952381D01*
X84971429Y-81952381D01*
X85066667Y-82000000D01*
X85114286Y-82047619D01*
X85161905Y-82142857D01*
X85161905Y-82238095D01*
X85114286Y-82380952D01*
X84542857Y-82952381D01*
X85161905Y-82952381D01*
X100947619Y-93820238D02*
X100900000Y-93915476D01*
X100804762Y-94010714D01*
X100661905Y-94153571D01*
X100614286Y-94248810D01*
X100614286Y-94344048D01*
X100852381Y-94296429D02*
X100804762Y-94391667D01*
X100709524Y-94486905D01*
X100519048Y-94534524D01*
X100185714Y-94534524D01*
X99995238Y-94486905D01*
X99900000Y-94391667D01*
X99852381Y-94296429D01*
X99852381Y-94105952D01*
X99900000Y-94010714D01*
X99995238Y-93915476D01*
X100185714Y-93867857D01*
X100519048Y-93867857D01*
X100709524Y-93915476D01*
X100804762Y-94010714D01*
X100852381Y-94105952D01*
X100852381Y-94296429D01*
X100852381Y-92915476D02*
X100852381Y-93486905D01*
X100852381Y-93201191D02*
X99852381Y-93201191D01*
X99995238Y-93296429D01*
X100090476Y-93391667D01*
X100138095Y-93486905D01*
X100687619Y-84115238D02*
X100640000Y-84210476D01*
X100544762Y-84305714D01*
X100401905Y-84448571D01*
X100354286Y-84543810D01*
X100354286Y-84639048D01*
X100592381Y-84591429D02*
X100544762Y-84686667D01*
X100449524Y-84781905D01*
X100259048Y-84829524D01*
X99925714Y-84829524D01*
X99735238Y-84781905D01*
X99640000Y-84686667D01*
X99592381Y-84591429D01*
X99592381Y-84400952D01*
X99640000Y-84305714D01*
X99735238Y-84210476D01*
X99925714Y-84162857D01*
X100259048Y-84162857D01*
X100449524Y-84210476D01*
X100544762Y-84305714D01*
X100592381Y-84400952D01*
X100592381Y-84591429D01*
X99687619Y-83781905D02*
X99640000Y-83734286D01*
X99592381Y-83639048D01*
X99592381Y-83400952D01*
X99640000Y-83305714D01*
X99687619Y-83258095D01*
X99782857Y-83210476D01*
X99878095Y-83210476D01*
X100020952Y-83258095D01*
X100592381Y-83829524D01*
X100592381Y-83210476D01*
X79297619Y-83695238D02*
X79250000Y-83790476D01*
X79154762Y-83885714D01*
X79011905Y-84028571D01*
X78964286Y-84123810D01*
X78964286Y-84219048D01*
X79202381Y-84171429D02*
X79154762Y-84266667D01*
X79059524Y-84361905D01*
X78869048Y-84409524D01*
X78535714Y-84409524D01*
X78345238Y-84361905D01*
X78250000Y-84266667D01*
X78202381Y-84171429D01*
X78202381Y-83980952D01*
X78250000Y-83885714D01*
X78345238Y-83790476D01*
X78535714Y-83742857D01*
X78869048Y-83742857D01*
X79059524Y-83790476D01*
X79154762Y-83885714D01*
X79202381Y-83980952D01*
X79202381Y-84171429D01*
X78202381Y-83409524D02*
X78202381Y-82790476D01*
X78583333Y-83123810D01*
X78583333Y-82980952D01*
X78630952Y-82885714D01*
X78678571Y-82838095D01*
X78773810Y-82790476D01*
X79011905Y-82790476D01*
X79107143Y-82838095D01*
X79154762Y-82885714D01*
X79202381Y-82980952D01*
X79202381Y-83266667D01*
X79154762Y-83361905D01*
X79107143Y-83409524D01*
X69012381Y-85984523D02*
X69726667Y-85984523D01*
X69869524Y-86032143D01*
X69964762Y-86127381D01*
X70012381Y-86270238D01*
X70012381Y-86365476D01*
X69107619Y-85555952D02*
X69060000Y-85508333D01*
X69012381Y-85413095D01*
X69012381Y-85174999D01*
X69060000Y-85079761D01*
X69107619Y-85032142D01*
X69202857Y-84984523D01*
X69298095Y-84984523D01*
X69440952Y-85032142D01*
X70012381Y-85603571D01*
X70012381Y-84984523D01*
X69012381Y-84079761D02*
X69012381Y-84555952D01*
X69488571Y-84603571D01*
X69440952Y-84555952D01*
X69393333Y-84460714D01*
X69393333Y-84222618D01*
X69440952Y-84127380D01*
X69488571Y-84079761D01*
X69583810Y-84032142D01*
X69821905Y-84032142D01*
X69917143Y-84079761D01*
X69964762Y-84127380D01*
X70012381Y-84222618D01*
X70012381Y-84460714D01*
X69964762Y-84555952D01*
X69917143Y-84603571D01*
X99452381Y-89442857D02*
X98976190Y-89776191D01*
X99452381Y-90014286D02*
X98452381Y-90014286D01*
X98452381Y-89633333D01*
X98500000Y-89538095D01*
X98547619Y-89490476D01*
X98642857Y-89442857D01*
X98785714Y-89442857D01*
X98880952Y-89490476D01*
X98928571Y-89538095D01*
X98976190Y-89633333D01*
X98976190Y-90014286D01*
X99452381Y-88490476D02*
X99452381Y-89061905D01*
X99452381Y-88776191D02*
X98452381Y-88776191D01*
X98595238Y-88871429D01*
X98690476Y-88966667D01*
X98738095Y-89061905D01*
X98452381Y-88157143D02*
X98452381Y-87538095D01*
X98833333Y-87871429D01*
X98833333Y-87728571D01*
X98880952Y-87633333D01*
X98928571Y-87585714D01*
X99023810Y-87538095D01*
X99261905Y-87538095D01*
X99357143Y-87585714D01*
X99404762Y-87633333D01*
X99452381Y-87728571D01*
X99452381Y-88014286D01*
X99404762Y-88109524D01*
X99357143Y-88157143D01*
X99262143Y-81911666D02*
X99309762Y-81959285D01*
X99357381Y-82102142D01*
X99357381Y-82197380D01*
X99309762Y-82340238D01*
X99214524Y-82435476D01*
X99119286Y-82483095D01*
X98928810Y-82530714D01*
X98785952Y-82530714D01*
X98595476Y-82483095D01*
X98500238Y-82435476D01*
X98405000Y-82340238D01*
X98357381Y-82197380D01*
X98357381Y-82102142D01*
X98405000Y-81959285D01*
X98452619Y-81911666D01*
X98357381Y-81578333D02*
X98357381Y-80911666D01*
X99357381Y-81340238D01*
X75731619Y-93821238D02*
X75684000Y-93916476D01*
X75588762Y-94011714D01*
X75445905Y-94154571D01*
X75398286Y-94249810D01*
X75398286Y-94345048D01*
X75636381Y-94297429D02*
X75588762Y-94392667D01*
X75493524Y-94487905D01*
X75303048Y-94535524D01*
X74969714Y-94535524D01*
X74779238Y-94487905D01*
X74684000Y-94392667D01*
X74636381Y-94297429D01*
X74636381Y-94106952D01*
X74684000Y-94011714D01*
X74779238Y-93916476D01*
X74969714Y-93868857D01*
X75303048Y-93868857D01*
X75493524Y-93916476D01*
X75588762Y-94011714D01*
X75636381Y-94106952D01*
X75636381Y-94297429D01*
X74969714Y-93011714D02*
X75636381Y-93011714D01*
X74588762Y-93249810D02*
X75303048Y-93487905D01*
X75303048Y-92868857D01*
X88752619Y-94340238D02*
X88705000Y-94435476D01*
X88609762Y-94530714D01*
X88466905Y-94673571D01*
X88419286Y-94768810D01*
X88419286Y-94864048D01*
X88657381Y-94816429D02*
X88609762Y-94911667D01*
X88514524Y-95006905D01*
X88324048Y-95054524D01*
X87990714Y-95054524D01*
X87800238Y-95006905D01*
X87705000Y-94911667D01*
X87657381Y-94816429D01*
X87657381Y-94625952D01*
X87705000Y-94530714D01*
X87800238Y-94435476D01*
X87990714Y-94387857D01*
X88324048Y-94387857D01*
X88514524Y-94435476D01*
X88609762Y-94530714D01*
X88657381Y-94625952D01*
X88657381Y-94816429D01*
X87657381Y-93483095D02*
X87657381Y-93959286D01*
X88133571Y-94006905D01*
X88085952Y-93959286D01*
X88038333Y-93864048D01*
X88038333Y-93625952D01*
X88085952Y-93530714D01*
X88133571Y-93483095D01*
X88228810Y-93435476D01*
X88466905Y-93435476D01*
X88562143Y-93483095D01*
X88609762Y-93530714D01*
X88657381Y-93625952D01*
X88657381Y-93864048D01*
X88609762Y-93959286D01*
X88562143Y-94006905D01*
X84875619Y-99155238D02*
X84828000Y-99250476D01*
X84732762Y-99345714D01*
X84589905Y-99488571D01*
X84542286Y-99583810D01*
X84542286Y-99679048D01*
X84780381Y-99631429D02*
X84732762Y-99726667D01*
X84637524Y-99821905D01*
X84447048Y-99869524D01*
X84113714Y-99869524D01*
X83923238Y-99821905D01*
X83828000Y-99726667D01*
X83780381Y-99631429D01*
X83780381Y-99440952D01*
X83828000Y-99345714D01*
X83923238Y-99250476D01*
X84113714Y-99202857D01*
X84447048Y-99202857D01*
X84637524Y-99250476D01*
X84732762Y-99345714D01*
X84780381Y-99440952D01*
X84780381Y-99631429D01*
X83780381Y-98345714D02*
X83780381Y-98536191D01*
X83828000Y-98631429D01*
X83875619Y-98679048D01*
X84018476Y-98774286D01*
X84208952Y-98821905D01*
X84589905Y-98821905D01*
X84685143Y-98774286D01*
X84732762Y-98726667D01*
X84780381Y-98631429D01*
X84780381Y-98440952D01*
X84732762Y-98345714D01*
X84685143Y-98298095D01*
X84589905Y-98250476D01*
X84351810Y-98250476D01*
X84256571Y-98298095D01*
X84208952Y-98345714D01*
X84161333Y-98440952D01*
X84161333Y-98631429D01*
X84208952Y-98726667D01*
X84256571Y-98774286D01*
X84351810Y-98821905D01*
X88737619Y-82745238D02*
X88690000Y-82840476D01*
X88594762Y-82935714D01*
X88451905Y-83078571D01*
X88404286Y-83173810D01*
X88404286Y-83269048D01*
X88642381Y-83221429D02*
X88594762Y-83316667D01*
X88499524Y-83411905D01*
X88309048Y-83459524D01*
X87975714Y-83459524D01*
X87785238Y-83411905D01*
X87690000Y-83316667D01*
X87642381Y-83221429D01*
X87642381Y-83030952D01*
X87690000Y-82935714D01*
X87785238Y-82840476D01*
X87975714Y-82792857D01*
X88309048Y-82792857D01*
X88499524Y-82840476D01*
X88594762Y-82935714D01*
X88642381Y-83030952D01*
X88642381Y-83221429D01*
X87642381Y-82459524D02*
X87642381Y-81792857D01*
X88642381Y-82221429D01*
X107512381Y-85026666D02*
X107036190Y-85360000D01*
X107512381Y-85598095D02*
X106512381Y-85598095D01*
X106512381Y-85217142D01*
X106560000Y-85121904D01*
X106607619Y-85074285D01*
X106702857Y-85026666D01*
X106845714Y-85026666D01*
X106940952Y-85074285D01*
X106988571Y-85121904D01*
X107036190Y-85217142D01*
X107036190Y-85598095D01*
X107512381Y-84074285D02*
X107512381Y-84645714D01*
X107512381Y-84360000D02*
X106512381Y-84360000D01*
X106655238Y-84455238D01*
X106750476Y-84550476D01*
X106798095Y-84645714D01*
X86163334Y-95112381D02*
X85830000Y-94636190D01*
X85591905Y-95112381D02*
X85591905Y-94112381D01*
X85972858Y-94112381D01*
X86068096Y-94160000D01*
X86115715Y-94207619D01*
X86163334Y-94302857D01*
X86163334Y-94445714D01*
X86115715Y-94540952D01*
X86068096Y-94588571D01*
X85972858Y-94636190D01*
X85591905Y-94636190D01*
X86496667Y-94112381D02*
X87163334Y-94112381D01*
X86734762Y-95112381D01*
X86113334Y-88742381D02*
X85780000Y-88266190D01*
X85541905Y-88742381D02*
X85541905Y-87742381D01*
X85922858Y-87742381D01*
X86018096Y-87790000D01*
X86065715Y-87837619D01*
X86113334Y-87932857D01*
X86113334Y-88075714D01*
X86065715Y-88170952D01*
X86018096Y-88218571D01*
X85922858Y-88266190D01*
X85541905Y-88266190D01*
X86684762Y-88170952D02*
X86589524Y-88123333D01*
X86541905Y-88075714D01*
X86494286Y-87980476D01*
X86494286Y-87932857D01*
X86541905Y-87837619D01*
X86589524Y-87790000D01*
X86684762Y-87742381D01*
X86875239Y-87742381D01*
X86970477Y-87790000D01*
X87018096Y-87837619D01*
X87065715Y-87932857D01*
X87065715Y-87980476D01*
X87018096Y-88075714D01*
X86970477Y-88123333D01*
X86875239Y-88170952D01*
X86684762Y-88170952D01*
X86589524Y-88218571D01*
X86541905Y-88266190D01*
X86494286Y-88361429D01*
X86494286Y-88551905D01*
X86541905Y-88647143D01*
X86589524Y-88694762D01*
X86684762Y-88742381D01*
X86875239Y-88742381D01*
X86970477Y-88694762D01*
X87018096Y-88647143D01*
X87065715Y-88551905D01*
X87065715Y-88361429D01*
X87018096Y-88266190D01*
X86970477Y-88218571D01*
X86875239Y-88170952D01*
X71007143Y-91757143D02*
X70959524Y-91804762D01*
X70816667Y-91852381D01*
X70721429Y-91852381D01*
X70578571Y-91804762D01*
X70483333Y-91709524D01*
X70435714Y-91614286D01*
X70388095Y-91423810D01*
X70388095Y-91280952D01*
X70435714Y-91090476D01*
X70483333Y-90995238D01*
X70578571Y-90900000D01*
X70721429Y-90852381D01*
X70816667Y-90852381D01*
X70959524Y-90900000D01*
X71007143Y-90947619D01*
X71959524Y-91852381D02*
X71388095Y-91852381D01*
X71673809Y-91852381D02*
X71673809Y-90852381D01*
X71578571Y-90995238D01*
X71483333Y-91090476D01*
X71388095Y-91138095D01*
X72578571Y-90852381D02*
X72673810Y-90852381D01*
X72769048Y-90900000D01*
X72816667Y-90947619D01*
X72864286Y-91042857D01*
X72911905Y-91233333D01*
X72911905Y-91471429D01*
X72864286Y-91661905D01*
X72816667Y-91757143D01*
X72769048Y-91804762D01*
X72673810Y-91852381D01*
X72578571Y-91852381D01*
X72483333Y-91804762D01*
X72435714Y-91757143D01*
X72388095Y-91661905D01*
X72340476Y-91471429D01*
X72340476Y-91233333D01*
X72388095Y-91042857D01*
X72435714Y-90947619D01*
X72483333Y-90900000D01*
X72578571Y-90852381D01*
X71857143Y-97642857D02*
X71904762Y-97690476D01*
X71952381Y-97833333D01*
X71952381Y-97928571D01*
X71904762Y-98071429D01*
X71809524Y-98166667D01*
X71714286Y-98214286D01*
X71523810Y-98261905D01*
X71380952Y-98261905D01*
X71190476Y-98214286D01*
X71095238Y-98166667D01*
X71000000Y-98071429D01*
X70952381Y-97928571D01*
X70952381Y-97833333D01*
X71000000Y-97690476D01*
X71047619Y-97642857D01*
X71952381Y-96690476D02*
X71952381Y-97261905D01*
X71952381Y-96976191D02*
X70952381Y-96976191D01*
X71095238Y-97071429D01*
X71190476Y-97166667D01*
X71238095Y-97261905D01*
X70952381Y-95833333D02*
X70952381Y-96023810D01*
X71000000Y-96119048D01*
X71047619Y-96166667D01*
X71190476Y-96261905D01*
X71380952Y-96309524D01*
X71761905Y-96309524D01*
X71857143Y-96261905D01*
X71904762Y-96214286D01*
X71952381Y-96119048D01*
X71952381Y-95928571D01*
X71904762Y-95833333D01*
X71857143Y-95785714D01*
X71761905Y-95738095D01*
X71523810Y-95738095D01*
X71428571Y-95785714D01*
X71380952Y-95833333D01*
X71333333Y-95928571D01*
X71333333Y-96119048D01*
X71380952Y-96214286D01*
X71428571Y-96261905D01*
X71523810Y-96309524D01*
X102257143Y-106002381D02*
X101923809Y-105526190D01*
X101685714Y-106002381D02*
X101685714Y-105002381D01*
X102066667Y-105002381D01*
X102161905Y-105050000D01*
X102209524Y-105097619D01*
X102257143Y-105192857D01*
X102257143Y-105335714D01*
X102209524Y-105430952D01*
X102161905Y-105478571D01*
X102066667Y-105526190D01*
X101685714Y-105526190D01*
X103209524Y-106002381D02*
X102638095Y-106002381D01*
X102923809Y-106002381D02*
X102923809Y-105002381D01*
X102828571Y-105145238D01*
X102733333Y-105240476D01*
X102638095Y-105288095D01*
X104114286Y-105002381D02*
X103638095Y-105002381D01*
X103590476Y-105478571D01*
X103638095Y-105430952D01*
X103733333Y-105383333D01*
X103971429Y-105383333D01*
X104066667Y-105430952D01*
X104114286Y-105478571D01*
X104161905Y-105573810D01*
X104161905Y-105811905D01*
X104114286Y-105907143D01*
X104066667Y-105954762D01*
X103971429Y-106002381D01*
X103733333Y-106002381D01*
X103638095Y-105954762D01*
X103590476Y-105907143D01*
X97457143Y-80222381D02*
X97123809Y-79746190D01*
X96885714Y-80222381D02*
X96885714Y-79222381D01*
X97266667Y-79222381D01*
X97361905Y-79270000D01*
X97409524Y-79317619D01*
X97457143Y-79412857D01*
X97457143Y-79555714D01*
X97409524Y-79650952D01*
X97361905Y-79698571D01*
X97266667Y-79746190D01*
X96885714Y-79746190D01*
X98409524Y-80222381D02*
X97838095Y-80222381D01*
X98123809Y-80222381D02*
X98123809Y-79222381D01*
X98028571Y-79365238D01*
X97933333Y-79460476D01*
X97838095Y-79508095D01*
X99266667Y-79222381D02*
X99076190Y-79222381D01*
X98980952Y-79270000D01*
X98933333Y-79317619D01*
X98838095Y-79460476D01*
X98790476Y-79650952D01*
X98790476Y-80031905D01*
X98838095Y-80127143D01*
X98885714Y-80174762D01*
X98980952Y-80222381D01*
X99171429Y-80222381D01*
X99266667Y-80174762D01*
X99314286Y-80127143D01*
X99361905Y-80031905D01*
X99361905Y-79793810D01*
X99314286Y-79698571D01*
X99266667Y-79650952D01*
X99171429Y-79603333D01*
X98980952Y-79603333D01*
X98885714Y-79650952D01*
X98838095Y-79698571D01*
X98790476Y-79793810D01*
X70152381Y-91817857D02*
X69676190Y-92151191D01*
X70152381Y-92389286D02*
X69152381Y-92389286D01*
X69152381Y-92008333D01*
X69200000Y-91913095D01*
X69247619Y-91865476D01*
X69342857Y-91817857D01*
X69485714Y-91817857D01*
X69580952Y-91865476D01*
X69628571Y-91913095D01*
X69676190Y-92008333D01*
X69676190Y-92389286D01*
X70152381Y-90865476D02*
X70152381Y-91436905D01*
X70152381Y-91151191D02*
X69152381Y-91151191D01*
X69295238Y-91246429D01*
X69390476Y-91341667D01*
X69438095Y-91436905D01*
X69152381Y-90532143D02*
X69152381Y-89865476D01*
X70152381Y-90294048D01*
X93502381Y-85692857D02*
X93026190Y-86026191D01*
X93502381Y-86264286D02*
X92502381Y-86264286D01*
X92502381Y-85883333D01*
X92550000Y-85788095D01*
X92597619Y-85740476D01*
X92692857Y-85692857D01*
X92835714Y-85692857D01*
X92930952Y-85740476D01*
X92978571Y-85788095D01*
X93026190Y-85883333D01*
X93026190Y-86264286D01*
X93502381Y-84740476D02*
X93502381Y-85311905D01*
X93502381Y-85026191D02*
X92502381Y-85026191D01*
X92645238Y-85121429D01*
X92740476Y-85216667D01*
X92788095Y-85311905D01*
X92930952Y-84169048D02*
X92883333Y-84264286D01*
X92835714Y-84311905D01*
X92740476Y-84359524D01*
X92692857Y-84359524D01*
X92597619Y-84311905D01*
X92550000Y-84264286D01*
X92502381Y-84169048D01*
X92502381Y-83978571D01*
X92550000Y-83883333D01*
X92597619Y-83835714D01*
X92692857Y-83788095D01*
X92740476Y-83788095D01*
X92835714Y-83835714D01*
X92883333Y-83883333D01*
X92930952Y-83978571D01*
X92930952Y-84169048D01*
X92978571Y-84264286D01*
X93026190Y-84311905D01*
X93121429Y-84359524D01*
X93311905Y-84359524D01*
X93407143Y-84311905D01*
X93454762Y-84264286D01*
X93502381Y-84169048D01*
X93502381Y-83978571D01*
X93454762Y-83883333D01*
X93407143Y-83835714D01*
X93311905Y-83788095D01*
X93121429Y-83788095D01*
X93026190Y-83835714D01*
X92978571Y-83883333D01*
X92930952Y-83978571D01*
X71503143Y-83052381D02*
X71169809Y-82576190D01*
X70931714Y-83052381D02*
X70931714Y-82052381D01*
X71312667Y-82052381D01*
X71407905Y-82100000D01*
X71455524Y-82147619D01*
X71503143Y-82242857D01*
X71503143Y-82385714D01*
X71455524Y-82480952D01*
X71407905Y-82528571D01*
X71312667Y-82576190D01*
X70931714Y-82576190D01*
X72455524Y-83052381D02*
X71884095Y-83052381D01*
X72169809Y-83052381D02*
X72169809Y-82052381D01*
X72074571Y-82195238D01*
X71979333Y-82290476D01*
X71884095Y-82338095D01*
X72931714Y-83052381D02*
X73122190Y-83052381D01*
X73217429Y-83004762D01*
X73265048Y-82957143D01*
X73360286Y-82814286D01*
X73407905Y-82623810D01*
X73407905Y-82242857D01*
X73360286Y-82147619D01*
X73312667Y-82100000D01*
X73217429Y-82052381D01*
X73026952Y-82052381D01*
X72931714Y-82100000D01*
X72884095Y-82147619D01*
X72836476Y-82242857D01*
X72836476Y-82480952D01*
X72884095Y-82576190D01*
X72931714Y-82623810D01*
X73026952Y-82671429D01*
X73217429Y-82671429D01*
X73312667Y-82623810D01*
X73360286Y-82576190D01*
X73407905Y-82480952D01*
X99357143Y-92092857D02*
X99404762Y-92140476D01*
X99452381Y-92283333D01*
X99452381Y-92378571D01*
X99404762Y-92521429D01*
X99309524Y-92616667D01*
X99214286Y-92664286D01*
X99023810Y-92711905D01*
X98880952Y-92711905D01*
X98690476Y-92664286D01*
X98595238Y-92616667D01*
X98500000Y-92521429D01*
X98452381Y-92378571D01*
X98452381Y-92283333D01*
X98500000Y-92140476D01*
X98547619Y-92092857D01*
X99452381Y-91140476D02*
X99452381Y-91711905D01*
X99452381Y-91426191D02*
X98452381Y-91426191D01*
X98595238Y-91521429D01*
X98690476Y-91616667D01*
X98738095Y-91711905D01*
X99452381Y-90188095D02*
X99452381Y-90759524D01*
X99452381Y-90473810D02*
X98452381Y-90473810D01*
X98595238Y-90569048D01*
X98690476Y-90664286D01*
X98738095Y-90759524D01*
X99482143Y-94892857D02*
X99529762Y-94940476D01*
X99577381Y-95083333D01*
X99577381Y-95178571D01*
X99529762Y-95321429D01*
X99434524Y-95416667D01*
X99339286Y-95464286D01*
X99148810Y-95511905D01*
X99005952Y-95511905D01*
X98815476Y-95464286D01*
X98720238Y-95416667D01*
X98625000Y-95321429D01*
X98577381Y-95178571D01*
X98577381Y-95083333D01*
X98625000Y-94940476D01*
X98672619Y-94892857D01*
X99577381Y-93940476D02*
X99577381Y-94511905D01*
X99577381Y-94226191D02*
X98577381Y-94226191D01*
X98720238Y-94321429D01*
X98815476Y-94416667D01*
X98863095Y-94511905D01*
X98672619Y-93559524D02*
X98625000Y-93511905D01*
X98577381Y-93416667D01*
X98577381Y-93178571D01*
X98625000Y-93083333D01*
X98672619Y-93035714D01*
X98767857Y-92988095D01*
X98863095Y-92988095D01*
X99005952Y-93035714D01*
X99577381Y-93607143D01*
X99577381Y-92988095D01*
X93702381Y-100692857D02*
X93226190Y-101026191D01*
X93702381Y-101264286D02*
X92702381Y-101264286D01*
X92702381Y-100883333D01*
X92750000Y-100788095D01*
X92797619Y-100740476D01*
X92892857Y-100692857D01*
X93035714Y-100692857D01*
X93130952Y-100740476D01*
X93178571Y-100788095D01*
X93226190Y-100883333D01*
X93226190Y-101264286D01*
X92797619Y-100311905D02*
X92750000Y-100264286D01*
X92702381Y-100169048D01*
X92702381Y-99930952D01*
X92750000Y-99835714D01*
X92797619Y-99788095D01*
X92892857Y-99740476D01*
X92988095Y-99740476D01*
X93130952Y-99788095D01*
X93702381Y-100359524D01*
X93702381Y-99740476D01*
X92797619Y-99359524D02*
X92750000Y-99311905D01*
X92702381Y-99216667D01*
X92702381Y-98978571D01*
X92750000Y-98883333D01*
X92797619Y-98835714D01*
X92892857Y-98788095D01*
X92988095Y-98788095D01*
X93130952Y-98835714D01*
X93702381Y-99407143D01*
X93702381Y-98788095D01*
M02*
