G04 #@! TF.FileFunction,Legend,Bot*
%FSLAX46Y46*%
G04 Gerber Fmt 4.6, Leading zero omitted, Abs format (unit mm)*
G04 Created by KiCad (PCBNEW 4.0.7) date 04/23/20 09:08:39*
%MOMM*%
%LPD*%
G01*
G04 APERTURE LIST*
%ADD10C,0.100000*%
%ADD11C,0.150000*%
G04 APERTURE END LIST*
D10*
D11*
X112611904Y-94650000D02*
X112707142Y-94602381D01*
X112849999Y-94602381D01*
X112992857Y-94650000D01*
X113088095Y-94745238D01*
X113135714Y-94840476D01*
X113183333Y-95030952D01*
X113183333Y-95173810D01*
X113135714Y-95364286D01*
X113088095Y-95459524D01*
X112992857Y-95554762D01*
X112849999Y-95602381D01*
X112754761Y-95602381D01*
X112611904Y-95554762D01*
X112564285Y-95507143D01*
X112564285Y-95173810D01*
X112754761Y-95173810D01*
X112135714Y-95602381D02*
X112135714Y-94602381D01*
X111564285Y-95602381D01*
X111564285Y-94602381D01*
X111088095Y-95602381D02*
X111088095Y-94602381D01*
X110850000Y-94602381D01*
X110707142Y-94650000D01*
X110611904Y-94745238D01*
X110564285Y-94840476D01*
X110516666Y-95030952D01*
X110516666Y-95173810D01*
X110564285Y-95364286D01*
X110611904Y-95459524D01*
X110707142Y-95554762D01*
X110850000Y-95602381D01*
X111088095Y-95602381D01*
X112444047Y-89977381D02*
X112777381Y-89501190D01*
X113015476Y-89977381D02*
X113015476Y-88977381D01*
X112634523Y-88977381D01*
X112539285Y-89025000D01*
X112491666Y-89072619D01*
X112444047Y-89167857D01*
X112444047Y-89310714D01*
X112491666Y-89405952D01*
X112539285Y-89453571D01*
X112634523Y-89501190D01*
X113015476Y-89501190D01*
X111682142Y-89453571D02*
X112015476Y-89453571D01*
X112015476Y-89977381D02*
X112015476Y-88977381D01*
X111539285Y-88977381D01*
X112836904Y-84650000D02*
X112932142Y-84602381D01*
X113074999Y-84602381D01*
X113217857Y-84650000D01*
X113313095Y-84745238D01*
X113360714Y-84840476D01*
X113408333Y-85030952D01*
X113408333Y-85173810D01*
X113360714Y-85364286D01*
X113313095Y-85459524D01*
X113217857Y-85554762D01*
X113074999Y-85602381D01*
X112979761Y-85602381D01*
X112836904Y-85554762D01*
X112789285Y-85507143D01*
X112789285Y-85173810D01*
X112979761Y-85173810D01*
X112360714Y-85602381D02*
X112360714Y-84602381D01*
X111789285Y-85602381D01*
X111789285Y-84602381D01*
X111313095Y-85602381D02*
X111313095Y-84602381D01*
X111075000Y-84602381D01*
X110932142Y-84650000D01*
X110836904Y-84745238D01*
X110789285Y-84840476D01*
X110741666Y-85030952D01*
X110741666Y-85173810D01*
X110789285Y-85364286D01*
X110836904Y-85459524D01*
X110932142Y-85554762D01*
X111075000Y-85602381D01*
X111313095Y-85602381D01*
X112419047Y-99752381D02*
X112752381Y-99276190D01*
X112990476Y-99752381D02*
X112990476Y-98752381D01*
X112609523Y-98752381D01*
X112514285Y-98800000D01*
X112466666Y-98847619D01*
X112419047Y-98942857D01*
X112419047Y-99085714D01*
X112466666Y-99180952D01*
X112514285Y-99228571D01*
X112609523Y-99276190D01*
X112990476Y-99276190D01*
X111657142Y-99228571D02*
X111990476Y-99228571D01*
X111990476Y-99752381D02*
X111990476Y-98752381D01*
X111514285Y-98752381D01*
X68432143Y-104054762D02*
X68289286Y-104102381D01*
X68051190Y-104102381D01*
X67955952Y-104054762D01*
X67908333Y-104007143D01*
X67860714Y-103911905D01*
X67860714Y-103816667D01*
X67908333Y-103721429D01*
X67955952Y-103673810D01*
X68051190Y-103626190D01*
X68241667Y-103578571D01*
X68336905Y-103530952D01*
X68384524Y-103483333D01*
X68432143Y-103388095D01*
X68432143Y-103292857D01*
X68384524Y-103197619D01*
X68336905Y-103150000D01*
X68241667Y-103102381D01*
X68003571Y-103102381D01*
X67860714Y-103150000D01*
X67527381Y-103102381D02*
X67289286Y-104102381D01*
X67098809Y-103388095D01*
X66908333Y-104102381D01*
X66670238Y-103102381D01*
X68257143Y-100004762D02*
X68114286Y-100052381D01*
X67876190Y-100052381D01*
X67780952Y-100004762D01*
X67733333Y-99957143D01*
X67685714Y-99861905D01*
X67685714Y-99766667D01*
X67733333Y-99671429D01*
X67780952Y-99623810D01*
X67876190Y-99576190D01*
X68066667Y-99528571D01*
X68161905Y-99480952D01*
X68209524Y-99433333D01*
X68257143Y-99338095D01*
X68257143Y-99242857D01*
X68209524Y-99147619D01*
X68161905Y-99100000D01*
X68066667Y-99052381D01*
X67828571Y-99052381D01*
X67685714Y-99100000D01*
X67352381Y-99052381D02*
X67114286Y-100052381D01*
X66923809Y-99338095D01*
X66733333Y-100052381D01*
X66495238Y-99052381D01*
X76857142Y-103453571D02*
X76714285Y-103501190D01*
X76666666Y-103548810D01*
X76619047Y-103644048D01*
X76619047Y-103786905D01*
X76666666Y-103882143D01*
X76714285Y-103929762D01*
X76809523Y-103977381D01*
X77190476Y-103977381D01*
X77190476Y-102977381D01*
X76857142Y-102977381D01*
X76761904Y-103025000D01*
X76714285Y-103072619D01*
X76666666Y-103167857D01*
X76666666Y-103263095D01*
X76714285Y-103358333D01*
X76761904Y-103405952D01*
X76857142Y-103453571D01*
X77190476Y-103453571D01*
X76238095Y-103691667D02*
X75761904Y-103691667D01*
X76333333Y-103977381D02*
X76000000Y-102977381D01*
X75666666Y-103977381D01*
X75476190Y-102977381D02*
X74904761Y-102977381D01*
X75190476Y-103977381D02*
X75190476Y-102977381D01*
X74571428Y-103596429D02*
X73809523Y-103596429D01*
X72607142Y-103578571D02*
X72464285Y-103626190D01*
X72416666Y-103673810D01*
X72369047Y-103769048D01*
X72369047Y-103911905D01*
X72416666Y-104007143D01*
X72464285Y-104054762D01*
X72559523Y-104102381D01*
X72940476Y-104102381D01*
X72940476Y-103102381D01*
X72607142Y-103102381D01*
X72511904Y-103150000D01*
X72464285Y-103197619D01*
X72416666Y-103292857D01*
X72416666Y-103388095D01*
X72464285Y-103483333D01*
X72511904Y-103530952D01*
X72607142Y-103578571D01*
X72940476Y-103578571D01*
X71988095Y-103816667D02*
X71511904Y-103816667D01*
X72083333Y-104102381D02*
X71750000Y-103102381D01*
X71416666Y-104102381D01*
X71226190Y-103102381D02*
X70654761Y-103102381D01*
X70940476Y-104102381D02*
X70940476Y-103102381D01*
X70321428Y-103721429D02*
X69559523Y-103721429D01*
X69940475Y-104102381D02*
X69940475Y-103340476D01*
M02*
