G04 #@! TF.FileFunction,Legend,Bot*
%FSLAX46Y46*%
G04 Gerber Fmt 4.6, Leading zero omitted, Abs format (unit mm)*
G04 Created by KiCad (PCBNEW 4.0.7) date 04/21/20 19:12:33*
%MOMM*%
%LPD*%
G01*
G04 APERTURE LIST*
%ADD10C,0.100000*%
%ADD11C,0.150000*%
G04 APERTURE END LIST*
D10*
D11*
X112661904Y-95800000D02*
X112757142Y-95752381D01*
X112899999Y-95752381D01*
X113042857Y-95800000D01*
X113138095Y-95895238D01*
X113185714Y-95990476D01*
X113233333Y-96180952D01*
X113233333Y-96323810D01*
X113185714Y-96514286D01*
X113138095Y-96609524D01*
X113042857Y-96704762D01*
X112899999Y-96752381D01*
X112804761Y-96752381D01*
X112661904Y-96704762D01*
X112614285Y-96657143D01*
X112614285Y-96323810D01*
X112804761Y-96323810D01*
X112185714Y-96752381D02*
X112185714Y-95752381D01*
X111614285Y-96752381D01*
X111614285Y-95752381D01*
X111138095Y-96752381D02*
X111138095Y-95752381D01*
X110900000Y-95752381D01*
X110757142Y-95800000D01*
X110661904Y-95895238D01*
X110614285Y-95990476D01*
X110566666Y-96180952D01*
X110566666Y-96323810D01*
X110614285Y-96514286D01*
X110661904Y-96609524D01*
X110757142Y-96704762D01*
X110900000Y-96752381D01*
X111138095Y-96752381D01*
X112319047Y-92052381D02*
X112652381Y-91576190D01*
X112890476Y-92052381D02*
X112890476Y-91052381D01*
X112509523Y-91052381D01*
X112414285Y-91100000D01*
X112366666Y-91147619D01*
X112319047Y-91242857D01*
X112319047Y-91385714D01*
X112366666Y-91480952D01*
X112414285Y-91528571D01*
X112509523Y-91576190D01*
X112890476Y-91576190D01*
X111557142Y-91528571D02*
X111890476Y-91528571D01*
X111890476Y-92052381D02*
X111890476Y-91052381D01*
X111414285Y-91052381D01*
X105738095Y-87941667D02*
X105261904Y-87941667D01*
X105833333Y-88227381D02*
X105500000Y-87227381D01*
X105166666Y-88227381D01*
X104261904Y-88132143D02*
X104309523Y-88179762D01*
X104452380Y-88227381D01*
X104547618Y-88227381D01*
X104690476Y-88179762D01*
X104785714Y-88084524D01*
X104833333Y-87989286D01*
X104880952Y-87798810D01*
X104880952Y-87655952D01*
X104833333Y-87465476D01*
X104785714Y-87370238D01*
X104690476Y-87275000D01*
X104547618Y-87227381D01*
X104452380Y-87227381D01*
X104309523Y-87275000D01*
X104261904Y-87322619D01*
X103976190Y-87227381D02*
X103404761Y-87227381D01*
X103690476Y-88227381D02*
X103690476Y-87227381D01*
X103071428Y-88227381D02*
X103071428Y-87227381D01*
X102738095Y-87227381D02*
X102404762Y-88227381D01*
X102071428Y-87227381D01*
X101738095Y-87703571D02*
X101404761Y-87703571D01*
X101261904Y-88227381D02*
X101738095Y-88227381D01*
X101738095Y-87227381D01*
X101261904Y-87227381D01*
X108238095Y-89877381D02*
X108238095Y-88877381D01*
X108000000Y-88877381D01*
X107857142Y-88925000D01*
X107761904Y-89020238D01*
X107714285Y-89115476D01*
X107666666Y-89305952D01*
X107666666Y-89448810D01*
X107714285Y-89639286D01*
X107761904Y-89734524D01*
X107857142Y-89829762D01*
X108000000Y-89877381D01*
X108238095Y-89877381D01*
X107238095Y-89877381D02*
X107238095Y-88877381D01*
X106428571Y-89353571D02*
X106761905Y-89353571D01*
X106761905Y-89877381D02*
X106761905Y-88877381D01*
X106285714Y-88877381D01*
X105571428Y-89353571D02*
X105904762Y-89353571D01*
X105904762Y-89877381D02*
X105904762Y-88877381D01*
X105428571Y-88877381D01*
X105047619Y-89353571D02*
X104714285Y-89353571D01*
X104571428Y-89877381D02*
X105047619Y-89877381D01*
X105047619Y-88877381D01*
X104571428Y-88877381D01*
X103571428Y-89877381D02*
X103904762Y-89401190D01*
X104142857Y-89877381D02*
X104142857Y-88877381D01*
X103761904Y-88877381D01*
X103666666Y-88925000D01*
X103619047Y-88972619D01*
X103571428Y-89067857D01*
X103571428Y-89210714D01*
X103619047Y-89305952D01*
X103666666Y-89353571D01*
X103761904Y-89401190D01*
X104142857Y-89401190D01*
X103142857Y-89353571D02*
X102809523Y-89353571D01*
X102666666Y-89877381D02*
X103142857Y-89877381D01*
X103142857Y-88877381D01*
X102666666Y-88877381D01*
X102238095Y-89877381D02*
X102238095Y-88877381D01*
X101666666Y-89877381D01*
X101666666Y-88877381D01*
X101333333Y-88877381D02*
X100761904Y-88877381D01*
X101047619Y-89877381D02*
X101047619Y-88877381D01*
X100428571Y-89877381D02*
X100428571Y-88877381D01*
X100000000Y-89591667D02*
X99523809Y-89591667D01*
X100095238Y-89877381D02*
X99761905Y-88877381D01*
X99428571Y-89877381D01*
X98619047Y-89877381D02*
X99095238Y-89877381D01*
X99095238Y-88877381D01*
X106476190Y-91527381D02*
X106809524Y-91051190D01*
X107047619Y-91527381D02*
X107047619Y-90527381D01*
X106666666Y-90527381D01*
X106571428Y-90575000D01*
X106523809Y-90622619D01*
X106476190Y-90717857D01*
X106476190Y-90860714D01*
X106523809Y-90955952D01*
X106571428Y-91003571D01*
X106666666Y-91051190D01*
X107047619Y-91051190D01*
X105714285Y-91003571D02*
X106047619Y-91003571D01*
X106047619Y-91527381D02*
X106047619Y-90527381D01*
X105571428Y-90527381D01*
X104428571Y-91527381D02*
X104428571Y-90527381D01*
X104047618Y-90527381D01*
X103952380Y-90575000D01*
X103904761Y-90622619D01*
X103857142Y-90717857D01*
X103857142Y-90860714D01*
X103904761Y-90955952D01*
X103952380Y-91003571D01*
X104047618Y-91051190D01*
X104428571Y-91051190D01*
X102857142Y-91527381D02*
X103190476Y-91051190D01*
X103428571Y-91527381D02*
X103428571Y-90527381D01*
X103047618Y-90527381D01*
X102952380Y-90575000D01*
X102904761Y-90622619D01*
X102857142Y-90717857D01*
X102857142Y-90860714D01*
X102904761Y-90955952D01*
X102952380Y-91003571D01*
X103047618Y-91051190D01*
X103428571Y-91051190D01*
X102238095Y-90527381D02*
X102047618Y-90527381D01*
X101952380Y-90575000D01*
X101857142Y-90670238D01*
X101809523Y-90860714D01*
X101809523Y-91194048D01*
X101857142Y-91384524D01*
X101952380Y-91479762D01*
X102047618Y-91527381D01*
X102238095Y-91527381D01*
X102333333Y-91479762D01*
X102428571Y-91384524D01*
X102476190Y-91194048D01*
X102476190Y-90860714D01*
X102428571Y-90670238D01*
X102333333Y-90575000D01*
X102238095Y-90527381D01*
X101047618Y-91003571D02*
X100904761Y-91051190D01*
X100857142Y-91098810D01*
X100809523Y-91194048D01*
X100809523Y-91336905D01*
X100857142Y-91432143D01*
X100904761Y-91479762D01*
X100999999Y-91527381D01*
X101380952Y-91527381D01*
X101380952Y-90527381D01*
X101047618Y-90527381D01*
X100952380Y-90575000D01*
X100904761Y-90622619D01*
X100857142Y-90717857D01*
X100857142Y-90813095D01*
X100904761Y-90908333D01*
X100952380Y-90955952D01*
X101047618Y-91003571D01*
X101380952Y-91003571D01*
X100380952Y-91003571D02*
X100047618Y-91003571D01*
X99904761Y-91527381D02*
X100380952Y-91527381D01*
X100380952Y-90527381D01*
X99904761Y-90527381D01*
X107595238Y-92653571D02*
X107452381Y-92701190D01*
X107404762Y-92748810D01*
X107357143Y-92844048D01*
X107357143Y-92986905D01*
X107404762Y-93082143D01*
X107452381Y-93129762D01*
X107547619Y-93177381D01*
X107928572Y-93177381D01*
X107928572Y-92177381D01*
X107595238Y-92177381D01*
X107500000Y-92225000D01*
X107452381Y-92272619D01*
X107404762Y-92367857D01*
X107404762Y-92463095D01*
X107452381Y-92558333D01*
X107500000Y-92605952D01*
X107595238Y-92653571D01*
X107928572Y-92653571D01*
X106738096Y-92701190D02*
X106738096Y-93177381D01*
X107071429Y-92177381D02*
X106738096Y-92701190D01*
X106404762Y-92177381D01*
X105309524Y-93177381D02*
X105309524Y-92177381D01*
X105071429Y-92177381D01*
X104928571Y-92225000D01*
X104833333Y-92320238D01*
X104785714Y-92415476D01*
X104738095Y-92605952D01*
X104738095Y-92748810D01*
X104785714Y-92939286D01*
X104833333Y-93034524D01*
X104928571Y-93129762D01*
X105071429Y-93177381D01*
X105309524Y-93177381D01*
X103547619Y-93177381D02*
X103547619Y-92177381D01*
X103214285Y-92891667D01*
X102880952Y-92177381D01*
X102880952Y-93177381D01*
X102452381Y-92891667D02*
X101976190Y-92891667D01*
X102547619Y-93177381D02*
X102214286Y-92177381D01*
X101880952Y-93177381D01*
X100976190Y-93177381D02*
X101309524Y-92701190D01*
X101547619Y-93177381D02*
X101547619Y-92177381D01*
X101166666Y-92177381D01*
X101071428Y-92225000D01*
X101023809Y-92272619D01*
X100976190Y-92367857D01*
X100976190Y-92510714D01*
X101023809Y-92605952D01*
X101071428Y-92653571D01*
X101166666Y-92701190D01*
X101547619Y-92701190D01*
X100547619Y-93177381D02*
X100547619Y-92177381D01*
X99976190Y-93177381D02*
X100404762Y-92605952D01*
X99976190Y-92177381D02*
X100547619Y-92748810D01*
X99595238Y-93129762D02*
X99452381Y-93177381D01*
X99214285Y-93177381D01*
X99119047Y-93129762D01*
X99071428Y-93082143D01*
X99023809Y-92986905D01*
X99023809Y-92891667D01*
X99071428Y-92796429D01*
X99119047Y-92748810D01*
X99214285Y-92701190D01*
X99404762Y-92653571D01*
X99500000Y-92605952D01*
X99547619Y-92558333D01*
X99595238Y-92463095D01*
X99595238Y-92367857D01*
X99547619Y-92272619D01*
X99500000Y-92225000D01*
X99404762Y-92177381D01*
X99166666Y-92177381D01*
X99023809Y-92225000D01*
X105428571Y-94827381D02*
X105428571Y-93827381D01*
X104857142Y-94827381D02*
X105285714Y-94255952D01*
X104857142Y-93827381D02*
X105428571Y-94398810D01*
X104523809Y-93827381D02*
X104285714Y-94827381D01*
X104095237Y-94113095D01*
X103904761Y-94827381D01*
X103666666Y-93827381D01*
X102857142Y-94160714D02*
X102857142Y-94827381D01*
X103095238Y-93779762D02*
X103333333Y-94494048D01*
X102714285Y-94494048D01*
X102476190Y-93827381D02*
X101904761Y-93827381D01*
X102190476Y-94827381D02*
X102190476Y-93827381D01*
X101571428Y-94827381D02*
X101571428Y-93827381D01*
X108333333Y-96382143D02*
X108380952Y-96429762D01*
X108523809Y-96477381D01*
X108619047Y-96477381D01*
X108761905Y-96429762D01*
X108857143Y-96334524D01*
X108904762Y-96239286D01*
X108952381Y-96048810D01*
X108952381Y-95905952D01*
X108904762Y-95715476D01*
X108857143Y-95620238D01*
X108761905Y-95525000D01*
X108619047Y-95477381D01*
X108523809Y-95477381D01*
X108380952Y-95525000D01*
X108333333Y-95572619D01*
X107333333Y-96382143D02*
X107380952Y-96429762D01*
X107523809Y-96477381D01*
X107619047Y-96477381D01*
X107761905Y-96429762D01*
X107857143Y-96334524D01*
X107904762Y-96239286D01*
X107952381Y-96048810D01*
X107952381Y-95905952D01*
X107904762Y-95715476D01*
X107857143Y-95620238D01*
X107761905Y-95525000D01*
X107619047Y-95477381D01*
X107523809Y-95477381D01*
X107380952Y-95525000D01*
X107333333Y-95572619D01*
X106904762Y-96096429D02*
X106142857Y-96096429D01*
X105333333Y-95953571D02*
X105190476Y-96001190D01*
X105142857Y-96048810D01*
X105095238Y-96144048D01*
X105095238Y-96286905D01*
X105142857Y-96382143D01*
X105190476Y-96429762D01*
X105285714Y-96477381D01*
X105666667Y-96477381D01*
X105666667Y-95477381D01*
X105333333Y-95477381D01*
X105238095Y-95525000D01*
X105190476Y-95572619D01*
X105142857Y-95667857D01*
X105142857Y-95763095D01*
X105190476Y-95858333D01*
X105238095Y-95905952D01*
X105333333Y-95953571D01*
X105666667Y-95953571D01*
X104476191Y-96001190D02*
X104476191Y-96477381D01*
X104809524Y-95477381D02*
X104476191Y-96001190D01*
X104142857Y-95477381D01*
X103809524Y-96096429D02*
X103047619Y-96096429D01*
X102619048Y-96429762D02*
X102476191Y-96477381D01*
X102238095Y-96477381D01*
X102142857Y-96429762D01*
X102095238Y-96382143D01*
X102047619Y-96286905D01*
X102047619Y-96191667D01*
X102095238Y-96096429D01*
X102142857Y-96048810D01*
X102238095Y-96001190D01*
X102428572Y-95953571D01*
X102523810Y-95905952D01*
X102571429Y-95858333D01*
X102619048Y-95763095D01*
X102619048Y-95667857D01*
X102571429Y-95572619D01*
X102523810Y-95525000D01*
X102428572Y-95477381D01*
X102190476Y-95477381D01*
X102047619Y-95525000D01*
X101666667Y-96191667D02*
X101190476Y-96191667D01*
X101761905Y-96477381D02*
X101428572Y-95477381D01*
X101095238Y-96477381D01*
X99571428Y-95810714D02*
X99571428Y-96477381D01*
X99809524Y-95429762D02*
X100047619Y-96144048D01*
X99428571Y-96144048D01*
X99047619Y-96382143D02*
X99000000Y-96429762D01*
X99047619Y-96477381D01*
X99095238Y-96429762D01*
X99047619Y-96382143D01*
X99047619Y-96477381D01*
X98380953Y-95477381D02*
X98285714Y-95477381D01*
X98190476Y-95525000D01*
X98142857Y-95572619D01*
X98095238Y-95667857D01*
X98047619Y-95858333D01*
X98047619Y-96096429D01*
X98095238Y-96286905D01*
X98142857Y-96382143D01*
X98190476Y-96429762D01*
X98285714Y-96477381D01*
X98380953Y-96477381D01*
X98476191Y-96429762D01*
X98523810Y-96382143D01*
X98571429Y-96286905D01*
X98619048Y-96096429D01*
X98619048Y-95858333D01*
X98571429Y-95667857D01*
X98523810Y-95572619D01*
X98476191Y-95525000D01*
X98380953Y-95477381D01*
X112661904Y-85500000D02*
X112757142Y-85452381D01*
X112899999Y-85452381D01*
X113042857Y-85500000D01*
X113138095Y-85595238D01*
X113185714Y-85690476D01*
X113233333Y-85880952D01*
X113233333Y-86023810D01*
X113185714Y-86214286D01*
X113138095Y-86309524D01*
X113042857Y-86404762D01*
X112899999Y-86452381D01*
X112804761Y-86452381D01*
X112661904Y-86404762D01*
X112614285Y-86357143D01*
X112614285Y-86023810D01*
X112804761Y-86023810D01*
X112185714Y-86452381D02*
X112185714Y-85452381D01*
X111614285Y-86452381D01*
X111614285Y-85452381D01*
X111138095Y-86452381D02*
X111138095Y-85452381D01*
X110900000Y-85452381D01*
X110757142Y-85500000D01*
X110661904Y-85595238D01*
X110614285Y-85690476D01*
X110566666Y-85880952D01*
X110566666Y-86023810D01*
X110614285Y-86214286D01*
X110661904Y-86309524D01*
X110757142Y-86404762D01*
X110900000Y-86452381D01*
X111138095Y-86452381D01*
X112519047Y-101852381D02*
X112852381Y-101376190D01*
X113090476Y-101852381D02*
X113090476Y-100852381D01*
X112709523Y-100852381D01*
X112614285Y-100900000D01*
X112566666Y-100947619D01*
X112519047Y-101042857D01*
X112519047Y-101185714D01*
X112566666Y-101280952D01*
X112614285Y-101328571D01*
X112709523Y-101376190D01*
X113090476Y-101376190D01*
X111757142Y-101328571D02*
X112090476Y-101328571D01*
X112090476Y-101852381D02*
X112090476Y-100852381D01*
X111614285Y-100852381D01*
X65757143Y-103304762D02*
X65614286Y-103352381D01*
X65376190Y-103352381D01*
X65280952Y-103304762D01*
X65233333Y-103257143D01*
X65185714Y-103161905D01*
X65185714Y-103066667D01*
X65233333Y-102971429D01*
X65280952Y-102923810D01*
X65376190Y-102876190D01*
X65566667Y-102828571D01*
X65661905Y-102780952D01*
X65709524Y-102733333D01*
X65757143Y-102638095D01*
X65757143Y-102542857D01*
X65709524Y-102447619D01*
X65661905Y-102400000D01*
X65566667Y-102352381D01*
X65328571Y-102352381D01*
X65185714Y-102400000D01*
X64852381Y-102352381D02*
X64614286Y-103352381D01*
X64423809Y-102638095D01*
X64233333Y-103352381D01*
X63995238Y-102352381D01*
X65557143Y-96104762D02*
X65414286Y-96152381D01*
X65176190Y-96152381D01*
X65080952Y-96104762D01*
X65033333Y-96057143D01*
X64985714Y-95961905D01*
X64985714Y-95866667D01*
X65033333Y-95771429D01*
X65080952Y-95723810D01*
X65176190Y-95676190D01*
X65366667Y-95628571D01*
X65461905Y-95580952D01*
X65509524Y-95533333D01*
X65557143Y-95438095D01*
X65557143Y-95342857D01*
X65509524Y-95247619D01*
X65461905Y-95200000D01*
X65366667Y-95152381D01*
X65128571Y-95152381D01*
X64985714Y-95200000D01*
X64652381Y-95152381D02*
X64414286Y-96152381D01*
X64223809Y-95438095D01*
X64033333Y-96152381D01*
X63795238Y-95152381D01*
X74457142Y-102828571D02*
X74314285Y-102876190D01*
X74266666Y-102923810D01*
X74219047Y-103019048D01*
X74219047Y-103161905D01*
X74266666Y-103257143D01*
X74314285Y-103304762D01*
X74409523Y-103352381D01*
X74790476Y-103352381D01*
X74790476Y-102352381D01*
X74457142Y-102352381D01*
X74361904Y-102400000D01*
X74314285Y-102447619D01*
X74266666Y-102542857D01*
X74266666Y-102638095D01*
X74314285Y-102733333D01*
X74361904Y-102780952D01*
X74457142Y-102828571D01*
X74790476Y-102828571D01*
X73838095Y-103066667D02*
X73361904Y-103066667D01*
X73933333Y-103352381D02*
X73600000Y-102352381D01*
X73266666Y-103352381D01*
X73076190Y-102352381D02*
X72504761Y-102352381D01*
X72790476Y-103352381D02*
X72790476Y-102352381D01*
X72171428Y-102971429D02*
X71409523Y-102971429D01*
X70557142Y-102828571D02*
X70414285Y-102876190D01*
X70366666Y-102923810D01*
X70319047Y-103019048D01*
X70319047Y-103161905D01*
X70366666Y-103257143D01*
X70414285Y-103304762D01*
X70509523Y-103352381D01*
X70890476Y-103352381D01*
X70890476Y-102352381D01*
X70557142Y-102352381D01*
X70461904Y-102400000D01*
X70414285Y-102447619D01*
X70366666Y-102542857D01*
X70366666Y-102638095D01*
X70414285Y-102733333D01*
X70461904Y-102780952D01*
X70557142Y-102828571D01*
X70890476Y-102828571D01*
X69938095Y-103066667D02*
X69461904Y-103066667D01*
X70033333Y-103352381D02*
X69700000Y-102352381D01*
X69366666Y-103352381D01*
X69176190Y-102352381D02*
X68604761Y-102352381D01*
X68890476Y-103352381D02*
X68890476Y-102352381D01*
X68271428Y-102971429D02*
X67509523Y-102971429D01*
X67890475Y-103352381D02*
X67890475Y-102590476D01*
M02*
