G04 #@! TF.FileFunction,Copper,L1,Top,Signal*
%FSLAX46Y46*%
G04 Gerber Fmt 4.6, Leading zero omitted, Abs format (unit mm)*
G04 Created by KiCad (PCBNEW 4.0.7) date 04/21/20 19:12:33*
%MOMM*%
%LPD*%
G01*
G04 APERTURE LIST*
%ADD10C,0.100000*%
%ADD11R,1.500000X1.300000*%
%ADD12R,1.500000X1.250000*%
%ADD13R,1.250000X1.500000*%
%ADD14R,1.300000X1.500000*%
%ADD15R,2.500000X2.000000*%
%ADD16R,4.000000X2.000000*%
%ADD17R,2.000000X2.000000*%
%ADD18R,1.000000X2.500000*%
%ADD19R,2.000000X4.000000*%
%ADD20R,5.080000X2.500000*%
%ADD21R,5.080000X1.500000*%
%ADD22C,0.600000*%
%ADD23C,0.350000*%
%ADD24C,0.500000*%
%ADD25C,0.254000*%
G04 APERTURE END LIST*
D10*
D11*
X76750000Y-89200000D03*
X74050000Y-89200000D03*
D12*
X105940000Y-99320000D03*
X108440000Y-99320000D03*
X96010000Y-99300000D03*
X98510000Y-99300000D03*
D13*
X86360000Y-86594000D03*
X86360000Y-84094000D03*
D12*
X74150000Y-87100000D03*
X76650000Y-87100000D03*
X95600000Y-89250000D03*
X98100000Y-89250000D03*
X74150000Y-85100000D03*
X76650000Y-85100000D03*
D11*
X98670000Y-97400000D03*
X95970000Y-97400000D03*
D14*
X93790000Y-99220000D03*
X93790000Y-96520000D03*
D11*
X78406000Y-91440000D03*
X81106000Y-91440000D03*
X93670000Y-93150000D03*
X96370000Y-93150000D03*
X93850000Y-83150000D03*
X96550000Y-83150000D03*
X70050000Y-98450000D03*
X67350000Y-98450000D03*
D14*
X70100000Y-96450000D03*
X70100000Y-93750000D03*
D15*
X72600000Y-98000000D03*
X72600000Y-94000000D03*
D13*
X98880000Y-92890000D03*
X98880000Y-95390000D03*
D12*
X105650000Y-89525000D03*
X108150000Y-89525000D03*
D16*
X111580000Y-99100000D03*
X111500000Y-94200000D03*
D17*
X69350000Y-100900000D03*
X72950000Y-100800000D03*
X64950000Y-97700000D03*
X64950000Y-101000000D03*
D14*
X105830000Y-97300000D03*
X105830000Y-94600000D03*
X84400000Y-86850000D03*
X84400000Y-84150000D03*
D18*
X100750000Y-98680000D03*
X102250000Y-98680000D03*
X103750000Y-98680000D03*
D19*
X102250000Y-94720000D03*
D10*
G36*
X103250000Y-96695000D02*
X102750000Y-97445000D01*
X101750000Y-97445000D01*
X101250000Y-96695000D01*
X103250000Y-96695000D01*
X103250000Y-96695000D01*
G37*
D18*
X100425000Y-88880000D03*
X101925000Y-88880000D03*
X103425000Y-88880000D03*
D19*
X101925000Y-84920000D03*
D10*
G36*
X102925000Y-86895000D02*
X102425000Y-87645000D01*
X101425000Y-87645000D01*
X100925000Y-86895000D01*
X102925000Y-86895000D01*
X102925000Y-86895000D01*
G37*
D18*
X79200000Y-88680000D03*
X80700000Y-88680000D03*
X82200000Y-88680000D03*
D19*
X80700000Y-84720000D03*
D10*
G36*
X81700000Y-86695000D02*
X81200000Y-87445000D01*
X80200000Y-87445000D01*
X79700000Y-86695000D01*
X81700000Y-86695000D01*
X81700000Y-86695000D01*
G37*
D20*
X65750000Y-84600000D03*
X65750000Y-92100000D03*
D21*
X65750000Y-88350000D03*
D14*
X93590000Y-89130000D03*
X93590000Y-86430000D03*
D13*
X98450000Y-82950000D03*
X98450000Y-85450000D03*
D16*
X111500000Y-83800000D03*
X111500000Y-89300000D03*
D18*
X75462000Y-98754000D03*
X76962000Y-98754000D03*
X78462000Y-98754000D03*
D19*
X76962000Y-94794000D03*
D10*
G36*
X77962000Y-96769000D02*
X77462000Y-97519000D01*
X76462000Y-97519000D01*
X75962000Y-96769000D01*
X77962000Y-96769000D01*
X77962000Y-96769000D01*
G37*
D18*
X88550000Y-98680000D03*
X90050000Y-98680000D03*
X91550000Y-98680000D03*
D19*
X90050000Y-94720000D03*
D10*
G36*
X91050000Y-96695000D02*
X90550000Y-97445000D01*
X89550000Y-97445000D01*
X89050000Y-96695000D01*
X91050000Y-96695000D01*
X91050000Y-96695000D01*
G37*
D18*
X84050000Y-94032000D03*
X82550000Y-94032000D03*
X81050000Y-94032000D03*
D19*
X82550000Y-97992000D03*
D10*
G36*
X81550000Y-96017000D02*
X82050000Y-95267000D01*
X83050000Y-95267000D01*
X83550000Y-96017000D01*
X81550000Y-96017000D01*
X81550000Y-96017000D01*
G37*
D18*
X88460000Y-88640000D03*
X89960000Y-88640000D03*
X91460000Y-88640000D03*
D19*
X89960000Y-84680000D03*
D10*
G36*
X90960000Y-86655000D02*
X90460000Y-87405000D01*
X89460000Y-87405000D01*
X88960000Y-86655000D01*
X90960000Y-86655000D01*
X90960000Y-86655000D01*
G37*
D14*
X105400000Y-87400000D03*
X105400000Y-84700000D03*
D11*
X98300000Y-87400000D03*
X95600000Y-87400000D03*
D14*
X86390000Y-96470000D03*
X86390000Y-99170000D03*
X86310000Y-89930000D03*
X86310000Y-92630000D03*
D12*
X76434000Y-91440000D03*
X73934000Y-91440000D03*
D22*
X68600000Y-98400000D03*
X73200000Y-92400000D03*
X75000000Y-90800000D03*
X72400000Y-91000000D03*
X74000000Y-90250000D03*
X75250000Y-90000000D03*
X75250000Y-89000000D03*
X73250000Y-84000000D03*
X74250000Y-84000000D03*
X75250000Y-85000000D03*
X84250000Y-95750000D03*
X85000000Y-94500000D03*
X85000000Y-93000000D03*
X97250000Y-96500000D03*
X97250000Y-97750000D03*
X95000000Y-96500000D03*
X99000000Y-94000000D03*
X100000000Y-92250000D03*
X97750000Y-91750000D03*
X96750000Y-87250000D03*
X95750000Y-86250000D03*
X94750000Y-86500000D03*
X99750000Y-82500000D03*
X99500000Y-81500000D03*
X97000000Y-81500000D03*
D23*
X67350000Y-98450000D02*
X68550000Y-98450000D01*
X68550000Y-98450000D02*
X68600000Y-98400000D01*
D24*
X72600000Y-98000000D02*
X72600000Y-100450000D01*
X72600000Y-100450000D02*
X72950000Y-100800000D01*
D23*
X73934000Y-91440000D02*
X73934000Y-91666000D01*
X73934000Y-91666000D02*
X73200000Y-92400000D01*
X73934000Y-91440000D02*
X74360000Y-91440000D01*
X74360000Y-91440000D02*
X75000000Y-90800000D01*
X73934000Y-91440000D02*
X73240000Y-91440000D01*
X73240000Y-91440000D02*
X72800000Y-91000000D01*
X72800000Y-91000000D02*
X72400000Y-91000000D01*
X74050000Y-89200000D02*
X74050000Y-90200000D01*
X74050000Y-90200000D02*
X74000000Y-90250000D01*
X74050000Y-89200000D02*
X74450000Y-89200000D01*
X74450000Y-89200000D02*
X75250000Y-90000000D01*
X74050000Y-89200000D02*
X75050000Y-89200000D01*
X75050000Y-89200000D02*
X75250000Y-89000000D01*
X74150000Y-85100000D02*
X74150000Y-84900000D01*
X74150000Y-84900000D02*
X73250000Y-84000000D01*
X74150000Y-85100000D02*
X74150000Y-84100000D01*
X74150000Y-84100000D02*
X74250000Y-84000000D01*
X74150000Y-85100000D02*
X75150000Y-85100000D01*
X75150000Y-85100000D02*
X75250000Y-85000000D01*
X74150000Y-85100000D02*
X74100000Y-85100000D01*
X84050000Y-94032000D02*
X84050000Y-95550000D01*
X84050000Y-95550000D02*
X84250000Y-95750000D01*
X84050000Y-94032000D02*
X84532000Y-94032000D01*
X84532000Y-94032000D02*
X85000000Y-94500000D01*
X84050000Y-94032000D02*
X84050000Y-93950000D01*
X84050000Y-93950000D02*
X85000000Y-93000000D01*
X95970000Y-97400000D02*
X96350000Y-97400000D01*
X96350000Y-97400000D02*
X97250000Y-96500000D01*
X95970000Y-97400000D02*
X96900000Y-97400000D01*
X96900000Y-97400000D02*
X97250000Y-97750000D01*
X95970000Y-97400000D02*
X95900000Y-97400000D01*
X95900000Y-97400000D02*
X95000000Y-96500000D01*
X98880000Y-92890000D02*
X98880000Y-93880000D01*
X98880000Y-93880000D02*
X99000000Y-94000000D01*
X98880000Y-92890000D02*
X99360000Y-92890000D01*
X99360000Y-92890000D02*
X100000000Y-92250000D01*
X98880000Y-92890000D02*
X98880000Y-92880000D01*
X98880000Y-92880000D02*
X97750000Y-91750000D01*
X95600000Y-87400000D02*
X96600000Y-87400000D01*
X96600000Y-87400000D02*
X96750000Y-87250000D01*
X95600000Y-87400000D02*
X95600000Y-86400000D01*
X95600000Y-86400000D02*
X95750000Y-86250000D01*
X95600000Y-87400000D02*
X95600000Y-87350000D01*
X95600000Y-87350000D02*
X94750000Y-86500000D01*
X98450000Y-82950000D02*
X99300000Y-82950000D01*
X99300000Y-82950000D02*
X99750000Y-82500000D01*
X98450000Y-82950000D02*
X98450000Y-82550000D01*
X98450000Y-82550000D02*
X99500000Y-81500000D01*
X98450000Y-82950000D02*
X97000000Y-81500000D01*
D24*
X105940000Y-99320000D02*
X104390000Y-99320000D01*
X104390000Y-99320000D02*
X103750000Y-98680000D01*
X105940000Y-99320000D02*
X105940000Y-97410000D01*
X105940000Y-97410000D02*
X105830000Y-97300000D01*
X111580000Y-99100000D02*
X108660000Y-99100000D01*
X108660000Y-99100000D02*
X108440000Y-99320000D01*
X108660000Y-99100000D02*
X108440000Y-99320000D01*
X93790000Y-99220000D02*
X92090000Y-99220000D01*
X92090000Y-99220000D02*
X91550000Y-98680000D01*
X96010000Y-99300000D02*
X93870000Y-99300000D01*
X93870000Y-99300000D02*
X93790000Y-99220000D01*
X98510000Y-99300000D02*
X98510000Y-97560000D01*
X98510000Y-97560000D02*
X98670000Y-97400000D01*
X100750000Y-98680000D02*
X99130000Y-98680000D01*
X99130000Y-98680000D02*
X98510000Y-99300000D01*
X84400000Y-86850000D02*
X84030000Y-86850000D01*
X84030000Y-86850000D02*
X82200000Y-88680000D01*
X86360000Y-86594000D02*
X84656000Y-86594000D01*
X84656000Y-86594000D02*
X84400000Y-86850000D01*
X86360000Y-86594000D02*
X86050000Y-86594000D01*
X89960000Y-84680000D02*
X86946000Y-84680000D01*
X86946000Y-84680000D02*
X86360000Y-84094000D01*
X89960000Y-87030000D02*
X89960000Y-84680000D01*
X89960000Y-88640000D02*
X89960000Y-87030000D01*
X89960000Y-84680000D02*
X92320000Y-84680000D01*
X92320000Y-84680000D02*
X93850000Y-83150000D01*
X74150000Y-87100000D02*
X72300000Y-87100000D01*
X71050000Y-88350000D02*
X65750000Y-88350000D01*
X72300000Y-87100000D02*
X71050000Y-88350000D01*
X76650000Y-87100000D02*
X76650000Y-89100000D01*
X76650000Y-89100000D02*
X76750000Y-89200000D01*
X79200000Y-88680000D02*
X77270000Y-88680000D01*
X77270000Y-88680000D02*
X76750000Y-89200000D01*
X98100000Y-89250000D02*
X98100000Y-87600000D01*
X98100000Y-87600000D02*
X98300000Y-87400000D01*
X100425000Y-88880000D02*
X98470000Y-88880000D01*
X98470000Y-88880000D02*
X98100000Y-89250000D01*
X70100000Y-93750000D02*
X69250000Y-93750000D01*
X67650000Y-95000000D02*
X64950000Y-97700000D01*
X68000000Y-95000000D02*
X67650000Y-95000000D01*
X69250000Y-93750000D02*
X68000000Y-95000000D01*
X80700000Y-87070000D02*
X80700000Y-84720000D01*
X80700000Y-88680000D02*
X80700000Y-87070000D01*
X105830000Y-94600000D02*
X102370000Y-94600000D01*
X102370000Y-94600000D02*
X102250000Y-94720000D01*
X84400000Y-84150000D02*
X84400000Y-83150000D01*
X95350000Y-81950000D02*
X96550000Y-83150000D01*
X85600000Y-81950000D02*
X95350000Y-81950000D01*
X84400000Y-83150000D02*
X85600000Y-81950000D01*
X72600000Y-94000000D02*
X70350000Y-94000000D01*
X70350000Y-94000000D02*
X70100000Y-93750000D01*
X76434000Y-91440000D02*
X75560000Y-91440000D01*
X73900000Y-94000000D02*
X72600000Y-94000000D01*
X75200000Y-92700000D02*
X73900000Y-94000000D01*
X75200000Y-91800000D02*
X75200000Y-92700000D01*
X75560000Y-91440000D02*
X75200000Y-91800000D01*
X76650000Y-85100000D02*
X80320000Y-85100000D01*
X80320000Y-85100000D02*
X80700000Y-84720000D01*
X78406000Y-91440000D02*
X79060000Y-91440000D01*
X79060000Y-91440000D02*
X80700000Y-89800000D01*
X80700000Y-89800000D02*
X80700000Y-88680000D01*
X84400000Y-84150000D02*
X81270000Y-84150000D01*
X81270000Y-84150000D02*
X80700000Y-84720000D01*
X98880000Y-95390000D02*
X101580000Y-95390000D01*
X101580000Y-95390000D02*
X102250000Y-94720000D01*
X101925000Y-88880000D02*
X101925000Y-94395000D01*
X101925000Y-94395000D02*
X102250000Y-94720000D01*
X78406000Y-91440000D02*
X76434000Y-91440000D01*
X98880000Y-95390000D02*
X94920000Y-95390000D01*
X94920000Y-95390000D02*
X93790000Y-96520000D01*
X96370000Y-93150000D02*
X96640000Y-93150000D01*
X96640000Y-93150000D02*
X98880000Y-95390000D01*
X102250000Y-97070000D02*
X102250000Y-94720000D01*
X102250000Y-98680000D02*
X102250000Y-97070000D01*
X98450000Y-85450000D02*
X94570000Y-85450000D01*
X94570000Y-85450000D02*
X93590000Y-86430000D01*
X96550000Y-83150000D02*
X96550000Y-83550000D01*
X96550000Y-83550000D02*
X98450000Y-85450000D01*
X98450000Y-85450000D02*
X101395000Y-85450000D01*
X101395000Y-85450000D02*
X101925000Y-84920000D01*
X101925000Y-87270000D02*
X101925000Y-88880000D01*
X101925000Y-84920000D02*
X101925000Y-87270000D01*
X105400000Y-84700000D02*
X102145000Y-84700000D01*
X102145000Y-84700000D02*
X101925000Y-84920000D01*
D23*
X102145000Y-84700000D02*
X101925000Y-84920000D01*
D24*
X70050000Y-98450000D02*
X70050000Y-96500000D01*
X70050000Y-96500000D02*
X70100000Y-96450000D01*
X69350000Y-100900000D02*
X65050000Y-100900000D01*
X65050000Y-100900000D02*
X64950000Y-101000000D01*
X105400000Y-87400000D02*
X105400000Y-89275000D01*
X105400000Y-89275000D02*
X105650000Y-89525000D01*
X105650000Y-89525000D02*
X104070000Y-89525000D01*
X104070000Y-89525000D02*
X103425000Y-88880000D01*
D23*
X105400000Y-89275000D02*
X105650000Y-89525000D01*
D24*
X111500000Y-89300000D02*
X108375000Y-89300000D01*
X108375000Y-89300000D02*
X108150000Y-89525000D01*
X95600000Y-89250000D02*
X93710000Y-89250000D01*
X93710000Y-89250000D02*
X93590000Y-89130000D01*
X93590000Y-89130000D02*
X91950000Y-89130000D01*
X91950000Y-89130000D02*
X91460000Y-88640000D01*
X81106000Y-91440000D02*
X81106000Y-93976000D01*
X81106000Y-93976000D02*
X81050000Y-94032000D01*
X76962000Y-94794000D02*
X80288000Y-94794000D01*
X80288000Y-94794000D02*
X81050000Y-94032000D01*
X76962000Y-98754000D02*
X76962000Y-97144000D01*
X78462000Y-98754000D02*
X76962000Y-98754000D01*
X76962000Y-98754000D02*
X76962000Y-94794000D01*
X88550000Y-98680000D02*
X86880000Y-98680000D01*
X86880000Y-98680000D02*
X86390000Y-99170000D01*
X90050000Y-97070000D02*
X90050000Y-94720000D01*
X90050000Y-98680000D02*
X90050000Y-97070000D01*
X90050000Y-94720000D02*
X92100000Y-94720000D01*
X92100000Y-94720000D02*
X93670000Y-93150000D01*
X82550000Y-97992000D02*
X83108000Y-97992000D01*
X83108000Y-97992000D02*
X84400000Y-96700000D01*
X84400000Y-96700000D02*
X86160000Y-96700000D01*
X86160000Y-96700000D02*
X86390000Y-96470000D01*
X82550000Y-95642000D02*
X82550000Y-97992000D01*
X82550000Y-94032000D02*
X82550000Y-95642000D01*
X86310000Y-92630000D02*
X86310000Y-96390000D01*
X86310000Y-96390000D02*
X86390000Y-96470000D01*
X88460000Y-88640000D02*
X87600000Y-88640000D01*
X87600000Y-88640000D02*
X86310000Y-89930000D01*
D25*
G36*
X80091757Y-95727753D02*
X80301283Y-95870917D01*
X80550000Y-95921283D01*
X80925037Y-95921283D01*
X80910717Y-95992000D01*
X80910717Y-99992000D01*
X80954437Y-100224352D01*
X81050090Y-100373000D01*
X80393636Y-100373000D01*
X79771010Y-100496848D01*
X79243173Y-100849537D01*
X78890484Y-101377374D01*
X78766636Y-102000000D01*
X78890484Y-102622626D01*
X79243173Y-103150463D01*
X79463978Y-103298000D01*
X63702000Y-103298000D01*
X63702000Y-102589062D01*
X63950000Y-102639283D01*
X65950000Y-102639283D01*
X66182352Y-102595563D01*
X66395753Y-102458243D01*
X66538917Y-102248717D01*
X66589283Y-102000000D01*
X66589283Y-101777000D01*
X67710717Y-101777000D01*
X67710717Y-101900000D01*
X67754437Y-102132352D01*
X67891757Y-102345753D01*
X68101283Y-102488917D01*
X68350000Y-102539283D01*
X70350000Y-102539283D01*
X70582352Y-102495563D01*
X70795753Y-102358243D01*
X70938917Y-102148717D01*
X70989283Y-101900000D01*
X70989283Y-101085750D01*
X71315000Y-101085750D01*
X71315000Y-101926310D01*
X71411673Y-102159699D01*
X71590302Y-102338327D01*
X71823691Y-102435000D01*
X72664250Y-102435000D01*
X72823000Y-102276250D01*
X72823000Y-100927000D01*
X73077000Y-100927000D01*
X73077000Y-102276250D01*
X73235750Y-102435000D01*
X74076309Y-102435000D01*
X74309698Y-102338327D01*
X74488327Y-102159699D01*
X74585000Y-101926310D01*
X74585000Y-101085750D01*
X74426250Y-100927000D01*
X73077000Y-100927000D01*
X72823000Y-100927000D01*
X71473750Y-100927000D01*
X71315000Y-101085750D01*
X70989283Y-101085750D01*
X70989283Y-99900000D01*
X70953604Y-99710381D01*
X71032352Y-99695563D01*
X71164543Y-99610500D01*
X71223690Y-99635000D01*
X71331026Y-99635000D01*
X71315000Y-99673690D01*
X71315000Y-100514250D01*
X71473750Y-100673000D01*
X72823000Y-100673000D01*
X72823000Y-100653000D01*
X73077000Y-100653000D01*
X73077000Y-100673000D01*
X74426250Y-100673000D01*
X74579612Y-100519638D01*
X74602302Y-100542327D01*
X74835691Y-100639000D01*
X75176250Y-100639000D01*
X75335000Y-100480250D01*
X75335000Y-98881000D01*
X75315000Y-98881000D01*
X75315000Y-98627000D01*
X75335000Y-98627000D01*
X75335000Y-98607000D01*
X75589000Y-98607000D01*
X75589000Y-98627000D01*
X75609000Y-98627000D01*
X75609000Y-98881000D01*
X75589000Y-98881000D01*
X75589000Y-100480250D01*
X75747750Y-100639000D01*
X76088309Y-100639000D01*
X76208105Y-100589379D01*
X76213283Y-100592917D01*
X76462000Y-100643283D01*
X77462000Y-100643283D01*
X77694352Y-100599563D01*
X77709111Y-100590066D01*
X77713283Y-100592917D01*
X77962000Y-100643283D01*
X78962000Y-100643283D01*
X79194352Y-100599563D01*
X79407753Y-100462243D01*
X79550917Y-100252717D01*
X79601283Y-100004000D01*
X79601283Y-97504000D01*
X79557563Y-97271648D01*
X79420243Y-97058247D01*
X79210717Y-96915083D01*
X78962000Y-96864717D01*
X78586963Y-96864717D01*
X78601283Y-96794000D01*
X78601283Y-95671000D01*
X80055237Y-95671000D01*
X80091757Y-95727753D01*
X80091757Y-95727753D01*
G37*
X80091757Y-95727753D02*
X80301283Y-95870917D01*
X80550000Y-95921283D01*
X80925037Y-95921283D01*
X80910717Y-95992000D01*
X80910717Y-99992000D01*
X80954437Y-100224352D01*
X81050090Y-100373000D01*
X80393636Y-100373000D01*
X79771010Y-100496848D01*
X79243173Y-100849537D01*
X78890484Y-101377374D01*
X78766636Y-102000000D01*
X78890484Y-102622626D01*
X79243173Y-103150463D01*
X79463978Y-103298000D01*
X63702000Y-103298000D01*
X63702000Y-102589062D01*
X63950000Y-102639283D01*
X65950000Y-102639283D01*
X66182352Y-102595563D01*
X66395753Y-102458243D01*
X66538917Y-102248717D01*
X66589283Y-102000000D01*
X66589283Y-101777000D01*
X67710717Y-101777000D01*
X67710717Y-101900000D01*
X67754437Y-102132352D01*
X67891757Y-102345753D01*
X68101283Y-102488917D01*
X68350000Y-102539283D01*
X70350000Y-102539283D01*
X70582352Y-102495563D01*
X70795753Y-102358243D01*
X70938917Y-102148717D01*
X70989283Y-101900000D01*
X70989283Y-101085750D01*
X71315000Y-101085750D01*
X71315000Y-101926310D01*
X71411673Y-102159699D01*
X71590302Y-102338327D01*
X71823691Y-102435000D01*
X72664250Y-102435000D01*
X72823000Y-102276250D01*
X72823000Y-100927000D01*
X73077000Y-100927000D01*
X73077000Y-102276250D01*
X73235750Y-102435000D01*
X74076309Y-102435000D01*
X74309698Y-102338327D01*
X74488327Y-102159699D01*
X74585000Y-101926310D01*
X74585000Y-101085750D01*
X74426250Y-100927000D01*
X73077000Y-100927000D01*
X72823000Y-100927000D01*
X71473750Y-100927000D01*
X71315000Y-101085750D01*
X70989283Y-101085750D01*
X70989283Y-99900000D01*
X70953604Y-99710381D01*
X71032352Y-99695563D01*
X71164543Y-99610500D01*
X71223690Y-99635000D01*
X71331026Y-99635000D01*
X71315000Y-99673690D01*
X71315000Y-100514250D01*
X71473750Y-100673000D01*
X72823000Y-100673000D01*
X72823000Y-100653000D01*
X73077000Y-100653000D01*
X73077000Y-100673000D01*
X74426250Y-100673000D01*
X74579612Y-100519638D01*
X74602302Y-100542327D01*
X74835691Y-100639000D01*
X75176250Y-100639000D01*
X75335000Y-100480250D01*
X75335000Y-98881000D01*
X75315000Y-98881000D01*
X75315000Y-98627000D01*
X75335000Y-98627000D01*
X75335000Y-98607000D01*
X75589000Y-98607000D01*
X75589000Y-98627000D01*
X75609000Y-98627000D01*
X75609000Y-98881000D01*
X75589000Y-98881000D01*
X75589000Y-100480250D01*
X75747750Y-100639000D01*
X76088309Y-100639000D01*
X76208105Y-100589379D01*
X76213283Y-100592917D01*
X76462000Y-100643283D01*
X77462000Y-100643283D01*
X77694352Y-100599563D01*
X77709111Y-100590066D01*
X77713283Y-100592917D01*
X77962000Y-100643283D01*
X78962000Y-100643283D01*
X79194352Y-100599563D01*
X79407753Y-100462243D01*
X79550917Y-100252717D01*
X79601283Y-100004000D01*
X79601283Y-97504000D01*
X79557563Y-97271648D01*
X79420243Y-97058247D01*
X79210717Y-96915083D01*
X78962000Y-96864717D01*
X78586963Y-96864717D01*
X78601283Y-96794000D01*
X78601283Y-95671000D01*
X80055237Y-95671000D01*
X80091757Y-95727753D01*
G36*
X69201283Y-95088917D02*
X69248892Y-95098558D01*
X69217648Y-95104437D01*
X69004247Y-95241757D01*
X68861083Y-95451283D01*
X68810717Y-95700000D01*
X68810717Y-97200000D01*
X68841030Y-97361100D01*
X68711083Y-97551283D01*
X68702288Y-97594716D01*
X68638327Y-97440301D01*
X68459698Y-97261673D01*
X68226309Y-97165000D01*
X67635750Y-97165000D01*
X67477000Y-97323750D01*
X67477000Y-98323000D01*
X67497000Y-98323000D01*
X67497000Y-98577000D01*
X67477000Y-98577000D01*
X67477000Y-99576250D01*
X67635750Y-99735000D01*
X67744130Y-99735000D01*
X67710717Y-99900000D01*
X67710717Y-100023000D01*
X66589283Y-100023000D01*
X66589283Y-100000000D01*
X66545563Y-99767648D01*
X66524555Y-99735000D01*
X67064250Y-99735000D01*
X67223000Y-99576250D01*
X67223000Y-98577000D01*
X67203000Y-98577000D01*
X67203000Y-98323000D01*
X67223000Y-98323000D01*
X67223000Y-97323750D01*
X67064250Y-97165000D01*
X66725266Y-97165000D01*
X68016559Y-95873706D01*
X68335613Y-95810242D01*
X68620133Y-95620133D01*
X69171618Y-95068648D01*
X69201283Y-95088917D01*
X69201283Y-95088917D01*
G37*
X69201283Y-95088917D02*
X69248892Y-95098558D01*
X69217648Y-95104437D01*
X69004247Y-95241757D01*
X68861083Y-95451283D01*
X68810717Y-95700000D01*
X68810717Y-97200000D01*
X68841030Y-97361100D01*
X68711083Y-97551283D01*
X68702288Y-97594716D01*
X68638327Y-97440301D01*
X68459698Y-97261673D01*
X68226309Y-97165000D01*
X67635750Y-97165000D01*
X67477000Y-97323750D01*
X67477000Y-98323000D01*
X67497000Y-98323000D01*
X67497000Y-98577000D01*
X67477000Y-98577000D01*
X67477000Y-99576250D01*
X67635750Y-99735000D01*
X67744130Y-99735000D01*
X67710717Y-99900000D01*
X67710717Y-100023000D01*
X66589283Y-100023000D01*
X66589283Y-100000000D01*
X66545563Y-99767648D01*
X66524555Y-99735000D01*
X67064250Y-99735000D01*
X67223000Y-99576250D01*
X67223000Y-98577000D01*
X67203000Y-98577000D01*
X67203000Y-98323000D01*
X67223000Y-98323000D01*
X67223000Y-97323750D01*
X67064250Y-97165000D01*
X66725266Y-97165000D01*
X68016559Y-95873706D01*
X68335613Y-95810242D01*
X68620133Y-95620133D01*
X69171618Y-95068648D01*
X69201283Y-95088917D01*
G36*
X75322717Y-96794000D02*
X75334401Y-96856096D01*
X75334029Y-96888727D01*
X75334998Y-96891096D01*
X75334998Y-97027748D01*
X75176250Y-96869000D01*
X74835691Y-96869000D01*
X74602302Y-96965673D01*
X74485000Y-97082974D01*
X74485000Y-96873691D01*
X74388327Y-96640302D01*
X74209699Y-96461673D01*
X73976310Y-96365000D01*
X72885750Y-96365000D01*
X72727000Y-96523750D01*
X72727000Y-97873000D01*
X72747000Y-97873000D01*
X72747000Y-98127000D01*
X72727000Y-98127000D01*
X72727000Y-98147000D01*
X72473000Y-98147000D01*
X72473000Y-98127000D01*
X72453000Y-98127000D01*
X72453000Y-97873000D01*
X72473000Y-97873000D01*
X72473000Y-96523750D01*
X72314250Y-96365000D01*
X71389283Y-96365000D01*
X71389283Y-95700000D01*
X71377858Y-95639283D01*
X73850000Y-95639283D01*
X74082352Y-95595563D01*
X74295753Y-95458243D01*
X74438917Y-95248717D01*
X74489283Y-95000000D01*
X74489283Y-94640746D01*
X74520133Y-94620133D01*
X74520134Y-94620132D01*
X75322717Y-93817548D01*
X75322717Y-96794000D01*
X75322717Y-96794000D01*
G37*
X75322717Y-96794000D02*
X75334401Y-96856096D01*
X75334029Y-96888727D01*
X75334998Y-96891096D01*
X75334998Y-97027748D01*
X75176250Y-96869000D01*
X74835691Y-96869000D01*
X74602302Y-96965673D01*
X74485000Y-97082974D01*
X74485000Y-96873691D01*
X74388327Y-96640302D01*
X74209699Y-96461673D01*
X73976310Y-96365000D01*
X72885750Y-96365000D01*
X72727000Y-96523750D01*
X72727000Y-97873000D01*
X72747000Y-97873000D01*
X72747000Y-98127000D01*
X72727000Y-98127000D01*
X72727000Y-98147000D01*
X72473000Y-98147000D01*
X72473000Y-98127000D01*
X72453000Y-98127000D01*
X72453000Y-97873000D01*
X72473000Y-97873000D01*
X72473000Y-96523750D01*
X72314250Y-96365000D01*
X71389283Y-96365000D01*
X71389283Y-95700000D01*
X71377858Y-95639283D01*
X73850000Y-95639283D01*
X74082352Y-95595563D01*
X74295753Y-95458243D01*
X74438917Y-95248717D01*
X74489283Y-95000000D01*
X74489283Y-94640746D01*
X74520133Y-94620133D01*
X74520134Y-94620132D01*
X75322717Y-93817548D01*
X75322717Y-96794000D01*
G36*
X96097000Y-97273000D02*
X96117000Y-97273000D01*
X96117000Y-97527000D01*
X96097000Y-97527000D01*
X96097000Y-97547000D01*
X95843000Y-97547000D01*
X95843000Y-97527000D01*
X95823000Y-97527000D01*
X95823000Y-97273000D01*
X95843000Y-97273000D01*
X95843000Y-97253000D01*
X96097000Y-97253000D01*
X96097000Y-97273000D01*
X96097000Y-97273000D01*
G37*
X96097000Y-97273000D02*
X96117000Y-97273000D01*
X96117000Y-97527000D01*
X96097000Y-97527000D01*
X96097000Y-97547000D01*
X95843000Y-97547000D01*
X95843000Y-97527000D01*
X95823000Y-97527000D01*
X95823000Y-97273000D01*
X95843000Y-97273000D01*
X95843000Y-97253000D01*
X96097000Y-97253000D01*
X96097000Y-97273000D01*
G36*
X96891757Y-90320753D02*
X97101283Y-90463917D01*
X97350000Y-90514283D01*
X98850000Y-90514283D01*
X99082352Y-90470563D01*
X99295753Y-90333243D01*
X99317869Y-90300875D01*
X99329437Y-90362352D01*
X99466757Y-90575753D01*
X99676283Y-90718917D01*
X99925000Y-90769283D01*
X100925000Y-90769283D01*
X101048000Y-90746139D01*
X101048000Y-92118726D01*
X101017648Y-92124437D01*
X100804247Y-92261757D01*
X100661083Y-92471283D01*
X100610717Y-92720000D01*
X100610717Y-94513000D01*
X100120386Y-94513000D01*
X100100563Y-94407648D01*
X99963243Y-94194247D01*
X99895242Y-94147784D01*
X100043327Y-93999698D01*
X100140000Y-93766309D01*
X100140000Y-93175750D01*
X99981250Y-93017000D01*
X99007000Y-93017000D01*
X99007000Y-93037000D01*
X98753000Y-93037000D01*
X98753000Y-93017000D01*
X98733000Y-93017000D01*
X98733000Y-92763000D01*
X98753000Y-92763000D01*
X98753000Y-91663750D01*
X99007000Y-91663750D01*
X99007000Y-92763000D01*
X99981250Y-92763000D01*
X100140000Y-92604250D01*
X100140000Y-92013691D01*
X100043327Y-91780302D01*
X99864699Y-91601673D01*
X99631310Y-91505000D01*
X99165750Y-91505000D01*
X99007000Y-91663750D01*
X98753000Y-91663750D01*
X98594250Y-91505000D01*
X98128690Y-91505000D01*
X97895301Y-91601673D01*
X97716673Y-91780302D01*
X97620000Y-92013691D01*
X97620000Y-92119139D01*
X97578243Y-92054247D01*
X97368717Y-91911083D01*
X97120000Y-91860717D01*
X95620000Y-91860717D01*
X95387648Y-91904437D01*
X95174247Y-92041757D01*
X95031083Y-92251283D01*
X95021442Y-92298892D01*
X95015563Y-92267648D01*
X94878243Y-92054247D01*
X94668717Y-91911083D01*
X94420000Y-91860717D01*
X92920000Y-91860717D01*
X92687648Y-91904437D01*
X92474247Y-92041757D01*
X92331083Y-92251283D01*
X92280717Y-92500000D01*
X92280717Y-93299018D01*
X91736734Y-93843000D01*
X91689283Y-93843000D01*
X91689283Y-92720000D01*
X91645563Y-92487648D01*
X91508243Y-92274247D01*
X91298717Y-92131083D01*
X91050000Y-92080717D01*
X89050000Y-92080717D01*
X88817648Y-92124437D01*
X88604247Y-92261757D01*
X88461083Y-92471283D01*
X88410717Y-92720000D01*
X88410717Y-96720000D01*
X88422401Y-96782096D01*
X88422303Y-96790717D01*
X88050000Y-96790717D01*
X87817648Y-96834437D01*
X87679283Y-96923473D01*
X87679283Y-95720000D01*
X87635563Y-95487648D01*
X87498243Y-95274247D01*
X87288717Y-95131083D01*
X87187000Y-95110485D01*
X87187000Y-93976570D01*
X87192352Y-93975563D01*
X87405753Y-93838243D01*
X87548917Y-93628717D01*
X87599283Y-93380000D01*
X87599283Y-91880000D01*
X87555563Y-91647648D01*
X87418243Y-91434247D01*
X87208717Y-91291083D01*
X87161108Y-91281442D01*
X87192352Y-91275563D01*
X87405753Y-91138243D01*
X87548917Y-90928717D01*
X87599283Y-90680000D01*
X87599283Y-90402390D01*
X87711283Y-90478917D01*
X87960000Y-90529283D01*
X88960000Y-90529283D01*
X89192352Y-90485563D01*
X89207111Y-90476066D01*
X89211283Y-90478917D01*
X89460000Y-90529283D01*
X90460000Y-90529283D01*
X90692352Y-90485563D01*
X90707111Y-90476066D01*
X90711283Y-90478917D01*
X90960000Y-90529283D01*
X91960000Y-90529283D01*
X92192352Y-90485563D01*
X92405753Y-90348243D01*
X92452348Y-90280050D01*
X92481757Y-90325753D01*
X92691283Y-90468917D01*
X92940000Y-90519283D01*
X94240000Y-90519283D01*
X94472352Y-90475563D01*
X94547529Y-90427188D01*
X94601283Y-90463917D01*
X94850000Y-90514283D01*
X96350000Y-90514283D01*
X96582352Y-90470563D01*
X96795753Y-90333243D01*
X96849334Y-90254826D01*
X96891757Y-90320753D01*
X96891757Y-90320753D01*
G37*
X96891757Y-90320753D02*
X97101283Y-90463917D01*
X97350000Y-90514283D01*
X98850000Y-90514283D01*
X99082352Y-90470563D01*
X99295753Y-90333243D01*
X99317869Y-90300875D01*
X99329437Y-90362352D01*
X99466757Y-90575753D01*
X99676283Y-90718917D01*
X99925000Y-90769283D01*
X100925000Y-90769283D01*
X101048000Y-90746139D01*
X101048000Y-92118726D01*
X101017648Y-92124437D01*
X100804247Y-92261757D01*
X100661083Y-92471283D01*
X100610717Y-92720000D01*
X100610717Y-94513000D01*
X100120386Y-94513000D01*
X100100563Y-94407648D01*
X99963243Y-94194247D01*
X99895242Y-94147784D01*
X100043327Y-93999698D01*
X100140000Y-93766309D01*
X100140000Y-93175750D01*
X99981250Y-93017000D01*
X99007000Y-93017000D01*
X99007000Y-93037000D01*
X98753000Y-93037000D01*
X98753000Y-93017000D01*
X98733000Y-93017000D01*
X98733000Y-92763000D01*
X98753000Y-92763000D01*
X98753000Y-91663750D01*
X99007000Y-91663750D01*
X99007000Y-92763000D01*
X99981250Y-92763000D01*
X100140000Y-92604250D01*
X100140000Y-92013691D01*
X100043327Y-91780302D01*
X99864699Y-91601673D01*
X99631310Y-91505000D01*
X99165750Y-91505000D01*
X99007000Y-91663750D01*
X98753000Y-91663750D01*
X98594250Y-91505000D01*
X98128690Y-91505000D01*
X97895301Y-91601673D01*
X97716673Y-91780302D01*
X97620000Y-92013691D01*
X97620000Y-92119139D01*
X97578243Y-92054247D01*
X97368717Y-91911083D01*
X97120000Y-91860717D01*
X95620000Y-91860717D01*
X95387648Y-91904437D01*
X95174247Y-92041757D01*
X95031083Y-92251283D01*
X95021442Y-92298892D01*
X95015563Y-92267648D01*
X94878243Y-92054247D01*
X94668717Y-91911083D01*
X94420000Y-91860717D01*
X92920000Y-91860717D01*
X92687648Y-91904437D01*
X92474247Y-92041757D01*
X92331083Y-92251283D01*
X92280717Y-92500000D01*
X92280717Y-93299018D01*
X91736734Y-93843000D01*
X91689283Y-93843000D01*
X91689283Y-92720000D01*
X91645563Y-92487648D01*
X91508243Y-92274247D01*
X91298717Y-92131083D01*
X91050000Y-92080717D01*
X89050000Y-92080717D01*
X88817648Y-92124437D01*
X88604247Y-92261757D01*
X88461083Y-92471283D01*
X88410717Y-92720000D01*
X88410717Y-96720000D01*
X88422401Y-96782096D01*
X88422303Y-96790717D01*
X88050000Y-96790717D01*
X87817648Y-96834437D01*
X87679283Y-96923473D01*
X87679283Y-95720000D01*
X87635563Y-95487648D01*
X87498243Y-95274247D01*
X87288717Y-95131083D01*
X87187000Y-95110485D01*
X87187000Y-93976570D01*
X87192352Y-93975563D01*
X87405753Y-93838243D01*
X87548917Y-93628717D01*
X87599283Y-93380000D01*
X87599283Y-91880000D01*
X87555563Y-91647648D01*
X87418243Y-91434247D01*
X87208717Y-91291083D01*
X87161108Y-91281442D01*
X87192352Y-91275563D01*
X87405753Y-91138243D01*
X87548917Y-90928717D01*
X87599283Y-90680000D01*
X87599283Y-90402390D01*
X87711283Y-90478917D01*
X87960000Y-90529283D01*
X88960000Y-90529283D01*
X89192352Y-90485563D01*
X89207111Y-90476066D01*
X89211283Y-90478917D01*
X89460000Y-90529283D01*
X90460000Y-90529283D01*
X90692352Y-90485563D01*
X90707111Y-90476066D01*
X90711283Y-90478917D01*
X90960000Y-90529283D01*
X91960000Y-90529283D01*
X92192352Y-90485563D01*
X92405753Y-90348243D01*
X92452348Y-90280050D01*
X92481757Y-90325753D01*
X92691283Y-90468917D01*
X92940000Y-90519283D01*
X94240000Y-90519283D01*
X94472352Y-90475563D01*
X94547529Y-90427188D01*
X94601283Y-90463917D01*
X94850000Y-90514283D01*
X96350000Y-90514283D01*
X96582352Y-90470563D01*
X96795753Y-90333243D01*
X96849334Y-90254826D01*
X96891757Y-90320753D01*
G36*
X72878902Y-88073073D02*
X72761673Y-88190301D01*
X72665000Y-88423690D01*
X72665000Y-88914250D01*
X72823750Y-89073000D01*
X73923000Y-89073000D01*
X73923000Y-89053000D01*
X74177000Y-89053000D01*
X74177000Y-89073000D01*
X74197000Y-89073000D01*
X74197000Y-89327000D01*
X74177000Y-89327000D01*
X74177000Y-90222750D01*
X74061000Y-90338750D01*
X74061000Y-91313000D01*
X74081000Y-91313000D01*
X74081000Y-91567000D01*
X74061000Y-91567000D01*
X74061000Y-91587000D01*
X73807000Y-91587000D01*
X73807000Y-91567000D01*
X72707750Y-91567000D01*
X72549000Y-91725750D01*
X72549000Y-92191310D01*
X72619171Y-92360717D01*
X71350000Y-92360717D01*
X71117648Y-92404437D01*
X71051390Y-92447073D01*
X70998717Y-92411083D01*
X70750000Y-92360717D01*
X69450000Y-92360717D01*
X69217648Y-92404437D01*
X69004247Y-92541757D01*
X68925000Y-92657738D01*
X68925000Y-92385750D01*
X68766250Y-92227000D01*
X65877000Y-92227000D01*
X65877000Y-93826250D01*
X66035750Y-93985000D01*
X67774734Y-93985000D01*
X67633441Y-94126293D01*
X67354610Y-94181757D01*
X67314387Y-94189758D01*
X67029867Y-94379867D01*
X67029865Y-94379870D01*
X65349017Y-96060717D01*
X63950000Y-96060717D01*
X63717648Y-96104437D01*
X63702000Y-96114506D01*
X63702000Y-93985000D01*
X65464250Y-93985000D01*
X65623000Y-93826250D01*
X65623000Y-92227000D01*
X65603000Y-92227000D01*
X65603000Y-91973000D01*
X65623000Y-91973000D01*
X65623000Y-90373750D01*
X65877000Y-90373750D01*
X65877000Y-91973000D01*
X68766250Y-91973000D01*
X68925000Y-91814250D01*
X68925000Y-90723691D01*
X68910503Y-90688690D01*
X72549000Y-90688690D01*
X72549000Y-91154250D01*
X72707750Y-91313000D01*
X73807000Y-91313000D01*
X73807000Y-90442250D01*
X73923000Y-90326250D01*
X73923000Y-89327000D01*
X72823750Y-89327000D01*
X72665000Y-89485750D01*
X72665000Y-89976310D01*
X72761673Y-90209699D01*
X72827375Y-90275400D01*
X72824302Y-90276673D01*
X72645673Y-90455301D01*
X72549000Y-90688690D01*
X68910503Y-90688690D01*
X68828327Y-90490302D01*
X68649699Y-90311673D01*
X68416310Y-90215000D01*
X66035750Y-90215000D01*
X65877000Y-90373750D01*
X65623000Y-90373750D01*
X65464250Y-90215000D01*
X63702000Y-90215000D01*
X63702000Y-89739283D01*
X68290000Y-89739283D01*
X68522352Y-89695563D01*
X68735753Y-89558243D01*
X68878917Y-89348717D01*
X68903565Y-89227000D01*
X71050000Y-89227000D01*
X71385613Y-89160242D01*
X71670133Y-88970133D01*
X72663266Y-87977000D01*
X72817080Y-87977000D01*
X72878902Y-88073073D01*
X72878902Y-88073073D01*
G37*
X72878902Y-88073073D02*
X72761673Y-88190301D01*
X72665000Y-88423690D01*
X72665000Y-88914250D01*
X72823750Y-89073000D01*
X73923000Y-89073000D01*
X73923000Y-89053000D01*
X74177000Y-89053000D01*
X74177000Y-89073000D01*
X74197000Y-89073000D01*
X74197000Y-89327000D01*
X74177000Y-89327000D01*
X74177000Y-90222750D01*
X74061000Y-90338750D01*
X74061000Y-91313000D01*
X74081000Y-91313000D01*
X74081000Y-91567000D01*
X74061000Y-91567000D01*
X74061000Y-91587000D01*
X73807000Y-91587000D01*
X73807000Y-91567000D01*
X72707750Y-91567000D01*
X72549000Y-91725750D01*
X72549000Y-92191310D01*
X72619171Y-92360717D01*
X71350000Y-92360717D01*
X71117648Y-92404437D01*
X71051390Y-92447073D01*
X70998717Y-92411083D01*
X70750000Y-92360717D01*
X69450000Y-92360717D01*
X69217648Y-92404437D01*
X69004247Y-92541757D01*
X68925000Y-92657738D01*
X68925000Y-92385750D01*
X68766250Y-92227000D01*
X65877000Y-92227000D01*
X65877000Y-93826250D01*
X66035750Y-93985000D01*
X67774734Y-93985000D01*
X67633441Y-94126293D01*
X67354610Y-94181757D01*
X67314387Y-94189758D01*
X67029867Y-94379867D01*
X67029865Y-94379870D01*
X65349017Y-96060717D01*
X63950000Y-96060717D01*
X63717648Y-96104437D01*
X63702000Y-96114506D01*
X63702000Y-93985000D01*
X65464250Y-93985000D01*
X65623000Y-93826250D01*
X65623000Y-92227000D01*
X65603000Y-92227000D01*
X65603000Y-91973000D01*
X65623000Y-91973000D01*
X65623000Y-90373750D01*
X65877000Y-90373750D01*
X65877000Y-91973000D01*
X68766250Y-91973000D01*
X68925000Y-91814250D01*
X68925000Y-90723691D01*
X68910503Y-90688690D01*
X72549000Y-90688690D01*
X72549000Y-91154250D01*
X72707750Y-91313000D01*
X73807000Y-91313000D01*
X73807000Y-90442250D01*
X73923000Y-90326250D01*
X73923000Y-89327000D01*
X72823750Y-89327000D01*
X72665000Y-89485750D01*
X72665000Y-89976310D01*
X72761673Y-90209699D01*
X72827375Y-90275400D01*
X72824302Y-90276673D01*
X72645673Y-90455301D01*
X72549000Y-90688690D01*
X68910503Y-90688690D01*
X68828327Y-90490302D01*
X68649699Y-90311673D01*
X68416310Y-90215000D01*
X66035750Y-90215000D01*
X65877000Y-90373750D01*
X65623000Y-90373750D01*
X65464250Y-90215000D01*
X63702000Y-90215000D01*
X63702000Y-89739283D01*
X68290000Y-89739283D01*
X68522352Y-89695563D01*
X68735753Y-89558243D01*
X68878917Y-89348717D01*
X68903565Y-89227000D01*
X71050000Y-89227000D01*
X71385613Y-89160242D01*
X71670133Y-88970133D01*
X72663266Y-87977000D01*
X72817080Y-87977000D01*
X72878902Y-88073073D01*
G36*
X85735000Y-87983283D02*
X86985000Y-87983283D01*
X87054070Y-87970287D01*
X86979867Y-88019867D01*
X86979865Y-88019870D01*
X86459018Y-88540717D01*
X85660000Y-88540717D01*
X85427648Y-88584437D01*
X85214247Y-88721757D01*
X85071083Y-88931283D01*
X85020717Y-89180000D01*
X85020717Y-90680000D01*
X85064437Y-90912352D01*
X85201757Y-91125753D01*
X85411283Y-91268917D01*
X85458892Y-91278558D01*
X85427648Y-91284437D01*
X85214247Y-91421757D01*
X85071083Y-91631283D01*
X85020717Y-91880000D01*
X85020717Y-92354691D01*
X84909698Y-92243673D01*
X84676309Y-92147000D01*
X84335750Y-92147000D01*
X84177000Y-92305750D01*
X84177000Y-93905000D01*
X85026250Y-93905000D01*
X85164068Y-93767182D01*
X85201757Y-93825753D01*
X85411283Y-93968917D01*
X85433000Y-93973315D01*
X85433000Y-95172472D01*
X85294247Y-95261757D01*
X85170974Y-95442172D01*
X85185000Y-95408310D01*
X85185000Y-94317750D01*
X85026250Y-94159000D01*
X84177000Y-94159000D01*
X84177000Y-94179000D01*
X83923000Y-94179000D01*
X83923000Y-94159000D01*
X83903000Y-94159000D01*
X83903000Y-93905000D01*
X83923000Y-93905000D01*
X83923000Y-92305750D01*
X83764250Y-92147000D01*
X83423691Y-92147000D01*
X83303895Y-92196621D01*
X83298717Y-92193083D01*
X83050000Y-92142717D01*
X82484608Y-92142717D01*
X82495283Y-92090000D01*
X82495283Y-90790000D01*
X82453752Y-90569283D01*
X82700000Y-90569283D01*
X82932352Y-90525563D01*
X83145753Y-90388243D01*
X83288917Y-90178717D01*
X83339283Y-89930000D01*
X83339283Y-88780983D01*
X83880983Y-88239283D01*
X85050000Y-88239283D01*
X85282352Y-88195563D01*
X85495753Y-88058243D01*
X85569826Y-87949835D01*
X85735000Y-87983283D01*
X85735000Y-87983283D01*
G37*
X85735000Y-87983283D02*
X86985000Y-87983283D01*
X87054070Y-87970287D01*
X86979867Y-88019867D01*
X86979865Y-88019870D01*
X86459018Y-88540717D01*
X85660000Y-88540717D01*
X85427648Y-88584437D01*
X85214247Y-88721757D01*
X85071083Y-88931283D01*
X85020717Y-89180000D01*
X85020717Y-90680000D01*
X85064437Y-90912352D01*
X85201757Y-91125753D01*
X85411283Y-91268917D01*
X85458892Y-91278558D01*
X85427648Y-91284437D01*
X85214247Y-91421757D01*
X85071083Y-91631283D01*
X85020717Y-91880000D01*
X85020717Y-92354691D01*
X84909698Y-92243673D01*
X84676309Y-92147000D01*
X84335750Y-92147000D01*
X84177000Y-92305750D01*
X84177000Y-93905000D01*
X85026250Y-93905000D01*
X85164068Y-93767182D01*
X85201757Y-93825753D01*
X85411283Y-93968917D01*
X85433000Y-93973315D01*
X85433000Y-95172472D01*
X85294247Y-95261757D01*
X85170974Y-95442172D01*
X85185000Y-95408310D01*
X85185000Y-94317750D01*
X85026250Y-94159000D01*
X84177000Y-94159000D01*
X84177000Y-94179000D01*
X83923000Y-94179000D01*
X83923000Y-94159000D01*
X83903000Y-94159000D01*
X83903000Y-93905000D01*
X83923000Y-93905000D01*
X83923000Y-92305750D01*
X83764250Y-92147000D01*
X83423691Y-92147000D01*
X83303895Y-92196621D01*
X83298717Y-92193083D01*
X83050000Y-92142717D01*
X82484608Y-92142717D01*
X82495283Y-92090000D01*
X82495283Y-90790000D01*
X82453752Y-90569283D01*
X82700000Y-90569283D01*
X82932352Y-90525563D01*
X83145753Y-90388243D01*
X83288917Y-90178717D01*
X83339283Y-89930000D01*
X83339283Y-88780983D01*
X83880983Y-88239283D01*
X85050000Y-88239283D01*
X85282352Y-88195563D01*
X85495753Y-88058243D01*
X85569826Y-87949835D01*
X85735000Y-87983283D01*
G36*
X95727000Y-87273000D02*
X95747000Y-87273000D01*
X95747000Y-87527000D01*
X95727000Y-87527000D01*
X95727000Y-87547000D01*
X95473000Y-87547000D01*
X95473000Y-87527000D01*
X95453000Y-87527000D01*
X95453000Y-87273000D01*
X95473000Y-87273000D01*
X95473000Y-87253000D01*
X95727000Y-87253000D01*
X95727000Y-87273000D01*
X95727000Y-87273000D01*
G37*
X95727000Y-87273000D02*
X95747000Y-87273000D01*
X95747000Y-87527000D01*
X95727000Y-87527000D01*
X95727000Y-87547000D01*
X95473000Y-87547000D01*
X95473000Y-87527000D01*
X95453000Y-87527000D01*
X95453000Y-87273000D01*
X95473000Y-87273000D01*
X95473000Y-87253000D01*
X95727000Y-87253000D01*
X95727000Y-87273000D01*
G36*
X104373000Y-83447516D02*
X104304247Y-83491757D01*
X104161083Y-83701283D01*
X104136435Y-83823000D01*
X103564283Y-83823000D01*
X103564283Y-82920000D01*
X103520563Y-82687648D01*
X103383243Y-82474247D01*
X103173717Y-82331083D01*
X102925000Y-82280717D01*
X100925000Y-82280717D01*
X100692648Y-82324437D01*
X100479247Y-82461757D01*
X100336083Y-82671283D01*
X100285717Y-82920000D01*
X100285717Y-84573000D01*
X99690386Y-84573000D01*
X99670563Y-84467648D01*
X99533243Y-84254247D01*
X99465242Y-84207784D01*
X99613327Y-84059698D01*
X99710000Y-83826309D01*
X99710000Y-83235750D01*
X99551250Y-83077000D01*
X98577000Y-83077000D01*
X98577000Y-83097000D01*
X98323000Y-83097000D01*
X98323000Y-83077000D01*
X98303000Y-83077000D01*
X98303000Y-82823000D01*
X98323000Y-82823000D01*
X98323000Y-81723750D01*
X98577000Y-81723750D01*
X98577000Y-82823000D01*
X99551250Y-82823000D01*
X99710000Y-82664250D01*
X99710000Y-82073691D01*
X99613327Y-81840302D01*
X99434699Y-81661673D01*
X99201310Y-81565000D01*
X98735750Y-81565000D01*
X98577000Y-81723750D01*
X98323000Y-81723750D01*
X98164250Y-81565000D01*
X97698690Y-81565000D01*
X97465301Y-81661673D01*
X97286673Y-81840302D01*
X97278217Y-81860717D01*
X96500983Y-81860717D01*
X95970133Y-81329867D01*
X95685613Y-81139758D01*
X95350000Y-81073000D01*
X94025857Y-81073000D01*
X94059516Y-81022626D01*
X94183364Y-80400000D01*
X94059516Y-79777374D01*
X93706827Y-79249537D01*
X93178990Y-78896848D01*
X92556364Y-78773000D01*
X89943636Y-78773000D01*
X89321010Y-78896848D01*
X88793173Y-79249537D01*
X88440484Y-79777374D01*
X88316636Y-80400000D01*
X88440484Y-81022626D01*
X88474143Y-81073000D01*
X85600000Y-81073000D01*
X85264386Y-81139758D01*
X85150424Y-81215905D01*
X84979867Y-81329867D01*
X84979865Y-81329870D01*
X83779867Y-82529867D01*
X83607732Y-82787487D01*
X83517648Y-82804437D01*
X83304247Y-82941757D01*
X83161083Y-83151283D01*
X83136435Y-83273000D01*
X82339283Y-83273000D01*
X82339283Y-82720000D01*
X82295563Y-82487648D01*
X82158243Y-82274247D01*
X81948717Y-82131083D01*
X81700000Y-82080717D01*
X79700000Y-82080717D01*
X79467648Y-82124437D01*
X79254247Y-82261757D01*
X79111083Y-82471283D01*
X79060717Y-82720000D01*
X79060717Y-84223000D01*
X77982920Y-84223000D01*
X77858243Y-84029247D01*
X77648717Y-83886083D01*
X77400000Y-83835717D01*
X75900000Y-83835717D01*
X75667648Y-83879437D01*
X75454247Y-84016757D01*
X75407784Y-84084758D01*
X75259698Y-83936673D01*
X75026309Y-83840000D01*
X74435750Y-83840000D01*
X74277000Y-83998750D01*
X74277000Y-84973000D01*
X74297000Y-84973000D01*
X74297000Y-85227000D01*
X74277000Y-85227000D01*
X74277000Y-85247000D01*
X74023000Y-85247000D01*
X74023000Y-85227000D01*
X72923750Y-85227000D01*
X72765000Y-85385750D01*
X72765000Y-85851310D01*
X72861673Y-86084699D01*
X72889090Y-86112116D01*
X72813326Y-86223000D01*
X72300005Y-86223000D01*
X72300000Y-86222999D01*
X71964387Y-86289758D01*
X71679867Y-86479867D01*
X70686734Y-87473000D01*
X68905386Y-87473000D01*
X68885563Y-87367648D01*
X68748243Y-87154247D01*
X68538717Y-87011083D01*
X68290000Y-86960717D01*
X63702000Y-86960717D01*
X63702000Y-86485000D01*
X65464250Y-86485000D01*
X65623000Y-86326250D01*
X65623000Y-84727000D01*
X65877000Y-84727000D01*
X65877000Y-86326250D01*
X66035750Y-86485000D01*
X68416310Y-86485000D01*
X68649699Y-86388327D01*
X68828327Y-86209698D01*
X68925000Y-85976309D01*
X68925000Y-84885750D01*
X68766250Y-84727000D01*
X65877000Y-84727000D01*
X65623000Y-84727000D01*
X65603000Y-84727000D01*
X65603000Y-84473000D01*
X65623000Y-84473000D01*
X65623000Y-82873750D01*
X65877000Y-82873750D01*
X65877000Y-84473000D01*
X68766250Y-84473000D01*
X68890560Y-84348690D01*
X72765000Y-84348690D01*
X72765000Y-84814250D01*
X72923750Y-84973000D01*
X74023000Y-84973000D01*
X74023000Y-83998750D01*
X73864250Y-83840000D01*
X73273691Y-83840000D01*
X73040302Y-83936673D01*
X72861673Y-84115301D01*
X72765000Y-84348690D01*
X68890560Y-84348690D01*
X68925000Y-84314250D01*
X68925000Y-83223691D01*
X68828327Y-82990302D01*
X68649699Y-82811673D01*
X68416310Y-82715000D01*
X66035750Y-82715000D01*
X65877000Y-82873750D01*
X65623000Y-82873750D01*
X65464250Y-82715000D01*
X63702000Y-82715000D01*
X63702000Y-80450000D01*
X78616636Y-80450000D01*
X78740484Y-81072626D01*
X79093173Y-81600463D01*
X79621010Y-81953152D01*
X80243636Y-82077000D01*
X82856364Y-82077000D01*
X83478990Y-81953152D01*
X84006827Y-81600463D01*
X84359516Y-81072626D01*
X84483364Y-80450000D01*
X84359516Y-79827374D01*
X84006827Y-79299537D01*
X83478990Y-78946848D01*
X82856364Y-78823000D01*
X80243636Y-78823000D01*
X79621010Y-78946848D01*
X79093173Y-79299537D01*
X78740484Y-79827374D01*
X78616636Y-80450000D01*
X63702000Y-80450000D01*
X63702000Y-78702000D01*
X104373000Y-78702000D01*
X104373000Y-83447516D01*
X104373000Y-83447516D01*
G37*
X104373000Y-83447516D02*
X104304247Y-83491757D01*
X104161083Y-83701283D01*
X104136435Y-83823000D01*
X103564283Y-83823000D01*
X103564283Y-82920000D01*
X103520563Y-82687648D01*
X103383243Y-82474247D01*
X103173717Y-82331083D01*
X102925000Y-82280717D01*
X100925000Y-82280717D01*
X100692648Y-82324437D01*
X100479247Y-82461757D01*
X100336083Y-82671283D01*
X100285717Y-82920000D01*
X100285717Y-84573000D01*
X99690386Y-84573000D01*
X99670563Y-84467648D01*
X99533243Y-84254247D01*
X99465242Y-84207784D01*
X99613327Y-84059698D01*
X99710000Y-83826309D01*
X99710000Y-83235750D01*
X99551250Y-83077000D01*
X98577000Y-83077000D01*
X98577000Y-83097000D01*
X98323000Y-83097000D01*
X98323000Y-83077000D01*
X98303000Y-83077000D01*
X98303000Y-82823000D01*
X98323000Y-82823000D01*
X98323000Y-81723750D01*
X98577000Y-81723750D01*
X98577000Y-82823000D01*
X99551250Y-82823000D01*
X99710000Y-82664250D01*
X99710000Y-82073691D01*
X99613327Y-81840302D01*
X99434699Y-81661673D01*
X99201310Y-81565000D01*
X98735750Y-81565000D01*
X98577000Y-81723750D01*
X98323000Y-81723750D01*
X98164250Y-81565000D01*
X97698690Y-81565000D01*
X97465301Y-81661673D01*
X97286673Y-81840302D01*
X97278217Y-81860717D01*
X96500983Y-81860717D01*
X95970133Y-81329867D01*
X95685613Y-81139758D01*
X95350000Y-81073000D01*
X94025857Y-81073000D01*
X94059516Y-81022626D01*
X94183364Y-80400000D01*
X94059516Y-79777374D01*
X93706827Y-79249537D01*
X93178990Y-78896848D01*
X92556364Y-78773000D01*
X89943636Y-78773000D01*
X89321010Y-78896848D01*
X88793173Y-79249537D01*
X88440484Y-79777374D01*
X88316636Y-80400000D01*
X88440484Y-81022626D01*
X88474143Y-81073000D01*
X85600000Y-81073000D01*
X85264386Y-81139758D01*
X85150424Y-81215905D01*
X84979867Y-81329867D01*
X84979865Y-81329870D01*
X83779867Y-82529867D01*
X83607732Y-82787487D01*
X83517648Y-82804437D01*
X83304247Y-82941757D01*
X83161083Y-83151283D01*
X83136435Y-83273000D01*
X82339283Y-83273000D01*
X82339283Y-82720000D01*
X82295563Y-82487648D01*
X82158243Y-82274247D01*
X81948717Y-82131083D01*
X81700000Y-82080717D01*
X79700000Y-82080717D01*
X79467648Y-82124437D01*
X79254247Y-82261757D01*
X79111083Y-82471283D01*
X79060717Y-82720000D01*
X79060717Y-84223000D01*
X77982920Y-84223000D01*
X77858243Y-84029247D01*
X77648717Y-83886083D01*
X77400000Y-83835717D01*
X75900000Y-83835717D01*
X75667648Y-83879437D01*
X75454247Y-84016757D01*
X75407784Y-84084758D01*
X75259698Y-83936673D01*
X75026309Y-83840000D01*
X74435750Y-83840000D01*
X74277000Y-83998750D01*
X74277000Y-84973000D01*
X74297000Y-84973000D01*
X74297000Y-85227000D01*
X74277000Y-85227000D01*
X74277000Y-85247000D01*
X74023000Y-85247000D01*
X74023000Y-85227000D01*
X72923750Y-85227000D01*
X72765000Y-85385750D01*
X72765000Y-85851310D01*
X72861673Y-86084699D01*
X72889090Y-86112116D01*
X72813326Y-86223000D01*
X72300005Y-86223000D01*
X72300000Y-86222999D01*
X71964387Y-86289758D01*
X71679867Y-86479867D01*
X70686734Y-87473000D01*
X68905386Y-87473000D01*
X68885563Y-87367648D01*
X68748243Y-87154247D01*
X68538717Y-87011083D01*
X68290000Y-86960717D01*
X63702000Y-86960717D01*
X63702000Y-86485000D01*
X65464250Y-86485000D01*
X65623000Y-86326250D01*
X65623000Y-84727000D01*
X65877000Y-84727000D01*
X65877000Y-86326250D01*
X66035750Y-86485000D01*
X68416310Y-86485000D01*
X68649699Y-86388327D01*
X68828327Y-86209698D01*
X68925000Y-85976309D01*
X68925000Y-84885750D01*
X68766250Y-84727000D01*
X65877000Y-84727000D01*
X65623000Y-84727000D01*
X65603000Y-84727000D01*
X65603000Y-84473000D01*
X65623000Y-84473000D01*
X65623000Y-82873750D01*
X65877000Y-82873750D01*
X65877000Y-84473000D01*
X68766250Y-84473000D01*
X68890560Y-84348690D01*
X72765000Y-84348690D01*
X72765000Y-84814250D01*
X72923750Y-84973000D01*
X74023000Y-84973000D01*
X74023000Y-83998750D01*
X73864250Y-83840000D01*
X73273691Y-83840000D01*
X73040302Y-83936673D01*
X72861673Y-84115301D01*
X72765000Y-84348690D01*
X68890560Y-84348690D01*
X68925000Y-84314250D01*
X68925000Y-83223691D01*
X68828327Y-82990302D01*
X68649699Y-82811673D01*
X68416310Y-82715000D01*
X66035750Y-82715000D01*
X65877000Y-82873750D01*
X65623000Y-82873750D01*
X65464250Y-82715000D01*
X63702000Y-82715000D01*
X63702000Y-80450000D01*
X78616636Y-80450000D01*
X78740484Y-81072626D01*
X79093173Y-81600463D01*
X79621010Y-81953152D01*
X80243636Y-82077000D01*
X82856364Y-82077000D01*
X83478990Y-81953152D01*
X84006827Y-81600463D01*
X84359516Y-81072626D01*
X84483364Y-80450000D01*
X84359516Y-79827374D01*
X84006827Y-79299537D01*
X83478990Y-78946848D01*
X82856364Y-78823000D01*
X80243636Y-78823000D01*
X79621010Y-78946848D01*
X79093173Y-79299537D01*
X78740484Y-79827374D01*
X78616636Y-80450000D01*
X63702000Y-80450000D01*
X63702000Y-78702000D01*
X104373000Y-78702000D01*
X104373000Y-83447516D01*
M02*
