G04 #@! TF.FileFunction,Legend,Top*
%FSLAX46Y46*%
G04 Gerber Fmt 4.6, Leading zero omitted, Abs format (unit mm)*
G04 Created by KiCad (PCBNEW 4.0.7) date 04/21/20 19:12:33*
%MOMM*%
%LPD*%
G01*
G04 APERTURE LIST*
%ADD10C,0.100000*%
%ADD11C,0.120000*%
%ADD12C,0.150000*%
G04 APERTURE END LIST*
D10*
D11*
X74800000Y-88320000D02*
X76000000Y-88320000D01*
X76000000Y-90080000D02*
X74800000Y-90080000D01*
X107690000Y-98470000D02*
X106690000Y-98470000D01*
X106690000Y-100170000D02*
X107690000Y-100170000D01*
X97760000Y-98450000D02*
X96760000Y-98450000D01*
X96760000Y-100150000D02*
X97760000Y-100150000D01*
X85510000Y-84844000D02*
X85510000Y-85844000D01*
X87210000Y-85844000D02*
X87210000Y-84844000D01*
X75900000Y-86250000D02*
X74900000Y-86250000D01*
X74900000Y-87950000D02*
X75900000Y-87950000D01*
X97350000Y-88400000D02*
X96350000Y-88400000D01*
X96350000Y-90100000D02*
X97350000Y-90100000D01*
X75900000Y-84250000D02*
X74900000Y-84250000D01*
X74900000Y-85950000D02*
X75900000Y-85950000D01*
X96720000Y-96520000D02*
X97920000Y-96520000D01*
X97920000Y-98280000D02*
X96720000Y-98280000D01*
X94670000Y-97270000D02*
X94670000Y-98470000D01*
X92910000Y-98470000D02*
X92910000Y-97270000D01*
X80356000Y-92320000D02*
X79156000Y-92320000D01*
X79156000Y-90560000D02*
X80356000Y-90560000D01*
X95620000Y-94030000D02*
X94420000Y-94030000D01*
X94420000Y-92270000D02*
X95620000Y-92270000D01*
X95800000Y-84030000D02*
X94600000Y-84030000D01*
X94600000Y-82270000D02*
X95800000Y-82270000D01*
X68100000Y-97570000D02*
X69300000Y-97570000D01*
X69300000Y-99330000D02*
X68100000Y-99330000D01*
X70850000Y-94100000D02*
X70850000Y-97300000D01*
X69350000Y-97300000D02*
X69350000Y-94100000D01*
X69350000Y-97300000D02*
X70850000Y-97300000D01*
X71120000Y-95000000D02*
X71120000Y-97000000D01*
X74080000Y-97000000D02*
X74080000Y-95000000D01*
X99730000Y-94640000D02*
X99730000Y-93640000D01*
X98030000Y-93640000D02*
X98030000Y-94640000D01*
X107400000Y-88675000D02*
X106400000Y-88675000D01*
X106400000Y-90375000D02*
X107400000Y-90375000D01*
X106710000Y-95350000D02*
X106710000Y-96550000D01*
X104950000Y-96550000D02*
X104950000Y-95350000D01*
X85280000Y-84900000D02*
X85280000Y-86100000D01*
X83520000Y-86100000D02*
X83520000Y-84900000D01*
X103450000Y-94920000D02*
X104650000Y-94920000D01*
X104650000Y-94920000D02*
X104650000Y-97620000D01*
X99850000Y-98920000D02*
X99850000Y-94920000D01*
X99850000Y-94920000D02*
X101050000Y-94920000D01*
X103125000Y-85120000D02*
X104325000Y-85120000D01*
X104325000Y-85120000D02*
X104325000Y-87820000D01*
X99525000Y-89120000D02*
X99525000Y-85120000D01*
X99525000Y-85120000D02*
X100725000Y-85120000D01*
X81900000Y-84920000D02*
X83100000Y-84920000D01*
X83100000Y-84920000D02*
X83100000Y-87620000D01*
X78300000Y-88920000D02*
X78300000Y-84920000D01*
X78300000Y-84920000D02*
X79500000Y-84920000D01*
X94470000Y-87180000D02*
X94470000Y-88380000D01*
X92710000Y-88380000D02*
X92710000Y-87180000D01*
X99300000Y-84700000D02*
X99300000Y-83700000D01*
X97600000Y-83700000D02*
X97600000Y-84700000D01*
X78162000Y-94994000D02*
X79362000Y-94994000D01*
X79362000Y-94994000D02*
X79362000Y-97694000D01*
X74562000Y-98994000D02*
X74562000Y-94994000D01*
X74562000Y-94994000D02*
X75762000Y-94994000D01*
X91250000Y-94920000D02*
X92450000Y-94920000D01*
X92450000Y-94920000D02*
X92450000Y-97620000D01*
X87650000Y-98920000D02*
X87650000Y-94920000D01*
X87650000Y-94920000D02*
X88850000Y-94920000D01*
X81350000Y-97792000D02*
X80150000Y-97792000D01*
X80150000Y-97792000D02*
X80150000Y-95092000D01*
X84950000Y-93792000D02*
X84950000Y-97792000D01*
X84950000Y-97792000D02*
X83750000Y-97792000D01*
X91160000Y-84880000D02*
X92360000Y-84880000D01*
X92360000Y-84880000D02*
X92360000Y-87580000D01*
X87560000Y-88880000D02*
X87560000Y-84880000D01*
X87560000Y-84880000D02*
X88760000Y-84880000D01*
X106280000Y-85450000D02*
X106280000Y-86650000D01*
X104520000Y-86650000D02*
X104520000Y-85450000D01*
X96350000Y-86520000D02*
X97550000Y-86520000D01*
X97550000Y-88280000D02*
X96350000Y-88280000D01*
X85510000Y-98420000D02*
X85510000Y-97220000D01*
X87270000Y-97220000D02*
X87270000Y-98420000D01*
X85430000Y-91880000D02*
X85430000Y-90680000D01*
X87190000Y-90680000D02*
X87190000Y-91880000D01*
X74684000Y-92290000D02*
X75684000Y-92290000D01*
X75684000Y-90590000D02*
X74684000Y-90590000D01*
D12*
X72852381Y-90142857D02*
X72376190Y-90476191D01*
X72852381Y-90714286D02*
X71852381Y-90714286D01*
X71852381Y-90333333D01*
X71900000Y-90238095D01*
X71947619Y-90190476D01*
X72042857Y-90142857D01*
X72185714Y-90142857D01*
X72280952Y-90190476D01*
X72328571Y-90238095D01*
X72376190Y-90333333D01*
X72376190Y-90714286D01*
X72852381Y-89190476D02*
X72852381Y-89761905D01*
X72852381Y-89476191D02*
X71852381Y-89476191D01*
X71995238Y-89571429D01*
X72090476Y-89666667D01*
X72138095Y-89761905D01*
X71852381Y-88571429D02*
X71852381Y-88476190D01*
X71900000Y-88380952D01*
X71947619Y-88333333D01*
X72042857Y-88285714D01*
X72233333Y-88238095D01*
X72471429Y-88238095D01*
X72661905Y-88285714D01*
X72757143Y-88333333D01*
X72804762Y-88380952D01*
X72852381Y-88476190D01*
X72852381Y-88571429D01*
X72804762Y-88666667D01*
X72757143Y-88714286D01*
X72661905Y-88761905D01*
X72471429Y-88809524D01*
X72233333Y-88809524D01*
X72042857Y-88761905D01*
X71947619Y-88714286D01*
X71900000Y-88666667D01*
X71852381Y-88571429D01*
X108029334Y-97971143D02*
X107981715Y-98018762D01*
X107838858Y-98066381D01*
X107743620Y-98066381D01*
X107600762Y-98018762D01*
X107505524Y-97923524D01*
X107457905Y-97828286D01*
X107410286Y-97637810D01*
X107410286Y-97494952D01*
X107457905Y-97304476D01*
X107505524Y-97209238D01*
X107600762Y-97114000D01*
X107743620Y-97066381D01*
X107838858Y-97066381D01*
X107981715Y-97114000D01*
X108029334Y-97161619D01*
X108981715Y-98066381D02*
X108410286Y-98066381D01*
X108696000Y-98066381D02*
X108696000Y-97066381D01*
X108600762Y-97209238D01*
X108505524Y-97304476D01*
X108410286Y-97352095D01*
X97093334Y-101307143D02*
X97045715Y-101354762D01*
X96902858Y-101402381D01*
X96807620Y-101402381D01*
X96664762Y-101354762D01*
X96569524Y-101259524D01*
X96521905Y-101164286D01*
X96474286Y-100973810D01*
X96474286Y-100830952D01*
X96521905Y-100640476D01*
X96569524Y-100545238D01*
X96664762Y-100450000D01*
X96807620Y-100402381D01*
X96902858Y-100402381D01*
X97045715Y-100450000D01*
X97093334Y-100497619D01*
X97426667Y-100402381D02*
X98045715Y-100402381D01*
X97712381Y-100783333D01*
X97855239Y-100783333D01*
X97950477Y-100830952D01*
X97998096Y-100878571D01*
X98045715Y-100973810D01*
X98045715Y-101211905D01*
X97998096Y-101307143D01*
X97950477Y-101354762D01*
X97855239Y-101402381D01*
X97569524Y-101402381D01*
X97474286Y-101354762D01*
X97426667Y-101307143D01*
X86133334Y-82757143D02*
X86085715Y-82804762D01*
X85942858Y-82852381D01*
X85847620Y-82852381D01*
X85704762Y-82804762D01*
X85609524Y-82709524D01*
X85561905Y-82614286D01*
X85514286Y-82423810D01*
X85514286Y-82280952D01*
X85561905Y-82090476D01*
X85609524Y-81995238D01*
X85704762Y-81900000D01*
X85847620Y-81852381D01*
X85942858Y-81852381D01*
X86085715Y-81900000D01*
X86133334Y-81947619D01*
X87038096Y-81852381D02*
X86561905Y-81852381D01*
X86514286Y-82328571D01*
X86561905Y-82280952D01*
X86657143Y-82233333D01*
X86895239Y-82233333D01*
X86990477Y-82280952D01*
X87038096Y-82328571D01*
X87085715Y-82423810D01*
X87085715Y-82661905D01*
X87038096Y-82757143D01*
X86990477Y-82804762D01*
X86895239Y-82852381D01*
X86657143Y-82852381D01*
X86561905Y-82804762D01*
X86514286Y-82757143D01*
X72709143Y-87266666D02*
X72756762Y-87314285D01*
X72804381Y-87457142D01*
X72804381Y-87552380D01*
X72756762Y-87695238D01*
X72661524Y-87790476D01*
X72566286Y-87838095D01*
X72375810Y-87885714D01*
X72232952Y-87885714D01*
X72042476Y-87838095D01*
X71947238Y-87790476D01*
X71852000Y-87695238D01*
X71804381Y-87552380D01*
X71804381Y-87457142D01*
X71852000Y-87314285D01*
X71899619Y-87266666D01*
X71804381Y-86409523D02*
X71804381Y-86600000D01*
X71852000Y-86695238D01*
X71899619Y-86742857D01*
X72042476Y-86838095D01*
X72232952Y-86885714D01*
X72613905Y-86885714D01*
X72709143Y-86838095D01*
X72756762Y-86790476D01*
X72804381Y-86695238D01*
X72804381Y-86504761D01*
X72756762Y-86409523D01*
X72709143Y-86361904D01*
X72613905Y-86314285D01*
X72375810Y-86314285D01*
X72280571Y-86361904D01*
X72232952Y-86409523D01*
X72185333Y-86504761D01*
X72185333Y-86695238D01*
X72232952Y-86790476D01*
X72280571Y-86838095D01*
X72375810Y-86885714D01*
X96253334Y-91107143D02*
X96205715Y-91154762D01*
X96062858Y-91202381D01*
X95967620Y-91202381D01*
X95824762Y-91154762D01*
X95729524Y-91059524D01*
X95681905Y-90964286D01*
X95634286Y-90773810D01*
X95634286Y-90630952D01*
X95681905Y-90440476D01*
X95729524Y-90345238D01*
X95824762Y-90250000D01*
X95967620Y-90202381D01*
X96062858Y-90202381D01*
X96205715Y-90250000D01*
X96253334Y-90297619D01*
X96824762Y-90630952D02*
X96729524Y-90583333D01*
X96681905Y-90535714D01*
X96634286Y-90440476D01*
X96634286Y-90392857D01*
X96681905Y-90297619D01*
X96729524Y-90250000D01*
X96824762Y-90202381D01*
X97015239Y-90202381D01*
X97110477Y-90250000D01*
X97158096Y-90297619D01*
X97205715Y-90392857D01*
X97205715Y-90440476D01*
X97158096Y-90535714D01*
X97110477Y-90583333D01*
X97015239Y-90630952D01*
X96824762Y-90630952D01*
X96729524Y-90678571D01*
X96681905Y-90726190D01*
X96634286Y-90821429D01*
X96634286Y-91011905D01*
X96681905Y-91107143D01*
X96729524Y-91154762D01*
X96824762Y-91202381D01*
X97015239Y-91202381D01*
X97110477Y-91154762D01*
X97158096Y-91107143D01*
X97205715Y-91011905D01*
X97205715Y-90821429D01*
X97158096Y-90726190D01*
X97110477Y-90678571D01*
X97015239Y-90630952D01*
X72757143Y-85266666D02*
X72804762Y-85314285D01*
X72852381Y-85457142D01*
X72852381Y-85552380D01*
X72804762Y-85695238D01*
X72709524Y-85790476D01*
X72614286Y-85838095D01*
X72423810Y-85885714D01*
X72280952Y-85885714D01*
X72090476Y-85838095D01*
X71995238Y-85790476D01*
X71900000Y-85695238D01*
X71852381Y-85552380D01*
X71852381Y-85457142D01*
X71900000Y-85314285D01*
X71947619Y-85266666D01*
X72852381Y-84790476D02*
X72852381Y-84600000D01*
X72804762Y-84504761D01*
X72757143Y-84457142D01*
X72614286Y-84361904D01*
X72423810Y-84314285D01*
X72042857Y-84314285D01*
X71947619Y-84361904D01*
X71900000Y-84409523D01*
X71852381Y-84504761D01*
X71852381Y-84695238D01*
X71900000Y-84790476D01*
X71947619Y-84838095D01*
X72042857Y-84885714D01*
X72280952Y-84885714D01*
X72376190Y-84838095D01*
X72423810Y-84790476D01*
X72471429Y-84695238D01*
X72471429Y-84504761D01*
X72423810Y-84409523D01*
X72376190Y-84361904D01*
X72280952Y-84314285D01*
X96353334Y-96052381D02*
X96020000Y-95576190D01*
X95781905Y-96052381D02*
X95781905Y-95052381D01*
X96162858Y-95052381D01*
X96258096Y-95100000D01*
X96305715Y-95147619D01*
X96353334Y-95242857D01*
X96353334Y-95385714D01*
X96305715Y-95480952D01*
X96258096Y-95528571D01*
X96162858Y-95576190D01*
X95781905Y-95576190D01*
X96734286Y-95147619D02*
X96781905Y-95100000D01*
X96877143Y-95052381D01*
X97115239Y-95052381D01*
X97210477Y-95100000D01*
X97258096Y-95147619D01*
X97305715Y-95242857D01*
X97305715Y-95338095D01*
X97258096Y-95480952D01*
X96686667Y-96052381D01*
X97305715Y-96052381D01*
X93543334Y-95282381D02*
X93210000Y-94806190D01*
X92971905Y-95282381D02*
X92971905Y-94282381D01*
X93352858Y-94282381D01*
X93448096Y-94330000D01*
X93495715Y-94377619D01*
X93543334Y-94472857D01*
X93543334Y-94615714D01*
X93495715Y-94710952D01*
X93448096Y-94758571D01*
X93352858Y-94806190D01*
X92971905Y-94806190D01*
X94400477Y-94615714D02*
X94400477Y-95282381D01*
X94162381Y-94234762D02*
X93924286Y-94949048D01*
X94543334Y-94949048D01*
X79033334Y-93552381D02*
X78700000Y-93076190D01*
X78461905Y-93552381D02*
X78461905Y-92552381D01*
X78842858Y-92552381D01*
X78938096Y-92600000D01*
X78985715Y-92647619D01*
X79033334Y-92742857D01*
X79033334Y-92885714D01*
X78985715Y-92980952D01*
X78938096Y-93028571D01*
X78842858Y-93076190D01*
X78461905Y-93076190D01*
X79938096Y-92552381D02*
X79461905Y-92552381D01*
X79414286Y-93028571D01*
X79461905Y-92980952D01*
X79557143Y-92933333D01*
X79795239Y-92933333D01*
X79890477Y-92980952D01*
X79938096Y-93028571D01*
X79985715Y-93123810D01*
X79985715Y-93361905D01*
X79938096Y-93457143D01*
X79890477Y-93504762D01*
X79795239Y-93552381D01*
X79557143Y-93552381D01*
X79461905Y-93504762D01*
X79414286Y-93457143D01*
X94003334Y-92032381D02*
X93670000Y-91556190D01*
X93431905Y-92032381D02*
X93431905Y-91032381D01*
X93812858Y-91032381D01*
X93908096Y-91080000D01*
X93955715Y-91127619D01*
X94003334Y-91222857D01*
X94003334Y-91365714D01*
X93955715Y-91460952D01*
X93908096Y-91508571D01*
X93812858Y-91556190D01*
X93431905Y-91556190D01*
X94860477Y-91032381D02*
X94670000Y-91032381D01*
X94574762Y-91080000D01*
X94527143Y-91127619D01*
X94431905Y-91270476D01*
X94384286Y-91460952D01*
X94384286Y-91841905D01*
X94431905Y-91937143D01*
X94479524Y-91984762D01*
X94574762Y-92032381D01*
X94765239Y-92032381D01*
X94860477Y-91984762D01*
X94908096Y-91937143D01*
X94955715Y-91841905D01*
X94955715Y-91603810D01*
X94908096Y-91508571D01*
X94860477Y-91460952D01*
X94765239Y-91413333D01*
X94574762Y-91413333D01*
X94479524Y-91460952D01*
X94431905Y-91508571D01*
X94384286Y-91603810D01*
X94643334Y-81892381D02*
X94310000Y-81416190D01*
X94071905Y-81892381D02*
X94071905Y-80892381D01*
X94452858Y-80892381D01*
X94548096Y-80940000D01*
X94595715Y-80987619D01*
X94643334Y-81082857D01*
X94643334Y-81225714D01*
X94595715Y-81320952D01*
X94548096Y-81368571D01*
X94452858Y-81416190D01*
X94071905Y-81416190D01*
X95119524Y-81892381D02*
X95310000Y-81892381D01*
X95405239Y-81844762D01*
X95452858Y-81797143D01*
X95548096Y-81654286D01*
X95595715Y-81463810D01*
X95595715Y-81082857D01*
X95548096Y-80987619D01*
X95500477Y-80940000D01*
X95405239Y-80892381D01*
X95214762Y-80892381D01*
X95119524Y-80940000D01*
X95071905Y-80987619D01*
X95024286Y-81082857D01*
X95024286Y-81320952D01*
X95071905Y-81416190D01*
X95119524Y-81463810D01*
X95214762Y-81511429D01*
X95405239Y-81511429D01*
X95500477Y-81463810D01*
X95548096Y-81416190D01*
X95595715Y-81320952D01*
X67007143Y-97152381D02*
X66673809Y-96676190D01*
X66435714Y-97152381D02*
X66435714Y-96152381D01*
X66816667Y-96152381D01*
X66911905Y-96200000D01*
X66959524Y-96247619D01*
X67007143Y-96342857D01*
X67007143Y-96485714D01*
X66959524Y-96580952D01*
X66911905Y-96628571D01*
X66816667Y-96676190D01*
X66435714Y-96676190D01*
X67959524Y-97152381D02*
X67388095Y-97152381D01*
X67673809Y-97152381D02*
X67673809Y-96152381D01*
X67578571Y-96295238D01*
X67483333Y-96390476D01*
X67388095Y-96438095D01*
X68816667Y-96485714D02*
X68816667Y-97152381D01*
X68578571Y-96104762D02*
X68340476Y-96819048D01*
X68959524Y-96819048D01*
X68952381Y-95188095D02*
X67952381Y-95188095D01*
X67952381Y-94950000D01*
X68000000Y-94807142D01*
X68095238Y-94711904D01*
X68190476Y-94664285D01*
X68380952Y-94616666D01*
X68523810Y-94616666D01*
X68714286Y-94664285D01*
X68809524Y-94711904D01*
X68904762Y-94807142D01*
X68952381Y-94950000D01*
X68952381Y-95188095D01*
X67952381Y-93759523D02*
X67952381Y-93950000D01*
X68000000Y-94045238D01*
X68047619Y-94092857D01*
X68190476Y-94188095D01*
X68380952Y-94235714D01*
X68761905Y-94235714D01*
X68857143Y-94188095D01*
X68904762Y-94140476D01*
X68952381Y-94045238D01*
X68952381Y-93854761D01*
X68904762Y-93759523D01*
X68857143Y-93711904D01*
X68761905Y-93664285D01*
X68523810Y-93664285D01*
X68428571Y-93711904D01*
X68380952Y-93759523D01*
X68333333Y-93854761D01*
X68333333Y-94045238D01*
X68380952Y-94140476D01*
X68428571Y-94188095D01*
X68523810Y-94235714D01*
X71937143Y-96337143D02*
X71889524Y-96384762D01*
X71746667Y-96432381D01*
X71651429Y-96432381D01*
X71508571Y-96384762D01*
X71413333Y-96289524D01*
X71365714Y-96194286D01*
X71318095Y-96003810D01*
X71318095Y-95860952D01*
X71365714Y-95670476D01*
X71413333Y-95575238D01*
X71508571Y-95480000D01*
X71651429Y-95432381D01*
X71746667Y-95432381D01*
X71889524Y-95480000D01*
X71937143Y-95527619D01*
X72889524Y-96432381D02*
X72318095Y-96432381D01*
X72603809Y-96432381D02*
X72603809Y-95432381D01*
X72508571Y-95575238D01*
X72413333Y-95670476D01*
X72318095Y-95718095D01*
X73746667Y-95432381D02*
X73556190Y-95432381D01*
X73460952Y-95480000D01*
X73413333Y-95527619D01*
X73318095Y-95670476D01*
X73270476Y-95860952D01*
X73270476Y-96241905D01*
X73318095Y-96337143D01*
X73365714Y-96384762D01*
X73460952Y-96432381D01*
X73651429Y-96432381D01*
X73746667Y-96384762D01*
X73794286Y-96337143D01*
X73841905Y-96241905D01*
X73841905Y-96003810D01*
X73794286Y-95908571D01*
X73746667Y-95860952D01*
X73651429Y-95813333D01*
X73460952Y-95813333D01*
X73365714Y-95860952D01*
X73318095Y-95908571D01*
X73270476Y-96003810D01*
X98633334Y-91577143D02*
X98585715Y-91624762D01*
X98442858Y-91672381D01*
X98347620Y-91672381D01*
X98204762Y-91624762D01*
X98109524Y-91529524D01*
X98061905Y-91434286D01*
X98014286Y-91243810D01*
X98014286Y-91100952D01*
X98061905Y-90910476D01*
X98109524Y-90815238D01*
X98204762Y-90720000D01*
X98347620Y-90672381D01*
X98442858Y-90672381D01*
X98585715Y-90720000D01*
X98633334Y-90767619D01*
X99014286Y-90767619D02*
X99061905Y-90720000D01*
X99157143Y-90672381D01*
X99395239Y-90672381D01*
X99490477Y-90720000D01*
X99538096Y-90767619D01*
X99585715Y-90862857D01*
X99585715Y-90958095D01*
X99538096Y-91100952D01*
X98966667Y-91672381D01*
X99585715Y-91672381D01*
X107353334Y-88287143D02*
X107305715Y-88334762D01*
X107162858Y-88382381D01*
X107067620Y-88382381D01*
X106924762Y-88334762D01*
X106829524Y-88239524D01*
X106781905Y-88144286D01*
X106734286Y-87953810D01*
X106734286Y-87810952D01*
X106781905Y-87620476D01*
X106829524Y-87525238D01*
X106924762Y-87430000D01*
X107067620Y-87382381D01*
X107162858Y-87382381D01*
X107305715Y-87430000D01*
X107353334Y-87477619D01*
X108210477Y-87715714D02*
X108210477Y-88382381D01*
X107972381Y-87334762D02*
X107734286Y-88049048D01*
X108353334Y-88049048D01*
X107798381Y-95228857D02*
X107322190Y-95562191D01*
X107798381Y-95800286D02*
X106798381Y-95800286D01*
X106798381Y-95419333D01*
X106846000Y-95324095D01*
X106893619Y-95276476D01*
X106988857Y-95228857D01*
X107131714Y-95228857D01*
X107226952Y-95276476D01*
X107274571Y-95324095D01*
X107322190Y-95419333D01*
X107322190Y-95800286D01*
X107798381Y-94276476D02*
X107798381Y-94847905D01*
X107798381Y-94562191D02*
X106798381Y-94562191D01*
X106941238Y-94657429D01*
X107036476Y-94752667D01*
X107084095Y-94847905D01*
X107798381Y-93324095D02*
X107798381Y-93895524D01*
X107798381Y-93609810D02*
X106798381Y-93609810D01*
X106941238Y-93705048D01*
X107036476Y-93800286D01*
X107084095Y-93895524D01*
X83257143Y-82952381D02*
X82923809Y-82476190D01*
X82685714Y-82952381D02*
X82685714Y-81952381D01*
X83066667Y-81952381D01*
X83161905Y-82000000D01*
X83209524Y-82047619D01*
X83257143Y-82142857D01*
X83257143Y-82285714D01*
X83209524Y-82380952D01*
X83161905Y-82428571D01*
X83066667Y-82476190D01*
X82685714Y-82476190D01*
X84209524Y-82952381D02*
X83638095Y-82952381D01*
X83923809Y-82952381D02*
X83923809Y-81952381D01*
X83828571Y-82095238D01*
X83733333Y-82190476D01*
X83638095Y-82238095D01*
X84590476Y-82047619D02*
X84638095Y-82000000D01*
X84733333Y-81952381D01*
X84971429Y-81952381D01*
X85066667Y-82000000D01*
X85114286Y-82047619D01*
X85161905Y-82142857D01*
X85161905Y-82238095D01*
X85114286Y-82380952D01*
X84542857Y-82952381D01*
X85161905Y-82952381D01*
X100947619Y-93820238D02*
X100900000Y-93915476D01*
X100804762Y-94010714D01*
X100661905Y-94153571D01*
X100614286Y-94248810D01*
X100614286Y-94344048D01*
X100852381Y-94296429D02*
X100804762Y-94391667D01*
X100709524Y-94486905D01*
X100519048Y-94534524D01*
X100185714Y-94534524D01*
X99995238Y-94486905D01*
X99900000Y-94391667D01*
X99852381Y-94296429D01*
X99852381Y-94105952D01*
X99900000Y-94010714D01*
X99995238Y-93915476D01*
X100185714Y-93867857D01*
X100519048Y-93867857D01*
X100709524Y-93915476D01*
X100804762Y-94010714D01*
X100852381Y-94105952D01*
X100852381Y-94296429D01*
X100852381Y-92915476D02*
X100852381Y-93486905D01*
X100852381Y-93201191D02*
X99852381Y-93201191D01*
X99995238Y-93296429D01*
X100090476Y-93391667D01*
X100138095Y-93486905D01*
X100687619Y-84115238D02*
X100640000Y-84210476D01*
X100544762Y-84305714D01*
X100401905Y-84448571D01*
X100354286Y-84543810D01*
X100354286Y-84639048D01*
X100592381Y-84591429D02*
X100544762Y-84686667D01*
X100449524Y-84781905D01*
X100259048Y-84829524D01*
X99925714Y-84829524D01*
X99735238Y-84781905D01*
X99640000Y-84686667D01*
X99592381Y-84591429D01*
X99592381Y-84400952D01*
X99640000Y-84305714D01*
X99735238Y-84210476D01*
X99925714Y-84162857D01*
X100259048Y-84162857D01*
X100449524Y-84210476D01*
X100544762Y-84305714D01*
X100592381Y-84400952D01*
X100592381Y-84591429D01*
X99687619Y-83781905D02*
X99640000Y-83734286D01*
X99592381Y-83639048D01*
X99592381Y-83400952D01*
X99640000Y-83305714D01*
X99687619Y-83258095D01*
X99782857Y-83210476D01*
X99878095Y-83210476D01*
X100020952Y-83258095D01*
X100592381Y-83829524D01*
X100592381Y-83210476D01*
X79297619Y-83695238D02*
X79250000Y-83790476D01*
X79154762Y-83885714D01*
X79011905Y-84028571D01*
X78964286Y-84123810D01*
X78964286Y-84219048D01*
X79202381Y-84171429D02*
X79154762Y-84266667D01*
X79059524Y-84361905D01*
X78869048Y-84409524D01*
X78535714Y-84409524D01*
X78345238Y-84361905D01*
X78250000Y-84266667D01*
X78202381Y-84171429D01*
X78202381Y-83980952D01*
X78250000Y-83885714D01*
X78345238Y-83790476D01*
X78535714Y-83742857D01*
X78869048Y-83742857D01*
X79059524Y-83790476D01*
X79154762Y-83885714D01*
X79202381Y-83980952D01*
X79202381Y-84171429D01*
X78202381Y-83409524D02*
X78202381Y-82790476D01*
X78583333Y-83123810D01*
X78583333Y-82980952D01*
X78630952Y-82885714D01*
X78678571Y-82838095D01*
X78773810Y-82790476D01*
X79011905Y-82790476D01*
X79107143Y-82838095D01*
X79154762Y-82885714D01*
X79202381Y-82980952D01*
X79202381Y-83266667D01*
X79154762Y-83361905D01*
X79107143Y-83409524D01*
X69012381Y-85984523D02*
X69726667Y-85984523D01*
X69869524Y-86032143D01*
X69964762Y-86127381D01*
X70012381Y-86270238D01*
X70012381Y-86365476D01*
X69107619Y-85555952D02*
X69060000Y-85508333D01*
X69012381Y-85413095D01*
X69012381Y-85174999D01*
X69060000Y-85079761D01*
X69107619Y-85032142D01*
X69202857Y-84984523D01*
X69298095Y-84984523D01*
X69440952Y-85032142D01*
X70012381Y-85603571D01*
X70012381Y-84984523D01*
X69012381Y-84079761D02*
X69012381Y-84555952D01*
X69488571Y-84603571D01*
X69440952Y-84555952D01*
X69393333Y-84460714D01*
X69393333Y-84222618D01*
X69440952Y-84127380D01*
X69488571Y-84079761D01*
X69583810Y-84032142D01*
X69821905Y-84032142D01*
X69917143Y-84079761D01*
X69964762Y-84127380D01*
X70012381Y-84222618D01*
X70012381Y-84460714D01*
X69964762Y-84555952D01*
X69917143Y-84603571D01*
X93297143Y-85202381D02*
X92963809Y-84726190D01*
X92725714Y-85202381D02*
X92725714Y-84202381D01*
X93106667Y-84202381D01*
X93201905Y-84250000D01*
X93249524Y-84297619D01*
X93297143Y-84392857D01*
X93297143Y-84535714D01*
X93249524Y-84630952D01*
X93201905Y-84678571D01*
X93106667Y-84726190D01*
X92725714Y-84726190D01*
X94249524Y-85202381D02*
X93678095Y-85202381D01*
X93963809Y-85202381D02*
X93963809Y-84202381D01*
X93868571Y-84345238D01*
X93773333Y-84440476D01*
X93678095Y-84488095D01*
X94582857Y-84202381D02*
X95201905Y-84202381D01*
X94868571Y-84583333D01*
X95011429Y-84583333D01*
X95106667Y-84630952D01*
X95154286Y-84678571D01*
X95201905Y-84773810D01*
X95201905Y-85011905D01*
X95154286Y-85107143D01*
X95106667Y-85154762D01*
X95011429Y-85202381D01*
X94725714Y-85202381D01*
X94630476Y-85154762D01*
X94582857Y-85107143D01*
X98263334Y-81687143D02*
X98215715Y-81734762D01*
X98072858Y-81782381D01*
X97977620Y-81782381D01*
X97834762Y-81734762D01*
X97739524Y-81639524D01*
X97691905Y-81544286D01*
X97644286Y-81353810D01*
X97644286Y-81210952D01*
X97691905Y-81020476D01*
X97739524Y-80925238D01*
X97834762Y-80830000D01*
X97977620Y-80782381D01*
X98072858Y-80782381D01*
X98215715Y-80830000D01*
X98263334Y-80877619D01*
X98596667Y-80782381D02*
X99263334Y-80782381D01*
X98834762Y-81782381D01*
X75731619Y-93821238D02*
X75684000Y-93916476D01*
X75588762Y-94011714D01*
X75445905Y-94154571D01*
X75398286Y-94249810D01*
X75398286Y-94345048D01*
X75636381Y-94297429D02*
X75588762Y-94392667D01*
X75493524Y-94487905D01*
X75303048Y-94535524D01*
X74969714Y-94535524D01*
X74779238Y-94487905D01*
X74684000Y-94392667D01*
X74636381Y-94297429D01*
X74636381Y-94106952D01*
X74684000Y-94011714D01*
X74779238Y-93916476D01*
X74969714Y-93868857D01*
X75303048Y-93868857D01*
X75493524Y-93916476D01*
X75588762Y-94011714D01*
X75636381Y-94106952D01*
X75636381Y-94297429D01*
X74969714Y-93011714D02*
X75636381Y-93011714D01*
X74588762Y-93249810D02*
X75303048Y-93487905D01*
X75303048Y-92868857D01*
X88672619Y-93670238D02*
X88625000Y-93765476D01*
X88529762Y-93860714D01*
X88386905Y-94003571D01*
X88339286Y-94098810D01*
X88339286Y-94194048D01*
X88577381Y-94146429D02*
X88529762Y-94241667D01*
X88434524Y-94336905D01*
X88244048Y-94384524D01*
X87910714Y-94384524D01*
X87720238Y-94336905D01*
X87625000Y-94241667D01*
X87577381Y-94146429D01*
X87577381Y-93955952D01*
X87625000Y-93860714D01*
X87720238Y-93765476D01*
X87910714Y-93717857D01*
X88244048Y-93717857D01*
X88434524Y-93765476D01*
X88529762Y-93860714D01*
X88577381Y-93955952D01*
X88577381Y-94146429D01*
X87577381Y-92813095D02*
X87577381Y-93289286D01*
X88053571Y-93336905D01*
X88005952Y-93289286D01*
X87958333Y-93194048D01*
X87958333Y-92955952D01*
X88005952Y-92860714D01*
X88053571Y-92813095D01*
X88148810Y-92765476D01*
X88386905Y-92765476D01*
X88482143Y-92813095D01*
X88529762Y-92860714D01*
X88577381Y-92955952D01*
X88577381Y-93194048D01*
X88529762Y-93289286D01*
X88482143Y-93336905D01*
X84875619Y-99155238D02*
X84828000Y-99250476D01*
X84732762Y-99345714D01*
X84589905Y-99488571D01*
X84542286Y-99583810D01*
X84542286Y-99679048D01*
X84780381Y-99631429D02*
X84732762Y-99726667D01*
X84637524Y-99821905D01*
X84447048Y-99869524D01*
X84113714Y-99869524D01*
X83923238Y-99821905D01*
X83828000Y-99726667D01*
X83780381Y-99631429D01*
X83780381Y-99440952D01*
X83828000Y-99345714D01*
X83923238Y-99250476D01*
X84113714Y-99202857D01*
X84447048Y-99202857D01*
X84637524Y-99250476D01*
X84732762Y-99345714D01*
X84780381Y-99440952D01*
X84780381Y-99631429D01*
X83780381Y-98345714D02*
X83780381Y-98536191D01*
X83828000Y-98631429D01*
X83875619Y-98679048D01*
X84018476Y-98774286D01*
X84208952Y-98821905D01*
X84589905Y-98821905D01*
X84685143Y-98774286D01*
X84732762Y-98726667D01*
X84780381Y-98631429D01*
X84780381Y-98440952D01*
X84732762Y-98345714D01*
X84685143Y-98298095D01*
X84589905Y-98250476D01*
X84351810Y-98250476D01*
X84256571Y-98298095D01*
X84208952Y-98345714D01*
X84161333Y-98440952D01*
X84161333Y-98631429D01*
X84208952Y-98726667D01*
X84256571Y-98774286D01*
X84351810Y-98821905D01*
X88747619Y-83505238D02*
X88700000Y-83600476D01*
X88604762Y-83695714D01*
X88461905Y-83838571D01*
X88414286Y-83933810D01*
X88414286Y-84029048D01*
X88652381Y-83981429D02*
X88604762Y-84076667D01*
X88509524Y-84171905D01*
X88319048Y-84219524D01*
X87985714Y-84219524D01*
X87795238Y-84171905D01*
X87700000Y-84076667D01*
X87652381Y-83981429D01*
X87652381Y-83790952D01*
X87700000Y-83695714D01*
X87795238Y-83600476D01*
X87985714Y-83552857D01*
X88319048Y-83552857D01*
X88509524Y-83600476D01*
X88604762Y-83695714D01*
X88652381Y-83790952D01*
X88652381Y-83981429D01*
X87652381Y-83219524D02*
X87652381Y-82552857D01*
X88652381Y-82981429D01*
X107512381Y-85026666D02*
X107036190Y-85360000D01*
X107512381Y-85598095D02*
X106512381Y-85598095D01*
X106512381Y-85217142D01*
X106560000Y-85121904D01*
X106607619Y-85074285D01*
X106702857Y-85026666D01*
X106845714Y-85026666D01*
X106940952Y-85074285D01*
X106988571Y-85121904D01*
X107036190Y-85217142D01*
X107036190Y-85598095D01*
X107512381Y-84074285D02*
X107512381Y-84645714D01*
X107512381Y-84360000D02*
X106512381Y-84360000D01*
X106655238Y-84455238D01*
X106750476Y-84550476D01*
X106798095Y-84645714D01*
X96333334Y-86152381D02*
X96000000Y-85676190D01*
X95761905Y-86152381D02*
X95761905Y-85152381D01*
X96142858Y-85152381D01*
X96238096Y-85200000D01*
X96285715Y-85247619D01*
X96333334Y-85342857D01*
X96333334Y-85485714D01*
X96285715Y-85580952D01*
X96238096Y-85628571D01*
X96142858Y-85676190D01*
X95761905Y-85676190D01*
X96666667Y-85152381D02*
X97285715Y-85152381D01*
X96952381Y-85533333D01*
X97095239Y-85533333D01*
X97190477Y-85580952D01*
X97238096Y-85628571D01*
X97285715Y-85723810D01*
X97285715Y-85961905D01*
X97238096Y-86057143D01*
X97190477Y-86104762D01*
X97095239Y-86152381D01*
X96809524Y-86152381D01*
X96714286Y-86104762D01*
X96666667Y-86057143D01*
X86163334Y-95112381D02*
X85830000Y-94636190D01*
X85591905Y-95112381D02*
X85591905Y-94112381D01*
X85972858Y-94112381D01*
X86068096Y-94160000D01*
X86115715Y-94207619D01*
X86163334Y-94302857D01*
X86163334Y-94445714D01*
X86115715Y-94540952D01*
X86068096Y-94588571D01*
X85972858Y-94636190D01*
X85591905Y-94636190D01*
X86496667Y-94112381D02*
X87163334Y-94112381D01*
X86734762Y-95112381D01*
X86113334Y-88742381D02*
X85780000Y-88266190D01*
X85541905Y-88742381D02*
X85541905Y-87742381D01*
X85922858Y-87742381D01*
X86018096Y-87790000D01*
X86065715Y-87837619D01*
X86113334Y-87932857D01*
X86113334Y-88075714D01*
X86065715Y-88170952D01*
X86018096Y-88218571D01*
X85922858Y-88266190D01*
X85541905Y-88266190D01*
X86684762Y-88170952D02*
X86589524Y-88123333D01*
X86541905Y-88075714D01*
X86494286Y-87980476D01*
X86494286Y-87932857D01*
X86541905Y-87837619D01*
X86589524Y-87790000D01*
X86684762Y-87742381D01*
X86875239Y-87742381D01*
X86970477Y-87790000D01*
X87018096Y-87837619D01*
X87065715Y-87932857D01*
X87065715Y-87980476D01*
X87018096Y-88075714D01*
X86970477Y-88123333D01*
X86875239Y-88170952D01*
X86684762Y-88170952D01*
X86589524Y-88218571D01*
X86541905Y-88266190D01*
X86494286Y-88361429D01*
X86494286Y-88551905D01*
X86541905Y-88647143D01*
X86589524Y-88694762D01*
X86684762Y-88742381D01*
X86875239Y-88742381D01*
X86970477Y-88694762D01*
X87018096Y-88647143D01*
X87065715Y-88551905D01*
X87065715Y-88361429D01*
X87018096Y-88266190D01*
X86970477Y-88218571D01*
X86875239Y-88170952D01*
X70857143Y-92357143D02*
X70809524Y-92404762D01*
X70666667Y-92452381D01*
X70571429Y-92452381D01*
X70428571Y-92404762D01*
X70333333Y-92309524D01*
X70285714Y-92214286D01*
X70238095Y-92023810D01*
X70238095Y-91880952D01*
X70285714Y-91690476D01*
X70333333Y-91595238D01*
X70428571Y-91500000D01*
X70571429Y-91452381D01*
X70666667Y-91452381D01*
X70809524Y-91500000D01*
X70857143Y-91547619D01*
X71809524Y-92452381D02*
X71238095Y-92452381D01*
X71523809Y-92452381D02*
X71523809Y-91452381D01*
X71428571Y-91595238D01*
X71333333Y-91690476D01*
X71238095Y-91738095D01*
X72428571Y-91452381D02*
X72523810Y-91452381D01*
X72619048Y-91500000D01*
X72666667Y-91547619D01*
X72714286Y-91642857D01*
X72761905Y-91833333D01*
X72761905Y-92071429D01*
X72714286Y-92261905D01*
X72666667Y-92357143D01*
X72619048Y-92404762D01*
X72523810Y-92452381D01*
X72428571Y-92452381D01*
X72333333Y-92404762D01*
X72285714Y-92357143D01*
X72238095Y-92261905D01*
X72190476Y-92071429D01*
X72190476Y-91833333D01*
X72238095Y-91642857D01*
X72285714Y-91547619D01*
X72333333Y-91500000D01*
X72428571Y-91452381D01*
M02*
