G04 #@! TF.FileFunction,Copper,L2,Bot,Signal*
%FSLAX46Y46*%
G04 Gerber Fmt 4.6, Leading zero omitted, Abs format (unit mm)*
G04 Created by KiCad (PCBNEW 4.0.7) date 04/22/20 14:45:24*
%MOMM*%
%LPD*%
G01*
G04 APERTURE LIST*
%ADD10C,0.100000*%
%ADD11R,4.000000X2.000000*%
%ADD12R,2.000000X2.000000*%
%ADD13R,5.080000X2.500000*%
%ADD14C,0.600000*%
%ADD15C,0.350000*%
%ADD16C,1.500000*%
%ADD17C,0.254000*%
G04 APERTURE END LIST*
D10*
D11*
X111580000Y-99100000D03*
X111500000Y-94200000D03*
D12*
X69400000Y-101050000D03*
X73000000Y-100950000D03*
X65200000Y-97700000D03*
X65850000Y-101100000D03*
D13*
X65750000Y-84600000D03*
X65750000Y-92100000D03*
D11*
X111500000Y-83800000D03*
X111500000Y-89300000D03*
D14*
X93425000Y-92175000D03*
X93500000Y-91275000D03*
X92875000Y-94350000D03*
X93425000Y-94975000D03*
X93350000Y-93650000D03*
X73700000Y-96875000D03*
X96020000Y-92180000D03*
X96020000Y-91330000D03*
X102050000Y-92000000D03*
X102020000Y-90800000D03*
X104290000Y-92570000D03*
X98540000Y-102570000D03*
X100000000Y-102500000D03*
X101240000Y-102660000D03*
X102700000Y-102580000D03*
X74150000Y-99370000D03*
X72600000Y-91300000D03*
X83400000Y-92200000D03*
X99300000Y-80900000D03*
X101800000Y-80700000D03*
X100200000Y-82800000D03*
X72750000Y-90250000D03*
X72450000Y-92200000D03*
X75300000Y-90450000D03*
X75450000Y-89300000D03*
X73530000Y-83590000D03*
X75930000Y-84640000D03*
X75910000Y-83640000D03*
X66850000Y-97250000D03*
X64950000Y-94000000D03*
X63500000Y-95950000D03*
X63500000Y-97350000D03*
X63450000Y-99100000D03*
X63450000Y-101050000D03*
X63450000Y-102700000D03*
X64800000Y-103500000D03*
X66500000Y-106500000D03*
X68500000Y-106500000D03*
X70750000Y-106500000D03*
X72750000Y-106500000D03*
X74800000Y-106500000D03*
X98400000Y-78600000D03*
X96600000Y-78600000D03*
X94900000Y-78600000D03*
X93100000Y-78500000D03*
X91100000Y-78400000D03*
X89000000Y-78500000D03*
X86900000Y-78500000D03*
X85000000Y-78500000D03*
X83300000Y-78400000D03*
X81400000Y-78500000D03*
X79200000Y-78400000D03*
X77000000Y-78500000D03*
X74900000Y-78500000D03*
X73100000Y-78600000D03*
X71200000Y-78600000D03*
X69600000Y-79000000D03*
X68500000Y-80000000D03*
X67400000Y-81200000D03*
X66300000Y-82100000D03*
X102800000Y-106300000D03*
X101200000Y-106500000D03*
X99500000Y-106600000D03*
X96900000Y-106400000D03*
X94800000Y-106500000D03*
X92600000Y-106500000D03*
X90600000Y-106500000D03*
X88700000Y-106500000D03*
X87100000Y-106500000D03*
X85300000Y-106500000D03*
X83500000Y-106500000D03*
X81600000Y-106400000D03*
X80100000Y-106300000D03*
X78500000Y-106400000D03*
X76800000Y-106400000D03*
X75800000Y-102700000D03*
X65750000Y-92100000D03*
X74460000Y-97850000D03*
X75940000Y-100600000D03*
X75000000Y-100460000D03*
X75070000Y-96590000D03*
X84250000Y-95750000D03*
X85000000Y-94500000D03*
X85000000Y-93000000D03*
X70080000Y-89580000D03*
X70040000Y-87140000D03*
D15*
X73700000Y-96875000D02*
X73700000Y-96925000D01*
X64950000Y-94500000D02*
X64950000Y-94000000D01*
X63500000Y-95950000D02*
X64950000Y-94500000D01*
X63500000Y-99050000D02*
X63500000Y-97350000D01*
X63450000Y-99100000D02*
X63500000Y-99050000D01*
X63450000Y-102700000D02*
X63450000Y-101050000D01*
X66400000Y-106600000D02*
X64800000Y-103500000D01*
X66500000Y-106500000D02*
X66400000Y-106600000D01*
X70700000Y-106450000D02*
X68500000Y-106500000D01*
X70750000Y-106500000D02*
X70700000Y-106450000D01*
X74750000Y-106550000D02*
X72750000Y-106500000D01*
X74800000Y-106500000D02*
X74750000Y-106550000D01*
X94900000Y-78600000D02*
X96600000Y-78600000D01*
X91200000Y-78500000D02*
X93100000Y-78500000D01*
X91100000Y-78400000D02*
X91200000Y-78500000D01*
X87000000Y-78400000D02*
X89000000Y-78500000D01*
X86900000Y-78500000D02*
X87000000Y-78400000D01*
X83300000Y-78400000D02*
X85000000Y-78500000D01*
X79200000Y-78400000D02*
X81400000Y-78500000D01*
X74900000Y-78500000D02*
X77000000Y-78500000D01*
X71200000Y-78600000D02*
X73100000Y-78600000D01*
X69500000Y-79000000D02*
X69600000Y-79000000D01*
X68500000Y-80000000D02*
X69500000Y-79000000D01*
X67200000Y-81200000D02*
X67400000Y-81200000D01*
X66300000Y-82100000D02*
X67200000Y-81200000D01*
X73000000Y-100950000D02*
X73950000Y-100950000D01*
X73950000Y-100950000D02*
X75800000Y-102700000D01*
X99600000Y-106500000D02*
X101200000Y-106500000D01*
X99500000Y-106600000D02*
X99600000Y-106500000D01*
X94900000Y-106400000D02*
X96900000Y-106400000D01*
X94800000Y-106500000D02*
X94900000Y-106400000D01*
X90600000Y-106500000D02*
X92600000Y-106500000D01*
X87100000Y-106500000D02*
X88700000Y-106500000D01*
X83500000Y-106500000D02*
X85300000Y-106500000D01*
X80200000Y-106400000D02*
X81600000Y-106400000D01*
X80100000Y-106300000D02*
X80200000Y-106400000D01*
X76800000Y-106400000D02*
X78500000Y-106400000D01*
X73000000Y-101500000D02*
X73000000Y-100950000D01*
X65750000Y-92950000D02*
X65750000Y-92100000D01*
D16*
X111500000Y-94200000D02*
X104050000Y-94200000D01*
X104050000Y-94200000D02*
X104000000Y-94250000D01*
X111500000Y-83800000D02*
X103800000Y-83800000D01*
X103800000Y-83800000D02*
X103750000Y-83750000D01*
D15*
X70080000Y-89580000D02*
X69990000Y-89490000D01*
X69990000Y-89490000D02*
X70040000Y-87140000D01*
D17*
G36*
X79143173Y-78949537D02*
X78790484Y-79477374D01*
X78666636Y-80100000D01*
X78790484Y-80722626D01*
X79143173Y-81250463D01*
X79671010Y-81603152D01*
X80293636Y-81727000D01*
X82906364Y-81727000D01*
X83528990Y-81603152D01*
X84056827Y-81250463D01*
X84409516Y-80722626D01*
X84533364Y-80100000D01*
X84409516Y-79477374D01*
X84056827Y-78949537D01*
X83686361Y-78702000D01*
X89063978Y-78702000D01*
X88843173Y-78849537D01*
X88490484Y-79377374D01*
X88366636Y-80000000D01*
X88490484Y-80622626D01*
X88843173Y-81150463D01*
X89371010Y-81503152D01*
X89993636Y-81627000D01*
X92606364Y-81627000D01*
X93228990Y-81503152D01*
X93756827Y-81150463D01*
X94109516Y-80622626D01*
X94233364Y-80000000D01*
X94109516Y-79377374D01*
X93756827Y-78849537D01*
X93536022Y-78702000D01*
X104373000Y-78702000D01*
X104373000Y-106298000D01*
X93202157Y-106298000D01*
X93678990Y-106203152D01*
X94206827Y-105850463D01*
X94559516Y-105322626D01*
X94683364Y-104700000D01*
X94559516Y-104077374D01*
X94206827Y-103549537D01*
X93678990Y-103196848D01*
X93056364Y-103073000D01*
X90443636Y-103073000D01*
X89821010Y-103196848D01*
X89293173Y-103549537D01*
X88940484Y-104077374D01*
X88816636Y-104700000D01*
X88940484Y-105322626D01*
X89293173Y-105850463D01*
X89821010Y-106203152D01*
X90297843Y-106298000D01*
X63702000Y-106298000D01*
X63702000Y-104650000D01*
X78766636Y-104650000D01*
X78890484Y-105272626D01*
X79243173Y-105800463D01*
X79771010Y-106153152D01*
X80393636Y-106277000D01*
X83006364Y-106277000D01*
X83628990Y-106153152D01*
X84156827Y-105800463D01*
X84509516Y-105272626D01*
X84633364Y-104650000D01*
X84509516Y-104027374D01*
X84156827Y-103499537D01*
X83628990Y-103146848D01*
X83006364Y-103023000D01*
X80393636Y-103023000D01*
X79771010Y-103146848D01*
X79243173Y-103499537D01*
X78890484Y-104027374D01*
X78766636Y-104650000D01*
X63702000Y-104650000D01*
X63702000Y-100100000D01*
X64210717Y-100100000D01*
X64210717Y-102100000D01*
X64254437Y-102332352D01*
X64391757Y-102545753D01*
X64601283Y-102688917D01*
X64850000Y-102739283D01*
X66850000Y-102739283D01*
X67082352Y-102695563D01*
X67295753Y-102558243D01*
X67438917Y-102348717D01*
X67489283Y-102100000D01*
X67489283Y-100100000D01*
X67479875Y-100050000D01*
X67760717Y-100050000D01*
X67760717Y-102050000D01*
X67804437Y-102282352D01*
X67941757Y-102495753D01*
X68151283Y-102638917D01*
X68400000Y-102689283D01*
X70400000Y-102689283D01*
X70632352Y-102645563D01*
X70845753Y-102508243D01*
X70988917Y-102298717D01*
X71039283Y-102050000D01*
X71039283Y-101235750D01*
X71365000Y-101235750D01*
X71365000Y-102076310D01*
X71461673Y-102309699D01*
X71640302Y-102488327D01*
X71873691Y-102585000D01*
X72714250Y-102585000D01*
X72873000Y-102426250D01*
X72873000Y-101077000D01*
X73127000Y-101077000D01*
X73127000Y-102426250D01*
X73285750Y-102585000D01*
X74126309Y-102585000D01*
X74359698Y-102488327D01*
X74538327Y-102309699D01*
X74635000Y-102076310D01*
X74635000Y-101235750D01*
X74476250Y-101077000D01*
X73127000Y-101077000D01*
X72873000Y-101077000D01*
X71523750Y-101077000D01*
X71365000Y-101235750D01*
X71039283Y-101235750D01*
X71039283Y-100050000D01*
X70996700Y-99823690D01*
X71365000Y-99823690D01*
X71365000Y-100664250D01*
X71523750Y-100823000D01*
X72873000Y-100823000D01*
X72873000Y-99473750D01*
X73127000Y-99473750D01*
X73127000Y-100823000D01*
X74476250Y-100823000D01*
X74635000Y-100664250D01*
X74635000Y-99823690D01*
X74538327Y-99590301D01*
X74359698Y-99411673D01*
X74126309Y-99315000D01*
X73285750Y-99315000D01*
X73127000Y-99473750D01*
X72873000Y-99473750D01*
X72714250Y-99315000D01*
X71873691Y-99315000D01*
X71640302Y-99411673D01*
X71461673Y-99590301D01*
X71365000Y-99823690D01*
X70996700Y-99823690D01*
X70995563Y-99817648D01*
X70858243Y-99604247D01*
X70648717Y-99461083D01*
X70400000Y-99410717D01*
X68400000Y-99410717D01*
X68167648Y-99454437D01*
X67954247Y-99591757D01*
X67811083Y-99801283D01*
X67760717Y-100050000D01*
X67479875Y-100050000D01*
X67445563Y-99867648D01*
X67308243Y-99654247D01*
X67098717Y-99511083D01*
X66850000Y-99460717D01*
X64850000Y-99460717D01*
X64617648Y-99504437D01*
X64404247Y-99641757D01*
X64261083Y-99851283D01*
X64210717Y-100100000D01*
X63702000Y-100100000D01*
X63702000Y-99083969D01*
X63741757Y-99145753D01*
X63951283Y-99288917D01*
X64200000Y-99339283D01*
X66200000Y-99339283D01*
X66432352Y-99295563D01*
X66645753Y-99158243D01*
X66788917Y-98948717D01*
X66839283Y-98700000D01*
X66839283Y-96700000D01*
X66795563Y-96467648D01*
X66658243Y-96254247D01*
X66448717Y-96111083D01*
X66200000Y-96060717D01*
X64200000Y-96060717D01*
X63967648Y-96104437D01*
X63754247Y-96241757D01*
X63702000Y-96318222D01*
X63702000Y-93985000D01*
X65464250Y-93985000D01*
X65623000Y-93826250D01*
X65623000Y-92227000D01*
X65877000Y-92227000D01*
X65877000Y-93826250D01*
X66035750Y-93985000D01*
X68416310Y-93985000D01*
X68649699Y-93888327D01*
X68828327Y-93709698D01*
X68925000Y-93476309D01*
X68925000Y-92385750D01*
X68766250Y-92227000D01*
X65877000Y-92227000D01*
X65623000Y-92227000D01*
X65603000Y-92227000D01*
X65603000Y-91973000D01*
X65623000Y-91973000D01*
X65623000Y-90373750D01*
X65877000Y-90373750D01*
X65877000Y-91973000D01*
X68766250Y-91973000D01*
X68925000Y-91814250D01*
X68925000Y-90723691D01*
X68828327Y-90490302D01*
X68649699Y-90311673D01*
X68416310Y-90215000D01*
X66035750Y-90215000D01*
X65877000Y-90373750D01*
X65623000Y-90373750D01*
X65464250Y-90215000D01*
X63702000Y-90215000D01*
X63702000Y-87323583D01*
X69112839Y-87323583D01*
X69227983Y-87602252D01*
X69191825Y-89301687D01*
X69153161Y-89394799D01*
X69152839Y-89763583D01*
X69293669Y-90104417D01*
X69554211Y-90365414D01*
X69894799Y-90506839D01*
X70263583Y-90507161D01*
X70604417Y-90366331D01*
X70865414Y-90105789D01*
X71006839Y-89765201D01*
X71007161Y-89396417D01*
X70866331Y-89055583D01*
X70802779Y-88991920D01*
X70831296Y-87651623D01*
X70966839Y-87325201D01*
X70967161Y-86956417D01*
X70826331Y-86615583D01*
X70565789Y-86354586D01*
X70225201Y-86213161D01*
X69856417Y-86212839D01*
X69515583Y-86353669D01*
X69254586Y-86614211D01*
X69113161Y-86954799D01*
X69112839Y-87323583D01*
X63702000Y-87323583D01*
X63702000Y-86485000D01*
X65464250Y-86485000D01*
X65623000Y-86326250D01*
X65623000Y-84727000D01*
X65877000Y-84727000D01*
X65877000Y-86326250D01*
X66035750Y-86485000D01*
X68416310Y-86485000D01*
X68649699Y-86388327D01*
X68828327Y-86209698D01*
X68925000Y-85976309D01*
X68925000Y-84885750D01*
X68766250Y-84727000D01*
X65877000Y-84727000D01*
X65623000Y-84727000D01*
X65603000Y-84727000D01*
X65603000Y-84473000D01*
X65623000Y-84473000D01*
X65623000Y-82873750D01*
X65877000Y-82873750D01*
X65877000Y-84473000D01*
X68766250Y-84473000D01*
X68925000Y-84314250D01*
X68925000Y-83223691D01*
X68828327Y-82990302D01*
X68649699Y-82811673D01*
X68416310Y-82715000D01*
X66035750Y-82715000D01*
X65877000Y-82873750D01*
X65623000Y-82873750D01*
X65464250Y-82715000D01*
X63702000Y-82715000D01*
X63702000Y-78702000D01*
X79513639Y-78702000D01*
X79143173Y-78949537D01*
X79143173Y-78949537D01*
G37*
X79143173Y-78949537D02*
X78790484Y-79477374D01*
X78666636Y-80100000D01*
X78790484Y-80722626D01*
X79143173Y-81250463D01*
X79671010Y-81603152D01*
X80293636Y-81727000D01*
X82906364Y-81727000D01*
X83528990Y-81603152D01*
X84056827Y-81250463D01*
X84409516Y-80722626D01*
X84533364Y-80100000D01*
X84409516Y-79477374D01*
X84056827Y-78949537D01*
X83686361Y-78702000D01*
X89063978Y-78702000D01*
X88843173Y-78849537D01*
X88490484Y-79377374D01*
X88366636Y-80000000D01*
X88490484Y-80622626D01*
X88843173Y-81150463D01*
X89371010Y-81503152D01*
X89993636Y-81627000D01*
X92606364Y-81627000D01*
X93228990Y-81503152D01*
X93756827Y-81150463D01*
X94109516Y-80622626D01*
X94233364Y-80000000D01*
X94109516Y-79377374D01*
X93756827Y-78849537D01*
X93536022Y-78702000D01*
X104373000Y-78702000D01*
X104373000Y-106298000D01*
X93202157Y-106298000D01*
X93678990Y-106203152D01*
X94206827Y-105850463D01*
X94559516Y-105322626D01*
X94683364Y-104700000D01*
X94559516Y-104077374D01*
X94206827Y-103549537D01*
X93678990Y-103196848D01*
X93056364Y-103073000D01*
X90443636Y-103073000D01*
X89821010Y-103196848D01*
X89293173Y-103549537D01*
X88940484Y-104077374D01*
X88816636Y-104700000D01*
X88940484Y-105322626D01*
X89293173Y-105850463D01*
X89821010Y-106203152D01*
X90297843Y-106298000D01*
X63702000Y-106298000D01*
X63702000Y-104650000D01*
X78766636Y-104650000D01*
X78890484Y-105272626D01*
X79243173Y-105800463D01*
X79771010Y-106153152D01*
X80393636Y-106277000D01*
X83006364Y-106277000D01*
X83628990Y-106153152D01*
X84156827Y-105800463D01*
X84509516Y-105272626D01*
X84633364Y-104650000D01*
X84509516Y-104027374D01*
X84156827Y-103499537D01*
X83628990Y-103146848D01*
X83006364Y-103023000D01*
X80393636Y-103023000D01*
X79771010Y-103146848D01*
X79243173Y-103499537D01*
X78890484Y-104027374D01*
X78766636Y-104650000D01*
X63702000Y-104650000D01*
X63702000Y-100100000D01*
X64210717Y-100100000D01*
X64210717Y-102100000D01*
X64254437Y-102332352D01*
X64391757Y-102545753D01*
X64601283Y-102688917D01*
X64850000Y-102739283D01*
X66850000Y-102739283D01*
X67082352Y-102695563D01*
X67295753Y-102558243D01*
X67438917Y-102348717D01*
X67489283Y-102100000D01*
X67489283Y-100100000D01*
X67479875Y-100050000D01*
X67760717Y-100050000D01*
X67760717Y-102050000D01*
X67804437Y-102282352D01*
X67941757Y-102495753D01*
X68151283Y-102638917D01*
X68400000Y-102689283D01*
X70400000Y-102689283D01*
X70632352Y-102645563D01*
X70845753Y-102508243D01*
X70988917Y-102298717D01*
X71039283Y-102050000D01*
X71039283Y-101235750D01*
X71365000Y-101235750D01*
X71365000Y-102076310D01*
X71461673Y-102309699D01*
X71640302Y-102488327D01*
X71873691Y-102585000D01*
X72714250Y-102585000D01*
X72873000Y-102426250D01*
X72873000Y-101077000D01*
X73127000Y-101077000D01*
X73127000Y-102426250D01*
X73285750Y-102585000D01*
X74126309Y-102585000D01*
X74359698Y-102488327D01*
X74538327Y-102309699D01*
X74635000Y-102076310D01*
X74635000Y-101235750D01*
X74476250Y-101077000D01*
X73127000Y-101077000D01*
X72873000Y-101077000D01*
X71523750Y-101077000D01*
X71365000Y-101235750D01*
X71039283Y-101235750D01*
X71039283Y-100050000D01*
X70996700Y-99823690D01*
X71365000Y-99823690D01*
X71365000Y-100664250D01*
X71523750Y-100823000D01*
X72873000Y-100823000D01*
X72873000Y-99473750D01*
X73127000Y-99473750D01*
X73127000Y-100823000D01*
X74476250Y-100823000D01*
X74635000Y-100664250D01*
X74635000Y-99823690D01*
X74538327Y-99590301D01*
X74359698Y-99411673D01*
X74126309Y-99315000D01*
X73285750Y-99315000D01*
X73127000Y-99473750D01*
X72873000Y-99473750D01*
X72714250Y-99315000D01*
X71873691Y-99315000D01*
X71640302Y-99411673D01*
X71461673Y-99590301D01*
X71365000Y-99823690D01*
X70996700Y-99823690D01*
X70995563Y-99817648D01*
X70858243Y-99604247D01*
X70648717Y-99461083D01*
X70400000Y-99410717D01*
X68400000Y-99410717D01*
X68167648Y-99454437D01*
X67954247Y-99591757D01*
X67811083Y-99801283D01*
X67760717Y-100050000D01*
X67479875Y-100050000D01*
X67445563Y-99867648D01*
X67308243Y-99654247D01*
X67098717Y-99511083D01*
X66850000Y-99460717D01*
X64850000Y-99460717D01*
X64617648Y-99504437D01*
X64404247Y-99641757D01*
X64261083Y-99851283D01*
X64210717Y-100100000D01*
X63702000Y-100100000D01*
X63702000Y-99083969D01*
X63741757Y-99145753D01*
X63951283Y-99288917D01*
X64200000Y-99339283D01*
X66200000Y-99339283D01*
X66432352Y-99295563D01*
X66645753Y-99158243D01*
X66788917Y-98948717D01*
X66839283Y-98700000D01*
X66839283Y-96700000D01*
X66795563Y-96467648D01*
X66658243Y-96254247D01*
X66448717Y-96111083D01*
X66200000Y-96060717D01*
X64200000Y-96060717D01*
X63967648Y-96104437D01*
X63754247Y-96241757D01*
X63702000Y-96318222D01*
X63702000Y-93985000D01*
X65464250Y-93985000D01*
X65623000Y-93826250D01*
X65623000Y-92227000D01*
X65877000Y-92227000D01*
X65877000Y-93826250D01*
X66035750Y-93985000D01*
X68416310Y-93985000D01*
X68649699Y-93888327D01*
X68828327Y-93709698D01*
X68925000Y-93476309D01*
X68925000Y-92385750D01*
X68766250Y-92227000D01*
X65877000Y-92227000D01*
X65623000Y-92227000D01*
X65603000Y-92227000D01*
X65603000Y-91973000D01*
X65623000Y-91973000D01*
X65623000Y-90373750D01*
X65877000Y-90373750D01*
X65877000Y-91973000D01*
X68766250Y-91973000D01*
X68925000Y-91814250D01*
X68925000Y-90723691D01*
X68828327Y-90490302D01*
X68649699Y-90311673D01*
X68416310Y-90215000D01*
X66035750Y-90215000D01*
X65877000Y-90373750D01*
X65623000Y-90373750D01*
X65464250Y-90215000D01*
X63702000Y-90215000D01*
X63702000Y-87323583D01*
X69112839Y-87323583D01*
X69227983Y-87602252D01*
X69191825Y-89301687D01*
X69153161Y-89394799D01*
X69152839Y-89763583D01*
X69293669Y-90104417D01*
X69554211Y-90365414D01*
X69894799Y-90506839D01*
X70263583Y-90507161D01*
X70604417Y-90366331D01*
X70865414Y-90105789D01*
X71006839Y-89765201D01*
X71007161Y-89396417D01*
X70866331Y-89055583D01*
X70802779Y-88991920D01*
X70831296Y-87651623D01*
X70966839Y-87325201D01*
X70967161Y-86956417D01*
X70826331Y-86615583D01*
X70565789Y-86354586D01*
X70225201Y-86213161D01*
X69856417Y-86212839D01*
X69515583Y-86353669D01*
X69254586Y-86614211D01*
X69113161Y-86954799D01*
X69112839Y-87323583D01*
X63702000Y-87323583D01*
X63702000Y-86485000D01*
X65464250Y-86485000D01*
X65623000Y-86326250D01*
X65623000Y-84727000D01*
X65877000Y-84727000D01*
X65877000Y-86326250D01*
X66035750Y-86485000D01*
X68416310Y-86485000D01*
X68649699Y-86388327D01*
X68828327Y-86209698D01*
X68925000Y-85976309D01*
X68925000Y-84885750D01*
X68766250Y-84727000D01*
X65877000Y-84727000D01*
X65623000Y-84727000D01*
X65603000Y-84727000D01*
X65603000Y-84473000D01*
X65623000Y-84473000D01*
X65623000Y-82873750D01*
X65877000Y-82873750D01*
X65877000Y-84473000D01*
X68766250Y-84473000D01*
X68925000Y-84314250D01*
X68925000Y-83223691D01*
X68828327Y-82990302D01*
X68649699Y-82811673D01*
X68416310Y-82715000D01*
X66035750Y-82715000D01*
X65877000Y-82873750D01*
X65623000Y-82873750D01*
X65464250Y-82715000D01*
X63702000Y-82715000D01*
X63702000Y-78702000D01*
X79513639Y-78702000D01*
X79143173Y-78949537D01*
M02*
