M48
;DRILL file {KiCad 4.0.7} date 04/21/20 19:12:34
;FORMAT={-:-/ absolute / metric / decimal}
FMAT,2
METRIC,TZ
T1C0.400
T2C1.000
%
G90
G05
M71
T1
X68.6Y-98.4
X72.4Y-91.
X73.2Y-92.4
X73.25Y-84.
X74.Y-90.25
X74.25Y-84.
X75.Y-90.8
X75.25Y-85.
X75.25Y-89.
X75.25Y-90.
X84.25Y-95.75
X85.Y-93.
X85.Y-94.5
X94.75Y-86.5
X95.Y-96.5
X95.75Y-86.25
X96.75Y-87.25
X97.Y-81.5
X97.25Y-96.5
X97.25Y-97.75
X97.75Y-91.75
X99.Y-94.
X99.5Y-81.5
X99.75Y-82.5
X100.Y-92.25
T2
X64.95Y-97.7
X64.95Y-101.
X69.35Y-100.9
X72.95Y-100.8
X111.5Y-83.8
X111.5Y-89.3
X111.5Y-94.2
X111.58Y-99.1
T0
M30
