G04 #@! TF.FileFunction,Copper,L1,Top,Signal*
%FSLAX46Y46*%
G04 Gerber Fmt 4.6, Leading zero omitted, Abs format (unit mm)*
G04 Created by KiCad (PCBNEW 4.0.7) date 04/23/20 09:08:38*
%MOMM*%
%LPD*%
G01*
G04 APERTURE LIST*
%ADD10C,0.100000*%
%ADD11R,1.500000X1.250000*%
%ADD12R,1.500000X1.300000*%
%ADD13R,1.300000X1.500000*%
%ADD14R,1.250000X1.500000*%
%ADD15R,4.000000X2.000000*%
%ADD16R,2.000000X2.000000*%
%ADD17R,5.080000X2.500000*%
%ADD18R,5.080000X1.500000*%
%ADD19R,0.800000X0.900000*%
%ADD20R,0.900000X0.800000*%
%ADD21C,0.600000*%
%ADD22C,0.350000*%
%ADD23C,0.500000*%
%ADD24C,0.254000*%
G04 APERTURE END LIST*
D10*
D11*
X95810000Y-87560000D03*
X98310000Y-87560000D03*
D12*
X100750000Y-91300000D03*
X103450000Y-91300000D03*
D13*
X78850000Y-87050000D03*
X78850000Y-89750000D03*
D11*
X105675000Y-97525000D03*
X108175000Y-97525000D03*
X95750000Y-96700000D03*
X98250000Y-96700000D03*
X87150000Y-85950000D03*
X89650000Y-85950000D03*
X72875000Y-88550000D03*
X75375000Y-88550000D03*
X84890000Y-91840000D03*
X82390000Y-91840000D03*
D13*
X99725000Y-100525000D03*
X99725000Y-103225000D03*
D12*
X95700000Y-98550000D03*
X98400000Y-98550000D03*
X85090000Y-99410000D03*
X82390000Y-99410000D03*
X90470000Y-94550000D03*
X93170000Y-94550000D03*
X90540000Y-91310000D03*
X93240000Y-91310000D03*
X73050000Y-98825000D03*
X70350000Y-98825000D03*
X70325000Y-95650000D03*
X73025000Y-95650000D03*
D14*
X101650000Y-103900000D03*
X101650000Y-101400000D03*
D11*
X105625000Y-87550000D03*
X108125000Y-87550000D03*
D15*
X111375000Y-97450000D03*
X111650000Y-93175000D03*
D16*
X71800000Y-101425000D03*
X75600000Y-101400000D03*
X67400000Y-97650000D03*
X67375000Y-101550000D03*
D12*
X103500000Y-95625000D03*
X100800000Y-95625000D03*
X85140000Y-89950000D03*
X82440000Y-89950000D03*
D17*
X67710000Y-84600000D03*
X67710000Y-92100000D03*
D18*
X67710000Y-88350000D03*
D12*
X95750000Y-89500000D03*
X98450000Y-89500000D03*
D11*
X103530000Y-83640000D03*
X101030000Y-83640000D03*
D15*
X111650000Y-83275000D03*
X111500000Y-87600000D03*
D12*
X103600000Y-85600000D03*
X100900000Y-85600000D03*
D13*
X87360000Y-95810000D03*
X87360000Y-98510000D03*
X87250000Y-89680000D03*
X87250000Y-92380000D03*
D11*
X85680000Y-101340000D03*
X88180000Y-101340000D03*
D14*
X76000000Y-98225000D03*
X76000000Y-95725000D03*
D13*
X103650000Y-101250000D03*
X103650000Y-103950000D03*
D12*
X95810000Y-83760000D03*
X98510000Y-83760000D03*
X80760000Y-101270000D03*
X83460000Y-101270000D03*
X98525000Y-85700000D03*
X95825000Y-85700000D03*
X83900000Y-84582000D03*
X81200000Y-84582000D03*
D11*
X95770000Y-91410000D03*
X98270000Y-91410000D03*
X95780000Y-94640000D03*
X98280000Y-94640000D03*
D12*
X97750000Y-100475000D03*
X95050000Y-100475000D03*
D19*
X103250000Y-87475000D03*
X101350000Y-87475000D03*
X102300000Y-89475000D03*
X85024000Y-86376000D03*
X83124000Y-86376000D03*
X84074000Y-88376000D03*
X81420000Y-95660000D03*
X79520000Y-95660000D03*
X80470000Y-97660000D03*
D20*
X92010000Y-98580000D03*
X92010000Y-96680000D03*
X90010000Y-97630000D03*
D19*
X83360000Y-97670000D03*
X85260000Y-97670000D03*
X84310000Y-95670000D03*
X91070000Y-87620000D03*
X89170000Y-87620000D03*
X90120000Y-89620000D03*
X103375000Y-97375000D03*
X101475000Y-97375000D03*
X102425000Y-99375000D03*
D21*
X83675000Y-91925000D03*
X84525000Y-93175000D03*
X85725000Y-93000000D03*
X68950000Y-99450000D03*
X75700000Y-99600000D03*
X74550000Y-98575000D03*
X87175000Y-102250000D03*
X89825000Y-101650000D03*
X88250000Y-100050000D03*
X86230000Y-97130000D03*
X84230000Y-96710000D03*
X85370000Y-96590000D03*
X78210000Y-95940000D03*
X79250000Y-94370000D03*
X79400000Y-96770000D03*
X94530000Y-91810000D03*
X94580000Y-95350000D03*
X94640000Y-94290000D03*
X96810000Y-94430000D03*
X100650000Y-104650000D03*
X99850000Y-104500000D03*
X98325000Y-103300000D03*
X99800000Y-101850000D03*
X102700000Y-102580000D03*
X102300000Y-83550000D03*
X102900000Y-82100000D03*
X103950000Y-81850000D03*
X96950000Y-91300000D03*
X94500000Y-90400000D03*
X102050000Y-92000000D03*
X102020000Y-90800000D03*
X103900000Y-92650000D03*
X66200000Y-94140000D03*
X65800000Y-95870000D03*
X65750000Y-97525000D03*
X65700000Y-99275000D03*
X65600000Y-100990000D03*
X65600000Y-102640000D03*
X66020000Y-104750000D03*
X66500000Y-106500000D03*
X68500000Y-106500000D03*
X70750000Y-106500000D03*
X72750000Y-106500000D03*
X74800000Y-106500000D03*
X98400000Y-78600000D03*
X96600000Y-78600000D03*
X94900000Y-78600000D03*
X93100000Y-78500000D03*
X91100000Y-78400000D03*
X89000000Y-78500000D03*
X86900000Y-78500000D03*
X85000000Y-78500000D03*
X83300000Y-78400000D03*
X81400000Y-78500000D03*
X79200000Y-78400000D03*
X77000000Y-78500000D03*
X74900000Y-78500000D03*
X73100000Y-78600000D03*
X71200000Y-78600000D03*
X69600000Y-79000000D03*
X68500000Y-80000000D03*
X68125000Y-80975000D03*
X67850000Y-81925000D03*
X101175000Y-106525000D03*
X99500000Y-106600000D03*
X96900000Y-106400000D03*
X94800000Y-106500000D03*
X92600000Y-106500000D03*
X90600000Y-106500000D03*
X88700000Y-106500000D03*
X87100000Y-106500000D03*
X85300000Y-106500000D03*
X83500000Y-106500000D03*
X81600000Y-106400000D03*
X80100000Y-106300000D03*
X78500000Y-106400000D03*
X76800000Y-106400000D03*
X67710000Y-92100000D03*
X101240000Y-102660000D03*
D22*
X84890000Y-91840000D02*
X83760000Y-91840000D01*
X83760000Y-91840000D02*
X83675000Y-91925000D01*
X84890000Y-91840000D02*
X84890000Y-92810000D01*
X84890000Y-92810000D02*
X84525000Y-93175000D01*
X84890000Y-91840000D02*
X84890000Y-92165000D01*
X84890000Y-92165000D02*
X85725000Y-93000000D01*
X70350000Y-98825000D02*
X69575000Y-98825000D01*
X69575000Y-98825000D02*
X68950000Y-99450000D01*
X76000000Y-98225000D02*
X76000000Y-99300000D01*
X76000000Y-99300000D02*
X75700000Y-99600000D01*
X76000000Y-98225000D02*
X74900000Y-98225000D01*
X74900000Y-98225000D02*
X74550000Y-98575000D01*
X88180000Y-101340000D02*
X88180000Y-101945000D01*
X88180000Y-101945000D02*
X87175000Y-102250000D01*
X88180000Y-101340000D02*
X89515000Y-101340000D01*
X89515000Y-101340000D02*
X89825000Y-101650000D01*
X88180000Y-101340000D02*
X88180000Y-100120000D01*
X88180000Y-100120000D02*
X88250000Y-100050000D01*
X85260000Y-97670000D02*
X85690000Y-97670000D01*
X85690000Y-97670000D02*
X86230000Y-97130000D01*
X85260000Y-97670000D02*
X85190000Y-97670000D01*
X85190000Y-97670000D02*
X84230000Y-96710000D01*
X85260000Y-97670000D02*
X85260000Y-96700000D01*
X85260000Y-96700000D02*
X85370000Y-96590000D01*
X79520000Y-95660000D02*
X78490000Y-95660000D01*
X78490000Y-95660000D02*
X78210000Y-95940000D01*
X79520000Y-95660000D02*
X79520000Y-94640000D01*
X79520000Y-94640000D02*
X79250000Y-94370000D01*
X79520000Y-95660000D02*
X79520000Y-96650000D01*
X79520000Y-96650000D02*
X79400000Y-96770000D01*
X95770000Y-91410000D02*
X94930000Y-91410000D01*
X94930000Y-91410000D02*
X94530000Y-91810000D01*
X95780000Y-94640000D02*
X95290000Y-94640000D01*
X95290000Y-94640000D02*
X94580000Y-95350000D01*
X95780000Y-94640000D02*
X94990000Y-94640000D01*
X94990000Y-94640000D02*
X94640000Y-94290000D01*
X95780000Y-94640000D02*
X96600000Y-94640000D01*
X96600000Y-94640000D02*
X96810000Y-94430000D01*
X101650000Y-103900000D02*
X101650000Y-104625000D01*
X101650000Y-104625000D02*
X100650000Y-104650000D01*
X99725000Y-103225000D02*
X99725000Y-104375000D01*
X99725000Y-104375000D02*
X99850000Y-104500000D01*
X99725000Y-103225000D02*
X98400000Y-103225000D01*
X98400000Y-103225000D02*
X98325000Y-103300000D01*
X99725000Y-103225000D02*
X99725000Y-101925000D01*
X99725000Y-101925000D02*
X99800000Y-101850000D01*
X103530000Y-83640000D02*
X102390000Y-83640000D01*
X102390000Y-83640000D02*
X102300000Y-83550000D01*
X103530000Y-83640000D02*
X103530000Y-82730000D01*
X103530000Y-82730000D02*
X102900000Y-82100000D01*
X103530000Y-83640000D02*
X103530000Y-82270000D01*
X103530000Y-82270000D02*
X103950000Y-81850000D01*
X95770000Y-91410000D02*
X96840000Y-91410000D01*
X96840000Y-91410000D02*
X96950000Y-91300000D01*
X95770000Y-91410000D02*
X95510000Y-91410000D01*
X95510000Y-91410000D02*
X94500000Y-90400000D01*
X76000000Y-98225000D02*
X76000000Y-97800000D01*
X103450000Y-91300000D02*
X103210000Y-91300000D01*
X103210000Y-91300000D02*
X102510000Y-92000000D01*
X102510000Y-92000000D02*
X102050000Y-92000000D01*
X103450000Y-91300000D02*
X103070000Y-91300000D01*
X103070000Y-91300000D02*
X102570000Y-90800000D01*
X102570000Y-90800000D02*
X102020000Y-90800000D01*
X103450000Y-91300000D02*
X103510000Y-91300000D01*
X103510000Y-91300000D02*
X104290000Y-92080000D01*
X104290000Y-92080000D02*
X103900000Y-92650000D01*
X99725000Y-103225000D02*
X99725000Y-103105000D01*
X99750000Y-103250000D02*
X99725000Y-103225000D01*
X101650000Y-103900000D02*
X101650000Y-103630000D01*
X101650000Y-103630000D02*
X102700000Y-102580000D01*
X76800000Y-106400000D02*
X74850000Y-106450000D01*
X66200000Y-94140000D02*
X67710000Y-93200000D01*
X65750000Y-97525000D02*
X65800000Y-95870000D01*
X65600000Y-100990000D02*
X65700000Y-99275000D01*
X65690000Y-103140000D02*
X65600000Y-102640000D01*
X66020000Y-104750000D02*
X65690000Y-103140000D01*
X68450000Y-106450000D02*
X66500000Y-106500000D01*
X68500000Y-106500000D02*
X68450000Y-106450000D01*
X72750000Y-106500000D02*
X70750000Y-106500000D01*
X74850000Y-106450000D02*
X74800000Y-106500000D01*
X67710000Y-93200000D02*
X67710000Y-92100000D01*
X67710000Y-84600000D02*
X67575000Y-82425000D01*
X96600000Y-78600000D02*
X98400000Y-78600000D01*
X93100000Y-78500000D02*
X94900000Y-78600000D01*
X89000000Y-78500000D02*
X91100000Y-78400000D01*
X85000000Y-78500000D02*
X86900000Y-78500000D01*
X81500000Y-78600000D02*
X83300000Y-78400000D01*
X81400000Y-78500000D02*
X81500000Y-78600000D01*
X77000000Y-78500000D02*
X79200000Y-78400000D01*
X73200000Y-78500000D02*
X74900000Y-78500000D01*
X73100000Y-78600000D02*
X73200000Y-78500000D01*
X70000000Y-78600000D02*
X71200000Y-78600000D01*
X69600000Y-79000000D02*
X70000000Y-78600000D01*
X68500000Y-80100000D02*
X68500000Y-80000000D01*
X68125000Y-80975000D02*
X68500000Y-80100000D01*
X67575000Y-82425000D02*
X67850000Y-81925000D01*
X98100000Y-106500000D02*
X99500000Y-106600000D01*
X96900000Y-106400000D02*
X98100000Y-106500000D01*
X92600000Y-106500000D02*
X94800000Y-106500000D01*
X88700000Y-106500000D02*
X90600000Y-106500000D01*
X85300000Y-106500000D02*
X87100000Y-106500000D01*
X81700000Y-106300000D02*
X83500000Y-106500000D01*
X81600000Y-106400000D02*
X81700000Y-106300000D01*
X78600000Y-106500000D02*
X80100000Y-106300000D01*
X78500000Y-106400000D02*
X78600000Y-106500000D01*
X76500000Y-106400000D02*
X76800000Y-106400000D01*
D23*
X75250000Y-101050000D02*
X75600000Y-101400000D01*
D22*
X95682000Y-91296000D02*
X95782000Y-91396000D01*
X96095000Y-94090000D02*
X95545000Y-94090000D01*
X101650000Y-103900000D02*
X101650000Y-103070000D01*
X101650000Y-103070000D02*
X101240000Y-102660000D01*
X103375000Y-97375000D02*
X103375000Y-95750000D01*
X103375000Y-95750000D02*
X103500000Y-95625000D01*
X103375000Y-97375000D02*
X105525000Y-97375000D01*
X105525000Y-97375000D02*
X105675000Y-97525000D01*
D23*
X111375000Y-97450000D02*
X108395000Y-97305000D01*
X108395000Y-97305000D02*
X108175000Y-97525000D01*
X108395000Y-97305000D02*
X108175000Y-97525000D01*
D22*
X95700000Y-98550000D02*
X92040000Y-98550000D01*
X95750000Y-96700000D02*
X95750000Y-98500000D01*
X95750000Y-98500000D02*
X95700000Y-98550000D01*
X95625000Y-98475000D02*
X95700000Y-98550000D01*
X92040000Y-98550000D02*
X92010000Y-98580000D01*
X100450000Y-97375000D02*
X100450000Y-99800000D01*
X100450000Y-99800000D02*
X99725000Y-100525000D01*
X99600000Y-101050000D02*
X99875000Y-100775000D01*
X99725000Y-100525000D02*
X99725000Y-100325000D01*
X98250000Y-96700000D02*
X98900000Y-96700000D01*
X98900000Y-96700000D02*
X99575000Y-97375000D01*
X99575000Y-97375000D02*
X100450000Y-97375000D01*
X100450000Y-97375000D02*
X101475000Y-97375000D01*
X98250000Y-96700000D02*
X98895000Y-96700000D01*
X85140000Y-89950000D02*
X85140000Y-89485000D01*
X85140000Y-89485000D02*
X85675000Y-88950000D01*
X85675000Y-88950000D02*
X85675000Y-87027000D01*
X85675000Y-87027000D02*
X85024000Y-86376000D01*
X87150000Y-85950000D02*
X85450000Y-85950000D01*
X85450000Y-85950000D02*
X85024000Y-86376000D01*
X90120000Y-89620000D02*
X90120000Y-86420000D01*
X90120000Y-86420000D02*
X89650000Y-85950000D01*
X90120000Y-89620000D02*
X90120000Y-90890000D01*
X90120000Y-90890000D02*
X90540000Y-91310000D01*
D23*
X72875000Y-88550000D02*
X67910000Y-88550000D01*
X67910000Y-88550000D02*
X67710000Y-88350000D01*
X67710000Y-88350000D02*
X69160000Y-88350000D01*
X75375000Y-88550000D02*
X76100000Y-88550000D01*
X76100000Y-88550000D02*
X77600000Y-87050000D01*
X77600000Y-87050000D02*
X78850000Y-87050000D01*
D22*
X83124000Y-86376000D02*
X79524000Y-86376000D01*
X79524000Y-86376000D02*
X78850000Y-87050000D01*
X100750000Y-91300000D02*
X100750000Y-88075000D01*
X100750000Y-88075000D02*
X101350000Y-87475000D01*
X101350000Y-87475000D02*
X98410000Y-87460000D01*
X98410000Y-87460000D02*
X98310000Y-87560000D01*
X100425000Y-90975000D02*
X100750000Y-91300000D01*
X73025000Y-95650000D02*
X73025000Y-95500000D01*
X73025000Y-95500000D02*
X74175000Y-94350000D01*
X75168000Y-84582000D02*
X81200000Y-84582000D01*
X74175000Y-85575000D02*
X75168000Y-84582000D01*
X74175000Y-94350000D02*
X74175000Y-85575000D01*
X95050000Y-103000000D02*
X95050000Y-100475000D01*
X92525000Y-103000000D02*
X95050000Y-103000000D01*
X103650000Y-105075000D02*
X103650000Y-103950000D01*
X103050000Y-105675000D02*
X103650000Y-105075000D01*
X97725000Y-105675000D02*
X103050000Y-105675000D01*
X95050000Y-103000000D02*
X97725000Y-105675000D01*
X92975000Y-83025000D02*
X95075000Y-83025000D01*
X95075000Y-83025000D02*
X95810000Y-83760000D01*
X95810000Y-83760000D02*
X95810000Y-85685000D01*
X95810000Y-85685000D02*
X95825000Y-85700000D01*
D23*
X67400000Y-97650000D02*
X67400000Y-95750000D01*
X73025000Y-94525000D02*
X73025000Y-95650000D01*
X72550000Y-94050000D02*
X73025000Y-94525000D01*
X69100000Y-94050000D02*
X72550000Y-94050000D01*
X67400000Y-95750000D02*
X69100000Y-94050000D01*
D22*
X76000000Y-95725000D02*
X73100000Y-95725000D01*
X73100000Y-95725000D02*
X73025000Y-95650000D01*
X80760000Y-101270000D02*
X80760000Y-101685000D01*
X80760000Y-101685000D02*
X82075000Y-103000000D01*
X82075000Y-103000000D02*
X92525000Y-103000000D01*
X76000000Y-95725000D02*
X76925000Y-95725000D01*
X78495000Y-101270000D02*
X80760000Y-101270000D01*
X77225000Y-100000000D02*
X78495000Y-101270000D01*
X77225000Y-96025000D02*
X77225000Y-100000000D01*
X76925000Y-95725000D02*
X77225000Y-96025000D01*
X81200000Y-84582000D02*
X81200000Y-83950000D01*
X81200000Y-83950000D02*
X82125000Y-83025000D01*
X82125000Y-83025000D02*
X92975000Y-83025000D01*
X96400000Y-83575000D02*
X96725000Y-83575000D01*
X96725000Y-83575000D02*
X96540000Y-83760000D01*
X96540000Y-83760000D02*
X95810000Y-83760000D01*
X103650000Y-103950000D02*
X103650000Y-104575000D01*
X95350000Y-100475000D02*
X95050000Y-100475000D01*
X95810000Y-85685000D02*
X95825000Y-85700000D01*
X73025000Y-95650000D02*
X73150000Y-95650000D01*
X73275000Y-95900000D02*
X73025000Y-95650000D01*
X67400000Y-97650000D02*
X67400000Y-97300000D01*
X70325000Y-95650000D02*
X70325000Y-96100000D01*
X70325000Y-96100000D02*
X73050000Y-98825000D01*
X70325000Y-95650000D02*
X70325000Y-96150000D01*
D23*
X71800000Y-101425000D02*
X67500000Y-101425000D01*
X67500000Y-101425000D02*
X67375000Y-101550000D01*
X67475000Y-101450000D02*
X67375000Y-101550000D01*
D22*
X105625000Y-87550000D02*
X103325000Y-87550000D01*
X103325000Y-87550000D02*
X103250000Y-87475000D01*
X103600000Y-85600000D02*
X103600000Y-87125000D01*
X103600000Y-87125000D02*
X103250000Y-87475000D01*
X105375000Y-87300000D02*
X105625000Y-87550000D01*
D23*
X111500000Y-87600000D02*
X108350000Y-87325000D01*
X108350000Y-87325000D02*
X108125000Y-87550000D01*
D22*
X91070000Y-87620000D02*
X95750000Y-87620000D01*
X95750000Y-87620000D02*
X95810000Y-87560000D01*
X95750000Y-89500000D02*
X95750000Y-87620000D01*
X95750000Y-87620000D02*
X95810000Y-87560000D01*
X95760000Y-87610000D02*
X95810000Y-87560000D01*
X92010000Y-96680000D02*
X91320000Y-96680000D01*
X90640000Y-98800000D02*
X87650000Y-98800000D01*
X90910000Y-98530000D02*
X90640000Y-98800000D01*
X90910000Y-97090000D02*
X90910000Y-98530000D01*
X91320000Y-96680000D02*
X90910000Y-97090000D01*
X87650000Y-98800000D02*
X87360000Y-98510000D01*
D23*
X87540000Y-98690000D02*
X87360000Y-98510000D01*
X87850000Y-98020000D02*
X87360000Y-98510000D01*
D22*
X103650000Y-101250000D02*
X101800000Y-101250000D01*
X101800000Y-101250000D02*
X101650000Y-101400000D01*
X102425000Y-99375000D02*
X102150000Y-99375000D01*
X102150000Y-99375000D02*
X101650000Y-99875000D01*
X101650000Y-99875000D02*
X101650000Y-101400000D01*
X100800000Y-95625000D02*
X101650000Y-95625000D01*
X102300000Y-96275000D02*
X102300000Y-99250000D01*
X101650000Y-95625000D02*
X102300000Y-96275000D01*
X102300000Y-99250000D02*
X102425000Y-99375000D01*
X103500000Y-101400000D02*
X103650000Y-101250000D01*
X101030000Y-83640000D02*
X101030000Y-85470000D01*
X101030000Y-85470000D02*
X100900000Y-85600000D01*
X98510000Y-83760000D02*
X100910000Y-83760000D01*
X100910000Y-83760000D02*
X101030000Y-83640000D01*
X98300000Y-83970000D02*
X98510000Y-83760000D01*
X102300000Y-89475000D02*
X102300000Y-85925000D01*
X101900000Y-85525000D02*
X100975000Y-85525000D01*
X102300000Y-85925000D02*
X101900000Y-85525000D01*
X100975000Y-85525000D02*
X100900000Y-85600000D01*
X84074000Y-88376000D02*
X84014000Y-88376000D01*
X84014000Y-88376000D02*
X82440000Y-89950000D01*
X82440000Y-89950000D02*
X82440000Y-91790000D01*
X82440000Y-91790000D02*
X82390000Y-91840000D01*
X84074000Y-88376000D02*
X84074000Y-84756000D01*
X84074000Y-84756000D02*
X83900000Y-84582000D01*
X85680000Y-101340000D02*
X83530000Y-101340000D01*
X83530000Y-101340000D02*
X83460000Y-101270000D01*
X85090000Y-99410000D02*
X85090000Y-100750000D01*
X85090000Y-100750000D02*
X85680000Y-101340000D01*
X98270000Y-91410000D02*
X98270000Y-91520000D01*
X98270000Y-91520000D02*
X97070000Y-92720000D01*
X94160000Y-92720000D02*
X93240000Y-91800000D01*
X97070000Y-92720000D02*
X94160000Y-92720000D01*
X93240000Y-91800000D02*
X93240000Y-91310000D01*
X93240000Y-91310000D02*
X93340000Y-91310000D01*
X98450000Y-89500000D02*
X98450000Y-91230000D01*
X98450000Y-91230000D02*
X98270000Y-91410000D01*
X98450000Y-89500000D02*
X97630000Y-89500000D01*
X97020000Y-86560000D02*
X97880000Y-85700000D01*
X97020000Y-88890000D02*
X97020000Y-86560000D01*
X97630000Y-89500000D02*
X97020000Y-88890000D01*
X97880000Y-85700000D02*
X98525000Y-85700000D01*
X98525000Y-85700000D02*
X97775000Y-85700000D01*
X98370000Y-91310000D02*
X98270000Y-91410000D01*
X93170000Y-94550000D02*
X93170000Y-94370000D01*
X93170000Y-94370000D02*
X94210000Y-93330000D01*
X96970000Y-93330000D02*
X98280000Y-94640000D01*
X94210000Y-93330000D02*
X96970000Y-93330000D01*
X98400000Y-98550000D02*
X98400000Y-99825000D01*
X98400000Y-99825000D02*
X97750000Y-100475000D01*
X98400000Y-98550000D02*
X97900000Y-98550000D01*
X97900000Y-98550000D02*
X96950000Y-97600000D01*
X96950000Y-95650000D02*
X97960000Y-94640000D01*
X96950000Y-97600000D02*
X96950000Y-95650000D01*
X97960000Y-94640000D02*
X98280000Y-94640000D01*
X93170000Y-94550000D02*
X93170000Y-94300000D01*
X98280000Y-94130000D02*
X98280000Y-94640000D01*
X97750000Y-100475000D02*
X97100000Y-100475000D01*
X97775000Y-98550000D02*
X98400000Y-98550000D01*
X98280000Y-94790000D02*
X98280000Y-94640000D01*
D23*
X93244000Y-94476000D02*
X93170000Y-94550000D01*
D22*
X83360000Y-97670000D02*
X83360000Y-98440000D01*
X83360000Y-98440000D02*
X82390000Y-99410000D01*
X83360000Y-97670000D02*
X80480000Y-97670000D01*
X80480000Y-97670000D02*
X80470000Y-97660000D01*
X81420000Y-95660000D02*
X81420000Y-96710000D01*
X81420000Y-96710000D02*
X80470000Y-97660000D01*
X90010000Y-97630000D02*
X90010000Y-95010000D01*
X90010000Y-95010000D02*
X90470000Y-94550000D01*
X90010000Y-95010000D02*
X90470000Y-94550000D01*
X84310000Y-95670000D02*
X87220000Y-95670000D01*
X87220000Y-95670000D02*
X87360000Y-95810000D01*
X87250000Y-92380000D02*
X87250000Y-95700000D01*
X87250000Y-95700000D02*
X87360000Y-95810000D01*
D23*
X87130000Y-96040000D02*
X87360000Y-95810000D01*
X87280000Y-95730000D02*
X87360000Y-95810000D01*
D22*
X87250000Y-89680000D02*
X87250000Y-89540000D01*
X87250000Y-89540000D02*
X89170000Y-87620000D01*
D24*
G36*
X71666757Y-89620753D02*
X71876283Y-89763917D01*
X72125000Y-89814283D01*
X73373000Y-89814283D01*
X73373000Y-93632734D01*
X73170133Y-93429867D01*
X72885613Y-93239758D01*
X72550000Y-93173000D01*
X70885000Y-93173000D01*
X70885000Y-92385750D01*
X70726250Y-92227000D01*
X67837000Y-92227000D01*
X67837000Y-93826250D01*
X67960242Y-93949492D01*
X66779867Y-95129867D01*
X66589758Y-95414387D01*
X66523000Y-95750000D01*
X66523000Y-96010717D01*
X66400000Y-96010717D01*
X66167648Y-96054437D01*
X65954247Y-96191757D01*
X65811083Y-96401283D01*
X65760717Y-96650000D01*
X65760717Y-98650000D01*
X65804437Y-98882352D01*
X65941757Y-99095753D01*
X66151283Y-99238917D01*
X66400000Y-99289283D01*
X68400000Y-99289283D01*
X68632352Y-99245563D01*
X68845753Y-99108243D01*
X68965000Y-98933720D01*
X68965000Y-98952002D01*
X69123748Y-98952002D01*
X68965000Y-99110750D01*
X68965000Y-99601310D01*
X69061673Y-99834699D01*
X69240302Y-100013327D01*
X69473691Y-100110000D01*
X70064250Y-100110000D01*
X70222998Y-99951252D01*
X70222998Y-100110000D01*
X70256373Y-100110000D01*
X70211083Y-100176283D01*
X70160717Y-100425000D01*
X70160717Y-100548000D01*
X69013907Y-100548000D01*
X68970563Y-100317648D01*
X68833243Y-100104247D01*
X68623717Y-99961083D01*
X68375000Y-99910717D01*
X66375000Y-99910717D01*
X66142648Y-99954437D01*
X65929247Y-100091757D01*
X65786083Y-100301283D01*
X65735717Y-100550000D01*
X65735717Y-102550000D01*
X65779437Y-102782352D01*
X65916757Y-102995753D01*
X66126283Y-103138917D01*
X66375000Y-103189283D01*
X68375000Y-103189283D01*
X68607352Y-103145563D01*
X68820753Y-103008243D01*
X68963917Y-102798717D01*
X69014283Y-102550000D01*
X69014283Y-102302000D01*
X70160717Y-102302000D01*
X70160717Y-102425000D01*
X70204437Y-102657352D01*
X70341757Y-102870753D01*
X70551283Y-103013917D01*
X70800000Y-103064283D01*
X72800000Y-103064283D01*
X73032352Y-103020563D01*
X73245753Y-102883243D01*
X73388917Y-102673717D01*
X73439283Y-102425000D01*
X73439283Y-101685750D01*
X73965000Y-101685750D01*
X73965000Y-102526310D01*
X74061673Y-102759699D01*
X74240302Y-102938327D01*
X74473691Y-103035000D01*
X75314250Y-103035000D01*
X75473000Y-102876250D01*
X75473000Y-101527000D01*
X75727000Y-101527000D01*
X75727000Y-102876250D01*
X75885750Y-103035000D01*
X76726309Y-103035000D01*
X76959698Y-102938327D01*
X77138327Y-102759699D01*
X77235000Y-102526310D01*
X77235000Y-101685750D01*
X77076250Y-101527000D01*
X75727000Y-101527000D01*
X75473000Y-101527000D01*
X74123750Y-101527000D01*
X73965000Y-101685750D01*
X73439283Y-101685750D01*
X73439283Y-100425000D01*
X73395563Y-100192648D01*
X73345136Y-100114283D01*
X73800000Y-100114283D01*
X74032352Y-100070563D01*
X74055238Y-100055836D01*
X73965000Y-100273690D01*
X73965000Y-101114250D01*
X74123750Y-101273000D01*
X75473000Y-101273000D01*
X75473000Y-99923750D01*
X75314250Y-99765000D01*
X74473691Y-99765000D01*
X74316111Y-99830272D01*
X74388917Y-99723717D01*
X74439283Y-99475000D01*
X74439283Y-98510750D01*
X74740000Y-98510750D01*
X74740000Y-99101309D01*
X74836673Y-99334698D01*
X75015301Y-99513327D01*
X75248690Y-99610000D01*
X75714250Y-99610000D01*
X75873000Y-99451250D01*
X75873000Y-98352000D01*
X74898750Y-98352000D01*
X74740000Y-98510750D01*
X74439283Y-98510750D01*
X74439283Y-98175000D01*
X74395563Y-97942648D01*
X74258243Y-97729247D01*
X74048717Y-97586083D01*
X73800000Y-97535717D01*
X72894917Y-97535717D01*
X72298483Y-96939283D01*
X73775000Y-96939283D01*
X74007352Y-96895563D01*
X74220753Y-96758243D01*
X74363917Y-96548717D01*
X74368315Y-96527000D01*
X74745501Y-96527000D01*
X74779437Y-96707352D01*
X74916757Y-96920753D01*
X74984758Y-96967216D01*
X74836673Y-97115302D01*
X74740000Y-97348691D01*
X74740000Y-97939250D01*
X74898750Y-98098000D01*
X75873000Y-98098000D01*
X75873000Y-98078000D01*
X76127000Y-98078000D01*
X76127000Y-98098000D01*
X76147000Y-98098000D01*
X76147000Y-98352000D01*
X76127000Y-98352000D01*
X76127000Y-99451250D01*
X76285750Y-99610000D01*
X76423000Y-99610000D01*
X76423000Y-99765000D01*
X75885750Y-99765000D01*
X75727000Y-99923750D01*
X75727000Y-101273000D01*
X77076250Y-101273000D01*
X77220025Y-101129225D01*
X77927898Y-101837097D01*
X77927900Y-101837100D01*
X78119317Y-101965000D01*
X78188088Y-102010951D01*
X78495000Y-102072000D01*
X79399318Y-102072000D01*
X79414437Y-102152352D01*
X79551757Y-102365753D01*
X79761283Y-102508917D01*
X80010000Y-102559283D01*
X80500083Y-102559283D01*
X80963800Y-103023000D01*
X80393636Y-103023000D01*
X79771010Y-103146848D01*
X79243173Y-103499537D01*
X78890484Y-104027374D01*
X78766636Y-104650000D01*
X78890484Y-105272626D01*
X79243173Y-105800463D01*
X79771010Y-106153152D01*
X80393636Y-106277000D01*
X83006364Y-106277000D01*
X83628990Y-106153152D01*
X84156827Y-105800463D01*
X84509516Y-105272626D01*
X84633364Y-104650000D01*
X84509516Y-104027374D01*
X84358926Y-103802000D01*
X89124483Y-103802000D01*
X88940484Y-104077374D01*
X88816636Y-104700000D01*
X88940484Y-105322626D01*
X89293173Y-105850463D01*
X89821010Y-106203152D01*
X90297843Y-106298000D01*
X65702000Y-106298000D01*
X65702000Y-93985000D01*
X67424250Y-93985000D01*
X67583000Y-93826250D01*
X67583000Y-92227000D01*
X67563000Y-92227000D01*
X67563000Y-91973000D01*
X67583000Y-91973000D01*
X67583000Y-90373750D01*
X67837000Y-90373750D01*
X67837000Y-91973000D01*
X70726250Y-91973000D01*
X70885000Y-91814250D01*
X70885000Y-90723691D01*
X70788327Y-90490302D01*
X70609699Y-90311673D01*
X70376310Y-90215000D01*
X67995750Y-90215000D01*
X67837000Y-90373750D01*
X67583000Y-90373750D01*
X67424250Y-90215000D01*
X65702000Y-90215000D01*
X65702000Y-89739283D01*
X70250000Y-89739283D01*
X70482352Y-89695563D01*
X70695753Y-89558243D01*
X70785428Y-89427000D01*
X71542080Y-89427000D01*
X71666757Y-89620753D01*
X71666757Y-89620753D01*
G37*
X71666757Y-89620753D02*
X71876283Y-89763917D01*
X72125000Y-89814283D01*
X73373000Y-89814283D01*
X73373000Y-93632734D01*
X73170133Y-93429867D01*
X72885613Y-93239758D01*
X72550000Y-93173000D01*
X70885000Y-93173000D01*
X70885000Y-92385750D01*
X70726250Y-92227000D01*
X67837000Y-92227000D01*
X67837000Y-93826250D01*
X67960242Y-93949492D01*
X66779867Y-95129867D01*
X66589758Y-95414387D01*
X66523000Y-95750000D01*
X66523000Y-96010717D01*
X66400000Y-96010717D01*
X66167648Y-96054437D01*
X65954247Y-96191757D01*
X65811083Y-96401283D01*
X65760717Y-96650000D01*
X65760717Y-98650000D01*
X65804437Y-98882352D01*
X65941757Y-99095753D01*
X66151283Y-99238917D01*
X66400000Y-99289283D01*
X68400000Y-99289283D01*
X68632352Y-99245563D01*
X68845753Y-99108243D01*
X68965000Y-98933720D01*
X68965000Y-98952002D01*
X69123748Y-98952002D01*
X68965000Y-99110750D01*
X68965000Y-99601310D01*
X69061673Y-99834699D01*
X69240302Y-100013327D01*
X69473691Y-100110000D01*
X70064250Y-100110000D01*
X70222998Y-99951252D01*
X70222998Y-100110000D01*
X70256373Y-100110000D01*
X70211083Y-100176283D01*
X70160717Y-100425000D01*
X70160717Y-100548000D01*
X69013907Y-100548000D01*
X68970563Y-100317648D01*
X68833243Y-100104247D01*
X68623717Y-99961083D01*
X68375000Y-99910717D01*
X66375000Y-99910717D01*
X66142648Y-99954437D01*
X65929247Y-100091757D01*
X65786083Y-100301283D01*
X65735717Y-100550000D01*
X65735717Y-102550000D01*
X65779437Y-102782352D01*
X65916757Y-102995753D01*
X66126283Y-103138917D01*
X66375000Y-103189283D01*
X68375000Y-103189283D01*
X68607352Y-103145563D01*
X68820753Y-103008243D01*
X68963917Y-102798717D01*
X69014283Y-102550000D01*
X69014283Y-102302000D01*
X70160717Y-102302000D01*
X70160717Y-102425000D01*
X70204437Y-102657352D01*
X70341757Y-102870753D01*
X70551283Y-103013917D01*
X70800000Y-103064283D01*
X72800000Y-103064283D01*
X73032352Y-103020563D01*
X73245753Y-102883243D01*
X73388917Y-102673717D01*
X73439283Y-102425000D01*
X73439283Y-101685750D01*
X73965000Y-101685750D01*
X73965000Y-102526310D01*
X74061673Y-102759699D01*
X74240302Y-102938327D01*
X74473691Y-103035000D01*
X75314250Y-103035000D01*
X75473000Y-102876250D01*
X75473000Y-101527000D01*
X75727000Y-101527000D01*
X75727000Y-102876250D01*
X75885750Y-103035000D01*
X76726309Y-103035000D01*
X76959698Y-102938327D01*
X77138327Y-102759699D01*
X77235000Y-102526310D01*
X77235000Y-101685750D01*
X77076250Y-101527000D01*
X75727000Y-101527000D01*
X75473000Y-101527000D01*
X74123750Y-101527000D01*
X73965000Y-101685750D01*
X73439283Y-101685750D01*
X73439283Y-100425000D01*
X73395563Y-100192648D01*
X73345136Y-100114283D01*
X73800000Y-100114283D01*
X74032352Y-100070563D01*
X74055238Y-100055836D01*
X73965000Y-100273690D01*
X73965000Y-101114250D01*
X74123750Y-101273000D01*
X75473000Y-101273000D01*
X75473000Y-99923750D01*
X75314250Y-99765000D01*
X74473691Y-99765000D01*
X74316111Y-99830272D01*
X74388917Y-99723717D01*
X74439283Y-99475000D01*
X74439283Y-98510750D01*
X74740000Y-98510750D01*
X74740000Y-99101309D01*
X74836673Y-99334698D01*
X75015301Y-99513327D01*
X75248690Y-99610000D01*
X75714250Y-99610000D01*
X75873000Y-99451250D01*
X75873000Y-98352000D01*
X74898750Y-98352000D01*
X74740000Y-98510750D01*
X74439283Y-98510750D01*
X74439283Y-98175000D01*
X74395563Y-97942648D01*
X74258243Y-97729247D01*
X74048717Y-97586083D01*
X73800000Y-97535717D01*
X72894917Y-97535717D01*
X72298483Y-96939283D01*
X73775000Y-96939283D01*
X74007352Y-96895563D01*
X74220753Y-96758243D01*
X74363917Y-96548717D01*
X74368315Y-96527000D01*
X74745501Y-96527000D01*
X74779437Y-96707352D01*
X74916757Y-96920753D01*
X74984758Y-96967216D01*
X74836673Y-97115302D01*
X74740000Y-97348691D01*
X74740000Y-97939250D01*
X74898750Y-98098000D01*
X75873000Y-98098000D01*
X75873000Y-98078000D01*
X76127000Y-98078000D01*
X76127000Y-98098000D01*
X76147000Y-98098000D01*
X76147000Y-98352000D01*
X76127000Y-98352000D01*
X76127000Y-99451250D01*
X76285750Y-99610000D01*
X76423000Y-99610000D01*
X76423000Y-99765000D01*
X75885750Y-99765000D01*
X75727000Y-99923750D01*
X75727000Y-101273000D01*
X77076250Y-101273000D01*
X77220025Y-101129225D01*
X77927898Y-101837097D01*
X77927900Y-101837100D01*
X78119317Y-101965000D01*
X78188088Y-102010951D01*
X78495000Y-102072000D01*
X79399318Y-102072000D01*
X79414437Y-102152352D01*
X79551757Y-102365753D01*
X79761283Y-102508917D01*
X80010000Y-102559283D01*
X80500083Y-102559283D01*
X80963800Y-103023000D01*
X80393636Y-103023000D01*
X79771010Y-103146848D01*
X79243173Y-103499537D01*
X78890484Y-104027374D01*
X78766636Y-104650000D01*
X78890484Y-105272626D01*
X79243173Y-105800463D01*
X79771010Y-106153152D01*
X80393636Y-106277000D01*
X83006364Y-106277000D01*
X83628990Y-106153152D01*
X84156827Y-105800463D01*
X84509516Y-105272626D01*
X84633364Y-104650000D01*
X84509516Y-104027374D01*
X84358926Y-103802000D01*
X89124483Y-103802000D01*
X88940484Y-104077374D01*
X88816636Y-104700000D01*
X88940484Y-105322626D01*
X89293173Y-105850463D01*
X89821010Y-106203152D01*
X90297843Y-106298000D01*
X65702000Y-106298000D01*
X65702000Y-93985000D01*
X67424250Y-93985000D01*
X67583000Y-93826250D01*
X67583000Y-92227000D01*
X67563000Y-92227000D01*
X67563000Y-91973000D01*
X67583000Y-91973000D01*
X67583000Y-90373750D01*
X67837000Y-90373750D01*
X67837000Y-91973000D01*
X70726250Y-91973000D01*
X70885000Y-91814250D01*
X70885000Y-90723691D01*
X70788327Y-90490302D01*
X70609699Y-90311673D01*
X70376310Y-90215000D01*
X67995750Y-90215000D01*
X67837000Y-90373750D01*
X67583000Y-90373750D01*
X67424250Y-90215000D01*
X65702000Y-90215000D01*
X65702000Y-89739283D01*
X70250000Y-89739283D01*
X70482352Y-89695563D01*
X70695753Y-89558243D01*
X70785428Y-89427000D01*
X71542080Y-89427000D01*
X71666757Y-89620753D01*
G36*
X96404437Y-101357352D02*
X96541757Y-101570753D01*
X96751283Y-101713917D01*
X97000000Y-101764283D01*
X98500000Y-101764283D01*
X98641498Y-101737658D01*
X98826283Y-101863917D01*
X98869716Y-101872712D01*
X98715301Y-101936673D01*
X98536673Y-102115302D01*
X98440000Y-102348691D01*
X98440000Y-102939250D01*
X98598750Y-103098000D01*
X99598000Y-103098000D01*
X99598000Y-103078000D01*
X99852000Y-103078000D01*
X99852000Y-103098000D01*
X99872000Y-103098000D01*
X99872000Y-103352000D01*
X99852000Y-103352000D01*
X99852000Y-104451250D01*
X100010750Y-104610000D01*
X100390000Y-104610000D01*
X100390000Y-104776309D01*
X100430051Y-104873000D01*
X98057199Y-104873000D01*
X96694950Y-103510750D01*
X98440000Y-103510750D01*
X98440000Y-104101309D01*
X98536673Y-104334698D01*
X98715301Y-104513327D01*
X98948690Y-104610000D01*
X99439250Y-104610000D01*
X99598000Y-104451250D01*
X99598000Y-103352000D01*
X98598750Y-103352000D01*
X98440000Y-103510750D01*
X96694950Y-103510750D01*
X95852000Y-102667800D01*
X95852000Y-101754499D01*
X96032352Y-101720563D01*
X96245753Y-101583243D01*
X96388917Y-101373717D01*
X96398558Y-101326108D01*
X96404437Y-101357352D01*
X96404437Y-101357352D01*
G37*
X96404437Y-101357352D02*
X96541757Y-101570753D01*
X96751283Y-101713917D01*
X97000000Y-101764283D01*
X98500000Y-101764283D01*
X98641498Y-101737658D01*
X98826283Y-101863917D01*
X98869716Y-101872712D01*
X98715301Y-101936673D01*
X98536673Y-102115302D01*
X98440000Y-102348691D01*
X98440000Y-102939250D01*
X98598750Y-103098000D01*
X99598000Y-103098000D01*
X99598000Y-103078000D01*
X99852000Y-103078000D01*
X99852000Y-103098000D01*
X99872000Y-103098000D01*
X99872000Y-103352000D01*
X99852000Y-103352000D01*
X99852000Y-104451250D01*
X100010750Y-104610000D01*
X100390000Y-104610000D01*
X100390000Y-104776309D01*
X100430051Y-104873000D01*
X98057199Y-104873000D01*
X96694950Y-103510750D01*
X98440000Y-103510750D01*
X98440000Y-104101309D01*
X98536673Y-104334698D01*
X98715301Y-104513327D01*
X98948690Y-104610000D01*
X99439250Y-104610000D01*
X99598000Y-104451250D01*
X99598000Y-103352000D01*
X98598750Y-103352000D01*
X98440000Y-103510750D01*
X96694950Y-103510750D01*
X95852000Y-102667800D01*
X95852000Y-101754499D01*
X96032352Y-101720563D01*
X96245753Y-101583243D01*
X96388917Y-101373717D01*
X96398558Y-101326108D01*
X96404437Y-101357352D01*
G36*
X101777000Y-103773000D02*
X101797000Y-103773000D01*
X101797000Y-104027000D01*
X101777000Y-104027000D01*
X101777000Y-104047000D01*
X101523000Y-104047000D01*
X101523000Y-104027000D01*
X101503000Y-104027000D01*
X101503000Y-103773000D01*
X101523000Y-103773000D01*
X101523000Y-103753000D01*
X101777000Y-103753000D01*
X101777000Y-103773000D01*
X101777000Y-103773000D01*
G37*
X101777000Y-103773000D02*
X101797000Y-103773000D01*
X101797000Y-104027000D01*
X101777000Y-104027000D01*
X101777000Y-104047000D01*
X101523000Y-104047000D01*
X101523000Y-104027000D01*
X101503000Y-104027000D01*
X101503000Y-103773000D01*
X101523000Y-103773000D01*
X101523000Y-103753000D01*
X101777000Y-103753000D01*
X101777000Y-103773000D01*
G36*
X93854247Y-99366757D02*
X93711083Y-99576283D01*
X93660717Y-99825000D01*
X93660717Y-101125000D01*
X93704437Y-101357352D01*
X93841757Y-101570753D01*
X94051283Y-101713917D01*
X94248000Y-101753753D01*
X94248000Y-102198000D01*
X89520808Y-102198000D01*
X89565000Y-102091310D01*
X89565000Y-101625750D01*
X89406250Y-101467000D01*
X88307000Y-101467000D01*
X88307000Y-101487000D01*
X88053000Y-101487000D01*
X88053000Y-101467000D01*
X88033000Y-101467000D01*
X88033000Y-101213000D01*
X88053000Y-101213000D01*
X88053000Y-100238750D01*
X88307000Y-100238750D01*
X88307000Y-101213000D01*
X89406250Y-101213000D01*
X89565000Y-101054250D01*
X89565000Y-100588690D01*
X89468327Y-100355301D01*
X89289698Y-100176673D01*
X89056309Y-100080000D01*
X88465750Y-100080000D01*
X88307000Y-100238750D01*
X88053000Y-100238750D01*
X87894250Y-100080000D01*
X87303691Y-100080000D01*
X87070302Y-100176673D01*
X86923279Y-100323695D01*
X86888243Y-100269247D01*
X86678717Y-100126083D01*
X86474284Y-100084685D01*
X86479283Y-100060000D01*
X86479283Y-99852562D01*
X86710000Y-99899283D01*
X88010000Y-99899283D01*
X88242352Y-99855563D01*
X88455753Y-99718243D01*
X88535179Y-99602000D01*
X90639995Y-99602000D01*
X90640000Y-99602001D01*
X90946912Y-99540951D01*
X91110440Y-99431686D01*
X91311283Y-99568917D01*
X91560000Y-99619283D01*
X92460000Y-99619283D01*
X92692352Y-99575563D01*
X92905753Y-99438243D01*
X92964681Y-99352000D01*
X93877180Y-99352000D01*
X93854247Y-99366757D01*
X93854247Y-99366757D01*
G37*
X93854247Y-99366757D02*
X93711083Y-99576283D01*
X93660717Y-99825000D01*
X93660717Y-101125000D01*
X93704437Y-101357352D01*
X93841757Y-101570753D01*
X94051283Y-101713917D01*
X94248000Y-101753753D01*
X94248000Y-102198000D01*
X89520808Y-102198000D01*
X89565000Y-102091310D01*
X89565000Y-101625750D01*
X89406250Y-101467000D01*
X88307000Y-101467000D01*
X88307000Y-101487000D01*
X88053000Y-101487000D01*
X88053000Y-101467000D01*
X88033000Y-101467000D01*
X88033000Y-101213000D01*
X88053000Y-101213000D01*
X88053000Y-100238750D01*
X88307000Y-100238750D01*
X88307000Y-101213000D01*
X89406250Y-101213000D01*
X89565000Y-101054250D01*
X89565000Y-100588690D01*
X89468327Y-100355301D01*
X89289698Y-100176673D01*
X89056309Y-100080000D01*
X88465750Y-100080000D01*
X88307000Y-100238750D01*
X88053000Y-100238750D01*
X87894250Y-100080000D01*
X87303691Y-100080000D01*
X87070302Y-100176673D01*
X86923279Y-100323695D01*
X86888243Y-100269247D01*
X86678717Y-100126083D01*
X86474284Y-100084685D01*
X86479283Y-100060000D01*
X86479283Y-99852562D01*
X86710000Y-99899283D01*
X88010000Y-99899283D01*
X88242352Y-99855563D01*
X88455753Y-99718243D01*
X88535179Y-99602000D01*
X90639995Y-99602000D01*
X90640000Y-99602001D01*
X90946912Y-99540951D01*
X91110440Y-99431686D01*
X91311283Y-99568917D01*
X91560000Y-99619283D01*
X92460000Y-99619283D01*
X92692352Y-99575563D01*
X92905753Y-99438243D01*
X92964681Y-99352000D01*
X93877180Y-99352000D01*
X93854247Y-99366757D01*
G36*
X82265757Y-87271753D02*
X82475283Y-87414917D01*
X82724000Y-87465283D01*
X83232092Y-87465283D01*
X83228247Y-87467757D01*
X83085083Y-87677283D01*
X83034717Y-87926000D01*
X83034717Y-88221083D01*
X82595083Y-88660717D01*
X81690000Y-88660717D01*
X81457648Y-88704437D01*
X81244247Y-88841757D01*
X81101083Y-89051283D01*
X81050717Y-89300000D01*
X81050717Y-90600000D01*
X81094437Y-90832352D01*
X81117794Y-90868649D01*
X81051083Y-90966283D01*
X81000717Y-91215000D01*
X81000717Y-92465000D01*
X81044437Y-92697352D01*
X81181757Y-92910753D01*
X81391283Y-93053917D01*
X81640000Y-93104283D01*
X83140000Y-93104283D01*
X83372352Y-93060563D01*
X83585753Y-92923243D01*
X83632216Y-92855242D01*
X83780302Y-93003327D01*
X84013691Y-93100000D01*
X84604250Y-93100000D01*
X84763000Y-92941250D01*
X84763000Y-91967000D01*
X84743000Y-91967000D01*
X84743000Y-91713000D01*
X84763000Y-91713000D01*
X84763000Y-91693000D01*
X85017000Y-91693000D01*
X85017000Y-91713000D01*
X85037000Y-91713000D01*
X85037000Y-91967000D01*
X85017000Y-91967000D01*
X85017000Y-92941250D01*
X85175750Y-93100000D01*
X85766309Y-93100000D01*
X85960717Y-93019473D01*
X85960717Y-93130000D01*
X86004437Y-93362352D01*
X86141757Y-93575753D01*
X86351283Y-93718917D01*
X86448000Y-93738503D01*
X86448000Y-94483515D01*
X86264247Y-94601757D01*
X86121083Y-94811283D01*
X86109598Y-94868000D01*
X85228571Y-94868000D01*
X85168243Y-94774247D01*
X84958717Y-94631083D01*
X84710000Y-94580717D01*
X83910000Y-94580717D01*
X83677648Y-94624437D01*
X83464247Y-94761757D01*
X83321083Y-94971283D01*
X83270717Y-95220000D01*
X83270717Y-96120000D01*
X83314437Y-96352352D01*
X83451757Y-96565753D01*
X83473657Y-96580717D01*
X82960000Y-96580717D01*
X82727648Y-96624437D01*
X82514247Y-96761757D01*
X82441654Y-96868000D01*
X82190572Y-96868000D01*
X82222001Y-96710000D01*
X82222000Y-96709995D01*
X82222000Y-96596397D01*
X82265753Y-96568243D01*
X82408917Y-96358717D01*
X82459283Y-96110000D01*
X82459283Y-95210000D01*
X82415563Y-94977648D01*
X82278243Y-94764247D01*
X82068717Y-94621083D01*
X81820000Y-94570717D01*
X81020000Y-94570717D01*
X80787648Y-94614437D01*
X80574247Y-94751757D01*
X80476665Y-94894573D01*
X80458327Y-94850302D01*
X80279699Y-94671673D01*
X80046310Y-94575000D01*
X79805750Y-94575000D01*
X79647000Y-94733750D01*
X79647000Y-95533000D01*
X79667000Y-95533000D01*
X79667000Y-95787000D01*
X79647000Y-95787000D01*
X79647000Y-96586250D01*
X79738796Y-96678046D01*
X79624247Y-96751757D01*
X79481083Y-96961283D01*
X79430717Y-97210000D01*
X79430717Y-98110000D01*
X79474437Y-98342352D01*
X79611757Y-98555753D01*
X79821283Y-98698917D01*
X80070000Y-98749283D01*
X80870000Y-98749283D01*
X81008151Y-98723288D01*
X81000717Y-98760000D01*
X81000717Y-99980717D01*
X80010000Y-99980717D01*
X79777648Y-100024437D01*
X79564247Y-100161757D01*
X79421083Y-100371283D01*
X79401497Y-100468000D01*
X78827199Y-100468000D01*
X78027000Y-99667800D01*
X78027000Y-96025000D01*
X78011237Y-95945750D01*
X78485000Y-95945750D01*
X78485000Y-96236309D01*
X78581673Y-96469698D01*
X78760301Y-96648327D01*
X78993690Y-96745000D01*
X79234250Y-96745000D01*
X79393000Y-96586250D01*
X79393000Y-95787000D01*
X78643750Y-95787000D01*
X78485000Y-95945750D01*
X78011237Y-95945750D01*
X77965951Y-95718088D01*
X77792100Y-95457900D01*
X77492100Y-95157900D01*
X77381039Y-95083691D01*
X78485000Y-95083691D01*
X78485000Y-95374250D01*
X78643750Y-95533000D01*
X79393000Y-95533000D01*
X79393000Y-94733750D01*
X79234250Y-94575000D01*
X78993690Y-94575000D01*
X78760301Y-94671673D01*
X78581673Y-94850302D01*
X78485000Y-95083691D01*
X77381039Y-95083691D01*
X77264283Y-95005678D01*
X77264283Y-94975000D01*
X77220563Y-94742648D01*
X77083243Y-94529247D01*
X76873717Y-94386083D01*
X76625000Y-94335717D01*
X75375000Y-94335717D01*
X75142648Y-94379437D01*
X74945971Y-94505995D01*
X74977001Y-94350000D01*
X74977000Y-94349995D01*
X74977000Y-90035750D01*
X77565000Y-90035750D01*
X77565000Y-90626309D01*
X77661673Y-90859698D01*
X77840301Y-91038327D01*
X78073690Y-91135000D01*
X78564250Y-91135000D01*
X78723000Y-90976250D01*
X78723000Y-89877000D01*
X78977000Y-89877000D01*
X78977000Y-90976250D01*
X79135750Y-91135000D01*
X79626310Y-91135000D01*
X79859699Y-91038327D01*
X80038327Y-90859698D01*
X80135000Y-90626309D01*
X80135000Y-90035750D01*
X79976250Y-89877000D01*
X78977000Y-89877000D01*
X78723000Y-89877000D01*
X77723750Y-89877000D01*
X77565000Y-90035750D01*
X74977000Y-90035750D01*
X74977000Y-89814283D01*
X76125000Y-89814283D01*
X76357352Y-89770563D01*
X76570753Y-89633243D01*
X76713917Y-89423717D01*
X76764283Y-89175000D01*
X76764283Y-89125983D01*
X77703682Y-88186583D01*
X77741757Y-88245753D01*
X77951283Y-88388917D01*
X77994716Y-88397712D01*
X77840301Y-88461673D01*
X77661673Y-88640302D01*
X77565000Y-88873691D01*
X77565000Y-89464250D01*
X77723750Y-89623000D01*
X78723000Y-89623000D01*
X78723000Y-89603000D01*
X78977000Y-89603000D01*
X78977000Y-89623000D01*
X79976250Y-89623000D01*
X80135000Y-89464250D01*
X80135000Y-88873691D01*
X80038327Y-88640302D01*
X79859699Y-88461673D01*
X79710171Y-88399737D01*
X79732352Y-88395563D01*
X79945753Y-88258243D01*
X80088917Y-88048717D01*
X80139283Y-87800000D01*
X80139283Y-87178000D01*
X82205429Y-87178000D01*
X82265757Y-87271753D01*
X82265757Y-87271753D01*
G37*
X82265757Y-87271753D02*
X82475283Y-87414917D01*
X82724000Y-87465283D01*
X83232092Y-87465283D01*
X83228247Y-87467757D01*
X83085083Y-87677283D01*
X83034717Y-87926000D01*
X83034717Y-88221083D01*
X82595083Y-88660717D01*
X81690000Y-88660717D01*
X81457648Y-88704437D01*
X81244247Y-88841757D01*
X81101083Y-89051283D01*
X81050717Y-89300000D01*
X81050717Y-90600000D01*
X81094437Y-90832352D01*
X81117794Y-90868649D01*
X81051083Y-90966283D01*
X81000717Y-91215000D01*
X81000717Y-92465000D01*
X81044437Y-92697352D01*
X81181757Y-92910753D01*
X81391283Y-93053917D01*
X81640000Y-93104283D01*
X83140000Y-93104283D01*
X83372352Y-93060563D01*
X83585753Y-92923243D01*
X83632216Y-92855242D01*
X83780302Y-93003327D01*
X84013691Y-93100000D01*
X84604250Y-93100000D01*
X84763000Y-92941250D01*
X84763000Y-91967000D01*
X84743000Y-91967000D01*
X84743000Y-91713000D01*
X84763000Y-91713000D01*
X84763000Y-91693000D01*
X85017000Y-91693000D01*
X85017000Y-91713000D01*
X85037000Y-91713000D01*
X85037000Y-91967000D01*
X85017000Y-91967000D01*
X85017000Y-92941250D01*
X85175750Y-93100000D01*
X85766309Y-93100000D01*
X85960717Y-93019473D01*
X85960717Y-93130000D01*
X86004437Y-93362352D01*
X86141757Y-93575753D01*
X86351283Y-93718917D01*
X86448000Y-93738503D01*
X86448000Y-94483515D01*
X86264247Y-94601757D01*
X86121083Y-94811283D01*
X86109598Y-94868000D01*
X85228571Y-94868000D01*
X85168243Y-94774247D01*
X84958717Y-94631083D01*
X84710000Y-94580717D01*
X83910000Y-94580717D01*
X83677648Y-94624437D01*
X83464247Y-94761757D01*
X83321083Y-94971283D01*
X83270717Y-95220000D01*
X83270717Y-96120000D01*
X83314437Y-96352352D01*
X83451757Y-96565753D01*
X83473657Y-96580717D01*
X82960000Y-96580717D01*
X82727648Y-96624437D01*
X82514247Y-96761757D01*
X82441654Y-96868000D01*
X82190572Y-96868000D01*
X82222001Y-96710000D01*
X82222000Y-96709995D01*
X82222000Y-96596397D01*
X82265753Y-96568243D01*
X82408917Y-96358717D01*
X82459283Y-96110000D01*
X82459283Y-95210000D01*
X82415563Y-94977648D01*
X82278243Y-94764247D01*
X82068717Y-94621083D01*
X81820000Y-94570717D01*
X81020000Y-94570717D01*
X80787648Y-94614437D01*
X80574247Y-94751757D01*
X80476665Y-94894573D01*
X80458327Y-94850302D01*
X80279699Y-94671673D01*
X80046310Y-94575000D01*
X79805750Y-94575000D01*
X79647000Y-94733750D01*
X79647000Y-95533000D01*
X79667000Y-95533000D01*
X79667000Y-95787000D01*
X79647000Y-95787000D01*
X79647000Y-96586250D01*
X79738796Y-96678046D01*
X79624247Y-96751757D01*
X79481083Y-96961283D01*
X79430717Y-97210000D01*
X79430717Y-98110000D01*
X79474437Y-98342352D01*
X79611757Y-98555753D01*
X79821283Y-98698917D01*
X80070000Y-98749283D01*
X80870000Y-98749283D01*
X81008151Y-98723288D01*
X81000717Y-98760000D01*
X81000717Y-99980717D01*
X80010000Y-99980717D01*
X79777648Y-100024437D01*
X79564247Y-100161757D01*
X79421083Y-100371283D01*
X79401497Y-100468000D01*
X78827199Y-100468000D01*
X78027000Y-99667800D01*
X78027000Y-96025000D01*
X78011237Y-95945750D01*
X78485000Y-95945750D01*
X78485000Y-96236309D01*
X78581673Y-96469698D01*
X78760301Y-96648327D01*
X78993690Y-96745000D01*
X79234250Y-96745000D01*
X79393000Y-96586250D01*
X79393000Y-95787000D01*
X78643750Y-95787000D01*
X78485000Y-95945750D01*
X78011237Y-95945750D01*
X77965951Y-95718088D01*
X77792100Y-95457900D01*
X77492100Y-95157900D01*
X77381039Y-95083691D01*
X78485000Y-95083691D01*
X78485000Y-95374250D01*
X78643750Y-95533000D01*
X79393000Y-95533000D01*
X79393000Y-94733750D01*
X79234250Y-94575000D01*
X78993690Y-94575000D01*
X78760301Y-94671673D01*
X78581673Y-94850302D01*
X78485000Y-95083691D01*
X77381039Y-95083691D01*
X77264283Y-95005678D01*
X77264283Y-94975000D01*
X77220563Y-94742648D01*
X77083243Y-94529247D01*
X76873717Y-94386083D01*
X76625000Y-94335717D01*
X75375000Y-94335717D01*
X75142648Y-94379437D01*
X74945971Y-94505995D01*
X74977001Y-94350000D01*
X74977000Y-94349995D01*
X74977000Y-90035750D01*
X77565000Y-90035750D01*
X77565000Y-90626309D01*
X77661673Y-90859698D01*
X77840301Y-91038327D01*
X78073690Y-91135000D01*
X78564250Y-91135000D01*
X78723000Y-90976250D01*
X78723000Y-89877000D01*
X78977000Y-89877000D01*
X78977000Y-90976250D01*
X79135750Y-91135000D01*
X79626310Y-91135000D01*
X79859699Y-91038327D01*
X80038327Y-90859698D01*
X80135000Y-90626309D01*
X80135000Y-90035750D01*
X79976250Y-89877000D01*
X78977000Y-89877000D01*
X78723000Y-89877000D01*
X77723750Y-89877000D01*
X77565000Y-90035750D01*
X74977000Y-90035750D01*
X74977000Y-89814283D01*
X76125000Y-89814283D01*
X76357352Y-89770563D01*
X76570753Y-89633243D01*
X76713917Y-89423717D01*
X76764283Y-89175000D01*
X76764283Y-89125983D01*
X77703682Y-88186583D01*
X77741757Y-88245753D01*
X77951283Y-88388917D01*
X77994716Y-88397712D01*
X77840301Y-88461673D01*
X77661673Y-88640302D01*
X77565000Y-88873691D01*
X77565000Y-89464250D01*
X77723750Y-89623000D01*
X78723000Y-89623000D01*
X78723000Y-89603000D01*
X78977000Y-89603000D01*
X78977000Y-89623000D01*
X79976250Y-89623000D01*
X80135000Y-89464250D01*
X80135000Y-88873691D01*
X80038327Y-88640302D01*
X79859699Y-88461673D01*
X79710171Y-88399737D01*
X79732352Y-88395563D01*
X79945753Y-88258243D01*
X80088917Y-88048717D01*
X80139283Y-87800000D01*
X80139283Y-87178000D01*
X82205429Y-87178000D01*
X82265757Y-87271753D01*
G36*
X69116757Y-96745753D02*
X69326283Y-96888917D01*
X69575000Y-96939283D01*
X70030083Y-96939283D01*
X70633275Y-97542475D01*
X70477000Y-97698750D01*
X70477000Y-98698000D01*
X70497000Y-98698000D01*
X70497000Y-98952000D01*
X70477000Y-98952000D01*
X70477000Y-98972000D01*
X70223000Y-98972000D01*
X70223000Y-98952000D01*
X70203000Y-98952000D01*
X70203000Y-98698000D01*
X70223000Y-98698000D01*
X70223000Y-97698750D01*
X70064250Y-97540000D01*
X69473691Y-97540000D01*
X69240302Y-97636673D01*
X69061673Y-97815301D01*
X69039283Y-97869355D01*
X69039283Y-96650000D01*
X69032729Y-96615171D01*
X69116757Y-96745753D01*
X69116757Y-96745753D01*
G37*
X69116757Y-96745753D02*
X69326283Y-96888917D01*
X69575000Y-96939283D01*
X70030083Y-96939283D01*
X70633275Y-97542475D01*
X70477000Y-97698750D01*
X70477000Y-98698000D01*
X70497000Y-98698000D01*
X70497000Y-98952000D01*
X70477000Y-98952000D01*
X70477000Y-98972000D01*
X70223000Y-98972000D01*
X70223000Y-98952000D01*
X70203000Y-98952000D01*
X70203000Y-98698000D01*
X70223000Y-98698000D01*
X70223000Y-97698750D01*
X70064250Y-97540000D01*
X69473691Y-97540000D01*
X69240302Y-97636673D01*
X69061673Y-97815301D01*
X69039283Y-97869355D01*
X69039283Y-96650000D01*
X69032729Y-96615171D01*
X69116757Y-96745753D01*
G36*
X86070717Y-96560000D02*
X86110742Y-96772717D01*
X86019699Y-96681673D01*
X85786310Y-96585000D01*
X85545750Y-96585000D01*
X85387000Y-96743750D01*
X85387000Y-97543000D01*
X85407000Y-97543000D01*
X85407000Y-97797000D01*
X85387000Y-97797000D01*
X85387000Y-97817000D01*
X85133000Y-97817000D01*
X85133000Y-97797000D01*
X85113000Y-97797000D01*
X85113000Y-97543000D01*
X85133000Y-97543000D01*
X85133000Y-96743750D01*
X85041204Y-96651954D01*
X85155753Y-96578243D01*
X85228346Y-96472000D01*
X86070717Y-96472000D01*
X86070717Y-96560000D01*
X86070717Y-96560000D01*
G37*
X86070717Y-96560000D02*
X86110742Y-96772717D01*
X86019699Y-96681673D01*
X85786310Y-96585000D01*
X85545750Y-96585000D01*
X85387000Y-96743750D01*
X85387000Y-97543000D01*
X85407000Y-97543000D01*
X85407000Y-97797000D01*
X85387000Y-97797000D01*
X85387000Y-97817000D01*
X85133000Y-97817000D01*
X85133000Y-97797000D01*
X85113000Y-97797000D01*
X85113000Y-97543000D01*
X85133000Y-97543000D01*
X85133000Y-96743750D01*
X85041204Y-96651954D01*
X85155753Y-96578243D01*
X85228346Y-96472000D01*
X86070717Y-96472000D01*
X86070717Y-96560000D01*
G36*
X95907000Y-94513000D02*
X95927000Y-94513000D01*
X95927000Y-94767000D01*
X95907000Y-94767000D01*
X95907000Y-94787000D01*
X95653000Y-94787000D01*
X95653000Y-94767000D01*
X95633000Y-94767000D01*
X95633000Y-94513000D01*
X95653000Y-94513000D01*
X95653000Y-94493000D01*
X95907000Y-94493000D01*
X95907000Y-94513000D01*
X95907000Y-94513000D01*
G37*
X95907000Y-94513000D02*
X95927000Y-94513000D01*
X95927000Y-94767000D01*
X95907000Y-94767000D01*
X95907000Y-94787000D01*
X95653000Y-94787000D01*
X95653000Y-94767000D01*
X95633000Y-94767000D01*
X95633000Y-94513000D01*
X95653000Y-94513000D01*
X95653000Y-94493000D01*
X95907000Y-94493000D01*
X95907000Y-94513000D01*
G36*
X104279437Y-88407352D02*
X104373000Y-88552753D01*
X104373000Y-90034340D01*
X104326309Y-90015000D01*
X103735750Y-90015000D01*
X103577000Y-90173750D01*
X103577000Y-91173000D01*
X103597000Y-91173000D01*
X103597000Y-91427000D01*
X103577000Y-91427000D01*
X103577000Y-92426250D01*
X103735750Y-92585000D01*
X104326309Y-92585000D01*
X104373000Y-92565660D01*
X104373000Y-94360625D01*
X104250000Y-94335717D01*
X102750000Y-94335717D01*
X102517648Y-94379437D01*
X102304247Y-94516757D01*
X102161083Y-94726283D01*
X102151442Y-94773892D01*
X102145563Y-94742648D01*
X102008243Y-94529247D01*
X101798717Y-94386083D01*
X101550000Y-94335717D01*
X100050000Y-94335717D01*
X99817648Y-94379437D01*
X99669283Y-94474907D01*
X99669283Y-94015000D01*
X99625563Y-93782648D01*
X99488243Y-93569247D01*
X99278717Y-93426083D01*
X99030000Y-93375717D01*
X98519888Y-93375717D01*
X98280000Y-93328000D01*
X98131699Y-93357499D01*
X97849200Y-93075000D01*
X98249916Y-92674283D01*
X99020000Y-92674283D01*
X99252352Y-92630563D01*
X99465753Y-92493243D01*
X99537202Y-92388675D01*
X99541757Y-92395753D01*
X99751283Y-92538917D01*
X100000000Y-92589283D01*
X101500000Y-92589283D01*
X101732352Y-92545563D01*
X101945753Y-92408243D01*
X102088917Y-92198717D01*
X102097712Y-92155284D01*
X102161673Y-92309699D01*
X102340302Y-92488327D01*
X102573691Y-92585000D01*
X103164250Y-92585000D01*
X103323000Y-92426250D01*
X103323000Y-91427000D01*
X103303000Y-91427000D01*
X103303000Y-91173000D01*
X103323000Y-91173000D01*
X103323000Y-90173750D01*
X103294651Y-90145401D01*
X103339283Y-89925000D01*
X103339283Y-89025000D01*
X103295563Y-88792648D01*
X103158243Y-88579247D01*
X103136343Y-88564283D01*
X103650000Y-88564283D01*
X103882352Y-88520563D01*
X104095753Y-88383243D01*
X104117101Y-88352000D01*
X104269022Y-88352000D01*
X104279437Y-88407352D01*
X104279437Y-88407352D01*
G37*
X104279437Y-88407352D02*
X104373000Y-88552753D01*
X104373000Y-90034340D01*
X104326309Y-90015000D01*
X103735750Y-90015000D01*
X103577000Y-90173750D01*
X103577000Y-91173000D01*
X103597000Y-91173000D01*
X103597000Y-91427000D01*
X103577000Y-91427000D01*
X103577000Y-92426250D01*
X103735750Y-92585000D01*
X104326309Y-92585000D01*
X104373000Y-92565660D01*
X104373000Y-94360625D01*
X104250000Y-94335717D01*
X102750000Y-94335717D01*
X102517648Y-94379437D01*
X102304247Y-94516757D01*
X102161083Y-94726283D01*
X102151442Y-94773892D01*
X102145563Y-94742648D01*
X102008243Y-94529247D01*
X101798717Y-94386083D01*
X101550000Y-94335717D01*
X100050000Y-94335717D01*
X99817648Y-94379437D01*
X99669283Y-94474907D01*
X99669283Y-94015000D01*
X99625563Y-93782648D01*
X99488243Y-93569247D01*
X99278717Y-93426083D01*
X99030000Y-93375717D01*
X98519888Y-93375717D01*
X98280000Y-93328000D01*
X98131699Y-93357499D01*
X97849200Y-93075000D01*
X98249916Y-92674283D01*
X99020000Y-92674283D01*
X99252352Y-92630563D01*
X99465753Y-92493243D01*
X99537202Y-92388675D01*
X99541757Y-92395753D01*
X99751283Y-92538917D01*
X100000000Y-92589283D01*
X101500000Y-92589283D01*
X101732352Y-92545563D01*
X101945753Y-92408243D01*
X102088917Y-92198717D01*
X102097712Y-92155284D01*
X102161673Y-92309699D01*
X102340302Y-92488327D01*
X102573691Y-92585000D01*
X103164250Y-92585000D01*
X103323000Y-92426250D01*
X103323000Y-91427000D01*
X103303000Y-91427000D01*
X103303000Y-91173000D01*
X103323000Y-91173000D01*
X103323000Y-90173750D01*
X103294651Y-90145401D01*
X103339283Y-89925000D01*
X103339283Y-89025000D01*
X103295563Y-88792648D01*
X103158243Y-88579247D01*
X103136343Y-88564283D01*
X103650000Y-88564283D01*
X103882352Y-88520563D01*
X104095753Y-88383243D01*
X104117101Y-88352000D01*
X104269022Y-88352000D01*
X104279437Y-88407352D01*
G36*
X95897000Y-91283000D02*
X95917000Y-91283000D01*
X95917000Y-91537000D01*
X95897000Y-91537000D01*
X95897000Y-91557000D01*
X95643000Y-91557000D01*
X95643000Y-91537000D01*
X95623000Y-91537000D01*
X95623000Y-91283000D01*
X95643000Y-91283000D01*
X95643000Y-91263000D01*
X95897000Y-91263000D01*
X95897000Y-91283000D01*
X95897000Y-91283000D01*
G37*
X95897000Y-91283000D02*
X95917000Y-91283000D01*
X95917000Y-91537000D01*
X95897000Y-91537000D01*
X95897000Y-91557000D01*
X95643000Y-91557000D01*
X95643000Y-91537000D01*
X95623000Y-91537000D01*
X95623000Y-91283000D01*
X95643000Y-91283000D01*
X95643000Y-91263000D01*
X95897000Y-91263000D01*
X95897000Y-91283000D01*
G36*
X79143173Y-78949537D02*
X78790484Y-79477374D01*
X78666636Y-80100000D01*
X78790484Y-80722626D01*
X79143173Y-81250463D01*
X79671010Y-81603152D01*
X80293636Y-81727000D01*
X82906364Y-81727000D01*
X83528990Y-81603152D01*
X84056827Y-81250463D01*
X84409516Y-80722626D01*
X84533364Y-80100000D01*
X84409516Y-79477374D01*
X84056827Y-78949537D01*
X83686361Y-78702000D01*
X89063978Y-78702000D01*
X88843173Y-78849537D01*
X88490484Y-79377374D01*
X88366636Y-80000000D01*
X88490484Y-80622626D01*
X88843173Y-81150463D01*
X89371010Y-81503152D01*
X89993636Y-81627000D01*
X92606364Y-81627000D01*
X93228990Y-81503152D01*
X93756827Y-81150463D01*
X94109516Y-80622626D01*
X94233364Y-80000000D01*
X94109516Y-79377374D01*
X93756827Y-78849537D01*
X93536022Y-78702000D01*
X104373000Y-78702000D01*
X104373000Y-82380000D01*
X103815750Y-82380000D01*
X103657000Y-82538750D01*
X103657000Y-83513000D01*
X103677000Y-83513000D01*
X103677000Y-83767000D01*
X103657000Y-83767000D01*
X103657000Y-83787000D01*
X103403000Y-83787000D01*
X103403000Y-83767000D01*
X103383000Y-83767000D01*
X103383000Y-83513000D01*
X103403000Y-83513000D01*
X103403000Y-82538750D01*
X103244250Y-82380000D01*
X102653691Y-82380000D01*
X102420302Y-82476673D01*
X102273279Y-82623695D01*
X102238243Y-82569247D01*
X102028717Y-82426083D01*
X101780000Y-82375717D01*
X100280000Y-82375717D01*
X100047648Y-82419437D01*
X99834247Y-82556757D01*
X99738884Y-82696324D01*
X99718243Y-82664247D01*
X99508717Y-82521083D01*
X99260000Y-82470717D01*
X97760000Y-82470717D01*
X97527648Y-82514437D01*
X97314247Y-82651757D01*
X97171083Y-82861283D01*
X97161442Y-82908892D01*
X97155563Y-82877648D01*
X97018243Y-82664247D01*
X96808717Y-82521083D01*
X96560000Y-82470717D01*
X95654917Y-82470717D01*
X95642100Y-82457900D01*
X95381912Y-82284049D01*
X95075000Y-82222999D01*
X95074995Y-82223000D01*
X82125005Y-82223000D01*
X82125000Y-82222999D01*
X81818088Y-82284049D01*
X81557900Y-82457900D01*
X81557898Y-82457903D01*
X80723083Y-83292717D01*
X80450000Y-83292717D01*
X80217648Y-83336437D01*
X80004247Y-83473757D01*
X79861083Y-83683283D01*
X79841497Y-83780000D01*
X75168000Y-83780000D01*
X74861088Y-83841049D01*
X74600900Y-84014900D01*
X73607900Y-85007900D01*
X73434049Y-85268088D01*
X73372999Y-85575000D01*
X73373000Y-85575005D01*
X73373000Y-87285717D01*
X72125000Y-87285717D01*
X71892648Y-87329437D01*
X71679247Y-87466757D01*
X71538326Y-87673000D01*
X70889283Y-87673000D01*
X70889283Y-87600000D01*
X70845563Y-87367648D01*
X70708243Y-87154247D01*
X70498717Y-87011083D01*
X70250000Y-86960717D01*
X65702000Y-86960717D01*
X65702000Y-86485000D01*
X67424250Y-86485000D01*
X67583000Y-86326250D01*
X67583000Y-84727000D01*
X67837000Y-84727000D01*
X67837000Y-86326250D01*
X67995750Y-86485000D01*
X70376310Y-86485000D01*
X70609699Y-86388327D01*
X70788327Y-86209698D01*
X70885000Y-85976309D01*
X70885000Y-84885750D01*
X70726250Y-84727000D01*
X67837000Y-84727000D01*
X67583000Y-84727000D01*
X67563000Y-84727000D01*
X67563000Y-84473000D01*
X67583000Y-84473000D01*
X67583000Y-82873750D01*
X67837000Y-82873750D01*
X67837000Y-84473000D01*
X70726250Y-84473000D01*
X70885000Y-84314250D01*
X70885000Y-83223691D01*
X70788327Y-82990302D01*
X70609699Y-82811673D01*
X70376310Y-82715000D01*
X67995750Y-82715000D01*
X67837000Y-82873750D01*
X67583000Y-82873750D01*
X67424250Y-82715000D01*
X65702000Y-82715000D01*
X65702000Y-78702000D01*
X79513639Y-78702000D01*
X79143173Y-78949537D01*
X79143173Y-78949537D01*
G37*
X79143173Y-78949537D02*
X78790484Y-79477374D01*
X78666636Y-80100000D01*
X78790484Y-80722626D01*
X79143173Y-81250463D01*
X79671010Y-81603152D01*
X80293636Y-81727000D01*
X82906364Y-81727000D01*
X83528990Y-81603152D01*
X84056827Y-81250463D01*
X84409516Y-80722626D01*
X84533364Y-80100000D01*
X84409516Y-79477374D01*
X84056827Y-78949537D01*
X83686361Y-78702000D01*
X89063978Y-78702000D01*
X88843173Y-78849537D01*
X88490484Y-79377374D01*
X88366636Y-80000000D01*
X88490484Y-80622626D01*
X88843173Y-81150463D01*
X89371010Y-81503152D01*
X89993636Y-81627000D01*
X92606364Y-81627000D01*
X93228990Y-81503152D01*
X93756827Y-81150463D01*
X94109516Y-80622626D01*
X94233364Y-80000000D01*
X94109516Y-79377374D01*
X93756827Y-78849537D01*
X93536022Y-78702000D01*
X104373000Y-78702000D01*
X104373000Y-82380000D01*
X103815750Y-82380000D01*
X103657000Y-82538750D01*
X103657000Y-83513000D01*
X103677000Y-83513000D01*
X103677000Y-83767000D01*
X103657000Y-83767000D01*
X103657000Y-83787000D01*
X103403000Y-83787000D01*
X103403000Y-83767000D01*
X103383000Y-83767000D01*
X103383000Y-83513000D01*
X103403000Y-83513000D01*
X103403000Y-82538750D01*
X103244250Y-82380000D01*
X102653691Y-82380000D01*
X102420302Y-82476673D01*
X102273279Y-82623695D01*
X102238243Y-82569247D01*
X102028717Y-82426083D01*
X101780000Y-82375717D01*
X100280000Y-82375717D01*
X100047648Y-82419437D01*
X99834247Y-82556757D01*
X99738884Y-82696324D01*
X99718243Y-82664247D01*
X99508717Y-82521083D01*
X99260000Y-82470717D01*
X97760000Y-82470717D01*
X97527648Y-82514437D01*
X97314247Y-82651757D01*
X97171083Y-82861283D01*
X97161442Y-82908892D01*
X97155563Y-82877648D01*
X97018243Y-82664247D01*
X96808717Y-82521083D01*
X96560000Y-82470717D01*
X95654917Y-82470717D01*
X95642100Y-82457900D01*
X95381912Y-82284049D01*
X95075000Y-82222999D01*
X95074995Y-82223000D01*
X82125005Y-82223000D01*
X82125000Y-82222999D01*
X81818088Y-82284049D01*
X81557900Y-82457900D01*
X81557898Y-82457903D01*
X80723083Y-83292717D01*
X80450000Y-83292717D01*
X80217648Y-83336437D01*
X80004247Y-83473757D01*
X79861083Y-83683283D01*
X79841497Y-83780000D01*
X75168000Y-83780000D01*
X74861088Y-83841049D01*
X74600900Y-84014900D01*
X73607900Y-85007900D01*
X73434049Y-85268088D01*
X73372999Y-85575000D01*
X73373000Y-85575005D01*
X73373000Y-87285717D01*
X72125000Y-87285717D01*
X71892648Y-87329437D01*
X71679247Y-87466757D01*
X71538326Y-87673000D01*
X70889283Y-87673000D01*
X70889283Y-87600000D01*
X70845563Y-87367648D01*
X70708243Y-87154247D01*
X70498717Y-87011083D01*
X70250000Y-86960717D01*
X65702000Y-86960717D01*
X65702000Y-86485000D01*
X67424250Y-86485000D01*
X67583000Y-86326250D01*
X67583000Y-84727000D01*
X67837000Y-84727000D01*
X67837000Y-86326250D01*
X67995750Y-86485000D01*
X70376310Y-86485000D01*
X70609699Y-86388327D01*
X70788327Y-86209698D01*
X70885000Y-85976309D01*
X70885000Y-84885750D01*
X70726250Y-84727000D01*
X67837000Y-84727000D01*
X67583000Y-84727000D01*
X67563000Y-84727000D01*
X67563000Y-84473000D01*
X67583000Y-84473000D01*
X67583000Y-82873750D01*
X67837000Y-82873750D01*
X67837000Y-84473000D01*
X70726250Y-84473000D01*
X70885000Y-84314250D01*
X70885000Y-83223691D01*
X70788327Y-82990302D01*
X70609699Y-82811673D01*
X70376310Y-82715000D01*
X67995750Y-82715000D01*
X67837000Y-82873750D01*
X67583000Y-82873750D01*
X67424250Y-82715000D01*
X65702000Y-82715000D01*
X65702000Y-78702000D01*
X79513639Y-78702000D01*
X79143173Y-78949537D01*
M02*
