G04 #@! TF.FileFunction,Copper,L1,Top,Signal*
%FSLAX46Y46*%
G04 Gerber Fmt 4.6, Leading zero omitted, Abs format (unit mm)*
G04 Created by KiCad (PCBNEW 4.0.7) date 04/22/20 14:45:24*
%MOMM*%
%LPD*%
G01*
G04 APERTURE LIST*
%ADD10C,0.100000*%
%ADD11R,1.500000X1.250000*%
%ADD12R,1.500000X1.300000*%
%ADD13R,1.250000X1.500000*%
%ADD14R,1.300000X1.500000*%
%ADD15R,4.000000X2.000000*%
%ADD16R,2.000000X2.000000*%
%ADD17R,1.000000X2.500000*%
%ADD18R,2.000000X4.000000*%
%ADD19R,5.080000X2.500000*%
%ADD20R,5.080000X1.500000*%
%ADD21C,0.600000*%
%ADD22C,0.350000*%
%ADD23C,0.500000*%
%ADD24C,0.254000*%
G04 APERTURE END LIST*
D10*
D11*
X94700000Y-87600000D03*
X97200000Y-87600000D03*
D12*
X100750000Y-91300000D03*
X103450000Y-91300000D03*
X76850000Y-89650000D03*
X74150000Y-89650000D03*
D11*
X105940000Y-99320000D03*
X108440000Y-99320000D03*
X94825000Y-95900000D03*
X97325000Y-95900000D03*
D13*
X86360000Y-86594000D03*
X86360000Y-84094000D03*
D11*
X74150000Y-87100000D03*
X76650000Y-87100000D03*
X74696000Y-84582000D03*
X77196000Y-84582000D03*
D14*
X99725000Y-101175000D03*
X99725000Y-103875000D03*
D12*
X94900000Y-97775000D03*
X97600000Y-97775000D03*
X78406000Y-91440000D03*
X81106000Y-91440000D03*
X89380000Y-92170000D03*
X92080000Y-92170000D03*
X89480000Y-90240000D03*
X92180000Y-90240000D03*
X70100000Y-98800000D03*
X67400000Y-98800000D03*
X67400000Y-95600000D03*
X70100000Y-95600000D03*
D13*
X101650000Y-103900000D03*
X101650000Y-101400000D03*
D11*
X105650000Y-89525000D03*
X108150000Y-89525000D03*
D15*
X111580000Y-99100000D03*
X111500000Y-94200000D03*
D16*
X69400000Y-101050000D03*
X73000000Y-100950000D03*
X65200000Y-97700000D03*
X65850000Y-101100000D03*
D14*
X105830000Y-97300000D03*
X105830000Y-94600000D03*
X84400000Y-86850000D03*
X84400000Y-84150000D03*
D17*
X100750000Y-98680000D03*
X102250000Y-98680000D03*
X103750000Y-98680000D03*
D18*
X102250000Y-94720000D03*
D10*
G36*
X103250000Y-96695000D02*
X102750000Y-97445000D01*
X101750000Y-97445000D01*
X101250000Y-96695000D01*
X103250000Y-96695000D01*
X103250000Y-96695000D01*
G37*
D17*
X100425000Y-88880000D03*
X101925000Y-88880000D03*
X103425000Y-88880000D03*
D18*
X101925000Y-84920000D03*
D10*
G36*
X102925000Y-86895000D02*
X102425000Y-87645000D01*
X101425000Y-87645000D01*
X100925000Y-86895000D01*
X102925000Y-86895000D01*
X102925000Y-86895000D01*
G37*
D17*
X79200000Y-88680000D03*
X80700000Y-88680000D03*
X82200000Y-88680000D03*
D18*
X80700000Y-84720000D03*
D10*
G36*
X81700000Y-86695000D02*
X81200000Y-87445000D01*
X80200000Y-87445000D01*
X79700000Y-86695000D01*
X81700000Y-86695000D01*
X81700000Y-86695000D01*
G37*
D19*
X65750000Y-84600000D03*
X65750000Y-92100000D03*
D20*
X65750000Y-88350000D03*
D12*
X94650000Y-89400000D03*
X97350000Y-89400000D03*
D11*
X100525000Y-81725000D03*
X103025000Y-81725000D03*
D15*
X111500000Y-83800000D03*
X111500000Y-89300000D03*
D17*
X75462000Y-98754000D03*
X76962000Y-98754000D03*
X78462000Y-98754000D03*
D18*
X76962000Y-94794000D03*
D10*
G36*
X77962000Y-96769000D02*
X77462000Y-97519000D01*
X76462000Y-97519000D01*
X75962000Y-96769000D01*
X77962000Y-96769000D01*
X77962000Y-96769000D01*
G37*
D17*
X88630000Y-99350000D03*
X90130000Y-99350000D03*
X91630000Y-99350000D03*
D18*
X90130000Y-95390000D03*
D10*
G36*
X91130000Y-97365000D02*
X90630000Y-98115000D01*
X89630000Y-98115000D01*
X89130000Y-97365000D01*
X91130000Y-97365000D01*
X91130000Y-97365000D01*
G37*
D17*
X84050000Y-94032000D03*
X82550000Y-94032000D03*
X81050000Y-94032000D03*
D18*
X82550000Y-97992000D03*
D10*
G36*
X81550000Y-96017000D02*
X82050000Y-95267000D01*
X83050000Y-95267000D01*
X83550000Y-96017000D01*
X81550000Y-96017000D01*
X81550000Y-96017000D01*
G37*
D17*
X88450000Y-87880000D03*
X89950000Y-87880000D03*
X91450000Y-87880000D03*
D18*
X89950000Y-83920000D03*
D10*
G36*
X90950000Y-85895000D02*
X90450000Y-86645000D01*
X89450000Y-86645000D01*
X88950000Y-85895000D01*
X90950000Y-85895000D01*
X90950000Y-85895000D01*
G37*
D14*
X105400000Y-87400000D03*
X105400000Y-84700000D03*
X86390000Y-96470000D03*
X86390000Y-99170000D03*
X86310000Y-89930000D03*
X86310000Y-92630000D03*
D11*
X76434000Y-91440000D03*
X73934000Y-91440000D03*
D13*
X72650000Y-98350000D03*
X72650000Y-95850000D03*
D14*
X103650000Y-101250000D03*
X103650000Y-103950000D03*
D12*
X100425000Y-79825000D03*
X103125000Y-79825000D03*
X70275000Y-93450000D03*
X72975000Y-93450000D03*
X97400000Y-85850000D03*
X94700000Y-85850000D03*
X77296000Y-82550000D03*
X74596000Y-82550000D03*
D11*
X94800000Y-91700000D03*
X97300000Y-91700000D03*
X94910000Y-94210000D03*
X97410000Y-94210000D03*
D12*
X97600000Y-99800000D03*
X94900000Y-99800000D03*
D21*
X93425000Y-92175000D03*
X93500000Y-91275000D03*
X92875000Y-94350000D03*
X93425000Y-94975000D03*
X93350000Y-93650000D03*
X73700000Y-96875000D03*
X96020000Y-92180000D03*
X96020000Y-91330000D03*
X102050000Y-92000000D03*
X102020000Y-90800000D03*
X104290000Y-92570000D03*
X98540000Y-102570000D03*
X100000000Y-102500000D03*
X101240000Y-102660000D03*
X102700000Y-102580000D03*
X74150000Y-99370000D03*
X72600000Y-91300000D03*
X83400000Y-92200000D03*
X99300000Y-80900000D03*
X101800000Y-80700000D03*
X100200000Y-82800000D03*
X72750000Y-90250000D03*
X72450000Y-92200000D03*
X75300000Y-90450000D03*
X75450000Y-89300000D03*
X73530000Y-83590000D03*
X75930000Y-84640000D03*
X75910000Y-83640000D03*
X66850000Y-97250000D03*
X64950000Y-94000000D03*
X63500000Y-95950000D03*
X63500000Y-97350000D03*
X63450000Y-99100000D03*
X63450000Y-101050000D03*
X63450000Y-102700000D03*
X64800000Y-103500000D03*
X66500000Y-106500000D03*
X68500000Y-106500000D03*
X70750000Y-106500000D03*
X72750000Y-106500000D03*
X74800000Y-106500000D03*
X98400000Y-78600000D03*
X96600000Y-78600000D03*
X94900000Y-78600000D03*
X93100000Y-78500000D03*
X91100000Y-78400000D03*
X89000000Y-78500000D03*
X86900000Y-78500000D03*
X85000000Y-78500000D03*
X83300000Y-78400000D03*
X81400000Y-78500000D03*
X79200000Y-78400000D03*
X77000000Y-78500000D03*
X74900000Y-78500000D03*
X73100000Y-78600000D03*
X71200000Y-78600000D03*
X69600000Y-79000000D03*
X68500000Y-80000000D03*
X67400000Y-81200000D03*
X66300000Y-82100000D03*
X102800000Y-106300000D03*
X101200000Y-106500000D03*
X99500000Y-106600000D03*
X96900000Y-106400000D03*
X94800000Y-106500000D03*
X92600000Y-106500000D03*
X90600000Y-106500000D03*
X88700000Y-106500000D03*
X87100000Y-106500000D03*
X85300000Y-106500000D03*
X83500000Y-106500000D03*
X81600000Y-106400000D03*
X80100000Y-106300000D03*
X78500000Y-106400000D03*
X76800000Y-106400000D03*
X75800000Y-102700000D03*
X65750000Y-92100000D03*
X74460000Y-97850000D03*
X75940000Y-100600000D03*
X75000000Y-100460000D03*
X75070000Y-96590000D03*
X84250000Y-95750000D03*
X85000000Y-94500000D03*
X85000000Y-93000000D03*
X70080000Y-89580000D03*
X70040000Y-87140000D03*
D22*
X94800000Y-91700000D02*
X93900000Y-91700000D01*
X93900000Y-91700000D02*
X93425000Y-92175000D01*
X94800000Y-91700000D02*
X93925000Y-91700000D01*
X93925000Y-91700000D02*
X93500000Y-91275000D01*
X94910000Y-94210000D02*
X93015000Y-94210000D01*
X93015000Y-94210000D02*
X92875000Y-94350000D01*
X94910000Y-94210000D02*
X94190000Y-94210000D01*
X94190000Y-94210000D02*
X93425000Y-94975000D01*
X94910000Y-94210000D02*
X93910000Y-94210000D01*
X93910000Y-94210000D02*
X93350000Y-93650000D01*
X72650000Y-98350000D02*
X72650000Y-97925000D01*
X72650000Y-97925000D02*
X73700000Y-96875000D01*
X94800000Y-91700000D02*
X95540000Y-91700000D01*
X95540000Y-91700000D02*
X96020000Y-92180000D01*
X94800000Y-91700000D02*
X95650000Y-91700000D01*
X95650000Y-91700000D02*
X96020000Y-91330000D01*
X103450000Y-91300000D02*
X103210000Y-91300000D01*
X103210000Y-91300000D02*
X102510000Y-92000000D01*
X102510000Y-92000000D02*
X102050000Y-92000000D01*
X103450000Y-91300000D02*
X103070000Y-91300000D01*
X103070000Y-91300000D02*
X102570000Y-90800000D01*
X102570000Y-90800000D02*
X102020000Y-90800000D01*
X103450000Y-91300000D02*
X103510000Y-91300000D01*
X103510000Y-91300000D02*
X104290000Y-92080000D01*
X104290000Y-92080000D02*
X104290000Y-92570000D01*
X99725000Y-103875000D02*
X99725000Y-103755000D01*
X99725000Y-103755000D02*
X98540000Y-102570000D01*
X99725000Y-103875000D02*
X99725000Y-102775000D01*
X99725000Y-102775000D02*
X100000000Y-102500000D01*
X101650000Y-103900000D02*
X99750000Y-103900000D01*
X99750000Y-103900000D02*
X99725000Y-103875000D01*
X101650000Y-103900000D02*
X101650000Y-103070000D01*
X101650000Y-103070000D02*
X101240000Y-102660000D01*
X101650000Y-103900000D02*
X101650000Y-103630000D01*
X101650000Y-103630000D02*
X102700000Y-102580000D01*
X101200000Y-106500000D02*
X101400000Y-106300000D01*
X74150000Y-99370000D02*
X74846000Y-99370000D01*
X72830000Y-99100000D02*
X74150000Y-99370000D01*
X74846000Y-99370000D02*
X75462000Y-98754000D01*
X73934000Y-91440000D02*
X73840000Y-91440000D01*
X73840000Y-91440000D02*
X73700000Y-91300000D01*
X73700000Y-91300000D02*
X72600000Y-91300000D01*
X84050000Y-94032000D02*
X84050000Y-92850000D01*
X84050000Y-92850000D02*
X83400000Y-92200000D01*
X100525000Y-81725000D02*
X100125000Y-81725000D01*
X100125000Y-81725000D02*
X99300000Y-80900000D01*
X100525000Y-81725000D02*
X100775000Y-81725000D01*
X100775000Y-81725000D02*
X101800000Y-80700000D01*
X100525000Y-81725000D02*
X100525000Y-82475000D01*
X100525000Y-82475000D02*
X100200000Y-82800000D01*
X74150000Y-89650000D02*
X73400000Y-89650000D01*
X73400000Y-89650000D02*
X72800000Y-90250000D01*
X72800000Y-90250000D02*
X72750000Y-90250000D01*
X73934000Y-91440000D02*
X73934000Y-91466000D01*
X73934000Y-91466000D02*
X73200000Y-92200000D01*
X73200000Y-92200000D02*
X72450000Y-92200000D01*
X73934000Y-91440000D02*
X74310000Y-91440000D01*
X74310000Y-91440000D02*
X75300000Y-90450000D01*
X74500000Y-89650000D02*
X75300000Y-90450000D01*
X74150000Y-89650000D02*
X74500000Y-89650000D01*
X74150000Y-89650000D02*
X75100000Y-89650000D01*
X75100000Y-89650000D02*
X75450000Y-89300000D01*
X74696000Y-84582000D02*
X74546000Y-84582000D01*
X74546000Y-84582000D02*
X73530000Y-83590000D01*
X74696000Y-84582000D02*
X75880000Y-84690000D01*
X75880000Y-84690000D02*
X75930000Y-84640000D01*
X74696000Y-84582000D02*
X74796000Y-84582000D01*
X74796000Y-84582000D02*
X75910000Y-83640000D01*
X67400000Y-98800000D02*
X67400000Y-97800000D01*
X67400000Y-97800000D02*
X66850000Y-97250000D01*
X76800000Y-106400000D02*
X74850000Y-106450000D01*
X64950000Y-94000000D02*
X65750000Y-93200000D01*
X63500000Y-97350000D02*
X63500000Y-95950000D01*
X63450000Y-101050000D02*
X63450000Y-99100000D01*
X64000000Y-102700000D02*
X63450000Y-102700000D01*
X64800000Y-103500000D02*
X64000000Y-102700000D01*
X68450000Y-106450000D02*
X66500000Y-106500000D01*
X68500000Y-106500000D02*
X68450000Y-106450000D01*
X72750000Y-106500000D02*
X70750000Y-106500000D01*
X74850000Y-106450000D02*
X74800000Y-106500000D01*
X65750000Y-93200000D02*
X65750000Y-92100000D01*
X74696000Y-84582000D02*
X74696000Y-84382000D01*
X74696000Y-84582000D02*
X74646000Y-84582000D01*
X65750000Y-84600000D02*
X65750000Y-82650000D01*
X96600000Y-78600000D02*
X98400000Y-78600000D01*
X93100000Y-78500000D02*
X94900000Y-78600000D01*
X89000000Y-78500000D02*
X91100000Y-78400000D01*
X85000000Y-78500000D02*
X86900000Y-78500000D01*
X81500000Y-78600000D02*
X83300000Y-78400000D01*
X81400000Y-78500000D02*
X81500000Y-78600000D01*
X77000000Y-78500000D02*
X79200000Y-78400000D01*
X73200000Y-78500000D02*
X74900000Y-78500000D01*
X73100000Y-78600000D02*
X73200000Y-78500000D01*
X70000000Y-78600000D02*
X71200000Y-78600000D01*
X69600000Y-79000000D02*
X70000000Y-78600000D01*
X68500000Y-80100000D02*
X68500000Y-80000000D01*
X67400000Y-81200000D02*
X68500000Y-80100000D01*
X65750000Y-82650000D02*
X66300000Y-82100000D01*
X101400000Y-106300000D02*
X102800000Y-106300000D01*
X98100000Y-106500000D02*
X99500000Y-106600000D01*
X96900000Y-106400000D02*
X98100000Y-106500000D01*
X92600000Y-106500000D02*
X94800000Y-106500000D01*
X88700000Y-106500000D02*
X90600000Y-106500000D01*
X85300000Y-106500000D02*
X87100000Y-106500000D01*
X81700000Y-106300000D02*
X83500000Y-106500000D01*
X81600000Y-106400000D02*
X81700000Y-106300000D01*
X78600000Y-106500000D02*
X80100000Y-106300000D01*
X78500000Y-106400000D02*
X78600000Y-106500000D01*
X76500000Y-106400000D02*
X76800000Y-106400000D01*
X75800000Y-102700000D02*
X76500000Y-106400000D01*
X75462000Y-98754000D02*
X75364000Y-98754000D01*
X75364000Y-98754000D02*
X74460000Y-97850000D01*
X72650000Y-99100000D02*
X72830000Y-99100000D01*
X72650000Y-99100000D02*
X72600000Y-98230000D01*
X75462000Y-98754000D02*
X75462000Y-100122000D01*
X75462000Y-100122000D02*
X75940000Y-100600000D01*
X75462000Y-98754000D02*
X75462000Y-99998000D01*
X75462000Y-99998000D02*
X75000000Y-100460000D01*
X75462000Y-98754000D02*
X75462000Y-96982000D01*
X75462000Y-96982000D02*
X75070000Y-96590000D01*
D23*
X72650000Y-99100000D02*
X72650000Y-100600000D01*
X72650000Y-100600000D02*
X73000000Y-100950000D01*
D22*
X73934000Y-91440000D02*
X73934000Y-91666000D01*
X73934000Y-91440000D02*
X74360000Y-91440000D01*
X74150000Y-89650000D02*
X74550000Y-89650000D01*
X84050000Y-94032000D02*
X84050000Y-95550000D01*
X84050000Y-95550000D02*
X84250000Y-95750000D01*
X84050000Y-94032000D02*
X84532000Y-94032000D01*
X84532000Y-94032000D02*
X85000000Y-94500000D01*
X84050000Y-94032000D02*
X84050000Y-93950000D01*
X84050000Y-93950000D02*
X85000000Y-93000000D01*
X94712000Y-91586000D02*
X94812000Y-91686000D01*
D23*
X94697000Y-93638000D02*
X94675000Y-93660000D01*
D22*
X95225000Y-93660000D02*
X94675000Y-93660000D01*
D23*
X105940000Y-99320000D02*
X104390000Y-99320000D01*
X104390000Y-99320000D02*
X103750000Y-98680000D01*
X105940000Y-99320000D02*
X105940000Y-97410000D01*
X105940000Y-97410000D02*
X105830000Y-97300000D01*
X111580000Y-99100000D02*
X108660000Y-99100000D01*
X108660000Y-99100000D02*
X108440000Y-99320000D01*
X108660000Y-99100000D02*
X108440000Y-99320000D01*
D22*
X94900000Y-97775000D02*
X93205000Y-97775000D01*
X94825000Y-95900000D02*
X94825000Y-97700000D01*
X93205000Y-97775000D02*
X91630000Y-99350000D01*
X94825000Y-97700000D02*
X94900000Y-97775000D01*
D23*
X91760000Y-99220000D02*
X91630000Y-99350000D01*
D22*
X97970000Y-95900000D02*
X100750000Y-98680000D01*
X97325000Y-95900000D02*
X97970000Y-95900000D01*
X100750000Y-98680000D02*
X100750000Y-100150000D01*
X100750000Y-100150000D02*
X99725000Y-101175000D01*
D23*
X84400000Y-86850000D02*
X84030000Y-86850000D01*
X84030000Y-86850000D02*
X82200000Y-88680000D01*
X86360000Y-86594000D02*
X84656000Y-86594000D01*
X84656000Y-86594000D02*
X84400000Y-86850000D01*
X86360000Y-86594000D02*
X86050000Y-86594000D01*
X89950000Y-87880000D02*
X89950000Y-89020000D01*
X89950000Y-89020000D02*
X89480000Y-90240000D01*
X89950000Y-83920000D02*
X86946000Y-84680000D01*
X86946000Y-84680000D02*
X86360000Y-84094000D01*
X89950000Y-86270000D02*
X89950000Y-83920000D01*
X89950000Y-87880000D02*
X89950000Y-86270000D01*
D22*
X74150000Y-87100000D02*
X73682000Y-87100000D01*
X73682000Y-87100000D02*
X72432000Y-88350000D01*
X72432000Y-88350000D02*
X65750000Y-88350000D01*
D23*
X65750000Y-88350000D02*
X67200000Y-88350000D01*
X76650000Y-87100000D02*
X76650000Y-89450000D01*
X76650000Y-89450000D02*
X76850000Y-89650000D01*
X79200000Y-88680000D02*
X79200000Y-89050000D01*
X79200000Y-89050000D02*
X78600000Y-89650000D01*
X78600000Y-89650000D02*
X76850000Y-89650000D01*
X76750000Y-89550000D02*
X76850000Y-89650000D01*
D22*
X100425000Y-88880000D02*
X100425000Y-90975000D01*
X100425000Y-90975000D02*
X100750000Y-91300000D01*
X97200000Y-87600000D02*
X99145000Y-87600000D01*
X99145000Y-87600000D02*
X100425000Y-88880000D01*
D23*
X100425000Y-88880000D02*
X100425000Y-88325000D01*
D22*
X94900000Y-99800000D02*
X94900000Y-101600000D01*
X70100000Y-95600000D02*
X70225000Y-95600000D01*
X70225000Y-95600000D02*
X71300000Y-96675000D01*
X75350000Y-101600000D02*
X94900000Y-101600000D01*
X73850000Y-103100000D02*
X75350000Y-101600000D01*
X71800000Y-103100000D02*
X73850000Y-103100000D01*
X71300000Y-102600000D02*
X71800000Y-103100000D01*
X71300000Y-96675000D02*
X71300000Y-102600000D01*
X94700000Y-85850000D02*
X94700000Y-82040000D01*
X94700000Y-82040000D02*
X94194000Y-81534000D01*
X94900000Y-101600000D02*
X94900000Y-103325000D01*
X102440377Y-105699254D02*
X103650000Y-103950000D01*
X97250000Y-105675000D02*
X102440377Y-105699254D01*
X94900000Y-103325000D02*
X97250000Y-105675000D01*
X70104000Y-93279000D02*
X70080000Y-89580000D01*
X70040000Y-87140000D02*
X70130000Y-87050000D01*
X70130000Y-87050000D02*
X70610000Y-83430000D01*
X70610000Y-83430000D02*
X71490000Y-82550000D01*
X71490000Y-82550000D02*
X74596000Y-82550000D01*
X70104000Y-93279000D02*
X70275000Y-93450000D01*
X100425000Y-79825000D02*
X97282000Y-79825000D01*
X97282000Y-79825000D02*
X96451000Y-79825000D01*
X79800000Y-81500000D02*
X78970000Y-81460000D01*
X78970000Y-81460000D02*
X74970000Y-81460000D01*
X74970000Y-81460000D02*
X74830000Y-81590000D01*
X74830000Y-81590000D02*
X74596000Y-82550000D01*
X93218000Y-81500000D02*
X79800000Y-81500000D01*
X96451000Y-79825000D02*
X94742000Y-81534000D01*
X94742000Y-81534000D02*
X94194000Y-81534000D01*
X94194000Y-81534000D02*
X93218000Y-81534000D01*
X93218000Y-81534000D02*
X93218000Y-81500000D01*
D23*
X70100000Y-95600000D02*
X70100000Y-93625000D01*
X70100000Y-93625000D02*
X70275000Y-93450000D01*
D22*
X72650000Y-95850000D02*
X70350000Y-95850000D01*
X70350000Y-95850000D02*
X70100000Y-95600000D01*
X65200000Y-97700000D02*
X65200000Y-95200000D01*
X68950000Y-94450000D02*
X70100000Y-95600000D01*
X65950000Y-94450000D02*
X68950000Y-94450000D01*
X65200000Y-95200000D02*
X65950000Y-94450000D01*
X65200000Y-97700000D02*
X65200000Y-97350000D01*
X67400000Y-95600000D02*
X67400000Y-96100000D01*
X67400000Y-96100000D02*
X70100000Y-98800000D01*
D23*
X69400000Y-101050000D02*
X65950000Y-101000000D01*
X65950000Y-101000000D02*
X65850000Y-101100000D01*
X105400000Y-87400000D02*
X105400000Y-89275000D01*
X105400000Y-89275000D02*
X105650000Y-89525000D01*
X105650000Y-89525000D02*
X104070000Y-89525000D01*
X104070000Y-89525000D02*
X103425000Y-88880000D01*
D22*
X105400000Y-89275000D02*
X105650000Y-89525000D01*
D23*
X111500000Y-89300000D02*
X108375000Y-89300000D01*
X108375000Y-89300000D02*
X108150000Y-89525000D01*
D22*
X94700000Y-87600000D02*
X91730000Y-87600000D01*
X91730000Y-87600000D02*
X91450000Y-87880000D01*
X94650000Y-89400000D02*
X94650000Y-87650000D01*
X94650000Y-87650000D02*
X94700000Y-87600000D01*
D23*
X81106000Y-91440000D02*
X81106000Y-93976000D01*
X81106000Y-93976000D02*
X81050000Y-94032000D01*
X76962000Y-94794000D02*
X80288000Y-94794000D01*
X80288000Y-94794000D02*
X81050000Y-94032000D01*
X76962000Y-98754000D02*
X76962000Y-97144000D01*
X78462000Y-98754000D02*
X76962000Y-98754000D01*
X76962000Y-98754000D02*
X76962000Y-94794000D01*
X88630000Y-99350000D02*
X86570000Y-99350000D01*
X86570000Y-99350000D02*
X86390000Y-99170000D01*
X86880000Y-98680000D02*
X86390000Y-99170000D01*
D22*
X90130000Y-95390000D02*
X90130000Y-93880000D01*
X90130000Y-93880000D02*
X89380000Y-92170000D01*
D23*
X90130000Y-95390000D02*
X90130000Y-93766000D01*
X90130000Y-97740000D02*
X90130000Y-95390000D01*
X90130000Y-99350000D02*
X90130000Y-97740000D01*
X82550000Y-97992000D02*
X83108000Y-97992000D01*
X83108000Y-97992000D02*
X84400000Y-96700000D01*
X84400000Y-96700000D02*
X86160000Y-96700000D01*
X86160000Y-96700000D02*
X86390000Y-96470000D01*
X82550000Y-95642000D02*
X82550000Y-97992000D01*
X82550000Y-94032000D02*
X82550000Y-95642000D01*
X86310000Y-92630000D02*
X86310000Y-96390000D01*
X86310000Y-96390000D02*
X86390000Y-96470000D01*
X88450000Y-87880000D02*
X87600000Y-88640000D01*
X87600000Y-88640000D02*
X86310000Y-89930000D01*
D22*
X102250000Y-98680000D02*
X102250000Y-99850000D01*
X102250000Y-99850000D02*
X103650000Y-101250000D01*
X101650000Y-101400000D02*
X103500000Y-101400000D01*
X103500000Y-101400000D02*
X103650000Y-101250000D01*
X102250000Y-98680000D02*
X102250000Y-100800000D01*
X102250000Y-100800000D02*
X101650000Y-101400000D01*
D23*
X105830000Y-94600000D02*
X102370000Y-94600000D01*
X102370000Y-94600000D02*
X102250000Y-94720000D01*
X102370000Y-94600000D02*
X102250000Y-94720000D01*
X101580000Y-95390000D02*
X102250000Y-94720000D01*
X101925000Y-94395000D02*
X102250000Y-94720000D01*
X102250000Y-97070000D02*
X102250000Y-94720000D01*
X102250000Y-98680000D02*
X102250000Y-97070000D01*
X103125000Y-79825000D02*
X103125000Y-81625000D01*
X103125000Y-81625000D02*
X103025000Y-81725000D01*
X103025000Y-79925000D02*
X103125000Y-79825000D01*
X101925000Y-84920000D02*
X101925000Y-82825000D01*
X101925000Y-82825000D02*
X103025000Y-81725000D01*
X101925000Y-84920000D02*
X101925000Y-83275000D01*
X101395000Y-85450000D02*
X101925000Y-84920000D01*
X101925000Y-87270000D02*
X101925000Y-88880000D01*
X101925000Y-84920000D02*
X101925000Y-87270000D01*
X105400000Y-84700000D02*
X102145000Y-84700000D01*
X102145000Y-84700000D02*
X101925000Y-84920000D01*
D22*
X102145000Y-84700000D02*
X101925000Y-84920000D01*
D23*
X77296000Y-82550000D02*
X77246000Y-84532000D01*
X77246000Y-84532000D02*
X77196000Y-84582000D01*
X80700000Y-84720000D02*
X77266000Y-84652000D01*
X77266000Y-84652000D02*
X77196000Y-84582000D01*
X77576000Y-84202000D02*
X77196000Y-84582000D01*
X77246000Y-84532000D02*
X77196000Y-84582000D01*
X80700000Y-87070000D02*
X80700000Y-84720000D01*
X80700000Y-88680000D02*
X80700000Y-87070000D01*
X80320000Y-85100000D02*
X80700000Y-84720000D01*
X84400000Y-84150000D02*
X81270000Y-84150000D01*
X81270000Y-84150000D02*
X80700000Y-84720000D01*
X76434000Y-91440000D02*
X76020000Y-91440000D01*
X76020000Y-91440000D02*
X75300000Y-92160000D01*
X74540000Y-93450000D02*
X72975000Y-93450000D01*
X75300000Y-92690000D02*
X74540000Y-93450000D01*
X75300000Y-92160000D02*
X75300000Y-92690000D01*
X78406000Y-91440000D02*
X76434000Y-91440000D01*
D22*
X97400000Y-85850000D02*
X96650000Y-85850000D01*
X96650000Y-85850000D02*
X95850000Y-86650000D01*
X95850000Y-86650000D02*
X95850000Y-90598252D01*
X97377233Y-90598252D02*
X95850000Y-90598252D01*
X95850000Y-90598252D02*
X92478252Y-90538252D01*
X92478252Y-90538252D02*
X92180000Y-90240000D01*
X97350000Y-89400000D02*
X97377233Y-90598252D01*
X97377233Y-90598252D02*
X97400000Y-91600000D01*
X97400000Y-91600000D02*
X97300000Y-91700000D01*
X96150000Y-92940000D02*
X96150000Y-96950000D01*
X96150000Y-96950000D02*
X96975000Y-97775000D01*
X97600000Y-97775000D02*
X97600000Y-99800000D01*
X97600000Y-99800000D02*
X96950000Y-99800000D01*
X96975000Y-97775000D02*
X97600000Y-97775000D01*
X97410000Y-94210000D02*
X97410000Y-93470000D01*
X91890000Y-92940000D02*
X92080000Y-92170000D01*
X96880000Y-92940000D02*
X96150000Y-92940000D01*
X96150000Y-92940000D02*
X91890000Y-92940000D01*
X97410000Y-93470000D02*
X96880000Y-92940000D01*
X97410000Y-94360000D02*
X97410000Y-94210000D01*
D23*
X92154000Y-92096000D02*
X92080000Y-92170000D01*
D24*
G36*
X63741757Y-99145753D02*
X63951283Y-99288917D01*
X64200000Y-99339283D01*
X66015000Y-99339283D01*
X66015000Y-99460717D01*
X64850000Y-99460717D01*
X64617648Y-99504437D01*
X64404247Y-99641757D01*
X64261083Y-99851283D01*
X64210717Y-100100000D01*
X64210717Y-102100000D01*
X64254437Y-102332352D01*
X64391757Y-102545753D01*
X64601283Y-102688917D01*
X64850000Y-102739283D01*
X66850000Y-102739283D01*
X67082352Y-102695563D01*
X67295753Y-102558243D01*
X67438917Y-102348717D01*
X67489283Y-102100000D01*
X67489283Y-101899401D01*
X67760717Y-101903334D01*
X67760717Y-102050000D01*
X67804437Y-102282352D01*
X67941757Y-102495753D01*
X68151283Y-102638917D01*
X68400000Y-102689283D01*
X70400000Y-102689283D01*
X70511583Y-102668287D01*
X70559049Y-102906912D01*
X70732900Y-103167100D01*
X71232898Y-103667097D01*
X71232900Y-103667100D01*
X71391392Y-103773000D01*
X71493088Y-103840951D01*
X71800000Y-103902001D01*
X71800005Y-103902000D01*
X73849995Y-103902000D01*
X73850000Y-103902001D01*
X74156912Y-103840951D01*
X74417100Y-103667100D01*
X75682199Y-102402000D01*
X94098000Y-102402000D01*
X94098000Y-103324995D01*
X94097999Y-103325000D01*
X94132828Y-103500092D01*
X93678990Y-103196848D01*
X93056364Y-103073000D01*
X90443636Y-103073000D01*
X89821010Y-103196848D01*
X89293173Y-103549537D01*
X88940484Y-104077374D01*
X88816636Y-104700000D01*
X88940484Y-105322626D01*
X89293173Y-105850463D01*
X89821010Y-106203152D01*
X90297843Y-106298000D01*
X63702000Y-106298000D01*
X63702000Y-104650000D01*
X78766636Y-104650000D01*
X78890484Y-105272626D01*
X79243173Y-105800463D01*
X79771010Y-106153152D01*
X80393636Y-106277000D01*
X83006364Y-106277000D01*
X83628990Y-106153152D01*
X84156827Y-105800463D01*
X84509516Y-105272626D01*
X84633364Y-104650000D01*
X84509516Y-104027374D01*
X84156827Y-103499537D01*
X83628990Y-103146848D01*
X83006364Y-103023000D01*
X80393636Y-103023000D01*
X79771010Y-103146848D01*
X79243173Y-103499537D01*
X78890484Y-104027374D01*
X78766636Y-104650000D01*
X63702000Y-104650000D01*
X63702000Y-99083969D01*
X63741757Y-99145753D01*
X63741757Y-99145753D01*
G37*
X63741757Y-99145753D02*
X63951283Y-99288917D01*
X64200000Y-99339283D01*
X66015000Y-99339283D01*
X66015000Y-99460717D01*
X64850000Y-99460717D01*
X64617648Y-99504437D01*
X64404247Y-99641757D01*
X64261083Y-99851283D01*
X64210717Y-100100000D01*
X64210717Y-102100000D01*
X64254437Y-102332352D01*
X64391757Y-102545753D01*
X64601283Y-102688917D01*
X64850000Y-102739283D01*
X66850000Y-102739283D01*
X67082352Y-102695563D01*
X67295753Y-102558243D01*
X67438917Y-102348717D01*
X67489283Y-102100000D01*
X67489283Y-101899401D01*
X67760717Y-101903334D01*
X67760717Y-102050000D01*
X67804437Y-102282352D01*
X67941757Y-102495753D01*
X68151283Y-102638917D01*
X68400000Y-102689283D01*
X70400000Y-102689283D01*
X70511583Y-102668287D01*
X70559049Y-102906912D01*
X70732900Y-103167100D01*
X71232898Y-103667097D01*
X71232900Y-103667100D01*
X71391392Y-103773000D01*
X71493088Y-103840951D01*
X71800000Y-103902001D01*
X71800005Y-103902000D01*
X73849995Y-103902000D01*
X73850000Y-103902001D01*
X74156912Y-103840951D01*
X74417100Y-103667100D01*
X75682199Y-102402000D01*
X94098000Y-102402000D01*
X94098000Y-103324995D01*
X94097999Y-103325000D01*
X94132828Y-103500092D01*
X93678990Y-103196848D01*
X93056364Y-103073000D01*
X90443636Y-103073000D01*
X89821010Y-103196848D01*
X89293173Y-103549537D01*
X88940484Y-104077374D01*
X88816636Y-104700000D01*
X88940484Y-105322626D01*
X89293173Y-105850463D01*
X89821010Y-106203152D01*
X90297843Y-106298000D01*
X63702000Y-106298000D01*
X63702000Y-104650000D01*
X78766636Y-104650000D01*
X78890484Y-105272626D01*
X79243173Y-105800463D01*
X79771010Y-106153152D01*
X80393636Y-106277000D01*
X83006364Y-106277000D01*
X83628990Y-106153152D01*
X84156827Y-105800463D01*
X84509516Y-105272626D01*
X84633364Y-104650000D01*
X84509516Y-104027374D01*
X84156827Y-103499537D01*
X83628990Y-103146848D01*
X83006364Y-103023000D01*
X80393636Y-103023000D01*
X79771010Y-103146848D01*
X79243173Y-103499537D01*
X78890484Y-104027374D01*
X78766636Y-104650000D01*
X63702000Y-104650000D01*
X63702000Y-99083969D01*
X63741757Y-99145753D01*
G36*
X96254437Y-100682352D02*
X96391757Y-100895753D01*
X96601283Y-101038917D01*
X96850000Y-101089283D01*
X98350000Y-101089283D01*
X98435717Y-101073154D01*
X98435717Y-101925000D01*
X98479437Y-102157352D01*
X98616757Y-102370753D01*
X98826283Y-102513917D01*
X98869716Y-102522712D01*
X98715301Y-102586673D01*
X98536673Y-102765302D01*
X98440000Y-102998691D01*
X98440000Y-103589250D01*
X98598750Y-103748000D01*
X99598000Y-103748000D01*
X99598000Y-103728000D01*
X99852000Y-103728000D01*
X99852000Y-103748000D01*
X100523750Y-103748000D01*
X100548750Y-103773000D01*
X101523000Y-103773000D01*
X101523000Y-103753000D01*
X101777000Y-103753000D01*
X101777000Y-103773000D01*
X101797000Y-103773000D01*
X101797000Y-104027000D01*
X101777000Y-104027000D01*
X101777000Y-104047000D01*
X101523000Y-104047000D01*
X101523000Y-104027000D01*
X100876250Y-104027000D01*
X100851250Y-104002000D01*
X99852000Y-104002000D01*
X99852000Y-104022000D01*
X99598000Y-104022000D01*
X99598000Y-104002000D01*
X98598750Y-104002000D01*
X98440000Y-104160750D01*
X98440000Y-104751309D01*
X98492808Y-104878799D01*
X97583751Y-104874551D01*
X95702000Y-102992800D01*
X95702000Y-101079499D01*
X95882352Y-101045563D01*
X96095753Y-100908243D01*
X96238917Y-100698717D01*
X96248558Y-100651108D01*
X96254437Y-100682352D01*
X96254437Y-100682352D01*
G37*
X96254437Y-100682352D02*
X96391757Y-100895753D01*
X96601283Y-101038917D01*
X96850000Y-101089283D01*
X98350000Y-101089283D01*
X98435717Y-101073154D01*
X98435717Y-101925000D01*
X98479437Y-102157352D01*
X98616757Y-102370753D01*
X98826283Y-102513917D01*
X98869716Y-102522712D01*
X98715301Y-102586673D01*
X98536673Y-102765302D01*
X98440000Y-102998691D01*
X98440000Y-103589250D01*
X98598750Y-103748000D01*
X99598000Y-103748000D01*
X99598000Y-103728000D01*
X99852000Y-103728000D01*
X99852000Y-103748000D01*
X100523750Y-103748000D01*
X100548750Y-103773000D01*
X101523000Y-103773000D01*
X101523000Y-103753000D01*
X101777000Y-103753000D01*
X101777000Y-103773000D01*
X101797000Y-103773000D01*
X101797000Y-104027000D01*
X101777000Y-104027000D01*
X101777000Y-104047000D01*
X101523000Y-104047000D01*
X101523000Y-104027000D01*
X100876250Y-104027000D01*
X100851250Y-104002000D01*
X99852000Y-104002000D01*
X99852000Y-104022000D01*
X99598000Y-104022000D01*
X99598000Y-104002000D01*
X98598750Y-104002000D01*
X98440000Y-104160750D01*
X98440000Y-104751309D01*
X98492808Y-104878799D01*
X97583751Y-104874551D01*
X95702000Y-102992800D01*
X95702000Y-101079499D01*
X95882352Y-101045563D01*
X96095753Y-100908243D01*
X96238917Y-100698717D01*
X96248558Y-100651108D01*
X96254437Y-100682352D01*
G36*
X75322717Y-96794000D02*
X75334401Y-96856096D01*
X75334029Y-96888727D01*
X75334998Y-96891096D01*
X75334998Y-97027748D01*
X75176250Y-96869000D01*
X74835691Y-96869000D01*
X74602302Y-96965673D01*
X74423673Y-97144301D01*
X74327000Y-97377690D01*
X74327000Y-98468250D01*
X74485750Y-98627000D01*
X75335000Y-98627000D01*
X75335000Y-98607000D01*
X75589000Y-98607000D01*
X75589000Y-98627000D01*
X75609000Y-98627000D01*
X75609000Y-98881000D01*
X75589000Y-98881000D01*
X75589000Y-100480250D01*
X75747750Y-100639000D01*
X76088309Y-100639000D01*
X76208105Y-100589379D01*
X76213283Y-100592917D01*
X76462000Y-100643283D01*
X77462000Y-100643283D01*
X77694352Y-100599563D01*
X77709111Y-100590066D01*
X77713283Y-100592917D01*
X77962000Y-100643283D01*
X78962000Y-100643283D01*
X79194352Y-100599563D01*
X79407753Y-100462243D01*
X79550917Y-100252717D01*
X79601283Y-100004000D01*
X79601283Y-97504000D01*
X79557563Y-97271648D01*
X79420243Y-97058247D01*
X79210717Y-96915083D01*
X78962000Y-96864717D01*
X78586963Y-96864717D01*
X78601283Y-96794000D01*
X78601283Y-95671000D01*
X80055237Y-95671000D01*
X80091757Y-95727753D01*
X80301283Y-95870917D01*
X80550000Y-95921283D01*
X80925037Y-95921283D01*
X80910717Y-95992000D01*
X80910717Y-99992000D01*
X80954437Y-100224352D01*
X81091757Y-100437753D01*
X81301283Y-100580917D01*
X81550000Y-100631283D01*
X83550000Y-100631283D01*
X83782352Y-100587563D01*
X83995753Y-100450243D01*
X84138917Y-100240717D01*
X84189283Y-99992000D01*
X84189283Y-98150983D01*
X84763266Y-97577000D01*
X85224646Y-97577000D01*
X85281757Y-97665753D01*
X85491283Y-97808917D01*
X85538892Y-97818558D01*
X85507648Y-97824437D01*
X85294247Y-97961757D01*
X85151083Y-98171283D01*
X85100717Y-98420000D01*
X85100717Y-99920000D01*
X85144437Y-100152352D01*
X85281757Y-100365753D01*
X85491283Y-100508917D01*
X85740000Y-100559283D01*
X87040000Y-100559283D01*
X87272352Y-100515563D01*
X87485753Y-100378243D01*
X87490717Y-100370978D01*
X87490717Y-100600000D01*
X87527973Y-100798000D01*
X75350000Y-100798000D01*
X75043088Y-100859049D01*
X74782900Y-101032900D01*
X74782898Y-101032903D01*
X74607525Y-101208275D01*
X74476250Y-101077000D01*
X73127000Y-101077000D01*
X73127000Y-101097000D01*
X72873000Y-101097000D01*
X72873000Y-101077000D01*
X72853000Y-101077000D01*
X72853000Y-100823000D01*
X72873000Y-100823000D01*
X72873000Y-100803000D01*
X73127000Y-100803000D01*
X73127000Y-100823000D01*
X74476250Y-100823000D01*
X74635000Y-100664250D01*
X74635000Y-100555871D01*
X74835691Y-100639000D01*
X75176250Y-100639000D01*
X75335000Y-100480250D01*
X75335000Y-98881000D01*
X74485750Y-98881000D01*
X74327000Y-99039750D01*
X74327000Y-99398129D01*
X74126309Y-99315000D01*
X73873263Y-99315000D01*
X73910000Y-99226309D01*
X73910000Y-98635750D01*
X73751250Y-98477000D01*
X72777000Y-98477000D01*
X72777000Y-98497000D01*
X72523000Y-98497000D01*
X72523000Y-98477000D01*
X72503000Y-98477000D01*
X72503000Y-98223000D01*
X72523000Y-98223000D01*
X72523000Y-98203000D01*
X72777000Y-98203000D01*
X72777000Y-98223000D01*
X73751250Y-98223000D01*
X73910000Y-98064250D01*
X73910000Y-97473691D01*
X73813327Y-97240302D01*
X73666305Y-97093279D01*
X73720753Y-97058243D01*
X73863917Y-96848717D01*
X73914283Y-96600000D01*
X73914283Y-95100000D01*
X73870563Y-94867648D01*
X73781162Y-94728715D01*
X73957352Y-94695563D01*
X74170753Y-94558243D01*
X74313917Y-94348717D01*
X74318315Y-94327000D01*
X74540000Y-94327000D01*
X74875613Y-94260242D01*
X75160133Y-94070133D01*
X75322717Y-93907549D01*
X75322717Y-96794000D01*
X75322717Y-96794000D01*
G37*
X75322717Y-96794000D02*
X75334401Y-96856096D01*
X75334029Y-96888727D01*
X75334998Y-96891096D01*
X75334998Y-97027748D01*
X75176250Y-96869000D01*
X74835691Y-96869000D01*
X74602302Y-96965673D01*
X74423673Y-97144301D01*
X74327000Y-97377690D01*
X74327000Y-98468250D01*
X74485750Y-98627000D01*
X75335000Y-98627000D01*
X75335000Y-98607000D01*
X75589000Y-98607000D01*
X75589000Y-98627000D01*
X75609000Y-98627000D01*
X75609000Y-98881000D01*
X75589000Y-98881000D01*
X75589000Y-100480250D01*
X75747750Y-100639000D01*
X76088309Y-100639000D01*
X76208105Y-100589379D01*
X76213283Y-100592917D01*
X76462000Y-100643283D01*
X77462000Y-100643283D01*
X77694352Y-100599563D01*
X77709111Y-100590066D01*
X77713283Y-100592917D01*
X77962000Y-100643283D01*
X78962000Y-100643283D01*
X79194352Y-100599563D01*
X79407753Y-100462243D01*
X79550917Y-100252717D01*
X79601283Y-100004000D01*
X79601283Y-97504000D01*
X79557563Y-97271648D01*
X79420243Y-97058247D01*
X79210717Y-96915083D01*
X78962000Y-96864717D01*
X78586963Y-96864717D01*
X78601283Y-96794000D01*
X78601283Y-95671000D01*
X80055237Y-95671000D01*
X80091757Y-95727753D01*
X80301283Y-95870917D01*
X80550000Y-95921283D01*
X80925037Y-95921283D01*
X80910717Y-95992000D01*
X80910717Y-99992000D01*
X80954437Y-100224352D01*
X81091757Y-100437753D01*
X81301283Y-100580917D01*
X81550000Y-100631283D01*
X83550000Y-100631283D01*
X83782352Y-100587563D01*
X83995753Y-100450243D01*
X84138917Y-100240717D01*
X84189283Y-99992000D01*
X84189283Y-98150983D01*
X84763266Y-97577000D01*
X85224646Y-97577000D01*
X85281757Y-97665753D01*
X85491283Y-97808917D01*
X85538892Y-97818558D01*
X85507648Y-97824437D01*
X85294247Y-97961757D01*
X85151083Y-98171283D01*
X85100717Y-98420000D01*
X85100717Y-99920000D01*
X85144437Y-100152352D01*
X85281757Y-100365753D01*
X85491283Y-100508917D01*
X85740000Y-100559283D01*
X87040000Y-100559283D01*
X87272352Y-100515563D01*
X87485753Y-100378243D01*
X87490717Y-100370978D01*
X87490717Y-100600000D01*
X87527973Y-100798000D01*
X75350000Y-100798000D01*
X75043088Y-100859049D01*
X74782900Y-101032900D01*
X74782898Y-101032903D01*
X74607525Y-101208275D01*
X74476250Y-101077000D01*
X73127000Y-101077000D01*
X73127000Y-101097000D01*
X72873000Y-101097000D01*
X72873000Y-101077000D01*
X72853000Y-101077000D01*
X72853000Y-100823000D01*
X72873000Y-100823000D01*
X72873000Y-100803000D01*
X73127000Y-100803000D01*
X73127000Y-100823000D01*
X74476250Y-100823000D01*
X74635000Y-100664250D01*
X74635000Y-100555871D01*
X74835691Y-100639000D01*
X75176250Y-100639000D01*
X75335000Y-100480250D01*
X75335000Y-98881000D01*
X74485750Y-98881000D01*
X74327000Y-99039750D01*
X74327000Y-99398129D01*
X74126309Y-99315000D01*
X73873263Y-99315000D01*
X73910000Y-99226309D01*
X73910000Y-98635750D01*
X73751250Y-98477000D01*
X72777000Y-98477000D01*
X72777000Y-98497000D01*
X72523000Y-98497000D01*
X72523000Y-98477000D01*
X72503000Y-98477000D01*
X72503000Y-98223000D01*
X72523000Y-98223000D01*
X72523000Y-98203000D01*
X72777000Y-98203000D01*
X72777000Y-98223000D01*
X73751250Y-98223000D01*
X73910000Y-98064250D01*
X73910000Y-97473691D01*
X73813327Y-97240302D01*
X73666305Y-97093279D01*
X73720753Y-97058243D01*
X73863917Y-96848717D01*
X73914283Y-96600000D01*
X73914283Y-95100000D01*
X73870563Y-94867648D01*
X73781162Y-94728715D01*
X73957352Y-94695563D01*
X74170753Y-94558243D01*
X74313917Y-94348717D01*
X74318315Y-94327000D01*
X74540000Y-94327000D01*
X74875613Y-94260242D01*
X75160133Y-94070133D01*
X75322717Y-93907549D01*
X75322717Y-96794000D01*
G36*
X67683275Y-97517475D02*
X67527000Y-97673750D01*
X67527000Y-98673000D01*
X67547000Y-98673000D01*
X67547000Y-98927000D01*
X67527000Y-98927000D01*
X67527000Y-98947000D01*
X67273000Y-98947000D01*
X67273000Y-98927000D01*
X67253000Y-98927000D01*
X67253000Y-98673000D01*
X67273000Y-98673000D01*
X67273000Y-97673750D01*
X67114250Y-97515000D01*
X66839283Y-97515000D01*
X66839283Y-96889283D01*
X67055083Y-96889283D01*
X67683275Y-97517475D01*
X67683275Y-97517475D01*
G37*
X67683275Y-97517475D02*
X67527000Y-97673750D01*
X67527000Y-98673000D01*
X67547000Y-98673000D01*
X67547000Y-98927000D01*
X67527000Y-98927000D01*
X67527000Y-98947000D01*
X67273000Y-98947000D01*
X67273000Y-98927000D01*
X67253000Y-98927000D01*
X67253000Y-98673000D01*
X67273000Y-98673000D01*
X67273000Y-97673750D01*
X67114250Y-97515000D01*
X66839283Y-97515000D01*
X66839283Y-96889283D01*
X67055083Y-96889283D01*
X67683275Y-97517475D01*
G36*
X91794812Y-93723066D02*
X91890000Y-93742000D01*
X93525000Y-93742000D01*
X93525000Y-93924250D01*
X93683750Y-94083000D01*
X94783000Y-94083000D01*
X94783000Y-94063000D01*
X95037000Y-94063000D01*
X95037000Y-94083000D01*
X95057000Y-94083000D01*
X95057000Y-94337000D01*
X95037000Y-94337000D01*
X95037000Y-94357000D01*
X94783000Y-94357000D01*
X94783000Y-94337000D01*
X93683750Y-94337000D01*
X93525000Y-94495750D01*
X93525000Y-94961310D01*
X93527067Y-94966301D01*
X93486083Y-95026283D01*
X93435717Y-95275000D01*
X93435717Y-96525000D01*
X93479437Y-96757352D01*
X93559858Y-96882330D01*
X93541497Y-96973000D01*
X93205000Y-96973000D01*
X92898088Y-97034049D01*
X92637900Y-97207900D01*
X92637898Y-97207903D01*
X92342127Y-97503673D01*
X92130000Y-97460717D01*
X91754963Y-97460717D01*
X91769283Y-97390000D01*
X91769283Y-93721902D01*
X91794812Y-93723066D01*
X91794812Y-93723066D01*
G37*
X91794812Y-93723066D02*
X91890000Y-93742000D01*
X93525000Y-93742000D01*
X93525000Y-93924250D01*
X93683750Y-94083000D01*
X94783000Y-94083000D01*
X94783000Y-94063000D01*
X95037000Y-94063000D01*
X95037000Y-94083000D01*
X95057000Y-94083000D01*
X95057000Y-94337000D01*
X95037000Y-94337000D01*
X95037000Y-94357000D01*
X94783000Y-94357000D01*
X94783000Y-94337000D01*
X93683750Y-94337000D01*
X93525000Y-94495750D01*
X93525000Y-94961310D01*
X93527067Y-94966301D01*
X93486083Y-95026283D01*
X93435717Y-95275000D01*
X93435717Y-96525000D01*
X93479437Y-96757352D01*
X93559858Y-96882330D01*
X93541497Y-96973000D01*
X93205000Y-96973000D01*
X92898088Y-97034049D01*
X92637900Y-97207900D01*
X92637898Y-97207903D01*
X92342127Y-97503673D01*
X92130000Y-97460717D01*
X91754963Y-97460717D01*
X91769283Y-97390000D01*
X91769283Y-93721902D01*
X91794812Y-93723066D01*
G36*
X64632900Y-94632900D02*
X64459049Y-94893088D01*
X64397999Y-95200000D01*
X64398000Y-95200005D01*
X64398000Y-96060717D01*
X64200000Y-96060717D01*
X63967648Y-96104437D01*
X63754247Y-96241757D01*
X63702000Y-96318222D01*
X63702000Y-93985000D01*
X65280800Y-93985000D01*
X64632900Y-94632900D01*
X64632900Y-94632900D01*
G37*
X64632900Y-94632900D02*
X64459049Y-94893088D01*
X64397999Y-95200000D01*
X64398000Y-95200005D01*
X64398000Y-96060717D01*
X64200000Y-96060717D01*
X63967648Y-96104437D01*
X63754247Y-96241757D01*
X63702000Y-96318222D01*
X63702000Y-93985000D01*
X65280800Y-93985000D01*
X64632900Y-94632900D01*
G36*
X85735000Y-87983283D02*
X86985000Y-87983283D01*
X87027724Y-87975244D01*
X87015446Y-87986222D01*
X87000517Y-88006070D01*
X86979867Y-88019868D01*
X86459018Y-88540717D01*
X85660000Y-88540717D01*
X85427648Y-88584437D01*
X85214247Y-88721757D01*
X85071083Y-88931283D01*
X85020717Y-89180000D01*
X85020717Y-90680000D01*
X85064437Y-90912352D01*
X85201757Y-91125753D01*
X85411283Y-91268917D01*
X85458892Y-91278558D01*
X85427648Y-91284437D01*
X85214247Y-91421757D01*
X85071083Y-91631283D01*
X85020717Y-91880000D01*
X85020717Y-92354691D01*
X84909698Y-92243673D01*
X84676309Y-92147000D01*
X84335750Y-92147000D01*
X84177000Y-92305750D01*
X84177000Y-93905000D01*
X85026250Y-93905000D01*
X85164068Y-93767182D01*
X85201757Y-93825753D01*
X85411283Y-93968917D01*
X85433000Y-93973315D01*
X85433000Y-95172472D01*
X85294247Y-95261757D01*
X85170974Y-95442172D01*
X85185000Y-95408310D01*
X85185000Y-94317750D01*
X85026250Y-94159000D01*
X84177000Y-94159000D01*
X84177000Y-94179000D01*
X83923000Y-94179000D01*
X83923000Y-94159000D01*
X83903000Y-94159000D01*
X83903000Y-93905000D01*
X83923000Y-93905000D01*
X83923000Y-92305750D01*
X83764250Y-92147000D01*
X83423691Y-92147000D01*
X83303895Y-92196621D01*
X83298717Y-92193083D01*
X83050000Y-92142717D01*
X82484608Y-92142717D01*
X82495283Y-92090000D01*
X82495283Y-90790000D01*
X82453752Y-90569283D01*
X82700000Y-90569283D01*
X82932352Y-90525563D01*
X83145753Y-90388243D01*
X83288917Y-90178717D01*
X83339283Y-89930000D01*
X83339283Y-88780983D01*
X83880983Y-88239283D01*
X85050000Y-88239283D01*
X85282352Y-88195563D01*
X85495753Y-88058243D01*
X85569826Y-87949835D01*
X85735000Y-87983283D01*
X85735000Y-87983283D01*
G37*
X85735000Y-87983283D02*
X86985000Y-87983283D01*
X87027724Y-87975244D01*
X87015446Y-87986222D01*
X87000517Y-88006070D01*
X86979867Y-88019868D01*
X86459018Y-88540717D01*
X85660000Y-88540717D01*
X85427648Y-88584437D01*
X85214247Y-88721757D01*
X85071083Y-88931283D01*
X85020717Y-89180000D01*
X85020717Y-90680000D01*
X85064437Y-90912352D01*
X85201757Y-91125753D01*
X85411283Y-91268917D01*
X85458892Y-91278558D01*
X85427648Y-91284437D01*
X85214247Y-91421757D01*
X85071083Y-91631283D01*
X85020717Y-91880000D01*
X85020717Y-92354691D01*
X84909698Y-92243673D01*
X84676309Y-92147000D01*
X84335750Y-92147000D01*
X84177000Y-92305750D01*
X84177000Y-93905000D01*
X85026250Y-93905000D01*
X85164068Y-93767182D01*
X85201757Y-93825753D01*
X85411283Y-93968917D01*
X85433000Y-93973315D01*
X85433000Y-95172472D01*
X85294247Y-95261757D01*
X85170974Y-95442172D01*
X85185000Y-95408310D01*
X85185000Y-94317750D01*
X85026250Y-94159000D01*
X84177000Y-94159000D01*
X84177000Y-94179000D01*
X83923000Y-94179000D01*
X83923000Y-94159000D01*
X83903000Y-94159000D01*
X83903000Y-93905000D01*
X83923000Y-93905000D01*
X83923000Y-92305750D01*
X83764250Y-92147000D01*
X83423691Y-92147000D01*
X83303895Y-92196621D01*
X83298717Y-92193083D01*
X83050000Y-92142717D01*
X82484608Y-92142717D01*
X82495283Y-92090000D01*
X82495283Y-90790000D01*
X82453752Y-90569283D01*
X82700000Y-90569283D01*
X82932352Y-90525563D01*
X83145753Y-90388243D01*
X83288917Y-90178717D01*
X83339283Y-89930000D01*
X83339283Y-88780983D01*
X83880983Y-88239283D01*
X85050000Y-88239283D01*
X85282352Y-88195563D01*
X85495753Y-88058243D01*
X85569826Y-87949835D01*
X85735000Y-87983283D01*
G36*
X69153161Y-89394799D02*
X69152839Y-89763583D01*
X69281190Y-90074215D01*
X69295008Y-92203993D01*
X69292648Y-92204437D01*
X69079247Y-92341757D01*
X68936083Y-92551283D01*
X68925000Y-92606013D01*
X68925000Y-92385750D01*
X68766250Y-92227000D01*
X65877000Y-92227000D01*
X65877000Y-92247000D01*
X65623000Y-92247000D01*
X65623000Y-92227000D01*
X65603000Y-92227000D01*
X65603000Y-91973000D01*
X65623000Y-91973000D01*
X65623000Y-90373750D01*
X65877000Y-90373750D01*
X65877000Y-91973000D01*
X68766250Y-91973000D01*
X68925000Y-91814250D01*
X68925000Y-90723691D01*
X68828327Y-90490302D01*
X68649699Y-90311673D01*
X68416310Y-90215000D01*
X66035750Y-90215000D01*
X65877000Y-90373750D01*
X65623000Y-90373750D01*
X65464250Y-90215000D01*
X63702000Y-90215000D01*
X63702000Y-89739283D01*
X68290000Y-89739283D01*
X68522352Y-89695563D01*
X68735753Y-89558243D01*
X68878917Y-89348717D01*
X68918753Y-89152000D01*
X69253980Y-89152000D01*
X69153161Y-89394799D01*
X69153161Y-89394799D01*
G37*
X69153161Y-89394799D02*
X69152839Y-89763583D01*
X69281190Y-90074215D01*
X69295008Y-92203993D01*
X69292648Y-92204437D01*
X69079247Y-92341757D01*
X68936083Y-92551283D01*
X68925000Y-92606013D01*
X68925000Y-92385750D01*
X68766250Y-92227000D01*
X65877000Y-92227000D01*
X65877000Y-92247000D01*
X65623000Y-92247000D01*
X65623000Y-92227000D01*
X65603000Y-92227000D01*
X65603000Y-91973000D01*
X65623000Y-91973000D01*
X65623000Y-90373750D01*
X65877000Y-90373750D01*
X65877000Y-91973000D01*
X68766250Y-91973000D01*
X68925000Y-91814250D01*
X68925000Y-90723691D01*
X68828327Y-90490302D01*
X68649699Y-90311673D01*
X68416310Y-90215000D01*
X66035750Y-90215000D01*
X65877000Y-90373750D01*
X65623000Y-90373750D01*
X65464250Y-90215000D01*
X63702000Y-90215000D01*
X63702000Y-89739283D01*
X68290000Y-89739283D01*
X68522352Y-89695563D01*
X68735753Y-89558243D01*
X68878917Y-89348717D01*
X68918753Y-89152000D01*
X69253980Y-89152000D01*
X69153161Y-89394799D01*
G36*
X75441757Y-88170753D02*
X75651283Y-88313917D01*
X75773000Y-88338565D01*
X75773000Y-88465341D01*
X75654247Y-88541757D01*
X75511083Y-88751283D01*
X75502288Y-88794716D01*
X75438327Y-88640301D01*
X75259698Y-88461673D01*
X75026309Y-88365000D01*
X74435750Y-88365000D01*
X74277000Y-88523750D01*
X74277000Y-89523000D01*
X74297000Y-89523000D01*
X74297000Y-89777000D01*
X74277000Y-89777000D01*
X74277000Y-89797000D01*
X74023000Y-89797000D01*
X74023000Y-89777000D01*
X72923750Y-89777000D01*
X72765000Y-89935750D01*
X72765000Y-90335975D01*
X72645673Y-90455301D01*
X72549000Y-90688690D01*
X72549000Y-91154250D01*
X72707750Y-91313000D01*
X73807000Y-91313000D01*
X73807000Y-91293000D01*
X74061000Y-91293000D01*
X74061000Y-91313000D01*
X74081000Y-91313000D01*
X74081000Y-91567000D01*
X74061000Y-91567000D01*
X74061000Y-91587000D01*
X73807000Y-91587000D01*
X73807000Y-91567000D01*
X72707750Y-91567000D01*
X72549000Y-91725750D01*
X72549000Y-92160717D01*
X72225000Y-92160717D01*
X71992648Y-92204437D01*
X71779247Y-92341757D01*
X71636083Y-92551283D01*
X71626442Y-92598892D01*
X71620563Y-92567648D01*
X71483243Y-92354247D01*
X71273717Y-92211083D01*
X71025000Y-92160717D01*
X70898761Y-92160717D01*
X70885120Y-90058331D01*
X71006839Y-89765201D01*
X71007161Y-89396417D01*
X70906170Y-89152000D01*
X72431995Y-89152000D01*
X72432000Y-89152001D01*
X72738912Y-89090951D01*
X72765000Y-89073520D01*
X72765000Y-89364250D01*
X72923750Y-89523000D01*
X74023000Y-89523000D01*
X74023000Y-88523750D01*
X73864250Y-88365000D01*
X73551200Y-88365000D01*
X73551917Y-88364283D01*
X74900000Y-88364283D01*
X75132352Y-88320563D01*
X75345753Y-88183243D01*
X75399334Y-88104826D01*
X75441757Y-88170753D01*
X75441757Y-88170753D01*
G37*
X75441757Y-88170753D02*
X75651283Y-88313917D01*
X75773000Y-88338565D01*
X75773000Y-88465341D01*
X75654247Y-88541757D01*
X75511083Y-88751283D01*
X75502288Y-88794716D01*
X75438327Y-88640301D01*
X75259698Y-88461673D01*
X75026309Y-88365000D01*
X74435750Y-88365000D01*
X74277000Y-88523750D01*
X74277000Y-89523000D01*
X74297000Y-89523000D01*
X74297000Y-89777000D01*
X74277000Y-89777000D01*
X74277000Y-89797000D01*
X74023000Y-89797000D01*
X74023000Y-89777000D01*
X72923750Y-89777000D01*
X72765000Y-89935750D01*
X72765000Y-90335975D01*
X72645673Y-90455301D01*
X72549000Y-90688690D01*
X72549000Y-91154250D01*
X72707750Y-91313000D01*
X73807000Y-91313000D01*
X73807000Y-91293000D01*
X74061000Y-91293000D01*
X74061000Y-91313000D01*
X74081000Y-91313000D01*
X74081000Y-91567000D01*
X74061000Y-91567000D01*
X74061000Y-91587000D01*
X73807000Y-91587000D01*
X73807000Y-91567000D01*
X72707750Y-91567000D01*
X72549000Y-91725750D01*
X72549000Y-92160717D01*
X72225000Y-92160717D01*
X71992648Y-92204437D01*
X71779247Y-92341757D01*
X71636083Y-92551283D01*
X71626442Y-92598892D01*
X71620563Y-92567648D01*
X71483243Y-92354247D01*
X71273717Y-92211083D01*
X71025000Y-92160717D01*
X70898761Y-92160717D01*
X70885120Y-90058331D01*
X71006839Y-89765201D01*
X71007161Y-89396417D01*
X70906170Y-89152000D01*
X72431995Y-89152000D01*
X72432000Y-89152001D01*
X72738912Y-89090951D01*
X72765000Y-89073520D01*
X72765000Y-89364250D01*
X72923750Y-89523000D01*
X74023000Y-89523000D01*
X74023000Y-88523750D01*
X73864250Y-88365000D01*
X73551200Y-88365000D01*
X73551917Y-88364283D01*
X74900000Y-88364283D01*
X75132352Y-88320563D01*
X75345753Y-88183243D01*
X75399334Y-88104826D01*
X75441757Y-88170753D01*
G36*
X94927000Y-91573000D02*
X94947000Y-91573000D01*
X94947000Y-91827000D01*
X94927000Y-91827000D01*
X94927000Y-91847000D01*
X94673000Y-91847000D01*
X94673000Y-91827000D01*
X94653000Y-91827000D01*
X94653000Y-91573000D01*
X94673000Y-91573000D01*
X94673000Y-91553000D01*
X94927000Y-91553000D01*
X94927000Y-91573000D01*
X94927000Y-91573000D01*
G37*
X94927000Y-91573000D02*
X94947000Y-91573000D01*
X94947000Y-91827000D01*
X94927000Y-91827000D01*
X94927000Y-91847000D01*
X94673000Y-91847000D01*
X94673000Y-91827000D01*
X94653000Y-91827000D01*
X94653000Y-91573000D01*
X94673000Y-91573000D01*
X94673000Y-91553000D01*
X94927000Y-91553000D01*
X94927000Y-91573000D01*
G36*
X103577000Y-91173000D02*
X103597000Y-91173000D01*
X103597000Y-91427000D01*
X103577000Y-91427000D01*
X103577000Y-91447000D01*
X103323000Y-91447000D01*
X103323000Y-91427000D01*
X103303000Y-91427000D01*
X103303000Y-91173000D01*
X103323000Y-91173000D01*
X103323000Y-91153000D01*
X103577000Y-91153000D01*
X103577000Y-91173000D01*
X103577000Y-91173000D01*
G37*
X103577000Y-91173000D02*
X103597000Y-91173000D01*
X103597000Y-91427000D01*
X103577000Y-91427000D01*
X103577000Y-91447000D01*
X103323000Y-91447000D01*
X103323000Y-91427000D01*
X103303000Y-91427000D01*
X103303000Y-91173000D01*
X103323000Y-91173000D01*
X103323000Y-91153000D01*
X103577000Y-91153000D01*
X103577000Y-91173000D01*
G36*
X79143173Y-78949537D02*
X78790484Y-79477374D01*
X78666636Y-80100000D01*
X78777629Y-80658000D01*
X74970000Y-80658000D01*
X74830835Y-80685682D01*
X74690722Y-80708197D01*
X74677879Y-80716107D01*
X74663088Y-80719049D01*
X74545109Y-80797880D01*
X74424278Y-80872299D01*
X74284278Y-81002300D01*
X74239323Y-81064469D01*
X74182808Y-81116349D01*
X74148532Y-81190026D01*
X74100916Y-81255875D01*
X74099765Y-81260717D01*
X73846000Y-81260717D01*
X73613648Y-81304437D01*
X73400247Y-81441757D01*
X73257083Y-81651283D01*
X73237497Y-81748000D01*
X71490005Y-81748000D01*
X71490000Y-81747999D01*
X71183088Y-81809049D01*
X70922900Y-81982900D01*
X70042900Y-82862900D01*
X69984822Y-82949820D01*
X69915820Y-83028355D01*
X69898647Y-83078791D01*
X69869049Y-83123088D01*
X69848654Y-83225620D01*
X69814959Y-83324580D01*
X69397709Y-86471337D01*
X69254586Y-86614211D01*
X69113161Y-86954799D01*
X69112839Y-87323583D01*
X69205566Y-87548000D01*
X68919499Y-87548000D01*
X68885563Y-87367648D01*
X68748243Y-87154247D01*
X68538717Y-87011083D01*
X68290000Y-86960717D01*
X63702000Y-86960717D01*
X63702000Y-86485000D01*
X65464250Y-86485000D01*
X65623000Y-86326250D01*
X65623000Y-84727000D01*
X65877000Y-84727000D01*
X65877000Y-86326250D01*
X66035750Y-86485000D01*
X68416310Y-86485000D01*
X68649699Y-86388327D01*
X68828327Y-86209698D01*
X68925000Y-85976309D01*
X68925000Y-84885750D01*
X68766250Y-84727000D01*
X65877000Y-84727000D01*
X65623000Y-84727000D01*
X65603000Y-84727000D01*
X65603000Y-84473000D01*
X65623000Y-84473000D01*
X65623000Y-82873750D01*
X65877000Y-82873750D01*
X65877000Y-84473000D01*
X68766250Y-84473000D01*
X68925000Y-84314250D01*
X68925000Y-83223691D01*
X68828327Y-82990302D01*
X68649699Y-82811673D01*
X68416310Y-82715000D01*
X66035750Y-82715000D01*
X65877000Y-82873750D01*
X65623000Y-82873750D01*
X65464250Y-82715000D01*
X63702000Y-82715000D01*
X63702000Y-78702000D01*
X79513639Y-78702000D01*
X79143173Y-78949537D01*
X79143173Y-78949537D01*
G37*
X79143173Y-78949537D02*
X78790484Y-79477374D01*
X78666636Y-80100000D01*
X78777629Y-80658000D01*
X74970000Y-80658000D01*
X74830835Y-80685682D01*
X74690722Y-80708197D01*
X74677879Y-80716107D01*
X74663088Y-80719049D01*
X74545109Y-80797880D01*
X74424278Y-80872299D01*
X74284278Y-81002300D01*
X74239323Y-81064469D01*
X74182808Y-81116349D01*
X74148532Y-81190026D01*
X74100916Y-81255875D01*
X74099765Y-81260717D01*
X73846000Y-81260717D01*
X73613648Y-81304437D01*
X73400247Y-81441757D01*
X73257083Y-81651283D01*
X73237497Y-81748000D01*
X71490005Y-81748000D01*
X71490000Y-81747999D01*
X71183088Y-81809049D01*
X70922900Y-81982900D01*
X70042900Y-82862900D01*
X69984822Y-82949820D01*
X69915820Y-83028355D01*
X69898647Y-83078791D01*
X69869049Y-83123088D01*
X69848654Y-83225620D01*
X69814959Y-83324580D01*
X69397709Y-86471337D01*
X69254586Y-86614211D01*
X69113161Y-86954799D01*
X69112839Y-87323583D01*
X69205566Y-87548000D01*
X68919499Y-87548000D01*
X68885563Y-87367648D01*
X68748243Y-87154247D01*
X68538717Y-87011083D01*
X68290000Y-86960717D01*
X63702000Y-86960717D01*
X63702000Y-86485000D01*
X65464250Y-86485000D01*
X65623000Y-86326250D01*
X65623000Y-84727000D01*
X65877000Y-84727000D01*
X65877000Y-86326250D01*
X66035750Y-86485000D01*
X68416310Y-86485000D01*
X68649699Y-86388327D01*
X68828327Y-86209698D01*
X68925000Y-85976309D01*
X68925000Y-84885750D01*
X68766250Y-84727000D01*
X65877000Y-84727000D01*
X65623000Y-84727000D01*
X65603000Y-84727000D01*
X65603000Y-84473000D01*
X65623000Y-84473000D01*
X65623000Y-82873750D01*
X65877000Y-82873750D01*
X65877000Y-84473000D01*
X68766250Y-84473000D01*
X68925000Y-84314250D01*
X68925000Y-83223691D01*
X68828327Y-82990302D01*
X68649699Y-82811673D01*
X68416310Y-82715000D01*
X66035750Y-82715000D01*
X65877000Y-82873750D01*
X65623000Y-82873750D01*
X65464250Y-82715000D01*
X63702000Y-82715000D01*
X63702000Y-78702000D01*
X79513639Y-78702000D01*
X79143173Y-78949537D01*
G36*
X73250437Y-83432352D02*
X73387664Y-83645608D01*
X73311000Y-83830690D01*
X73311000Y-84296250D01*
X73469750Y-84455000D01*
X74569000Y-84455000D01*
X74569000Y-84435000D01*
X74823000Y-84435000D01*
X74823000Y-84455000D01*
X74843000Y-84455000D01*
X74843000Y-84709000D01*
X74823000Y-84709000D01*
X74823000Y-84729000D01*
X74569000Y-84729000D01*
X74569000Y-84709000D01*
X73469750Y-84709000D01*
X73311000Y-84867750D01*
X73311000Y-85333310D01*
X73407673Y-85566699D01*
X73586302Y-85745327D01*
X73804523Y-85835717D01*
X73400000Y-85835717D01*
X73167648Y-85879437D01*
X72954247Y-86016757D01*
X72811083Y-86226283D01*
X72760717Y-86475000D01*
X72760717Y-86887083D01*
X72099800Y-87548000D01*
X70874324Y-87548000D01*
X70966839Y-87325201D01*
X70967161Y-86956417D01*
X70955250Y-86927591D01*
X71369310Y-83804890D01*
X71822200Y-83352000D01*
X73235318Y-83352000D01*
X73250437Y-83432352D01*
X73250437Y-83432352D01*
G37*
X73250437Y-83432352D02*
X73387664Y-83645608D01*
X73311000Y-83830690D01*
X73311000Y-84296250D01*
X73469750Y-84455000D01*
X74569000Y-84455000D01*
X74569000Y-84435000D01*
X74823000Y-84435000D01*
X74823000Y-84455000D01*
X74843000Y-84455000D01*
X74843000Y-84709000D01*
X74823000Y-84709000D01*
X74823000Y-84729000D01*
X74569000Y-84729000D01*
X74569000Y-84709000D01*
X73469750Y-84709000D01*
X73311000Y-84867750D01*
X73311000Y-85333310D01*
X73407673Y-85566699D01*
X73586302Y-85745327D01*
X73804523Y-85835717D01*
X73400000Y-85835717D01*
X73167648Y-85879437D01*
X72954247Y-86016757D01*
X72811083Y-86226283D01*
X72760717Y-86475000D01*
X72760717Y-86887083D01*
X72099800Y-87548000D01*
X70874324Y-87548000D01*
X70966839Y-87325201D01*
X70967161Y-86956417D01*
X70955250Y-86927591D01*
X71369310Y-83804890D01*
X71822200Y-83352000D01*
X73235318Y-83352000D01*
X73250437Y-83432352D01*
G36*
X99079437Y-80707352D02*
X99183400Y-80868914D01*
X99140000Y-80973690D01*
X99140000Y-81439250D01*
X99298750Y-81598000D01*
X100398000Y-81598000D01*
X100398000Y-81578000D01*
X100652000Y-81578000D01*
X100652000Y-81598000D01*
X100672000Y-81598000D01*
X100672000Y-81852000D01*
X100652000Y-81852000D01*
X100652000Y-81872000D01*
X100398000Y-81872000D01*
X100398000Y-81852000D01*
X99298750Y-81852000D01*
X99140000Y-82010750D01*
X99140000Y-82476310D01*
X99236673Y-82709699D01*
X99415302Y-82888327D01*
X99648691Y-82985000D01*
X100239250Y-82985000D01*
X100285717Y-82938533D01*
X100285717Y-86920000D01*
X100297401Y-86982096D01*
X100297303Y-86990717D01*
X99925000Y-86990717D01*
X99709621Y-87031243D01*
X99451912Y-86859049D01*
X99145000Y-86797999D01*
X99144995Y-86798000D01*
X98705243Y-86798000D01*
X98738917Y-86748717D01*
X98789283Y-86500000D01*
X98789283Y-85200000D01*
X98745563Y-84967648D01*
X98608243Y-84754247D01*
X98398717Y-84611083D01*
X98150000Y-84560717D01*
X96650000Y-84560717D01*
X96417648Y-84604437D01*
X96204247Y-84741757D01*
X96061083Y-84951283D01*
X96051442Y-84998892D01*
X96045563Y-84967648D01*
X95908243Y-84754247D01*
X95698717Y-84611083D01*
X95502000Y-84571247D01*
X95502000Y-82040000D01*
X95480133Y-81930067D01*
X96783200Y-80627000D01*
X99064318Y-80627000D01*
X99079437Y-80707352D01*
X99079437Y-80707352D01*
G37*
X99079437Y-80707352D02*
X99183400Y-80868914D01*
X99140000Y-80973690D01*
X99140000Y-81439250D01*
X99298750Y-81598000D01*
X100398000Y-81598000D01*
X100398000Y-81578000D01*
X100652000Y-81578000D01*
X100652000Y-81598000D01*
X100672000Y-81598000D01*
X100672000Y-81852000D01*
X100652000Y-81852000D01*
X100652000Y-81872000D01*
X100398000Y-81872000D01*
X100398000Y-81852000D01*
X99298750Y-81852000D01*
X99140000Y-82010750D01*
X99140000Y-82476310D01*
X99236673Y-82709699D01*
X99415302Y-82888327D01*
X99648691Y-82985000D01*
X100239250Y-82985000D01*
X100285717Y-82938533D01*
X100285717Y-86920000D01*
X100297401Y-86982096D01*
X100297303Y-86990717D01*
X99925000Y-86990717D01*
X99709621Y-87031243D01*
X99451912Y-86859049D01*
X99145000Y-86797999D01*
X99144995Y-86798000D01*
X98705243Y-86798000D01*
X98738917Y-86748717D01*
X98789283Y-86500000D01*
X98789283Y-85200000D01*
X98745563Y-84967648D01*
X98608243Y-84754247D01*
X98398717Y-84611083D01*
X98150000Y-84560717D01*
X96650000Y-84560717D01*
X96417648Y-84604437D01*
X96204247Y-84741757D01*
X96061083Y-84951283D01*
X96051442Y-84998892D01*
X96045563Y-84967648D01*
X95908243Y-84754247D01*
X95698717Y-84611083D01*
X95502000Y-84571247D01*
X95502000Y-82040000D01*
X95480133Y-81930067D01*
X96783200Y-80627000D01*
X99064318Y-80627000D01*
X99079437Y-80707352D01*
M02*
