M48
;DRILL file {KiCad 4.0.7} date 04/28/20 20:56:55
;FORMAT={-:-/ absolute / metric / decimal}
FMAT,2
METRIC,TZ
T1C0.400
T2C1.000
%
G90
G05
M71
T1
X65.6Y-100.99
X65.6Y-102.64
X65.7Y-99.275
X65.75Y-97.525
X65.8Y-95.87
X66.02Y-104.75
X66.2Y-94.14
X66.5Y-106.5
X67.71Y-92.1
X67.85Y-81.925
X68.125Y-80.975
X68.5Y-80.
X68.5Y-106.5
X68.95Y-99.45
X69.6Y-79.
X70.75Y-106.5
X71.11Y-83.24
X71.2Y-78.6
X72.21Y-82.33
X72.75Y-106.5
X73.1Y-78.6
X73.47Y-83.1
X74.55Y-98.575
X74.66Y-93.25
X74.8Y-106.5
X74.9Y-78.5
X75.7Y-99.6
X76.75Y-94.47
X76.8Y-106.4
X77.Y-78.5
X77.51Y-93.62
X77.52Y-85.7
X78.5Y-106.4
X79.2Y-78.4
X79.78Y-85.66
X79.98Y-86.63
X80.1Y-106.3
X81.16Y-95.45
X81.24Y-93.67
X81.4Y-78.5
X81.6Y-106.4
X82.01Y-94.5
X83.3Y-78.4
X83.5Y-106.5
X83.675Y-91.925
X84.525Y-93.175
X84.68Y-95.49
X85.Y-78.5
X85.3Y-106.5
X85.58Y-95.6
X85.85Y-96.48
X86.56Y-91.55
X86.87Y-99.97
X86.9Y-78.5
X87.1Y-106.5
X88.48Y-101.59
X88.7Y-106.5
X89.Y-78.5
X89.44Y-100.17
X90.6Y-106.5
X91.1Y-78.4
X92.6Y-106.5
X93.1Y-78.5
X94.5Y-90.4
X94.53Y-91.81
X94.64Y-94.29
X94.69Y-95.61
X94.8Y-106.5
X94.9Y-78.6
X96.6Y-78.6
X96.81Y-94.43
X96.9Y-106.4
X96.95Y-91.3
X98.325Y-103.3
X98.4Y-78.6
X99.5Y-106.6
X99.8Y-101.85
X99.85Y-104.5
X100.65Y-104.65
X101.175Y-106.525
X101.24Y-102.66
X102.02Y-90.8
X102.05Y-92.
X102.3Y-84.99
X102.38Y-85.76
X102.7Y-102.58
X103.124Y-92.456
X103.37Y-84.76
T2
X67.375Y-101.55
X67.4Y-97.65
X71.8Y-101.425
X75.6Y-101.4
X115.5Y-83.3
X115.7Y-87.6
X115.775Y-97.475
X115.824Y-93.218
T0
M30
