G04 #@! TF.FileFunction,Copper,L1,Top,Signal*
%FSLAX46Y46*%
G04 Gerber Fmt 4.6, Leading zero omitted, Abs format (unit mm)*
G04 Created by KiCad (PCBNEW 4.0.7) date 04/28/20 20:56:53*
%MOMM*%
%LPD*%
G01*
G04 APERTURE LIST*
%ADD10C,0.100000*%
%ADD11R,1.500000X1.250000*%
%ADD12R,1.500000X1.300000*%
%ADD13R,1.300000X1.500000*%
%ADD14R,1.250000X1.500000*%
%ADD15R,4.000000X1.500000*%
%ADD16R,2.000000X2.000000*%
%ADD17R,5.080000X2.500000*%
%ADD18R,5.080000X1.500000*%
%ADD19R,0.800000X0.900000*%
%ADD20R,0.900000X0.800000*%
%ADD21C,0.600000*%
%ADD22C,0.350000*%
%ADD23C,0.500000*%
%ADD24C,1.500000*%
%ADD25C,0.254000*%
G04 APERTURE END LIST*
D10*
D11*
X95810000Y-87560000D03*
X98310000Y-87560000D03*
D12*
X100750000Y-91300000D03*
X103450000Y-91300000D03*
X81410000Y-86560000D03*
X78710000Y-86560000D03*
D11*
X109950000Y-97500000D03*
X112450000Y-97500000D03*
X95750000Y-96700000D03*
X98250000Y-96700000D03*
X89682000Y-86614000D03*
X92182000Y-86614000D03*
X77380000Y-88550000D03*
X79880000Y-88550000D03*
X84890000Y-91840000D03*
X82390000Y-91840000D03*
D13*
X99725000Y-100525000D03*
X99725000Y-103225000D03*
D12*
X95700000Y-98550000D03*
X98400000Y-98550000D03*
X85870000Y-98310000D03*
X83170000Y-98310000D03*
X90550000Y-93825000D03*
X93250000Y-93825000D03*
X90550000Y-92000000D03*
X93250000Y-92000000D03*
X73050000Y-98825000D03*
X70350000Y-98825000D03*
X70325000Y-95650000D03*
X73025000Y-95650000D03*
D14*
X101650000Y-103900000D03*
X101650000Y-101400000D03*
D11*
X109950000Y-87600000D03*
X112450000Y-87600000D03*
D15*
X115775000Y-97475000D03*
X115824000Y-93218000D03*
D16*
X71800000Y-101425000D03*
X75600000Y-101400000D03*
X67400000Y-97650000D03*
X67375000Y-101550000D03*
D12*
X103500000Y-95625000D03*
X100800000Y-95625000D03*
X85140000Y-89950000D03*
X82440000Y-89950000D03*
D17*
X67710000Y-84600000D03*
X67710000Y-92100000D03*
D18*
X67710000Y-88350000D03*
D12*
X95750000Y-89500000D03*
X98450000Y-89500000D03*
D11*
X103500000Y-85710000D03*
X101000000Y-85710000D03*
D15*
X115500000Y-83300000D03*
X115700000Y-87600000D03*
D12*
X103650000Y-83540000D03*
X100950000Y-83540000D03*
D13*
X88430000Y-94710000D03*
X88430000Y-97410000D03*
X88430000Y-89710000D03*
X88430000Y-92410000D03*
D11*
X85590000Y-100170000D03*
X88090000Y-100170000D03*
D14*
X76000000Y-98225000D03*
X76000000Y-95725000D03*
D13*
X103650000Y-101250000D03*
X103650000Y-103950000D03*
D12*
X95810000Y-83760000D03*
X98510000Y-83760000D03*
X80820000Y-100140000D03*
X83520000Y-100140000D03*
X98525000Y-85700000D03*
X95825000Y-85700000D03*
X83900000Y-84582000D03*
X81200000Y-84582000D03*
D11*
X95770000Y-91410000D03*
X98270000Y-91410000D03*
X95780000Y-94640000D03*
X98280000Y-94640000D03*
D12*
X97750000Y-100475000D03*
X95050000Y-100475000D03*
D19*
X103250000Y-87475000D03*
X101350000Y-87475000D03*
X102300000Y-89475000D03*
X85450000Y-86425000D03*
X83550000Y-86425000D03*
X84500000Y-88425000D03*
X83110000Y-94580000D03*
X81210000Y-94580000D03*
X82160000Y-96580000D03*
D20*
X92100000Y-97625000D03*
X92100000Y-95725000D03*
X90100000Y-96675000D03*
X84750000Y-94500000D03*
X84750000Y-96400000D03*
X86750000Y-95450000D03*
D19*
X92125000Y-88275000D03*
X90225000Y-88275000D03*
X91175000Y-90275000D03*
X103375000Y-97375000D03*
X101475000Y-97375000D03*
X102425000Y-99375000D03*
D13*
X76020000Y-90520000D03*
X76020000Y-93220000D03*
D12*
X75010000Y-88646000D03*
X72310000Y-88646000D03*
D13*
X72240000Y-86470000D03*
X72240000Y-83770000D03*
D12*
X105150000Y-97500000D03*
X107850000Y-97500000D03*
X105070000Y-87520000D03*
X107770000Y-87520000D03*
X86026000Y-84582000D03*
X88726000Y-84582000D03*
D21*
X77520000Y-85700000D03*
X79780000Y-85660000D03*
X79980000Y-86630000D03*
X71110000Y-83240000D03*
X73470000Y-83100000D03*
X72210000Y-82330000D03*
X76750000Y-94470000D03*
X74660000Y-93250000D03*
X77510000Y-93620000D03*
X81160000Y-95450000D03*
X81240000Y-93670000D03*
X82010000Y-94500000D03*
X103370000Y-84760000D03*
X102300000Y-84990000D03*
X102380000Y-85760000D03*
X85850000Y-96480000D03*
X85580000Y-95600000D03*
X84680000Y-95490000D03*
X86560000Y-91550000D03*
X86870000Y-99970000D03*
X88480000Y-101590000D03*
X89440000Y-100170000D03*
X83675000Y-91925000D03*
X84525000Y-93175000D03*
X68950000Y-99450000D03*
X75700000Y-99600000D03*
X74550000Y-98575000D03*
X94530000Y-91810000D03*
X94690000Y-95610000D03*
X94640000Y-94290000D03*
X96810000Y-94430000D03*
X100650000Y-104650000D03*
X99850000Y-104500000D03*
X98325000Y-103300000D03*
X99800000Y-101850000D03*
X102700000Y-102580000D03*
X96950000Y-91300000D03*
X94500000Y-90400000D03*
X102050000Y-92000000D03*
X102020000Y-90800000D03*
X103124000Y-92456000D03*
X66200000Y-94140000D03*
X65800000Y-95870000D03*
X65750000Y-97525000D03*
X65700000Y-99275000D03*
X65600000Y-100990000D03*
X65600000Y-102640000D03*
X66020000Y-104750000D03*
X66500000Y-106500000D03*
X68500000Y-106500000D03*
X70750000Y-106500000D03*
X72750000Y-106500000D03*
X74800000Y-106500000D03*
X98400000Y-78600000D03*
X96600000Y-78600000D03*
X94900000Y-78600000D03*
X93100000Y-78500000D03*
X91100000Y-78400000D03*
X89000000Y-78500000D03*
X86900000Y-78500000D03*
X85000000Y-78500000D03*
X83300000Y-78400000D03*
X81400000Y-78500000D03*
X79200000Y-78400000D03*
X77000000Y-78500000D03*
X74900000Y-78500000D03*
X73100000Y-78600000D03*
X71200000Y-78600000D03*
X69600000Y-79000000D03*
X68500000Y-80000000D03*
X68125000Y-80975000D03*
X67850000Y-81925000D03*
X101175000Y-106525000D03*
X99500000Y-106600000D03*
X96900000Y-106400000D03*
X94800000Y-106500000D03*
X92600000Y-106500000D03*
X90600000Y-106500000D03*
X88700000Y-106500000D03*
X87100000Y-106500000D03*
X85300000Y-106500000D03*
X83500000Y-106500000D03*
X81600000Y-106400000D03*
X80100000Y-106300000D03*
X78500000Y-106400000D03*
X76800000Y-106400000D03*
X67710000Y-92100000D03*
X101240000Y-102660000D03*
D22*
X78710000Y-86560000D02*
X78380000Y-86560000D01*
X78380000Y-86560000D02*
X77520000Y-85700000D01*
X78710000Y-86560000D02*
X78880000Y-86560000D01*
X78880000Y-86560000D02*
X79780000Y-85660000D01*
X78710000Y-86560000D02*
X79910000Y-86560000D01*
X79910000Y-86560000D02*
X79980000Y-86630000D01*
X72240000Y-83770000D02*
X71640000Y-83770000D01*
X71640000Y-83770000D02*
X71110000Y-83240000D01*
X72240000Y-83770000D02*
X72800000Y-83770000D01*
X72800000Y-83770000D02*
X73470000Y-83100000D01*
X72240000Y-83770000D02*
X72240000Y-82360000D01*
X72240000Y-82360000D02*
X72210000Y-82330000D01*
X76020000Y-93220000D02*
X76020000Y-93740000D01*
X76020000Y-93740000D02*
X76750000Y-94470000D01*
X76020000Y-93220000D02*
X74690000Y-93220000D01*
X74690000Y-93220000D02*
X74660000Y-93250000D01*
X76020000Y-93220000D02*
X77110000Y-93220000D01*
X77110000Y-93220000D02*
X77510000Y-93620000D01*
X81210000Y-94580000D02*
X81210000Y-95400000D01*
X81210000Y-95400000D02*
X81160000Y-95450000D01*
X81210000Y-94580000D02*
X81210000Y-93700000D01*
X81210000Y-93700000D02*
X81240000Y-93670000D01*
X81210000Y-94580000D02*
X81930000Y-94580000D01*
X81930000Y-94580000D02*
X82010000Y-94500000D01*
X103500000Y-85710000D02*
X103500000Y-84890000D01*
X103500000Y-84890000D02*
X103370000Y-84760000D01*
X103500000Y-85710000D02*
X103500000Y-85630000D01*
X103500000Y-85630000D02*
X102860000Y-84990000D01*
X102860000Y-84990000D02*
X102300000Y-84990000D01*
X103500000Y-85710000D02*
X102430000Y-85710000D01*
X102430000Y-85710000D02*
X102380000Y-85760000D01*
X84750000Y-96400000D02*
X85770000Y-96400000D01*
X85770000Y-96400000D02*
X85850000Y-96480000D01*
X84750000Y-96400000D02*
X84780000Y-96400000D01*
X84780000Y-96400000D02*
X85580000Y-95600000D01*
X84750000Y-96400000D02*
X84750000Y-95560000D01*
X84750000Y-95560000D02*
X84680000Y-95490000D01*
X84890000Y-91840000D02*
X86270000Y-91840000D01*
X86270000Y-91840000D02*
X86560000Y-91550000D01*
X88090000Y-100170000D02*
X87070000Y-100170000D01*
X87070000Y-100170000D02*
X86870000Y-99970000D01*
X88090000Y-100170000D02*
X88090000Y-101200000D01*
X88090000Y-101200000D02*
X88480000Y-101590000D01*
X88090000Y-100170000D02*
X89440000Y-100170000D01*
X84890000Y-91840000D02*
X83760000Y-91840000D01*
X83760000Y-91840000D02*
X83675000Y-91925000D01*
X84890000Y-91840000D02*
X84890000Y-92810000D01*
X84890000Y-92810000D02*
X84525000Y-93175000D01*
X84890000Y-91840000D02*
X84890000Y-92165000D01*
X70350000Y-98825000D02*
X69575000Y-98825000D01*
X69575000Y-98825000D02*
X68950000Y-99450000D01*
X76000000Y-98225000D02*
X76000000Y-99300000D01*
X76000000Y-99300000D02*
X75700000Y-99600000D01*
X76000000Y-98225000D02*
X74900000Y-98225000D01*
X74900000Y-98225000D02*
X74550000Y-98575000D01*
X95770000Y-91410000D02*
X94930000Y-91410000D01*
X94930000Y-91410000D02*
X94530000Y-91810000D01*
X95780000Y-94640000D02*
X95290000Y-94640000D01*
X95290000Y-94640000D02*
X94690000Y-95610000D01*
X95780000Y-94640000D02*
X94990000Y-94640000D01*
X94990000Y-94640000D02*
X94640000Y-94290000D01*
X95780000Y-94640000D02*
X96600000Y-94640000D01*
X96600000Y-94640000D02*
X96810000Y-94430000D01*
X101650000Y-103900000D02*
X101650000Y-104625000D01*
X101650000Y-104625000D02*
X100650000Y-104650000D01*
X99725000Y-103225000D02*
X99725000Y-104375000D01*
X99725000Y-104375000D02*
X99850000Y-104500000D01*
X99725000Y-103225000D02*
X98400000Y-103225000D01*
X98400000Y-103225000D02*
X98325000Y-103300000D01*
X99725000Y-103225000D02*
X99725000Y-101925000D01*
X99725000Y-101925000D02*
X99800000Y-101850000D01*
X95770000Y-91410000D02*
X96840000Y-91410000D01*
X96840000Y-91410000D02*
X96950000Y-91300000D01*
X95770000Y-91410000D02*
X95510000Y-91410000D01*
X95510000Y-91410000D02*
X94500000Y-90400000D01*
X76000000Y-98225000D02*
X76000000Y-97800000D01*
X103450000Y-91300000D02*
X103210000Y-91300000D01*
X103210000Y-91300000D02*
X102510000Y-92000000D01*
X102510000Y-92000000D02*
X102050000Y-92000000D01*
X103450000Y-91300000D02*
X103070000Y-91300000D01*
X103070000Y-91300000D02*
X102570000Y-90800000D01*
X102570000Y-90800000D02*
X102020000Y-90800000D01*
X103450000Y-91300000D02*
X103510000Y-91300000D01*
X103510000Y-91300000D02*
X103378000Y-91948000D01*
X103378000Y-91948000D02*
X103124000Y-92456000D01*
X99725000Y-103225000D02*
X99725000Y-103105000D01*
X99750000Y-103250000D02*
X99725000Y-103225000D01*
X101650000Y-103900000D02*
X101650000Y-103630000D01*
X101650000Y-103630000D02*
X102700000Y-102580000D01*
X76800000Y-106400000D02*
X74850000Y-106450000D01*
X66200000Y-94140000D02*
X67710000Y-93200000D01*
X65750000Y-97525000D02*
X65800000Y-95870000D01*
X65600000Y-100990000D02*
X65700000Y-99275000D01*
X65690000Y-103140000D02*
X65600000Y-102640000D01*
X66020000Y-104750000D02*
X65690000Y-103140000D01*
X68450000Y-106450000D02*
X66500000Y-106500000D01*
X68500000Y-106500000D02*
X68450000Y-106450000D01*
X72750000Y-106500000D02*
X70750000Y-106500000D01*
X74850000Y-106450000D02*
X74800000Y-106500000D01*
X67710000Y-93200000D02*
X67710000Y-92100000D01*
X67710000Y-84600000D02*
X67575000Y-82425000D01*
X96600000Y-78600000D02*
X98400000Y-78600000D01*
X93100000Y-78500000D02*
X94900000Y-78600000D01*
X89000000Y-78500000D02*
X91100000Y-78400000D01*
X85000000Y-78500000D02*
X86900000Y-78500000D01*
X81500000Y-78600000D02*
X83300000Y-78400000D01*
X81400000Y-78500000D02*
X81500000Y-78600000D01*
X77000000Y-78500000D02*
X79200000Y-78400000D01*
X73200000Y-78500000D02*
X74900000Y-78500000D01*
X73100000Y-78600000D02*
X73200000Y-78500000D01*
X70000000Y-78600000D02*
X71200000Y-78600000D01*
X69600000Y-79000000D02*
X70000000Y-78600000D01*
X68500000Y-80100000D02*
X68500000Y-80000000D01*
X68125000Y-80975000D02*
X68500000Y-80100000D01*
X67575000Y-82425000D02*
X67850000Y-81925000D01*
X98100000Y-106500000D02*
X99500000Y-106600000D01*
X96900000Y-106400000D02*
X98100000Y-106500000D01*
X92600000Y-106500000D02*
X94800000Y-106500000D01*
X88700000Y-106500000D02*
X90600000Y-106500000D01*
X85300000Y-106500000D02*
X87100000Y-106500000D01*
X81700000Y-106300000D02*
X83500000Y-106500000D01*
X81600000Y-106400000D02*
X81700000Y-106300000D01*
X78600000Y-106500000D02*
X80100000Y-106300000D01*
X78500000Y-106400000D02*
X78600000Y-106500000D01*
X76500000Y-106400000D02*
X76800000Y-106400000D01*
D23*
X75250000Y-101050000D02*
X75600000Y-101400000D01*
D22*
X95682000Y-91296000D02*
X95782000Y-91396000D01*
X101650000Y-103900000D02*
X101650000Y-103070000D01*
X101650000Y-103070000D02*
X101240000Y-102660000D01*
D24*
X109950000Y-97500000D02*
X107850000Y-97500000D01*
D23*
X108395000Y-97305000D02*
X108175000Y-97525000D01*
X108395000Y-97305000D02*
X108175000Y-97525000D01*
D24*
X115775000Y-97475000D02*
X112475000Y-97475000D01*
X112475000Y-97475000D02*
X112450000Y-97500000D01*
D22*
X95750000Y-96700000D02*
X93025000Y-96700000D01*
X93025000Y-96700000D02*
X92100000Y-97625000D01*
X95750000Y-96700000D02*
X95750000Y-98500000D01*
X95750000Y-98500000D02*
X95700000Y-98550000D01*
X95625000Y-98475000D02*
X95700000Y-98550000D01*
X92130000Y-97595000D02*
X92100000Y-97625000D01*
X100450000Y-97375000D02*
X100450000Y-99800000D01*
X100450000Y-99800000D02*
X99725000Y-100525000D01*
X99600000Y-101050000D02*
X99875000Y-100775000D01*
X99725000Y-100525000D02*
X99725000Y-100325000D01*
X98250000Y-96700000D02*
X98900000Y-96700000D01*
X98900000Y-96700000D02*
X99575000Y-97375000D01*
X99575000Y-97375000D02*
X100450000Y-97375000D01*
X100450000Y-97375000D02*
X101475000Y-97375000D01*
X98250000Y-96700000D02*
X98895000Y-96700000D01*
X89682000Y-86614000D02*
X89682000Y-85538000D01*
X89682000Y-85538000D02*
X88726000Y-84582000D01*
X91175000Y-90275000D02*
X91175000Y-87621000D01*
X91175000Y-87621000D02*
X92182000Y-86614000D01*
X91180000Y-90270000D02*
X91175000Y-90275000D01*
X91175000Y-90275000D02*
X90130000Y-91580000D01*
X90130000Y-91580000D02*
X90550000Y-92000000D01*
X75010000Y-88646000D02*
X75010000Y-89510000D01*
X75010000Y-89510000D02*
X76020000Y-90520000D01*
X77380000Y-88550000D02*
X75106000Y-88550000D01*
X75106000Y-88550000D02*
X75010000Y-88646000D01*
X81410000Y-86560000D02*
X81410000Y-87020000D01*
X81410000Y-87020000D02*
X79880000Y-88550000D01*
X83550000Y-86425000D02*
X81545000Y-86425000D01*
X81545000Y-86425000D02*
X81410000Y-86560000D01*
X100750000Y-91300000D02*
X100750000Y-88075000D01*
X100750000Y-88075000D02*
X101350000Y-87475000D01*
X101350000Y-87475000D02*
X98410000Y-87460000D01*
X98410000Y-87460000D02*
X98310000Y-87560000D01*
X100425000Y-90975000D02*
X100750000Y-91300000D01*
X73025000Y-95650000D02*
X73025000Y-93775000D01*
X82710000Y-82970000D02*
X82710000Y-83025000D01*
X77630000Y-82970000D02*
X82710000Y-82970000D01*
X73640000Y-86960000D02*
X77630000Y-82970000D01*
X73640000Y-93160000D02*
X73640000Y-86960000D01*
X73025000Y-93775000D02*
X73640000Y-93160000D01*
X80820000Y-100140000D02*
X80320000Y-100140000D01*
X80320000Y-100140000D02*
X78585000Y-101875000D01*
X82100000Y-103160000D02*
X79870000Y-103160000D01*
X77095000Y-95725000D02*
X76000000Y-95725000D01*
X77310000Y-95940000D02*
X77095000Y-95725000D01*
X77310000Y-100600000D02*
X77310000Y-95940000D01*
X79870000Y-103160000D02*
X78585000Y-101875000D01*
X78585000Y-101875000D02*
X77310000Y-100600000D01*
X73025000Y-95650000D02*
X73025000Y-95500000D01*
X95050000Y-103000000D02*
X95050000Y-100475000D01*
X92525000Y-103160000D02*
X95050000Y-103000000D01*
X103650000Y-105075000D02*
X103650000Y-103950000D01*
X103050000Y-105675000D02*
X103650000Y-105075000D01*
X97725000Y-105675000D02*
X103050000Y-105675000D01*
X95050000Y-103000000D02*
X97725000Y-105675000D01*
X92975000Y-83025000D02*
X95075000Y-83025000D01*
X82710000Y-83025000D02*
X92975000Y-83025000D01*
X95075000Y-83025000D02*
X95810000Y-83760000D01*
X95810000Y-83760000D02*
X95810000Y-85685000D01*
X95810000Y-85685000D02*
X95825000Y-85700000D01*
D23*
X67400000Y-97650000D02*
X67400000Y-95750000D01*
X73025000Y-94525000D02*
X73025000Y-95650000D01*
X72550000Y-94050000D02*
X73025000Y-94525000D01*
X69100000Y-94050000D02*
X72550000Y-94050000D01*
X67400000Y-95750000D02*
X69100000Y-94050000D01*
D22*
X76000000Y-95725000D02*
X73100000Y-95725000D01*
X73100000Y-95725000D02*
X73025000Y-95650000D01*
X80820000Y-100140000D02*
X80820000Y-100555000D01*
X82075000Y-103160000D02*
X82100000Y-103160000D01*
X82100000Y-103160000D02*
X92525000Y-103160000D01*
X81200000Y-84582000D02*
X81200000Y-83950000D01*
X81200000Y-83950000D02*
X82125000Y-83025000D01*
X82125000Y-83025000D02*
X82710000Y-83025000D01*
X96400000Y-83575000D02*
X96725000Y-83575000D01*
X96725000Y-83575000D02*
X96540000Y-83760000D01*
X96540000Y-83760000D02*
X95810000Y-83760000D01*
X103650000Y-103950000D02*
X103650000Y-104575000D01*
X95350000Y-100475000D02*
X95050000Y-100475000D01*
X95810000Y-85685000D02*
X95825000Y-85700000D01*
X73025000Y-95650000D02*
X73150000Y-95650000D01*
X73275000Y-95900000D02*
X73025000Y-95650000D01*
X67400000Y-97650000D02*
X67400000Y-97300000D01*
X70325000Y-95650000D02*
X70325000Y-96100000D01*
X70325000Y-96100000D02*
X73050000Y-98825000D01*
X70325000Y-95650000D02*
X70325000Y-96150000D01*
D23*
X71800000Y-101425000D02*
X67500000Y-101425000D01*
X67500000Y-101425000D02*
X67375000Y-101550000D01*
X67475000Y-101450000D02*
X67375000Y-101550000D01*
D24*
X109950000Y-87600000D02*
X107800000Y-87550000D01*
X107800000Y-87550000D02*
X107770000Y-87520000D01*
D22*
X107800000Y-87550000D02*
X107770000Y-87520000D01*
D23*
X108350000Y-87325000D02*
X108125000Y-87550000D01*
D24*
X115700000Y-87600000D02*
X112450000Y-87600000D01*
D22*
X92125000Y-88275000D02*
X95095000Y-88275000D01*
X95095000Y-88275000D02*
X95810000Y-87560000D01*
X95750000Y-87620000D02*
X95810000Y-87560000D01*
X95750000Y-89500000D02*
X95750000Y-87620000D01*
X95750000Y-87620000D02*
X95810000Y-87560000D01*
X95760000Y-87610000D02*
X95810000Y-87560000D01*
X92100000Y-95725000D02*
X91325000Y-95725000D01*
X90680000Y-97990000D02*
X89010000Y-97990000D01*
X91070000Y-97600000D02*
X90680000Y-97990000D01*
X91070000Y-95980000D02*
X91070000Y-97600000D01*
X91325000Y-95725000D02*
X91070000Y-95980000D01*
X89010000Y-97990000D02*
X88430000Y-97410000D01*
X88720000Y-97700000D02*
X88430000Y-97410000D01*
D23*
X88610000Y-97590000D02*
X88430000Y-97410000D01*
X88920000Y-96920000D02*
X88430000Y-97410000D01*
D22*
X103650000Y-101250000D02*
X101800000Y-101250000D01*
X101800000Y-101250000D02*
X101650000Y-101400000D01*
X102425000Y-99375000D02*
X102150000Y-99375000D01*
X102150000Y-99375000D02*
X101650000Y-99875000D01*
X101650000Y-99875000D02*
X101650000Y-101400000D01*
X100800000Y-95625000D02*
X101650000Y-95625000D01*
X102300000Y-96275000D02*
X102300000Y-99250000D01*
X101650000Y-95625000D02*
X102300000Y-96275000D01*
X102300000Y-99250000D02*
X102425000Y-99375000D01*
X103500000Y-101400000D02*
X103650000Y-101250000D01*
X100950000Y-83540000D02*
X98730000Y-83540000D01*
X98730000Y-83540000D02*
X98510000Y-83760000D01*
X101000000Y-85710000D02*
X101120000Y-85710000D01*
X101120000Y-85710000D02*
X102300000Y-86890000D01*
X102300000Y-86890000D02*
X102300000Y-89475000D01*
X98660000Y-83610000D02*
X98510000Y-83760000D01*
X98510000Y-83760000D02*
X100880000Y-85830000D01*
X100880000Y-85830000D02*
X101000000Y-85710000D01*
X98300000Y-83970000D02*
X98510000Y-83760000D01*
X84500000Y-88425000D02*
X84500000Y-85182000D01*
X84500000Y-85182000D02*
X83900000Y-84582000D01*
X84500000Y-88425000D02*
X84440000Y-88425000D01*
X84440000Y-88425000D02*
X82440000Y-89950000D01*
X82440000Y-89950000D02*
X82440000Y-91790000D01*
X82440000Y-91790000D02*
X82390000Y-91840000D01*
X84074000Y-84756000D02*
X83900000Y-84582000D01*
X85870000Y-98310000D02*
X85870000Y-99890000D01*
X85870000Y-99890000D02*
X85590000Y-100170000D01*
X85590000Y-100170000D02*
X83590000Y-100210000D01*
X83590000Y-100210000D02*
X83520000Y-100140000D01*
X98270000Y-91410000D02*
X98270000Y-91520000D01*
X98270000Y-91520000D02*
X97070000Y-92720000D01*
X94160000Y-92720000D02*
X93250000Y-92490000D01*
X97070000Y-92720000D02*
X94160000Y-92720000D01*
X93250000Y-92490000D02*
X93250000Y-92000000D01*
X93250000Y-92000000D02*
X93350000Y-92000000D01*
X98450000Y-89500000D02*
X98450000Y-91230000D01*
X98450000Y-91230000D02*
X98270000Y-91410000D01*
X98450000Y-89500000D02*
X97630000Y-89500000D01*
X97020000Y-86560000D02*
X97880000Y-85700000D01*
X97020000Y-88890000D02*
X97020000Y-86560000D01*
X97630000Y-89500000D02*
X97020000Y-88890000D01*
X97880000Y-85700000D02*
X98525000Y-85700000D01*
X98525000Y-85700000D02*
X97775000Y-85700000D01*
X98370000Y-91310000D02*
X98270000Y-91410000D01*
X93250000Y-93825000D02*
X93250000Y-93645000D01*
X93250000Y-93645000D02*
X94210000Y-93330000D01*
X96970000Y-93330000D02*
X98280000Y-94640000D01*
X94210000Y-93330000D02*
X96970000Y-93330000D01*
X98400000Y-98550000D02*
X98400000Y-99825000D01*
X98400000Y-99825000D02*
X97750000Y-100475000D01*
X98400000Y-98550000D02*
X97900000Y-98550000D01*
X97900000Y-98550000D02*
X96950000Y-97600000D01*
X96950000Y-95650000D02*
X97960000Y-94640000D01*
X96950000Y-97600000D02*
X96950000Y-95650000D01*
X97960000Y-94640000D02*
X98280000Y-94640000D01*
X93250000Y-93825000D02*
X93250000Y-93575000D01*
X98280000Y-94130000D02*
X98280000Y-94640000D01*
X97750000Y-100475000D02*
X97100000Y-100475000D01*
X97775000Y-98550000D02*
X98400000Y-98550000D01*
X98280000Y-94790000D02*
X98280000Y-94640000D01*
D23*
X93324000Y-93751000D02*
X93250000Y-93825000D01*
D22*
X83110000Y-96700000D02*
X82280000Y-96700000D01*
X82280000Y-96700000D02*
X82160000Y-96580000D01*
X83110000Y-94580000D02*
X83110000Y-96700000D01*
X83110000Y-96700000D02*
X83110000Y-98250000D01*
X83110000Y-98250000D02*
X83170000Y-98310000D01*
X84750000Y-94500000D02*
X83190000Y-94500000D01*
X83190000Y-94500000D02*
X83110000Y-94580000D01*
X90100000Y-96675000D02*
X90090000Y-94285000D01*
X90090000Y-94285000D02*
X90550000Y-93825000D01*
X90090000Y-94285000D02*
X90550000Y-93825000D01*
X86750000Y-95450000D02*
X87690000Y-95450000D01*
X87690000Y-95450000D02*
X88430000Y-94710000D01*
X88290000Y-94570000D02*
X88430000Y-94710000D01*
X88430000Y-92410000D02*
X88320000Y-94600000D01*
X88320000Y-94600000D02*
X88430000Y-94710000D01*
D23*
X88200000Y-94940000D02*
X88430000Y-94710000D01*
X88350000Y-94630000D02*
X88430000Y-94710000D01*
D22*
X88430000Y-89710000D02*
X88930000Y-89710000D01*
X88930000Y-89710000D02*
X90225000Y-88275000D01*
X88430000Y-89710000D02*
X88430000Y-89570000D01*
X72240000Y-86470000D02*
X72240000Y-88576000D01*
X72240000Y-88576000D02*
X72310000Y-88646000D01*
X72310000Y-88646000D02*
X68006000Y-88646000D01*
X68006000Y-88646000D02*
X67710000Y-88350000D01*
D23*
X67910000Y-88550000D02*
X67710000Y-88350000D01*
D22*
X105525000Y-97375000D02*
X105675000Y-97525000D01*
X103375000Y-97375000D02*
X103375000Y-95750000D01*
X103375000Y-95750000D02*
X103500000Y-95625000D01*
X103375000Y-97375000D02*
X105525000Y-97375000D01*
X105625000Y-84375000D02*
X105625000Y-87550000D01*
X105375000Y-87300000D02*
X105625000Y-87550000D01*
X104860000Y-83610000D02*
X105625000Y-84375000D01*
X103650000Y-83540000D02*
X104860000Y-83610000D01*
X105625000Y-87550000D02*
X103325000Y-87550000D01*
X103325000Y-87550000D02*
X103250000Y-87475000D01*
X86026000Y-84582000D02*
X86026000Y-85849000D01*
X86026000Y-85849000D02*
X85450000Y-86425000D01*
X85450000Y-86425000D02*
X85450000Y-86750000D01*
X85450000Y-86750000D02*
X85675000Y-86975000D01*
X85675000Y-86975000D02*
X85675000Y-89415000D01*
X85675000Y-89415000D02*
X85140000Y-89950000D01*
X85600000Y-86575000D02*
X85450000Y-86425000D01*
X85140000Y-89950000D02*
X85140000Y-89485000D01*
D25*
G36*
X70964437Y-89528352D02*
X71101757Y-89741753D01*
X71311283Y-89884917D01*
X71560000Y-89935283D01*
X72838000Y-89935283D01*
X72838000Y-92827801D01*
X72492800Y-93173000D01*
X70885000Y-93173000D01*
X70885000Y-92385750D01*
X70726250Y-92227000D01*
X67837000Y-92227000D01*
X67837000Y-93826250D01*
X67960242Y-93949492D01*
X66779867Y-95129867D01*
X66589758Y-95414387D01*
X66523000Y-95750000D01*
X66523000Y-96010717D01*
X66400000Y-96010717D01*
X66167648Y-96054437D01*
X65954247Y-96191757D01*
X65811083Y-96401283D01*
X65760717Y-96650000D01*
X65760717Y-98650000D01*
X65804437Y-98882352D01*
X65941757Y-99095753D01*
X66151283Y-99238917D01*
X66400000Y-99289283D01*
X68400000Y-99289283D01*
X68632352Y-99245563D01*
X68845753Y-99108243D01*
X68965000Y-98933720D01*
X68965000Y-98952002D01*
X69123748Y-98952002D01*
X68965000Y-99110750D01*
X68965000Y-99601310D01*
X69061673Y-99834699D01*
X69240302Y-100013327D01*
X69473691Y-100110000D01*
X70064250Y-100110000D01*
X70222998Y-99951252D01*
X70222998Y-100110000D01*
X70256373Y-100110000D01*
X70211083Y-100176283D01*
X70160717Y-100425000D01*
X70160717Y-100548000D01*
X69013907Y-100548000D01*
X68970563Y-100317648D01*
X68833243Y-100104247D01*
X68623717Y-99961083D01*
X68375000Y-99910717D01*
X66375000Y-99910717D01*
X66142648Y-99954437D01*
X65929247Y-100091757D01*
X65786083Y-100301283D01*
X65735717Y-100550000D01*
X65735717Y-102550000D01*
X65779437Y-102782352D01*
X65916757Y-102995753D01*
X66126283Y-103138917D01*
X66375000Y-103189283D01*
X68375000Y-103189283D01*
X68607352Y-103145563D01*
X68820753Y-103008243D01*
X68963917Y-102798717D01*
X69014283Y-102550000D01*
X69014283Y-102302000D01*
X70160717Y-102302000D01*
X70160717Y-102425000D01*
X70204437Y-102657352D01*
X70341757Y-102870753D01*
X70551283Y-103013917D01*
X70800000Y-103064283D01*
X72800000Y-103064283D01*
X73032352Y-103020563D01*
X73245753Y-102883243D01*
X73388917Y-102673717D01*
X73439283Y-102425000D01*
X73439283Y-101685750D01*
X73965000Y-101685750D01*
X73965000Y-102526310D01*
X74061673Y-102759699D01*
X74240302Y-102938327D01*
X74473691Y-103035000D01*
X75314250Y-103035000D01*
X75473000Y-102876250D01*
X75473000Y-101527000D01*
X74123750Y-101527000D01*
X73965000Y-101685750D01*
X73439283Y-101685750D01*
X73439283Y-100425000D01*
X73395563Y-100192648D01*
X73345136Y-100114283D01*
X73800000Y-100114283D01*
X74032352Y-100070563D01*
X74055238Y-100055836D01*
X73965000Y-100273690D01*
X73965000Y-101114250D01*
X74123750Y-101273000D01*
X75473000Y-101273000D01*
X75473000Y-99923750D01*
X75314250Y-99765000D01*
X74473691Y-99765000D01*
X74316111Y-99830272D01*
X74388917Y-99723717D01*
X74439283Y-99475000D01*
X74439283Y-98510750D01*
X74740000Y-98510750D01*
X74740000Y-99101309D01*
X74836673Y-99334698D01*
X75015301Y-99513327D01*
X75248690Y-99610000D01*
X75714250Y-99610000D01*
X75873000Y-99451250D01*
X75873000Y-98352000D01*
X74898750Y-98352000D01*
X74740000Y-98510750D01*
X74439283Y-98510750D01*
X74439283Y-98175000D01*
X74395563Y-97942648D01*
X74258243Y-97729247D01*
X74048717Y-97586083D01*
X73800000Y-97535717D01*
X72894917Y-97535717D01*
X72298483Y-96939283D01*
X73775000Y-96939283D01*
X74007352Y-96895563D01*
X74220753Y-96758243D01*
X74363917Y-96548717D01*
X74368315Y-96527000D01*
X74745501Y-96527000D01*
X74779437Y-96707352D01*
X74916757Y-96920753D01*
X74984758Y-96967216D01*
X74836673Y-97115302D01*
X74740000Y-97348691D01*
X74740000Y-97939250D01*
X74898750Y-98098000D01*
X75873000Y-98098000D01*
X75873000Y-98078000D01*
X76127000Y-98078000D01*
X76127000Y-98098000D01*
X76147000Y-98098000D01*
X76147000Y-98352000D01*
X76127000Y-98352000D01*
X76127000Y-99451250D01*
X76285750Y-99610000D01*
X76508000Y-99610000D01*
X76508000Y-99765000D01*
X75885750Y-99765000D01*
X75727000Y-99923750D01*
X75727000Y-101273000D01*
X75747000Y-101273000D01*
X75747000Y-101527000D01*
X75727000Y-101527000D01*
X75727000Y-102876250D01*
X75885750Y-103035000D01*
X76726309Y-103035000D01*
X76959698Y-102938327D01*
X77138327Y-102759699D01*
X77235000Y-102526310D01*
X77235000Y-101685750D01*
X77076252Y-101527002D01*
X77102802Y-101527002D01*
X78017898Y-102442097D01*
X78017900Y-102442100D01*
X79175948Y-103600147D01*
X78890484Y-104027374D01*
X78766636Y-104650000D01*
X78890484Y-105272626D01*
X79243173Y-105800463D01*
X79771010Y-106153152D01*
X80393636Y-106277000D01*
X83006364Y-106277000D01*
X83628990Y-106153152D01*
X84156827Y-105800463D01*
X84509516Y-105272626D01*
X84633364Y-104650000D01*
X84509516Y-104027374D01*
X84465835Y-103962000D01*
X89017574Y-103962000D01*
X88940484Y-104077374D01*
X88816636Y-104700000D01*
X88940484Y-105322626D01*
X89293173Y-105850463D01*
X89821010Y-106203152D01*
X90443636Y-106327000D01*
X93056364Y-106327000D01*
X93678990Y-106203152D01*
X94206827Y-105850463D01*
X94559516Y-105322626D01*
X94683364Y-104700000D01*
X94559516Y-104077374D01*
X94403946Y-103844547D01*
X94739109Y-103823309D01*
X97157898Y-106242097D01*
X97157900Y-106242100D01*
X97418088Y-106415951D01*
X97725000Y-106477000D01*
X103049995Y-106477000D01*
X103050000Y-106477001D01*
X103356912Y-106415951D01*
X103617100Y-106242100D01*
X104217100Y-105642100D01*
X104283000Y-105543473D01*
X104283000Y-106200364D01*
X104368788Y-106631648D01*
X104479941Y-106798000D01*
X65702000Y-106798000D01*
X65702000Y-93985000D01*
X67424250Y-93985000D01*
X67583000Y-93826250D01*
X67583000Y-92227000D01*
X67563000Y-92227000D01*
X67563000Y-91973000D01*
X67583000Y-91973000D01*
X67583000Y-90373750D01*
X67837000Y-90373750D01*
X67837000Y-91973000D01*
X70726250Y-91973000D01*
X70885000Y-91814250D01*
X70885000Y-90723691D01*
X70788327Y-90490302D01*
X70609699Y-90311673D01*
X70376310Y-90215000D01*
X67995750Y-90215000D01*
X67837000Y-90373750D01*
X67583000Y-90373750D01*
X67424250Y-90215000D01*
X65702000Y-90215000D01*
X65702000Y-89739283D01*
X70250000Y-89739283D01*
X70482352Y-89695563D01*
X70695753Y-89558243D01*
X70771079Y-89448000D01*
X70949318Y-89448000D01*
X70964437Y-89528352D01*
X70964437Y-89528352D01*
G37*
X70964437Y-89528352D02*
X71101757Y-89741753D01*
X71311283Y-89884917D01*
X71560000Y-89935283D01*
X72838000Y-89935283D01*
X72838000Y-92827801D01*
X72492800Y-93173000D01*
X70885000Y-93173000D01*
X70885000Y-92385750D01*
X70726250Y-92227000D01*
X67837000Y-92227000D01*
X67837000Y-93826250D01*
X67960242Y-93949492D01*
X66779867Y-95129867D01*
X66589758Y-95414387D01*
X66523000Y-95750000D01*
X66523000Y-96010717D01*
X66400000Y-96010717D01*
X66167648Y-96054437D01*
X65954247Y-96191757D01*
X65811083Y-96401283D01*
X65760717Y-96650000D01*
X65760717Y-98650000D01*
X65804437Y-98882352D01*
X65941757Y-99095753D01*
X66151283Y-99238917D01*
X66400000Y-99289283D01*
X68400000Y-99289283D01*
X68632352Y-99245563D01*
X68845753Y-99108243D01*
X68965000Y-98933720D01*
X68965000Y-98952002D01*
X69123748Y-98952002D01*
X68965000Y-99110750D01*
X68965000Y-99601310D01*
X69061673Y-99834699D01*
X69240302Y-100013327D01*
X69473691Y-100110000D01*
X70064250Y-100110000D01*
X70222998Y-99951252D01*
X70222998Y-100110000D01*
X70256373Y-100110000D01*
X70211083Y-100176283D01*
X70160717Y-100425000D01*
X70160717Y-100548000D01*
X69013907Y-100548000D01*
X68970563Y-100317648D01*
X68833243Y-100104247D01*
X68623717Y-99961083D01*
X68375000Y-99910717D01*
X66375000Y-99910717D01*
X66142648Y-99954437D01*
X65929247Y-100091757D01*
X65786083Y-100301283D01*
X65735717Y-100550000D01*
X65735717Y-102550000D01*
X65779437Y-102782352D01*
X65916757Y-102995753D01*
X66126283Y-103138917D01*
X66375000Y-103189283D01*
X68375000Y-103189283D01*
X68607352Y-103145563D01*
X68820753Y-103008243D01*
X68963917Y-102798717D01*
X69014283Y-102550000D01*
X69014283Y-102302000D01*
X70160717Y-102302000D01*
X70160717Y-102425000D01*
X70204437Y-102657352D01*
X70341757Y-102870753D01*
X70551283Y-103013917D01*
X70800000Y-103064283D01*
X72800000Y-103064283D01*
X73032352Y-103020563D01*
X73245753Y-102883243D01*
X73388917Y-102673717D01*
X73439283Y-102425000D01*
X73439283Y-101685750D01*
X73965000Y-101685750D01*
X73965000Y-102526310D01*
X74061673Y-102759699D01*
X74240302Y-102938327D01*
X74473691Y-103035000D01*
X75314250Y-103035000D01*
X75473000Y-102876250D01*
X75473000Y-101527000D01*
X74123750Y-101527000D01*
X73965000Y-101685750D01*
X73439283Y-101685750D01*
X73439283Y-100425000D01*
X73395563Y-100192648D01*
X73345136Y-100114283D01*
X73800000Y-100114283D01*
X74032352Y-100070563D01*
X74055238Y-100055836D01*
X73965000Y-100273690D01*
X73965000Y-101114250D01*
X74123750Y-101273000D01*
X75473000Y-101273000D01*
X75473000Y-99923750D01*
X75314250Y-99765000D01*
X74473691Y-99765000D01*
X74316111Y-99830272D01*
X74388917Y-99723717D01*
X74439283Y-99475000D01*
X74439283Y-98510750D01*
X74740000Y-98510750D01*
X74740000Y-99101309D01*
X74836673Y-99334698D01*
X75015301Y-99513327D01*
X75248690Y-99610000D01*
X75714250Y-99610000D01*
X75873000Y-99451250D01*
X75873000Y-98352000D01*
X74898750Y-98352000D01*
X74740000Y-98510750D01*
X74439283Y-98510750D01*
X74439283Y-98175000D01*
X74395563Y-97942648D01*
X74258243Y-97729247D01*
X74048717Y-97586083D01*
X73800000Y-97535717D01*
X72894917Y-97535717D01*
X72298483Y-96939283D01*
X73775000Y-96939283D01*
X74007352Y-96895563D01*
X74220753Y-96758243D01*
X74363917Y-96548717D01*
X74368315Y-96527000D01*
X74745501Y-96527000D01*
X74779437Y-96707352D01*
X74916757Y-96920753D01*
X74984758Y-96967216D01*
X74836673Y-97115302D01*
X74740000Y-97348691D01*
X74740000Y-97939250D01*
X74898750Y-98098000D01*
X75873000Y-98098000D01*
X75873000Y-98078000D01*
X76127000Y-98078000D01*
X76127000Y-98098000D01*
X76147000Y-98098000D01*
X76147000Y-98352000D01*
X76127000Y-98352000D01*
X76127000Y-99451250D01*
X76285750Y-99610000D01*
X76508000Y-99610000D01*
X76508000Y-99765000D01*
X75885750Y-99765000D01*
X75727000Y-99923750D01*
X75727000Y-101273000D01*
X75747000Y-101273000D01*
X75747000Y-101527000D01*
X75727000Y-101527000D01*
X75727000Y-102876250D01*
X75885750Y-103035000D01*
X76726309Y-103035000D01*
X76959698Y-102938327D01*
X77138327Y-102759699D01*
X77235000Y-102526310D01*
X77235000Y-101685750D01*
X77076252Y-101527002D01*
X77102802Y-101527002D01*
X78017898Y-102442097D01*
X78017900Y-102442100D01*
X79175948Y-103600147D01*
X78890484Y-104027374D01*
X78766636Y-104650000D01*
X78890484Y-105272626D01*
X79243173Y-105800463D01*
X79771010Y-106153152D01*
X80393636Y-106277000D01*
X83006364Y-106277000D01*
X83628990Y-106153152D01*
X84156827Y-105800463D01*
X84509516Y-105272626D01*
X84633364Y-104650000D01*
X84509516Y-104027374D01*
X84465835Y-103962000D01*
X89017574Y-103962000D01*
X88940484Y-104077374D01*
X88816636Y-104700000D01*
X88940484Y-105322626D01*
X89293173Y-105850463D01*
X89821010Y-106203152D01*
X90443636Y-106327000D01*
X93056364Y-106327000D01*
X93678990Y-106203152D01*
X94206827Y-105850463D01*
X94559516Y-105322626D01*
X94683364Y-104700000D01*
X94559516Y-104077374D01*
X94403946Y-103844547D01*
X94739109Y-103823309D01*
X97157898Y-106242097D01*
X97157900Y-106242100D01*
X97418088Y-106415951D01*
X97725000Y-106477000D01*
X103049995Y-106477000D01*
X103050000Y-106477001D01*
X103356912Y-106415951D01*
X103617100Y-106242100D01*
X104217100Y-105642100D01*
X104283000Y-105543473D01*
X104283000Y-106200364D01*
X104368788Y-106631648D01*
X104479941Y-106798000D01*
X65702000Y-106798000D01*
X65702000Y-93985000D01*
X67424250Y-93985000D01*
X67583000Y-93826250D01*
X67583000Y-92227000D01*
X67563000Y-92227000D01*
X67563000Y-91973000D01*
X67583000Y-91973000D01*
X67583000Y-90373750D01*
X67837000Y-90373750D01*
X67837000Y-91973000D01*
X70726250Y-91973000D01*
X70885000Y-91814250D01*
X70885000Y-90723691D01*
X70788327Y-90490302D01*
X70609699Y-90311673D01*
X70376310Y-90215000D01*
X67995750Y-90215000D01*
X67837000Y-90373750D01*
X67583000Y-90373750D01*
X67424250Y-90215000D01*
X65702000Y-90215000D01*
X65702000Y-89739283D01*
X70250000Y-89739283D01*
X70482352Y-89695563D01*
X70695753Y-89558243D01*
X70771079Y-89448000D01*
X70949318Y-89448000D01*
X70964437Y-89528352D01*
G36*
X96404437Y-101357352D02*
X96541757Y-101570753D01*
X96751283Y-101713917D01*
X97000000Y-101764283D01*
X98500000Y-101764283D01*
X98641498Y-101737658D01*
X98826283Y-101863917D01*
X98869716Y-101872712D01*
X98715301Y-101936673D01*
X98536673Y-102115302D01*
X98440000Y-102348691D01*
X98440000Y-102939250D01*
X98598750Y-103098000D01*
X99598000Y-103098000D01*
X99598000Y-103078000D01*
X99852000Y-103078000D01*
X99852000Y-103098000D01*
X99872000Y-103098000D01*
X99872000Y-103352000D01*
X99852000Y-103352000D01*
X99852000Y-104451250D01*
X100010750Y-104610000D01*
X100390000Y-104610000D01*
X100390000Y-104776309D01*
X100430051Y-104873000D01*
X98057199Y-104873000D01*
X96694950Y-103510750D01*
X98440000Y-103510750D01*
X98440000Y-104101309D01*
X98536673Y-104334698D01*
X98715301Y-104513327D01*
X98948690Y-104610000D01*
X99439250Y-104610000D01*
X99598000Y-104451250D01*
X99598000Y-103352000D01*
X98598750Y-103352000D01*
X98440000Y-103510750D01*
X96694950Y-103510750D01*
X95852000Y-102667800D01*
X95852000Y-101754499D01*
X96032352Y-101720563D01*
X96245753Y-101583243D01*
X96388917Y-101373717D01*
X96398558Y-101326108D01*
X96404437Y-101357352D01*
X96404437Y-101357352D01*
G37*
X96404437Y-101357352D02*
X96541757Y-101570753D01*
X96751283Y-101713917D01*
X97000000Y-101764283D01*
X98500000Y-101764283D01*
X98641498Y-101737658D01*
X98826283Y-101863917D01*
X98869716Y-101872712D01*
X98715301Y-101936673D01*
X98536673Y-102115302D01*
X98440000Y-102348691D01*
X98440000Y-102939250D01*
X98598750Y-103098000D01*
X99598000Y-103098000D01*
X99598000Y-103078000D01*
X99852000Y-103078000D01*
X99852000Y-103098000D01*
X99872000Y-103098000D01*
X99872000Y-103352000D01*
X99852000Y-103352000D01*
X99852000Y-104451250D01*
X100010750Y-104610000D01*
X100390000Y-104610000D01*
X100390000Y-104776309D01*
X100430051Y-104873000D01*
X98057199Y-104873000D01*
X96694950Y-103510750D01*
X98440000Y-103510750D01*
X98440000Y-104101309D01*
X98536673Y-104334698D01*
X98715301Y-104513327D01*
X98948690Y-104610000D01*
X99439250Y-104610000D01*
X99598000Y-104451250D01*
X99598000Y-103352000D01*
X98598750Y-103352000D01*
X98440000Y-103510750D01*
X96694950Y-103510750D01*
X95852000Y-102667800D01*
X95852000Y-101754499D01*
X96032352Y-101720563D01*
X96245753Y-101583243D01*
X96388917Y-101373717D01*
X96398558Y-101326108D01*
X96404437Y-101357352D01*
G36*
X101777000Y-103773000D02*
X101797000Y-103773000D01*
X101797000Y-104027000D01*
X101777000Y-104027000D01*
X101777000Y-104047000D01*
X101523000Y-104047000D01*
X101523000Y-104027000D01*
X101503000Y-104027000D01*
X101503000Y-103773000D01*
X101523000Y-103773000D01*
X101523000Y-103753000D01*
X101777000Y-103753000D01*
X101777000Y-103773000D01*
X101777000Y-103773000D01*
G37*
X101777000Y-103773000D02*
X101797000Y-103773000D01*
X101797000Y-104027000D01*
X101777000Y-104027000D01*
X101777000Y-104047000D01*
X101523000Y-104047000D01*
X101523000Y-104027000D01*
X101503000Y-104027000D01*
X101503000Y-103773000D01*
X101523000Y-103773000D01*
X101523000Y-103753000D01*
X101777000Y-103753000D01*
X101777000Y-103773000D01*
G36*
X94404437Y-97557352D02*
X94414538Y-97573049D01*
X94361083Y-97651283D01*
X94310717Y-97900000D01*
X94310717Y-99185717D01*
X94300000Y-99185717D01*
X94067648Y-99229437D01*
X93854247Y-99366757D01*
X93711083Y-99576283D01*
X93660717Y-99825000D01*
X93660717Y-101125000D01*
X93704437Y-101357352D01*
X93841757Y-101570753D01*
X94051283Y-101713917D01*
X94248000Y-101753753D01*
X94248000Y-102247211D01*
X92499611Y-102358000D01*
X80202199Y-102358000D01*
X79719200Y-101875000D01*
X80164916Y-101429283D01*
X81570000Y-101429283D01*
X81802352Y-101385563D01*
X82015753Y-101248243D01*
X82158917Y-101038717D01*
X82168558Y-100991108D01*
X82174437Y-101022352D01*
X82311757Y-101235753D01*
X82521283Y-101378917D01*
X82770000Y-101429283D01*
X84270000Y-101429283D01*
X84502352Y-101385563D01*
X84549392Y-101355294D01*
X84591283Y-101383917D01*
X84840000Y-101434283D01*
X86340000Y-101434283D01*
X86572352Y-101390563D01*
X86785753Y-101253243D01*
X86832216Y-101185242D01*
X86980302Y-101333327D01*
X87213691Y-101430000D01*
X87804250Y-101430000D01*
X87963000Y-101271250D01*
X87963000Y-100297000D01*
X88217000Y-100297000D01*
X88217000Y-101271250D01*
X88375750Y-101430000D01*
X88966309Y-101430000D01*
X89199698Y-101333327D01*
X89378327Y-101154699D01*
X89475000Y-100921310D01*
X89475000Y-100455750D01*
X89316250Y-100297000D01*
X88217000Y-100297000D01*
X87963000Y-100297000D01*
X87943000Y-100297000D01*
X87943000Y-100043000D01*
X87963000Y-100043000D01*
X87963000Y-99068750D01*
X88217000Y-99068750D01*
X88217000Y-100043000D01*
X89316250Y-100043000D01*
X89475000Y-99884250D01*
X89475000Y-99418690D01*
X89378327Y-99185301D01*
X89199698Y-99006673D01*
X88966309Y-98910000D01*
X88375750Y-98910000D01*
X88217000Y-99068750D01*
X87963000Y-99068750D01*
X87804250Y-98910000D01*
X87259283Y-98910000D01*
X87259283Y-98508666D01*
X87321757Y-98605753D01*
X87531283Y-98748917D01*
X87780000Y-98799283D01*
X89080000Y-98799283D01*
X89118706Y-98792000D01*
X90679995Y-98792000D01*
X90680000Y-98792001D01*
X90986912Y-98730951D01*
X91247100Y-98557100D01*
X91275932Y-98528268D01*
X91401283Y-98613917D01*
X91650000Y-98664283D01*
X92550000Y-98664283D01*
X92782352Y-98620563D01*
X92995753Y-98483243D01*
X93138917Y-98273717D01*
X93189283Y-98025000D01*
X93189283Y-97669916D01*
X93357199Y-97502000D01*
X94394022Y-97502000D01*
X94404437Y-97557352D01*
X94404437Y-97557352D01*
G37*
X94404437Y-97557352D02*
X94414538Y-97573049D01*
X94361083Y-97651283D01*
X94310717Y-97900000D01*
X94310717Y-99185717D01*
X94300000Y-99185717D01*
X94067648Y-99229437D01*
X93854247Y-99366757D01*
X93711083Y-99576283D01*
X93660717Y-99825000D01*
X93660717Y-101125000D01*
X93704437Y-101357352D01*
X93841757Y-101570753D01*
X94051283Y-101713917D01*
X94248000Y-101753753D01*
X94248000Y-102247211D01*
X92499611Y-102358000D01*
X80202199Y-102358000D01*
X79719200Y-101875000D01*
X80164916Y-101429283D01*
X81570000Y-101429283D01*
X81802352Y-101385563D01*
X82015753Y-101248243D01*
X82158917Y-101038717D01*
X82168558Y-100991108D01*
X82174437Y-101022352D01*
X82311757Y-101235753D01*
X82521283Y-101378917D01*
X82770000Y-101429283D01*
X84270000Y-101429283D01*
X84502352Y-101385563D01*
X84549392Y-101355294D01*
X84591283Y-101383917D01*
X84840000Y-101434283D01*
X86340000Y-101434283D01*
X86572352Y-101390563D01*
X86785753Y-101253243D01*
X86832216Y-101185242D01*
X86980302Y-101333327D01*
X87213691Y-101430000D01*
X87804250Y-101430000D01*
X87963000Y-101271250D01*
X87963000Y-100297000D01*
X88217000Y-100297000D01*
X88217000Y-101271250D01*
X88375750Y-101430000D01*
X88966309Y-101430000D01*
X89199698Y-101333327D01*
X89378327Y-101154699D01*
X89475000Y-100921310D01*
X89475000Y-100455750D01*
X89316250Y-100297000D01*
X88217000Y-100297000D01*
X87963000Y-100297000D01*
X87943000Y-100297000D01*
X87943000Y-100043000D01*
X87963000Y-100043000D01*
X87963000Y-99068750D01*
X88217000Y-99068750D01*
X88217000Y-100043000D01*
X89316250Y-100043000D01*
X89475000Y-99884250D01*
X89475000Y-99418690D01*
X89378327Y-99185301D01*
X89199698Y-99006673D01*
X88966309Y-98910000D01*
X88375750Y-98910000D01*
X88217000Y-99068750D01*
X87963000Y-99068750D01*
X87804250Y-98910000D01*
X87259283Y-98910000D01*
X87259283Y-98508666D01*
X87321757Y-98605753D01*
X87531283Y-98748917D01*
X87780000Y-98799283D01*
X89080000Y-98799283D01*
X89118706Y-98792000D01*
X90679995Y-98792000D01*
X90680000Y-98792001D01*
X90986912Y-98730951D01*
X91247100Y-98557100D01*
X91275932Y-98528268D01*
X91401283Y-98613917D01*
X91650000Y-98664283D01*
X92550000Y-98664283D01*
X92782352Y-98620563D01*
X92995753Y-98483243D01*
X93138917Y-98273717D01*
X93189283Y-98025000D01*
X93189283Y-97669916D01*
X93357199Y-97502000D01*
X94394022Y-97502000D01*
X94404437Y-97557352D01*
G36*
X87380437Y-85464352D02*
X87517757Y-85677753D01*
X87727283Y-85820917D01*
X87976000Y-85871283D01*
X88316555Y-85871283D01*
X88292717Y-85989000D01*
X88292717Y-87239000D01*
X88336437Y-87471352D01*
X88473757Y-87684753D01*
X88683283Y-87827917D01*
X88932000Y-87878283D01*
X89185717Y-87878283D01*
X89185717Y-88229560D01*
X89099830Y-88324733D01*
X89080000Y-88320717D01*
X87780000Y-88320717D01*
X87547648Y-88364437D01*
X87334247Y-88501757D01*
X87191083Y-88711283D01*
X87140717Y-88960000D01*
X87140717Y-90460000D01*
X87184437Y-90692352D01*
X87321757Y-90905753D01*
X87531283Y-91048917D01*
X87578892Y-91058558D01*
X87547648Y-91064437D01*
X87334247Y-91201757D01*
X87191083Y-91411283D01*
X87140717Y-91660000D01*
X87140717Y-93160000D01*
X87184437Y-93392352D01*
X87293351Y-93561609D01*
X87191083Y-93711283D01*
X87140717Y-93960000D01*
X87140717Y-94410717D01*
X86300000Y-94410717D01*
X86067648Y-94454437D01*
X85854247Y-94591757D01*
X85839283Y-94613657D01*
X85839283Y-94100000D01*
X85795563Y-93867648D01*
X85658243Y-93654247D01*
X85448717Y-93511083D01*
X85200000Y-93460717D01*
X84300000Y-93460717D01*
X84067648Y-93504437D01*
X83880929Y-93624588D01*
X83758717Y-93541083D01*
X83510000Y-93490717D01*
X82710000Y-93490717D01*
X82477648Y-93534437D01*
X82264247Y-93671757D01*
X82166665Y-93814573D01*
X82148327Y-93770302D01*
X81969699Y-93591673D01*
X81736310Y-93495000D01*
X81495750Y-93495000D01*
X81337000Y-93653750D01*
X81337000Y-94453000D01*
X81357000Y-94453000D01*
X81357000Y-94707000D01*
X81337000Y-94707000D01*
X81337000Y-95506250D01*
X81428796Y-95598046D01*
X81314247Y-95671757D01*
X81171083Y-95881283D01*
X81120717Y-96130000D01*
X81120717Y-97030000D01*
X81164437Y-97262352D01*
X81301757Y-97475753D01*
X81511283Y-97618917D01*
X81760000Y-97669283D01*
X81780717Y-97669283D01*
X81780717Y-98893388D01*
X81570000Y-98850717D01*
X80070000Y-98850717D01*
X79837648Y-98894437D01*
X79624247Y-99031757D01*
X79481083Y-99241283D01*
X79430717Y-99490000D01*
X79430717Y-99895084D01*
X78585000Y-100740800D01*
X78112000Y-100267800D01*
X78112000Y-95940005D01*
X78112001Y-95940000D01*
X78050951Y-95633088D01*
X77877100Y-95372900D01*
X77662100Y-95157900D01*
X77401912Y-94984049D01*
X77260700Y-94955960D01*
X77243726Y-94865750D01*
X80175000Y-94865750D01*
X80175000Y-95156309D01*
X80271673Y-95389698D01*
X80450301Y-95568327D01*
X80683690Y-95665000D01*
X80924250Y-95665000D01*
X81083000Y-95506250D01*
X81083000Y-94707000D01*
X80333750Y-94707000D01*
X80175000Y-94865750D01*
X77243726Y-94865750D01*
X77220563Y-94742648D01*
X77083243Y-94529247D01*
X77039005Y-94499021D01*
X77208327Y-94329698D01*
X77305000Y-94096309D01*
X77305000Y-94003691D01*
X80175000Y-94003691D01*
X80175000Y-94294250D01*
X80333750Y-94453000D01*
X81083000Y-94453000D01*
X81083000Y-93653750D01*
X80924250Y-93495000D01*
X80683690Y-93495000D01*
X80450301Y-93591673D01*
X80271673Y-93770302D01*
X80175000Y-94003691D01*
X77305000Y-94003691D01*
X77305000Y-93505750D01*
X77146250Y-93347000D01*
X76147000Y-93347000D01*
X76147000Y-93367000D01*
X75893000Y-93367000D01*
X75893000Y-93347000D01*
X74893750Y-93347000D01*
X74735000Y-93505750D01*
X74735000Y-94096309D01*
X74831673Y-94329698D01*
X74983695Y-94481721D01*
X74929247Y-94516757D01*
X74786083Y-94726283D01*
X74746247Y-94923000D01*
X74399794Y-94923000D01*
X74370563Y-94767648D01*
X74233243Y-94554247D01*
X74023717Y-94411083D01*
X73873281Y-94380619D01*
X73869306Y-94360639D01*
X73835242Y-94189386D01*
X73827000Y-94177051D01*
X73827000Y-94107200D01*
X74207097Y-93727102D01*
X74207100Y-93727100D01*
X74380951Y-93466912D01*
X74442000Y-93160000D01*
X74442000Y-90075753D01*
X74442900Y-90077100D01*
X74730717Y-90364917D01*
X74730717Y-91270000D01*
X74774437Y-91502352D01*
X74911757Y-91715753D01*
X75121283Y-91858917D01*
X75164716Y-91867712D01*
X75010301Y-91931673D01*
X74831673Y-92110302D01*
X74735000Y-92343691D01*
X74735000Y-92934250D01*
X74893750Y-93093000D01*
X75893000Y-93093000D01*
X75893000Y-93073000D01*
X76147000Y-93073000D01*
X76147000Y-93093000D01*
X77146250Y-93093000D01*
X77305000Y-92934250D01*
X77305000Y-92343691D01*
X77208327Y-92110302D01*
X77029699Y-91931673D01*
X76880171Y-91869737D01*
X76902352Y-91865563D01*
X77115753Y-91728243D01*
X77258917Y-91518717D01*
X77309283Y-91270000D01*
X77309283Y-89814283D01*
X78130000Y-89814283D01*
X78362352Y-89770563D01*
X78575753Y-89633243D01*
X78629334Y-89554826D01*
X78671757Y-89620753D01*
X78881283Y-89763917D01*
X79130000Y-89814283D01*
X80630000Y-89814283D01*
X80862352Y-89770563D01*
X81050717Y-89649353D01*
X81050717Y-90600000D01*
X81094437Y-90832352D01*
X81117794Y-90868649D01*
X81051083Y-90966283D01*
X81000717Y-91215000D01*
X81000717Y-92465000D01*
X81044437Y-92697352D01*
X81181757Y-92910753D01*
X81391283Y-93053917D01*
X81640000Y-93104283D01*
X83140000Y-93104283D01*
X83372352Y-93060563D01*
X83585753Y-92923243D01*
X83632216Y-92855242D01*
X83780302Y-93003327D01*
X84013691Y-93100000D01*
X84604250Y-93100000D01*
X84763000Y-92941250D01*
X84763000Y-91967000D01*
X85017000Y-91967000D01*
X85017000Y-92941250D01*
X85175750Y-93100000D01*
X85766309Y-93100000D01*
X85999698Y-93003327D01*
X86178327Y-92824699D01*
X86275000Y-92591310D01*
X86275000Y-92125750D01*
X86116250Y-91967000D01*
X85017000Y-91967000D01*
X84763000Y-91967000D01*
X84743000Y-91967000D01*
X84743000Y-91713000D01*
X84763000Y-91713000D01*
X84763000Y-91693000D01*
X85017000Y-91693000D01*
X85017000Y-91713000D01*
X86116250Y-91713000D01*
X86275000Y-91554250D01*
X86275000Y-91097337D01*
X86335753Y-91058243D01*
X86478917Y-90848717D01*
X86529283Y-90600000D01*
X86529283Y-89300000D01*
X86485563Y-89067648D01*
X86477000Y-89054341D01*
X86477000Y-86975000D01*
X86473052Y-86955152D01*
X86489283Y-86875000D01*
X86489283Y-86519917D01*
X86593100Y-86416100D01*
X86766951Y-86155912D01*
X86825418Y-85861984D01*
X87008352Y-85827563D01*
X87221753Y-85690243D01*
X87364917Y-85480717D01*
X87374558Y-85433108D01*
X87380437Y-85464352D01*
X87380437Y-85464352D01*
G37*
X87380437Y-85464352D02*
X87517757Y-85677753D01*
X87727283Y-85820917D01*
X87976000Y-85871283D01*
X88316555Y-85871283D01*
X88292717Y-85989000D01*
X88292717Y-87239000D01*
X88336437Y-87471352D01*
X88473757Y-87684753D01*
X88683283Y-87827917D01*
X88932000Y-87878283D01*
X89185717Y-87878283D01*
X89185717Y-88229560D01*
X89099830Y-88324733D01*
X89080000Y-88320717D01*
X87780000Y-88320717D01*
X87547648Y-88364437D01*
X87334247Y-88501757D01*
X87191083Y-88711283D01*
X87140717Y-88960000D01*
X87140717Y-90460000D01*
X87184437Y-90692352D01*
X87321757Y-90905753D01*
X87531283Y-91048917D01*
X87578892Y-91058558D01*
X87547648Y-91064437D01*
X87334247Y-91201757D01*
X87191083Y-91411283D01*
X87140717Y-91660000D01*
X87140717Y-93160000D01*
X87184437Y-93392352D01*
X87293351Y-93561609D01*
X87191083Y-93711283D01*
X87140717Y-93960000D01*
X87140717Y-94410717D01*
X86300000Y-94410717D01*
X86067648Y-94454437D01*
X85854247Y-94591757D01*
X85839283Y-94613657D01*
X85839283Y-94100000D01*
X85795563Y-93867648D01*
X85658243Y-93654247D01*
X85448717Y-93511083D01*
X85200000Y-93460717D01*
X84300000Y-93460717D01*
X84067648Y-93504437D01*
X83880929Y-93624588D01*
X83758717Y-93541083D01*
X83510000Y-93490717D01*
X82710000Y-93490717D01*
X82477648Y-93534437D01*
X82264247Y-93671757D01*
X82166665Y-93814573D01*
X82148327Y-93770302D01*
X81969699Y-93591673D01*
X81736310Y-93495000D01*
X81495750Y-93495000D01*
X81337000Y-93653750D01*
X81337000Y-94453000D01*
X81357000Y-94453000D01*
X81357000Y-94707000D01*
X81337000Y-94707000D01*
X81337000Y-95506250D01*
X81428796Y-95598046D01*
X81314247Y-95671757D01*
X81171083Y-95881283D01*
X81120717Y-96130000D01*
X81120717Y-97030000D01*
X81164437Y-97262352D01*
X81301757Y-97475753D01*
X81511283Y-97618917D01*
X81760000Y-97669283D01*
X81780717Y-97669283D01*
X81780717Y-98893388D01*
X81570000Y-98850717D01*
X80070000Y-98850717D01*
X79837648Y-98894437D01*
X79624247Y-99031757D01*
X79481083Y-99241283D01*
X79430717Y-99490000D01*
X79430717Y-99895084D01*
X78585000Y-100740800D01*
X78112000Y-100267800D01*
X78112000Y-95940005D01*
X78112001Y-95940000D01*
X78050951Y-95633088D01*
X77877100Y-95372900D01*
X77662100Y-95157900D01*
X77401912Y-94984049D01*
X77260700Y-94955960D01*
X77243726Y-94865750D01*
X80175000Y-94865750D01*
X80175000Y-95156309D01*
X80271673Y-95389698D01*
X80450301Y-95568327D01*
X80683690Y-95665000D01*
X80924250Y-95665000D01*
X81083000Y-95506250D01*
X81083000Y-94707000D01*
X80333750Y-94707000D01*
X80175000Y-94865750D01*
X77243726Y-94865750D01*
X77220563Y-94742648D01*
X77083243Y-94529247D01*
X77039005Y-94499021D01*
X77208327Y-94329698D01*
X77305000Y-94096309D01*
X77305000Y-94003691D01*
X80175000Y-94003691D01*
X80175000Y-94294250D01*
X80333750Y-94453000D01*
X81083000Y-94453000D01*
X81083000Y-93653750D01*
X80924250Y-93495000D01*
X80683690Y-93495000D01*
X80450301Y-93591673D01*
X80271673Y-93770302D01*
X80175000Y-94003691D01*
X77305000Y-94003691D01*
X77305000Y-93505750D01*
X77146250Y-93347000D01*
X76147000Y-93347000D01*
X76147000Y-93367000D01*
X75893000Y-93367000D01*
X75893000Y-93347000D01*
X74893750Y-93347000D01*
X74735000Y-93505750D01*
X74735000Y-94096309D01*
X74831673Y-94329698D01*
X74983695Y-94481721D01*
X74929247Y-94516757D01*
X74786083Y-94726283D01*
X74746247Y-94923000D01*
X74399794Y-94923000D01*
X74370563Y-94767648D01*
X74233243Y-94554247D01*
X74023717Y-94411083D01*
X73873281Y-94380619D01*
X73869306Y-94360639D01*
X73835242Y-94189386D01*
X73827000Y-94177051D01*
X73827000Y-94107200D01*
X74207097Y-93727102D01*
X74207100Y-93727100D01*
X74380951Y-93466912D01*
X74442000Y-93160000D01*
X74442000Y-90075753D01*
X74442900Y-90077100D01*
X74730717Y-90364917D01*
X74730717Y-91270000D01*
X74774437Y-91502352D01*
X74911757Y-91715753D01*
X75121283Y-91858917D01*
X75164716Y-91867712D01*
X75010301Y-91931673D01*
X74831673Y-92110302D01*
X74735000Y-92343691D01*
X74735000Y-92934250D01*
X74893750Y-93093000D01*
X75893000Y-93093000D01*
X75893000Y-93073000D01*
X76147000Y-93073000D01*
X76147000Y-93093000D01*
X77146250Y-93093000D01*
X77305000Y-92934250D01*
X77305000Y-92343691D01*
X77208327Y-92110302D01*
X77029699Y-91931673D01*
X76880171Y-91869737D01*
X76902352Y-91865563D01*
X77115753Y-91728243D01*
X77258917Y-91518717D01*
X77309283Y-91270000D01*
X77309283Y-89814283D01*
X78130000Y-89814283D01*
X78362352Y-89770563D01*
X78575753Y-89633243D01*
X78629334Y-89554826D01*
X78671757Y-89620753D01*
X78881283Y-89763917D01*
X79130000Y-89814283D01*
X80630000Y-89814283D01*
X80862352Y-89770563D01*
X81050717Y-89649353D01*
X81050717Y-90600000D01*
X81094437Y-90832352D01*
X81117794Y-90868649D01*
X81051083Y-90966283D01*
X81000717Y-91215000D01*
X81000717Y-92465000D01*
X81044437Y-92697352D01*
X81181757Y-92910753D01*
X81391283Y-93053917D01*
X81640000Y-93104283D01*
X83140000Y-93104283D01*
X83372352Y-93060563D01*
X83585753Y-92923243D01*
X83632216Y-92855242D01*
X83780302Y-93003327D01*
X84013691Y-93100000D01*
X84604250Y-93100000D01*
X84763000Y-92941250D01*
X84763000Y-91967000D01*
X85017000Y-91967000D01*
X85017000Y-92941250D01*
X85175750Y-93100000D01*
X85766309Y-93100000D01*
X85999698Y-93003327D01*
X86178327Y-92824699D01*
X86275000Y-92591310D01*
X86275000Y-92125750D01*
X86116250Y-91967000D01*
X85017000Y-91967000D01*
X84763000Y-91967000D01*
X84743000Y-91967000D01*
X84743000Y-91713000D01*
X84763000Y-91713000D01*
X84763000Y-91693000D01*
X85017000Y-91693000D01*
X85017000Y-91713000D01*
X86116250Y-91713000D01*
X86275000Y-91554250D01*
X86275000Y-91097337D01*
X86335753Y-91058243D01*
X86478917Y-90848717D01*
X86529283Y-90600000D01*
X86529283Y-89300000D01*
X86485563Y-89067648D01*
X86477000Y-89054341D01*
X86477000Y-86975000D01*
X86473052Y-86955152D01*
X86489283Y-86875000D01*
X86489283Y-86519917D01*
X86593100Y-86416100D01*
X86766951Y-86155912D01*
X86825418Y-85861984D01*
X87008352Y-85827563D01*
X87221753Y-85690243D01*
X87364917Y-85480717D01*
X87374558Y-85433108D01*
X87380437Y-85464352D01*
G36*
X69116757Y-96745753D02*
X69326283Y-96888917D01*
X69575000Y-96939283D01*
X70030083Y-96939283D01*
X70633275Y-97542475D01*
X70477000Y-97698750D01*
X70477000Y-98698000D01*
X70497000Y-98698000D01*
X70497000Y-98952000D01*
X70477000Y-98952000D01*
X70477000Y-98972000D01*
X70223000Y-98972000D01*
X70223000Y-98952000D01*
X70203000Y-98952000D01*
X70203000Y-98698000D01*
X70223000Y-98698000D01*
X70223000Y-97698750D01*
X70064250Y-97540000D01*
X69473691Y-97540000D01*
X69240302Y-97636673D01*
X69061673Y-97815301D01*
X69039283Y-97869355D01*
X69039283Y-96650000D01*
X69032729Y-96615171D01*
X69116757Y-96745753D01*
X69116757Y-96745753D01*
G37*
X69116757Y-96745753D02*
X69326283Y-96888917D01*
X69575000Y-96939283D01*
X70030083Y-96939283D01*
X70633275Y-97542475D01*
X70477000Y-97698750D01*
X70477000Y-98698000D01*
X70497000Y-98698000D01*
X70497000Y-98952000D01*
X70477000Y-98952000D01*
X70477000Y-98972000D01*
X70223000Y-98972000D01*
X70223000Y-98952000D01*
X70203000Y-98952000D01*
X70203000Y-98698000D01*
X70223000Y-98698000D01*
X70223000Y-97698750D01*
X70064250Y-97540000D01*
X69473691Y-97540000D01*
X69240302Y-97636673D01*
X69061673Y-97815301D01*
X69039283Y-97869355D01*
X69039283Y-96650000D01*
X69032729Y-96615171D01*
X69116757Y-96745753D01*
G36*
X85841757Y-96295753D02*
X86051283Y-96438917D01*
X86300000Y-96489283D01*
X87175288Y-96489283D01*
X87140717Y-96660000D01*
X87140717Y-97311334D01*
X87078243Y-97214247D01*
X86868717Y-97071083D01*
X86620000Y-97020717D01*
X85795895Y-97020717D01*
X85835000Y-96926310D01*
X85835000Y-96685750D01*
X85676250Y-96527000D01*
X84877000Y-96527000D01*
X84877000Y-96547000D01*
X84623000Y-96547000D01*
X84623000Y-96527000D01*
X84603000Y-96527000D01*
X84603000Y-96273000D01*
X84623000Y-96273000D01*
X84623000Y-96253000D01*
X84877000Y-96253000D01*
X84877000Y-96273000D01*
X85676250Y-96273000D01*
X85768046Y-96181204D01*
X85841757Y-96295753D01*
X85841757Y-96295753D01*
G37*
X85841757Y-96295753D02*
X86051283Y-96438917D01*
X86300000Y-96489283D01*
X87175288Y-96489283D01*
X87140717Y-96660000D01*
X87140717Y-97311334D01*
X87078243Y-97214247D01*
X86868717Y-97071083D01*
X86620000Y-97020717D01*
X85795895Y-97020717D01*
X85835000Y-96926310D01*
X85835000Y-96685750D01*
X85676250Y-96527000D01*
X84877000Y-96527000D01*
X84877000Y-96547000D01*
X84623000Y-96547000D01*
X84623000Y-96527000D01*
X84603000Y-96527000D01*
X84603000Y-96273000D01*
X84623000Y-96273000D01*
X84623000Y-96253000D01*
X84877000Y-96253000D01*
X84877000Y-96273000D01*
X85676250Y-96273000D01*
X85768046Y-96181204D01*
X85841757Y-96295753D01*
G36*
X95907000Y-94513000D02*
X95927000Y-94513000D01*
X95927000Y-94767000D01*
X95907000Y-94767000D01*
X95907000Y-94787000D01*
X95653000Y-94787000D01*
X95653000Y-94767000D01*
X95633000Y-94767000D01*
X95633000Y-94513000D01*
X95653000Y-94513000D01*
X95653000Y-94493000D01*
X95907000Y-94493000D01*
X95907000Y-94513000D01*
X95907000Y-94513000D01*
G37*
X95907000Y-94513000D02*
X95927000Y-94513000D01*
X95927000Y-94767000D01*
X95907000Y-94767000D01*
X95907000Y-94787000D01*
X95653000Y-94787000D01*
X95653000Y-94767000D01*
X95633000Y-94767000D01*
X95633000Y-94513000D01*
X95653000Y-94513000D01*
X95653000Y-94493000D01*
X95907000Y-94493000D01*
X95907000Y-94513000D01*
G36*
X103861757Y-88615753D02*
X104071283Y-88758917D01*
X104320000Y-88809283D01*
X104775000Y-88809283D01*
X104775000Y-90378837D01*
X104738327Y-90290301D01*
X104559698Y-90111673D01*
X104326309Y-90015000D01*
X103735750Y-90015000D01*
X103577000Y-90173750D01*
X103577000Y-91173000D01*
X104676250Y-91173000D01*
X104835000Y-91014250D01*
X104835000Y-90782904D01*
X104855841Y-90796315D01*
X104902000Y-90805000D01*
X108073933Y-90805000D01*
X108144208Y-91158297D01*
X108551091Y-91767239D01*
X108585000Y-91789896D01*
X108585000Y-94030186D01*
X108216644Y-94276314D01*
X107990341Y-94615000D01*
X104763424Y-94615000D01*
X104708243Y-94529247D01*
X104498717Y-94386083D01*
X104250000Y-94335717D01*
X102750000Y-94335717D01*
X102517648Y-94379437D01*
X102304247Y-94516757D01*
X102161083Y-94726283D01*
X102151442Y-94773892D01*
X102145563Y-94742648D01*
X102008243Y-94529247D01*
X101798717Y-94386083D01*
X101550000Y-94335717D01*
X100050000Y-94335717D01*
X99817648Y-94379437D01*
X99669283Y-94474907D01*
X99669283Y-94015000D01*
X99625563Y-93782648D01*
X99488243Y-93569247D01*
X99278717Y-93426083D01*
X99030000Y-93375717D01*
X98519888Y-93375717D01*
X98280000Y-93328000D01*
X98131699Y-93357499D01*
X97849200Y-93075000D01*
X98249916Y-92674283D01*
X99020000Y-92674283D01*
X99252352Y-92630563D01*
X99465753Y-92493243D01*
X99537202Y-92388675D01*
X99541757Y-92395753D01*
X99751283Y-92538917D01*
X100000000Y-92589283D01*
X101500000Y-92589283D01*
X101732352Y-92545563D01*
X101945753Y-92408243D01*
X102088917Y-92198717D01*
X102097712Y-92155284D01*
X102161673Y-92309699D01*
X102340302Y-92488327D01*
X102573691Y-92585000D01*
X103164250Y-92585000D01*
X103323000Y-92426250D01*
X103323000Y-91427000D01*
X103577000Y-91427000D01*
X103577000Y-92426250D01*
X103735750Y-92585000D01*
X104326309Y-92585000D01*
X104559698Y-92488327D01*
X104738327Y-92309699D01*
X104835000Y-92076310D01*
X104835000Y-91585750D01*
X104676250Y-91427000D01*
X103577000Y-91427000D01*
X103323000Y-91427000D01*
X103303000Y-91427000D01*
X103303000Y-91173000D01*
X103323000Y-91173000D01*
X103323000Y-90173750D01*
X103294651Y-90145401D01*
X103339283Y-89925000D01*
X103339283Y-89025000D01*
X103295563Y-88792648D01*
X103158243Y-88579247D01*
X103136343Y-88564283D01*
X103650000Y-88564283D01*
X103809344Y-88534300D01*
X103861757Y-88615753D01*
X103861757Y-88615753D01*
G37*
X103861757Y-88615753D02*
X104071283Y-88758917D01*
X104320000Y-88809283D01*
X104775000Y-88809283D01*
X104775000Y-90378837D01*
X104738327Y-90290301D01*
X104559698Y-90111673D01*
X104326309Y-90015000D01*
X103735750Y-90015000D01*
X103577000Y-90173750D01*
X103577000Y-91173000D01*
X104676250Y-91173000D01*
X104835000Y-91014250D01*
X104835000Y-90782904D01*
X104855841Y-90796315D01*
X104902000Y-90805000D01*
X108073933Y-90805000D01*
X108144208Y-91158297D01*
X108551091Y-91767239D01*
X108585000Y-91789896D01*
X108585000Y-94030186D01*
X108216644Y-94276314D01*
X107990341Y-94615000D01*
X104763424Y-94615000D01*
X104708243Y-94529247D01*
X104498717Y-94386083D01*
X104250000Y-94335717D01*
X102750000Y-94335717D01*
X102517648Y-94379437D01*
X102304247Y-94516757D01*
X102161083Y-94726283D01*
X102151442Y-94773892D01*
X102145563Y-94742648D01*
X102008243Y-94529247D01*
X101798717Y-94386083D01*
X101550000Y-94335717D01*
X100050000Y-94335717D01*
X99817648Y-94379437D01*
X99669283Y-94474907D01*
X99669283Y-94015000D01*
X99625563Y-93782648D01*
X99488243Y-93569247D01*
X99278717Y-93426083D01*
X99030000Y-93375717D01*
X98519888Y-93375717D01*
X98280000Y-93328000D01*
X98131699Y-93357499D01*
X97849200Y-93075000D01*
X98249916Y-92674283D01*
X99020000Y-92674283D01*
X99252352Y-92630563D01*
X99465753Y-92493243D01*
X99537202Y-92388675D01*
X99541757Y-92395753D01*
X99751283Y-92538917D01*
X100000000Y-92589283D01*
X101500000Y-92589283D01*
X101732352Y-92545563D01*
X101945753Y-92408243D01*
X102088917Y-92198717D01*
X102097712Y-92155284D01*
X102161673Y-92309699D01*
X102340302Y-92488327D01*
X102573691Y-92585000D01*
X103164250Y-92585000D01*
X103323000Y-92426250D01*
X103323000Y-91427000D01*
X103577000Y-91427000D01*
X103577000Y-92426250D01*
X103735750Y-92585000D01*
X104326309Y-92585000D01*
X104559698Y-92488327D01*
X104738327Y-92309699D01*
X104835000Y-92076310D01*
X104835000Y-91585750D01*
X104676250Y-91427000D01*
X103577000Y-91427000D01*
X103323000Y-91427000D01*
X103303000Y-91427000D01*
X103303000Y-91173000D01*
X103323000Y-91173000D01*
X103323000Y-90173750D01*
X103294651Y-90145401D01*
X103339283Y-89925000D01*
X103339283Y-89025000D01*
X103295563Y-88792648D01*
X103158243Y-88579247D01*
X103136343Y-88564283D01*
X103650000Y-88564283D01*
X103809344Y-88534300D01*
X103861757Y-88615753D01*
G36*
X95897000Y-91283000D02*
X95917000Y-91283000D01*
X95917000Y-91537000D01*
X95897000Y-91537000D01*
X95897000Y-91557000D01*
X95643000Y-91557000D01*
X95643000Y-91537000D01*
X95623000Y-91537000D01*
X95623000Y-91283000D01*
X95643000Y-91283000D01*
X95643000Y-91263000D01*
X95897000Y-91263000D01*
X95897000Y-91283000D01*
X95897000Y-91283000D01*
G37*
X95897000Y-91283000D02*
X95917000Y-91283000D01*
X95917000Y-91537000D01*
X95897000Y-91537000D01*
X95897000Y-91557000D01*
X95643000Y-91557000D01*
X95643000Y-91537000D01*
X95623000Y-91537000D01*
X95623000Y-91283000D01*
X95643000Y-91283000D01*
X95643000Y-91263000D01*
X95897000Y-91263000D01*
X95897000Y-91283000D01*
G36*
X79143173Y-78949537D02*
X78790484Y-79477374D01*
X78666636Y-80100000D01*
X78790484Y-80722626D01*
X79143173Y-81250463D01*
X79671010Y-81603152D01*
X80293636Y-81727000D01*
X82906364Y-81727000D01*
X83528990Y-81603152D01*
X84056827Y-81250463D01*
X84409516Y-80722626D01*
X84533364Y-80100000D01*
X84409516Y-79477374D01*
X84056827Y-78949537D01*
X83686361Y-78702000D01*
X89063978Y-78702000D01*
X88843173Y-78849537D01*
X88490484Y-79377374D01*
X88366636Y-80000000D01*
X88490484Y-80622626D01*
X88843173Y-81150463D01*
X89371010Y-81503152D01*
X89993636Y-81627000D01*
X92606364Y-81627000D01*
X93228990Y-81503152D01*
X93756827Y-81150463D01*
X94109516Y-80622626D01*
X94233364Y-80000000D01*
X94109516Y-79377374D01*
X93756827Y-78849537D01*
X93536022Y-78702000D01*
X103749504Y-78702000D01*
X103696848Y-78780806D01*
X103573000Y-79403432D01*
X103573000Y-80996568D01*
X103696848Y-81619194D01*
X104049537Y-82147031D01*
X104204714Y-82250717D01*
X102900000Y-82250717D01*
X102667648Y-82294437D01*
X102454247Y-82431757D01*
X102311083Y-82641283D01*
X102301442Y-82688892D01*
X102295563Y-82657648D01*
X102158243Y-82444247D01*
X101948717Y-82301083D01*
X101700000Y-82250717D01*
X100200000Y-82250717D01*
X99967648Y-82294437D01*
X99754247Y-82431757D01*
X99634492Y-82607022D01*
X99508717Y-82521083D01*
X99260000Y-82470717D01*
X97760000Y-82470717D01*
X97527648Y-82514437D01*
X97314247Y-82651757D01*
X97171083Y-82861283D01*
X97161442Y-82908892D01*
X97155563Y-82877648D01*
X97018243Y-82664247D01*
X96808717Y-82521083D01*
X96560000Y-82470717D01*
X95654917Y-82470717D01*
X95642100Y-82457900D01*
X95381912Y-82284049D01*
X95075000Y-82222999D01*
X95074995Y-82223000D01*
X82986502Y-82223000D01*
X82710000Y-82168000D01*
X77630000Y-82168000D01*
X77323088Y-82229049D01*
X77062900Y-82402900D01*
X73529283Y-85936517D01*
X73529283Y-85720000D01*
X73485563Y-85487648D01*
X73348243Y-85274247D01*
X73138717Y-85131083D01*
X73095284Y-85122288D01*
X73249699Y-85058327D01*
X73428327Y-84879698D01*
X73525000Y-84646309D01*
X73525000Y-84055750D01*
X73366250Y-83897000D01*
X72367000Y-83897000D01*
X72367000Y-83917000D01*
X72113000Y-83917000D01*
X72113000Y-83897000D01*
X71113750Y-83897000D01*
X70955000Y-84055750D01*
X70955000Y-84646309D01*
X71051673Y-84879698D01*
X71230301Y-85058327D01*
X71379829Y-85120263D01*
X71357648Y-85124437D01*
X71144247Y-85261757D01*
X71001083Y-85471283D01*
X70950717Y-85720000D01*
X70950717Y-87220000D01*
X70994437Y-87452352D01*
X71080848Y-87586638D01*
X70971083Y-87747283D01*
X70951497Y-87844000D01*
X70889283Y-87844000D01*
X70889283Y-87600000D01*
X70845563Y-87367648D01*
X70708243Y-87154247D01*
X70498717Y-87011083D01*
X70250000Y-86960717D01*
X65702000Y-86960717D01*
X65702000Y-86485000D01*
X67424250Y-86485000D01*
X67583000Y-86326250D01*
X67583000Y-84727000D01*
X67837000Y-84727000D01*
X67837000Y-86326250D01*
X67995750Y-86485000D01*
X70376310Y-86485000D01*
X70609699Y-86388327D01*
X70788327Y-86209698D01*
X70885000Y-85976309D01*
X70885000Y-84885750D01*
X70726250Y-84727000D01*
X67837000Y-84727000D01*
X67583000Y-84727000D01*
X67563000Y-84727000D01*
X67563000Y-84473000D01*
X67583000Y-84473000D01*
X67583000Y-82873750D01*
X67837000Y-82873750D01*
X67837000Y-84473000D01*
X70726250Y-84473000D01*
X70885000Y-84314250D01*
X70885000Y-83223691D01*
X70788327Y-82990302D01*
X70691717Y-82893691D01*
X70955000Y-82893691D01*
X70955000Y-83484250D01*
X71113750Y-83643000D01*
X72113000Y-83643000D01*
X72113000Y-82543750D01*
X72367000Y-82543750D01*
X72367000Y-83643000D01*
X73366250Y-83643000D01*
X73525000Y-83484250D01*
X73525000Y-82893691D01*
X73428327Y-82660302D01*
X73249699Y-82481673D01*
X73016310Y-82385000D01*
X72525750Y-82385000D01*
X72367000Y-82543750D01*
X72113000Y-82543750D01*
X71954250Y-82385000D01*
X71463690Y-82385000D01*
X71230301Y-82481673D01*
X71051673Y-82660302D01*
X70955000Y-82893691D01*
X70691717Y-82893691D01*
X70609699Y-82811673D01*
X70376310Y-82715000D01*
X67995750Y-82715000D01*
X67837000Y-82873750D01*
X67583000Y-82873750D01*
X67424250Y-82715000D01*
X65702000Y-82715000D01*
X65702000Y-78702000D01*
X79513639Y-78702000D01*
X79143173Y-78949537D01*
X79143173Y-78949537D01*
G37*
X79143173Y-78949537D02*
X78790484Y-79477374D01*
X78666636Y-80100000D01*
X78790484Y-80722626D01*
X79143173Y-81250463D01*
X79671010Y-81603152D01*
X80293636Y-81727000D01*
X82906364Y-81727000D01*
X83528990Y-81603152D01*
X84056827Y-81250463D01*
X84409516Y-80722626D01*
X84533364Y-80100000D01*
X84409516Y-79477374D01*
X84056827Y-78949537D01*
X83686361Y-78702000D01*
X89063978Y-78702000D01*
X88843173Y-78849537D01*
X88490484Y-79377374D01*
X88366636Y-80000000D01*
X88490484Y-80622626D01*
X88843173Y-81150463D01*
X89371010Y-81503152D01*
X89993636Y-81627000D01*
X92606364Y-81627000D01*
X93228990Y-81503152D01*
X93756827Y-81150463D01*
X94109516Y-80622626D01*
X94233364Y-80000000D01*
X94109516Y-79377374D01*
X93756827Y-78849537D01*
X93536022Y-78702000D01*
X103749504Y-78702000D01*
X103696848Y-78780806D01*
X103573000Y-79403432D01*
X103573000Y-80996568D01*
X103696848Y-81619194D01*
X104049537Y-82147031D01*
X104204714Y-82250717D01*
X102900000Y-82250717D01*
X102667648Y-82294437D01*
X102454247Y-82431757D01*
X102311083Y-82641283D01*
X102301442Y-82688892D01*
X102295563Y-82657648D01*
X102158243Y-82444247D01*
X101948717Y-82301083D01*
X101700000Y-82250717D01*
X100200000Y-82250717D01*
X99967648Y-82294437D01*
X99754247Y-82431757D01*
X99634492Y-82607022D01*
X99508717Y-82521083D01*
X99260000Y-82470717D01*
X97760000Y-82470717D01*
X97527648Y-82514437D01*
X97314247Y-82651757D01*
X97171083Y-82861283D01*
X97161442Y-82908892D01*
X97155563Y-82877648D01*
X97018243Y-82664247D01*
X96808717Y-82521083D01*
X96560000Y-82470717D01*
X95654917Y-82470717D01*
X95642100Y-82457900D01*
X95381912Y-82284049D01*
X95075000Y-82222999D01*
X95074995Y-82223000D01*
X82986502Y-82223000D01*
X82710000Y-82168000D01*
X77630000Y-82168000D01*
X77323088Y-82229049D01*
X77062900Y-82402900D01*
X73529283Y-85936517D01*
X73529283Y-85720000D01*
X73485563Y-85487648D01*
X73348243Y-85274247D01*
X73138717Y-85131083D01*
X73095284Y-85122288D01*
X73249699Y-85058327D01*
X73428327Y-84879698D01*
X73525000Y-84646309D01*
X73525000Y-84055750D01*
X73366250Y-83897000D01*
X72367000Y-83897000D01*
X72367000Y-83917000D01*
X72113000Y-83917000D01*
X72113000Y-83897000D01*
X71113750Y-83897000D01*
X70955000Y-84055750D01*
X70955000Y-84646309D01*
X71051673Y-84879698D01*
X71230301Y-85058327D01*
X71379829Y-85120263D01*
X71357648Y-85124437D01*
X71144247Y-85261757D01*
X71001083Y-85471283D01*
X70950717Y-85720000D01*
X70950717Y-87220000D01*
X70994437Y-87452352D01*
X71080848Y-87586638D01*
X70971083Y-87747283D01*
X70951497Y-87844000D01*
X70889283Y-87844000D01*
X70889283Y-87600000D01*
X70845563Y-87367648D01*
X70708243Y-87154247D01*
X70498717Y-87011083D01*
X70250000Y-86960717D01*
X65702000Y-86960717D01*
X65702000Y-86485000D01*
X67424250Y-86485000D01*
X67583000Y-86326250D01*
X67583000Y-84727000D01*
X67837000Y-84727000D01*
X67837000Y-86326250D01*
X67995750Y-86485000D01*
X70376310Y-86485000D01*
X70609699Y-86388327D01*
X70788327Y-86209698D01*
X70885000Y-85976309D01*
X70885000Y-84885750D01*
X70726250Y-84727000D01*
X67837000Y-84727000D01*
X67583000Y-84727000D01*
X67563000Y-84727000D01*
X67563000Y-84473000D01*
X67583000Y-84473000D01*
X67583000Y-82873750D01*
X67837000Y-82873750D01*
X67837000Y-84473000D01*
X70726250Y-84473000D01*
X70885000Y-84314250D01*
X70885000Y-83223691D01*
X70788327Y-82990302D01*
X70691717Y-82893691D01*
X70955000Y-82893691D01*
X70955000Y-83484250D01*
X71113750Y-83643000D01*
X72113000Y-83643000D01*
X72113000Y-82543750D01*
X72367000Y-82543750D01*
X72367000Y-83643000D01*
X73366250Y-83643000D01*
X73525000Y-83484250D01*
X73525000Y-82893691D01*
X73428327Y-82660302D01*
X73249699Y-82481673D01*
X73016310Y-82385000D01*
X72525750Y-82385000D01*
X72367000Y-82543750D01*
X72113000Y-82543750D01*
X71954250Y-82385000D01*
X71463690Y-82385000D01*
X71230301Y-82481673D01*
X71051673Y-82660302D01*
X70955000Y-82893691D01*
X70691717Y-82893691D01*
X70609699Y-82811673D01*
X70376310Y-82715000D01*
X67995750Y-82715000D01*
X67837000Y-82873750D01*
X67583000Y-82873750D01*
X67424250Y-82715000D01*
X65702000Y-82715000D01*
X65702000Y-78702000D01*
X79513639Y-78702000D01*
X79143173Y-78949537D01*
G36*
X79810717Y-83932000D02*
X79810717Y-85232000D01*
X79841008Y-85392983D01*
X79819698Y-85371673D01*
X79586309Y-85275000D01*
X78995750Y-85275000D01*
X78837000Y-85433750D01*
X78837000Y-86433000D01*
X78857000Y-86433000D01*
X78857000Y-86687000D01*
X78837000Y-86687000D01*
X78837000Y-86707000D01*
X78583000Y-86707000D01*
X78583000Y-86687000D01*
X77483750Y-86687000D01*
X77325000Y-86845750D01*
X77325000Y-87285717D01*
X76630000Y-87285717D01*
X76397648Y-87329437D01*
X76184247Y-87466757D01*
X76156177Y-87507839D01*
X76008717Y-87407083D01*
X75760000Y-87356717D01*
X74442000Y-87356717D01*
X74442000Y-87292200D01*
X75950510Y-85783690D01*
X77325000Y-85783690D01*
X77325000Y-86274250D01*
X77483750Y-86433000D01*
X78583000Y-86433000D01*
X78583000Y-85433750D01*
X78424250Y-85275000D01*
X77833691Y-85275000D01*
X77600302Y-85371673D01*
X77421673Y-85550301D01*
X77325000Y-85783690D01*
X75950510Y-85783690D01*
X77962200Y-83772000D01*
X79843118Y-83772000D01*
X79810717Y-83932000D01*
X79810717Y-83932000D01*
G37*
X79810717Y-83932000D02*
X79810717Y-85232000D01*
X79841008Y-85392983D01*
X79819698Y-85371673D01*
X79586309Y-85275000D01*
X78995750Y-85275000D01*
X78837000Y-85433750D01*
X78837000Y-86433000D01*
X78857000Y-86433000D01*
X78857000Y-86687000D01*
X78837000Y-86687000D01*
X78837000Y-86707000D01*
X78583000Y-86707000D01*
X78583000Y-86687000D01*
X77483750Y-86687000D01*
X77325000Y-86845750D01*
X77325000Y-87285717D01*
X76630000Y-87285717D01*
X76397648Y-87329437D01*
X76184247Y-87466757D01*
X76156177Y-87507839D01*
X76008717Y-87407083D01*
X75760000Y-87356717D01*
X74442000Y-87356717D01*
X74442000Y-87292200D01*
X75950510Y-85783690D01*
X77325000Y-85783690D01*
X77325000Y-86274250D01*
X77483750Y-86433000D01*
X78583000Y-86433000D01*
X78583000Y-85433750D01*
X78424250Y-85275000D01*
X77833691Y-85275000D01*
X77600302Y-85371673D01*
X77421673Y-85550301D01*
X77325000Y-85783690D01*
X75950510Y-85783690D01*
X77962200Y-83772000D01*
X79843118Y-83772000D01*
X79810717Y-83932000D01*
G36*
X103627000Y-85583000D02*
X103647000Y-85583000D01*
X103647000Y-85837000D01*
X103627000Y-85837000D01*
X103627000Y-85857000D01*
X103373000Y-85857000D01*
X103373000Y-85837000D01*
X103353000Y-85837000D01*
X103353000Y-85583000D01*
X103373000Y-85583000D01*
X103373000Y-85563000D01*
X103627000Y-85563000D01*
X103627000Y-85583000D01*
X103627000Y-85583000D01*
G37*
X103627000Y-85583000D02*
X103647000Y-85583000D01*
X103647000Y-85837000D01*
X103627000Y-85837000D01*
X103627000Y-85857000D01*
X103373000Y-85857000D01*
X103373000Y-85837000D01*
X103353000Y-85837000D01*
X103353000Y-85583000D01*
X103373000Y-85583000D01*
X103373000Y-85563000D01*
X103627000Y-85563000D01*
X103627000Y-85583000D01*
G36*
X106641829Y-82296909D02*
X107007454Y-82541212D01*
X107438738Y-82627000D01*
X111561262Y-82627000D01*
X111992546Y-82541212D01*
X112358171Y-82296909D01*
X112377449Y-82268057D01*
X112396727Y-82296909D01*
X112762352Y-82541212D01*
X112865000Y-82561630D01*
X112865000Y-83014250D01*
X113023750Y-83173000D01*
X115373000Y-83173000D01*
X115373000Y-83153000D01*
X115627000Y-83153000D01*
X115627000Y-83173000D01*
X115647000Y-83173000D01*
X115647000Y-83427000D01*
X115627000Y-83427000D01*
X115627000Y-83447000D01*
X115373000Y-83447000D01*
X115373000Y-83427000D01*
X113023750Y-83427000D01*
X112865000Y-83585750D01*
X112865000Y-83987260D01*
X112738947Y-84012333D01*
X112456588Y-84201000D01*
X111748650Y-84201000D01*
X111391461Y-83962333D01*
X110816670Y-83848000D01*
X109483330Y-83848000D01*
X108908539Y-83962333D01*
X108551350Y-84201000D01*
X106392389Y-84201000D01*
X106365951Y-84068088D01*
X106192100Y-83807900D01*
X106192097Y-83807898D01*
X105427100Y-83042900D01*
X105315910Y-82968605D01*
X105209193Y-82888011D01*
X105186449Y-82882103D01*
X105166912Y-82869049D01*
X105035746Y-82842958D01*
X105030158Y-82841506D01*
X104995563Y-82657648D01*
X104940406Y-82571932D01*
X105200000Y-82623568D01*
X105822626Y-82499720D01*
X106350463Y-82147031D01*
X106446073Y-82003940D01*
X106641829Y-82296909D01*
X106641829Y-82296909D01*
G37*
X106641829Y-82296909D02*
X107007454Y-82541212D01*
X107438738Y-82627000D01*
X111561262Y-82627000D01*
X111992546Y-82541212D01*
X112358171Y-82296909D01*
X112377449Y-82268057D01*
X112396727Y-82296909D01*
X112762352Y-82541212D01*
X112865000Y-82561630D01*
X112865000Y-83014250D01*
X113023750Y-83173000D01*
X115373000Y-83173000D01*
X115373000Y-83153000D01*
X115627000Y-83153000D01*
X115627000Y-83173000D01*
X115647000Y-83173000D01*
X115647000Y-83427000D01*
X115627000Y-83427000D01*
X115627000Y-83447000D01*
X115373000Y-83447000D01*
X115373000Y-83427000D01*
X113023750Y-83427000D01*
X112865000Y-83585750D01*
X112865000Y-83987260D01*
X112738947Y-84012333D01*
X112456588Y-84201000D01*
X111748650Y-84201000D01*
X111391461Y-83962333D01*
X110816670Y-83848000D01*
X109483330Y-83848000D01*
X108908539Y-83962333D01*
X108551350Y-84201000D01*
X106392389Y-84201000D01*
X106365951Y-84068088D01*
X106192100Y-83807900D01*
X106192097Y-83807898D01*
X105427100Y-83042900D01*
X105315910Y-82968605D01*
X105209193Y-82888011D01*
X105186449Y-82882103D01*
X105166912Y-82869049D01*
X105035746Y-82842958D01*
X105030158Y-82841506D01*
X104995563Y-82657648D01*
X104940406Y-82571932D01*
X105200000Y-82623568D01*
X105822626Y-82499720D01*
X106350463Y-82147031D01*
X106446073Y-82003940D01*
X106641829Y-82296909D01*
M02*
