M48
;DRILL file {KiCad 4.0.7} date 04/23/20 09:08:41
;FORMAT={-:-/ absolute / metric / decimal}
FMAT,2
METRIC,TZ
T1C0.400
T2C1.000
%
G90
G05
M71
T1
X65.6Y-100.99
X65.6Y-102.64
X65.7Y-99.275
X65.75Y-97.525
X65.8Y-95.87
X66.02Y-104.75
X66.2Y-94.14
X66.5Y-106.5
X67.71Y-92.1
X67.85Y-81.925
X68.125Y-80.975
X68.5Y-80.
X68.5Y-106.5
X68.95Y-99.45
X69.6Y-79.
X70.75Y-106.5
X71.2Y-78.6
X72.75Y-106.5
X73.1Y-78.6
X74.55Y-98.575
X74.8Y-106.5
X74.9Y-78.5
X75.7Y-99.6
X76.8Y-106.4
X77.Y-78.5
X78.21Y-95.94
X78.5Y-106.4
X79.2Y-78.4
X79.25Y-94.37
X79.4Y-96.77
X80.1Y-106.3
X81.4Y-78.5
X81.6Y-106.4
X83.3Y-78.4
X83.5Y-106.5
X83.675Y-91.925
X84.23Y-96.71
X84.525Y-93.175
X85.Y-78.5
X85.3Y-106.5
X85.37Y-96.59
X85.725Y-93.
X86.23Y-97.13
X86.9Y-78.5
X87.1Y-106.5
X87.175Y-102.25
X88.25Y-100.05
X88.7Y-106.5
X89.Y-78.5
X89.825Y-101.65
X90.6Y-106.5
X91.1Y-78.4
X92.6Y-106.5
X93.1Y-78.5
X94.5Y-90.4
X94.53Y-91.81
X94.58Y-95.35
X94.64Y-94.29
X94.8Y-106.5
X94.9Y-78.6
X96.6Y-78.6
X96.81Y-94.43
X96.9Y-106.4
X96.95Y-91.3
X98.325Y-103.3
X98.4Y-78.6
X99.5Y-106.6
X99.8Y-101.85
X99.85Y-104.5
X100.65Y-104.65
X101.175Y-106.525
X101.24Y-102.66
X102.02Y-90.8
X102.05Y-92.
X102.3Y-83.55
X102.7Y-102.58
X102.9Y-82.1
X103.9Y-92.65
X103.95Y-81.85
T2
X67.375Y-101.55
X67.4Y-97.65
X71.8Y-101.425
X75.6Y-101.4
X111.375Y-97.45
X111.5Y-87.6
X111.65Y-83.275
X111.65Y-93.175
T0
M30
