G04 #@! TF.FileFunction,Legend,Top*
%FSLAX46Y46*%
G04 Gerber Fmt 4.6, Leading zero omitted, Abs format (unit mm)*
G04 Created by KiCad (PCBNEW 4.0.7) date 04/23/20 09:08:39*
%MOMM*%
%LPD*%
G01*
G04 APERTURE LIST*
%ADD10C,0.100000*%
%ADD11C,0.120000*%
%ADD12C,0.150000*%
G04 APERTURE END LIST*
D10*
D11*
X97560000Y-86710000D02*
X96560000Y-86710000D01*
X96560000Y-88410000D02*
X97560000Y-88410000D01*
X102700000Y-92180000D02*
X101500000Y-92180000D01*
X101500000Y-90420000D02*
X102700000Y-90420000D01*
X77970000Y-89000000D02*
X77970000Y-87800000D01*
X79730000Y-87800000D02*
X79730000Y-89000000D01*
X107425000Y-96675000D02*
X106425000Y-96675000D01*
X106425000Y-98375000D02*
X107425000Y-98375000D01*
X97500000Y-95850000D02*
X96500000Y-95850000D01*
X96500000Y-97550000D02*
X97500000Y-97550000D01*
X88900000Y-85100000D02*
X87900000Y-85100000D01*
X87900000Y-86800000D02*
X88900000Y-86800000D01*
X74625000Y-87700000D02*
X73625000Y-87700000D01*
X73625000Y-89400000D02*
X74625000Y-89400000D01*
X83140000Y-92690000D02*
X84140000Y-92690000D01*
X84140000Y-90990000D02*
X83140000Y-90990000D01*
X98845000Y-102475000D02*
X98845000Y-101275000D01*
X100605000Y-101275000D02*
X100605000Y-102475000D01*
X97650000Y-99430000D02*
X96450000Y-99430000D01*
X96450000Y-97670000D02*
X97650000Y-97670000D01*
X83140000Y-98530000D02*
X84340000Y-98530000D01*
X84340000Y-100290000D02*
X83140000Y-100290000D01*
X92420000Y-95430000D02*
X91220000Y-95430000D01*
X91220000Y-93670000D02*
X92420000Y-93670000D01*
X92490000Y-92190000D02*
X91290000Y-92190000D01*
X91290000Y-90430000D02*
X92490000Y-90430000D01*
X71100000Y-97945000D02*
X72300000Y-97945000D01*
X72300000Y-99705000D02*
X71100000Y-99705000D01*
X72675000Y-96400000D02*
X69475000Y-96400000D01*
X69475000Y-94900000D02*
X72675000Y-94900000D01*
X69475000Y-94900000D02*
X69475000Y-96400000D01*
X100800000Y-102150000D02*
X100800000Y-103150000D01*
X102500000Y-103150000D02*
X102500000Y-102150000D01*
X107375000Y-86700000D02*
X106375000Y-86700000D01*
X106375000Y-88400000D02*
X107375000Y-88400000D01*
X101550000Y-94745000D02*
X102750000Y-94745000D01*
X102750000Y-96505000D02*
X101550000Y-96505000D01*
X83190000Y-89070000D02*
X84390000Y-89070000D01*
X84390000Y-90830000D02*
X83190000Y-90830000D01*
X97700000Y-90380000D02*
X96500000Y-90380000D01*
X96500000Y-88620000D02*
X97700000Y-88620000D01*
X101780000Y-84490000D02*
X102780000Y-84490000D01*
X102780000Y-82790000D02*
X101780000Y-82790000D01*
X101650000Y-84720000D02*
X102850000Y-84720000D01*
X102850000Y-86480000D02*
X101650000Y-86480000D01*
X86480000Y-97760000D02*
X86480000Y-96560000D01*
X88240000Y-96560000D02*
X88240000Y-97760000D01*
X86370000Y-91630000D02*
X86370000Y-90430000D01*
X88130000Y-90430000D02*
X88130000Y-91630000D01*
X87430000Y-100490000D02*
X86430000Y-100490000D01*
X86430000Y-102190000D02*
X87430000Y-102190000D01*
X75150000Y-96475000D02*
X75150000Y-97475000D01*
X76850000Y-97475000D02*
X76850000Y-96475000D01*
X102770000Y-103200000D02*
X102770000Y-102000000D01*
X104530000Y-102000000D02*
X104530000Y-103200000D01*
X97760000Y-84640000D02*
X96560000Y-84640000D01*
X96560000Y-82880000D02*
X97760000Y-82880000D01*
X82710000Y-102150000D02*
X81510000Y-102150000D01*
X81510000Y-100390000D02*
X82710000Y-100390000D01*
X96575000Y-84820000D02*
X97775000Y-84820000D01*
X97775000Y-86580000D02*
X96575000Y-86580000D01*
X81950000Y-83702000D02*
X83150000Y-83702000D01*
X83150000Y-85462000D02*
X81950000Y-85462000D01*
X97520000Y-90560000D02*
X96520000Y-90560000D01*
X96520000Y-92260000D02*
X97520000Y-92260000D01*
X97530000Y-93790000D02*
X96530000Y-93790000D01*
X96530000Y-95490000D02*
X97530000Y-95490000D01*
X95800000Y-99595000D02*
X97000000Y-99595000D01*
X97000000Y-101355000D02*
X95800000Y-101355000D01*
X100720000Y-89235000D02*
X101650000Y-89235000D01*
X103880000Y-89235000D02*
X102950000Y-89235000D01*
X103880000Y-89235000D02*
X103880000Y-87075000D01*
X100720000Y-89235000D02*
X100720000Y-87775000D01*
X82494000Y-88136000D02*
X83424000Y-88136000D01*
X85654000Y-88136000D02*
X84724000Y-88136000D01*
X85654000Y-88136000D02*
X85654000Y-85976000D01*
X82494000Y-88136000D02*
X82494000Y-86676000D01*
X78890000Y-97420000D02*
X79820000Y-97420000D01*
X82050000Y-97420000D02*
X81120000Y-97420000D01*
X82050000Y-97420000D02*
X82050000Y-95260000D01*
X78890000Y-97420000D02*
X78890000Y-95960000D01*
X90250000Y-96050000D02*
X90250000Y-96980000D01*
X90250000Y-99210000D02*
X90250000Y-98280000D01*
X90250000Y-99210000D02*
X92410000Y-99210000D01*
X90250000Y-96050000D02*
X91710000Y-96050000D01*
X85890000Y-95910000D02*
X84960000Y-95910000D01*
X82730000Y-95910000D02*
X83660000Y-95910000D01*
X82730000Y-95910000D02*
X82730000Y-98070000D01*
X85890000Y-95910000D02*
X85890000Y-97370000D01*
X88540000Y-89380000D02*
X89470000Y-89380000D01*
X91700000Y-89380000D02*
X90770000Y-89380000D01*
X91700000Y-89380000D02*
X91700000Y-87220000D01*
X88540000Y-89380000D02*
X88540000Y-87920000D01*
X100845000Y-99135000D02*
X101775000Y-99135000D01*
X104005000Y-99135000D02*
X103075000Y-99135000D01*
X104005000Y-99135000D02*
X104005000Y-96975000D01*
X100845000Y-99135000D02*
X100845000Y-97675000D01*
D12*
X93468334Y-87922143D02*
X93420715Y-87969762D01*
X93277858Y-88017381D01*
X93182620Y-88017381D01*
X93039762Y-87969762D01*
X92944524Y-87874524D01*
X92896905Y-87779286D01*
X92849286Y-87588810D01*
X92849286Y-87445952D01*
X92896905Y-87255476D01*
X92944524Y-87160238D01*
X93039762Y-87065000D01*
X93182620Y-87017381D01*
X93277858Y-87017381D01*
X93420715Y-87065000D01*
X93468334Y-87112619D01*
X94039762Y-87445952D02*
X93944524Y-87398333D01*
X93896905Y-87350714D01*
X93849286Y-87255476D01*
X93849286Y-87207857D01*
X93896905Y-87112619D01*
X93944524Y-87065000D01*
X94039762Y-87017381D01*
X94230239Y-87017381D01*
X94325477Y-87065000D01*
X94373096Y-87112619D01*
X94420715Y-87207857D01*
X94420715Y-87255476D01*
X94373096Y-87350714D01*
X94325477Y-87398333D01*
X94230239Y-87445952D01*
X94039762Y-87445952D01*
X93944524Y-87493571D01*
X93896905Y-87541190D01*
X93849286Y-87636429D01*
X93849286Y-87826905D01*
X93896905Y-87922143D01*
X93944524Y-87969762D01*
X94039762Y-88017381D01*
X94230239Y-88017381D01*
X94325477Y-87969762D01*
X94373096Y-87922143D01*
X94420715Y-87826905D01*
X94420715Y-87636429D01*
X94373096Y-87541190D01*
X94325477Y-87493571D01*
X94230239Y-87445952D01*
X105872381Y-91486666D02*
X105396190Y-91820000D01*
X105872381Y-92058095D02*
X104872381Y-92058095D01*
X104872381Y-91677142D01*
X104920000Y-91581904D01*
X104967619Y-91534285D01*
X105062857Y-91486666D01*
X105205714Y-91486666D01*
X105300952Y-91534285D01*
X105348571Y-91581904D01*
X105396190Y-91677142D01*
X105396190Y-92058095D01*
X104872381Y-91153333D02*
X104872381Y-90534285D01*
X105253333Y-90867619D01*
X105253333Y-90724761D01*
X105300952Y-90629523D01*
X105348571Y-90581904D01*
X105443810Y-90534285D01*
X105681905Y-90534285D01*
X105777143Y-90581904D01*
X105824762Y-90629523D01*
X105872381Y-90724761D01*
X105872381Y-91010476D01*
X105824762Y-91105714D01*
X105777143Y-91153333D01*
X77632381Y-88282857D02*
X77156190Y-88616191D01*
X77632381Y-88854286D02*
X76632381Y-88854286D01*
X76632381Y-88473333D01*
X76680000Y-88378095D01*
X76727619Y-88330476D01*
X76822857Y-88282857D01*
X76965714Y-88282857D01*
X77060952Y-88330476D01*
X77108571Y-88378095D01*
X77156190Y-88473333D01*
X77156190Y-88854286D01*
X77632381Y-87330476D02*
X77632381Y-87901905D01*
X77632381Y-87616191D02*
X76632381Y-87616191D01*
X76775238Y-87711429D01*
X76870476Y-87806667D01*
X76918095Y-87901905D01*
X76632381Y-86711429D02*
X76632381Y-86616190D01*
X76680000Y-86520952D01*
X76727619Y-86473333D01*
X76822857Y-86425714D01*
X77013333Y-86378095D01*
X77251429Y-86378095D01*
X77441905Y-86425714D01*
X77537143Y-86473333D01*
X77584762Y-86520952D01*
X77632381Y-86616190D01*
X77632381Y-86711429D01*
X77584762Y-86806667D01*
X77537143Y-86854286D01*
X77441905Y-86901905D01*
X77251429Y-86949524D01*
X77013333Y-86949524D01*
X76822857Y-86901905D01*
X76727619Y-86854286D01*
X76680000Y-86806667D01*
X76632381Y-86711429D01*
X107764334Y-96176143D02*
X107716715Y-96223762D01*
X107573858Y-96271381D01*
X107478620Y-96271381D01*
X107335762Y-96223762D01*
X107240524Y-96128524D01*
X107192905Y-96033286D01*
X107145286Y-95842810D01*
X107145286Y-95699952D01*
X107192905Y-95509476D01*
X107240524Y-95414238D01*
X107335762Y-95319000D01*
X107478620Y-95271381D01*
X107573858Y-95271381D01*
X107716715Y-95319000D01*
X107764334Y-95366619D01*
X108716715Y-96271381D02*
X108145286Y-96271381D01*
X108431000Y-96271381D02*
X108431000Y-95271381D01*
X108335762Y-95414238D01*
X108240524Y-95509476D01*
X108145286Y-95557095D01*
X93593334Y-97037143D02*
X93545715Y-97084762D01*
X93402858Y-97132381D01*
X93307620Y-97132381D01*
X93164762Y-97084762D01*
X93069524Y-96989524D01*
X93021905Y-96894286D01*
X92974286Y-96703810D01*
X92974286Y-96560952D01*
X93021905Y-96370476D01*
X93069524Y-96275238D01*
X93164762Y-96180000D01*
X93307620Y-96132381D01*
X93402858Y-96132381D01*
X93545715Y-96180000D01*
X93593334Y-96227619D01*
X93926667Y-96132381D02*
X94545715Y-96132381D01*
X94212381Y-96513333D01*
X94355239Y-96513333D01*
X94450477Y-96560952D01*
X94498096Y-96608571D01*
X94545715Y-96703810D01*
X94545715Y-96941905D01*
X94498096Y-97037143D01*
X94450477Y-97084762D01*
X94355239Y-97132381D01*
X94069524Y-97132381D01*
X93974286Y-97084762D01*
X93926667Y-97037143D01*
X88108334Y-84707143D02*
X88060715Y-84754762D01*
X87917858Y-84802381D01*
X87822620Y-84802381D01*
X87679762Y-84754762D01*
X87584524Y-84659524D01*
X87536905Y-84564286D01*
X87489286Y-84373810D01*
X87489286Y-84230952D01*
X87536905Y-84040476D01*
X87584524Y-83945238D01*
X87679762Y-83850000D01*
X87822620Y-83802381D01*
X87917858Y-83802381D01*
X88060715Y-83850000D01*
X88108334Y-83897619D01*
X89013096Y-83802381D02*
X88536905Y-83802381D01*
X88489286Y-84278571D01*
X88536905Y-84230952D01*
X88632143Y-84183333D01*
X88870239Y-84183333D01*
X88965477Y-84230952D01*
X89013096Y-84278571D01*
X89060715Y-84373810D01*
X89060715Y-84611905D01*
X89013096Y-84707143D01*
X88965477Y-84754762D01*
X88870239Y-84802381D01*
X88632143Y-84802381D01*
X88536905Y-84754762D01*
X88489286Y-84707143D01*
X73908334Y-87182143D02*
X73860715Y-87229762D01*
X73717858Y-87277381D01*
X73622620Y-87277381D01*
X73479762Y-87229762D01*
X73384524Y-87134524D01*
X73336905Y-87039286D01*
X73289286Y-86848810D01*
X73289286Y-86705952D01*
X73336905Y-86515476D01*
X73384524Y-86420238D01*
X73479762Y-86325000D01*
X73622620Y-86277381D01*
X73717858Y-86277381D01*
X73860715Y-86325000D01*
X73908334Y-86372619D01*
X74765477Y-86277381D02*
X74575000Y-86277381D01*
X74479762Y-86325000D01*
X74432143Y-86372619D01*
X74336905Y-86515476D01*
X74289286Y-86705952D01*
X74289286Y-87086905D01*
X74336905Y-87182143D01*
X74384524Y-87229762D01*
X74479762Y-87277381D01*
X74670239Y-87277381D01*
X74765477Y-87229762D01*
X74813096Y-87182143D01*
X74860715Y-87086905D01*
X74860715Y-86848810D01*
X74813096Y-86753571D01*
X74765477Y-86705952D01*
X74670239Y-86658333D01*
X74479762Y-86658333D01*
X74384524Y-86705952D01*
X74336905Y-86753571D01*
X74289286Y-86848810D01*
X80208334Y-92482143D02*
X80160715Y-92529762D01*
X80017858Y-92577381D01*
X79922620Y-92577381D01*
X79779762Y-92529762D01*
X79684524Y-92434524D01*
X79636905Y-92339286D01*
X79589286Y-92148810D01*
X79589286Y-92005952D01*
X79636905Y-91815476D01*
X79684524Y-91720238D01*
X79779762Y-91625000D01*
X79922620Y-91577381D01*
X80017858Y-91577381D01*
X80160715Y-91625000D01*
X80208334Y-91672619D01*
X80684524Y-92577381D02*
X80875000Y-92577381D01*
X80970239Y-92529762D01*
X81017858Y-92482143D01*
X81113096Y-92339286D01*
X81160715Y-92148810D01*
X81160715Y-91767857D01*
X81113096Y-91672619D01*
X81065477Y-91625000D01*
X80970239Y-91577381D01*
X80779762Y-91577381D01*
X80684524Y-91625000D01*
X80636905Y-91672619D01*
X80589286Y-91767857D01*
X80589286Y-92005952D01*
X80636905Y-92101190D01*
X80684524Y-92148810D01*
X80779762Y-92196429D01*
X80970239Y-92196429D01*
X81065477Y-92148810D01*
X81113096Y-92101190D01*
X81160715Y-92005952D01*
X98502381Y-102741666D02*
X98026190Y-103075000D01*
X98502381Y-103313095D02*
X97502381Y-103313095D01*
X97502381Y-102932142D01*
X97550000Y-102836904D01*
X97597619Y-102789285D01*
X97692857Y-102741666D01*
X97835714Y-102741666D01*
X97930952Y-102789285D01*
X97978571Y-102836904D01*
X98026190Y-102932142D01*
X98026190Y-103313095D01*
X97597619Y-102360714D02*
X97550000Y-102313095D01*
X97502381Y-102217857D01*
X97502381Y-101979761D01*
X97550000Y-101884523D01*
X97597619Y-101836904D01*
X97692857Y-101789285D01*
X97788095Y-101789285D01*
X97930952Y-101836904D01*
X98502381Y-102408333D01*
X98502381Y-101789285D01*
X93553334Y-99002381D02*
X93220000Y-98526190D01*
X92981905Y-99002381D02*
X92981905Y-98002381D01*
X93362858Y-98002381D01*
X93458096Y-98050000D01*
X93505715Y-98097619D01*
X93553334Y-98192857D01*
X93553334Y-98335714D01*
X93505715Y-98430952D01*
X93458096Y-98478571D01*
X93362858Y-98526190D01*
X92981905Y-98526190D01*
X94410477Y-98335714D02*
X94410477Y-99002381D01*
X94172381Y-97954762D02*
X93934286Y-98669048D01*
X94553334Y-98669048D01*
X80273334Y-99912381D02*
X79940000Y-99436190D01*
X79701905Y-99912381D02*
X79701905Y-98912381D01*
X80082858Y-98912381D01*
X80178096Y-98960000D01*
X80225715Y-99007619D01*
X80273334Y-99102857D01*
X80273334Y-99245714D01*
X80225715Y-99340952D01*
X80178096Y-99388571D01*
X80082858Y-99436190D01*
X79701905Y-99436190D01*
X81178096Y-98912381D02*
X80701905Y-98912381D01*
X80654286Y-99388571D01*
X80701905Y-99340952D01*
X80797143Y-99293333D01*
X81035239Y-99293333D01*
X81130477Y-99340952D01*
X81178096Y-99388571D01*
X81225715Y-99483810D01*
X81225715Y-99721905D01*
X81178096Y-99817143D01*
X81130477Y-99864762D01*
X81035239Y-99912381D01*
X80797143Y-99912381D01*
X80701905Y-99864762D01*
X80654286Y-99817143D01*
X89426381Y-94748666D02*
X88950190Y-95082000D01*
X89426381Y-95320095D02*
X88426381Y-95320095D01*
X88426381Y-94939142D01*
X88474000Y-94843904D01*
X88521619Y-94796285D01*
X88616857Y-94748666D01*
X88759714Y-94748666D01*
X88854952Y-94796285D01*
X88902571Y-94843904D01*
X88950190Y-94939142D01*
X88950190Y-95320095D01*
X88426381Y-93891523D02*
X88426381Y-94082000D01*
X88474000Y-94177238D01*
X88521619Y-94224857D01*
X88664476Y-94320095D01*
X88854952Y-94367714D01*
X89235905Y-94367714D01*
X89331143Y-94320095D01*
X89378762Y-94272476D01*
X89426381Y-94177238D01*
X89426381Y-93986761D01*
X89378762Y-93891523D01*
X89331143Y-93843904D01*
X89235905Y-93796285D01*
X88997810Y-93796285D01*
X88902571Y-93843904D01*
X88854952Y-93891523D01*
X88807333Y-93986761D01*
X88807333Y-94177238D01*
X88854952Y-94272476D01*
X88902571Y-94320095D01*
X88997810Y-94367714D01*
X89392381Y-91436666D02*
X88916190Y-91770000D01*
X89392381Y-92008095D02*
X88392381Y-92008095D01*
X88392381Y-91627142D01*
X88440000Y-91531904D01*
X88487619Y-91484285D01*
X88582857Y-91436666D01*
X88725714Y-91436666D01*
X88820952Y-91484285D01*
X88868571Y-91531904D01*
X88916190Y-91627142D01*
X88916190Y-92008095D01*
X89392381Y-90960476D02*
X89392381Y-90770000D01*
X89344762Y-90674761D01*
X89297143Y-90627142D01*
X89154286Y-90531904D01*
X88963810Y-90484285D01*
X88582857Y-90484285D01*
X88487619Y-90531904D01*
X88440000Y-90579523D01*
X88392381Y-90674761D01*
X88392381Y-90865238D01*
X88440000Y-90960476D01*
X88487619Y-91008095D01*
X88582857Y-91055714D01*
X88820952Y-91055714D01*
X88916190Y-91008095D01*
X88963810Y-90960476D01*
X89011429Y-90865238D01*
X89011429Y-90674761D01*
X88963810Y-90579523D01*
X88916190Y-90531904D01*
X88820952Y-90484285D01*
X71007143Y-97727381D02*
X70673809Y-97251190D01*
X70435714Y-97727381D02*
X70435714Y-96727381D01*
X70816667Y-96727381D01*
X70911905Y-96775000D01*
X70959524Y-96822619D01*
X71007143Y-96917857D01*
X71007143Y-97060714D01*
X70959524Y-97155952D01*
X70911905Y-97203571D01*
X70816667Y-97251190D01*
X70435714Y-97251190D01*
X71959524Y-97727381D02*
X71388095Y-97727381D01*
X71673809Y-97727381D02*
X71673809Y-96727381D01*
X71578571Y-96870238D01*
X71483333Y-96965476D01*
X71388095Y-97013095D01*
X72816667Y-97060714D02*
X72816667Y-97727381D01*
X72578571Y-96679762D02*
X72340476Y-97394048D01*
X72959524Y-97394048D01*
X67286905Y-96202381D02*
X67286905Y-95202381D01*
X67525000Y-95202381D01*
X67667858Y-95250000D01*
X67763096Y-95345238D01*
X67810715Y-95440476D01*
X67858334Y-95630952D01*
X67858334Y-95773810D01*
X67810715Y-95964286D01*
X67763096Y-96059524D01*
X67667858Y-96154762D01*
X67525000Y-96202381D01*
X67286905Y-96202381D01*
X68715477Y-95202381D02*
X68525000Y-95202381D01*
X68429762Y-95250000D01*
X68382143Y-95297619D01*
X68286905Y-95440476D01*
X68239286Y-95630952D01*
X68239286Y-96011905D01*
X68286905Y-96107143D01*
X68334524Y-96154762D01*
X68429762Y-96202381D01*
X68620239Y-96202381D01*
X68715477Y-96154762D01*
X68763096Y-96107143D01*
X68810715Y-96011905D01*
X68810715Y-95773810D01*
X68763096Y-95678571D01*
X68715477Y-95630952D01*
X68620239Y-95583333D01*
X68429762Y-95583333D01*
X68334524Y-95630952D01*
X68286905Y-95678571D01*
X68239286Y-95773810D01*
X105583334Y-104007143D02*
X105535715Y-104054762D01*
X105392858Y-104102381D01*
X105297620Y-104102381D01*
X105154762Y-104054762D01*
X105059524Y-103959524D01*
X105011905Y-103864286D01*
X104964286Y-103673810D01*
X104964286Y-103530952D01*
X105011905Y-103340476D01*
X105059524Y-103245238D01*
X105154762Y-103150000D01*
X105297620Y-103102381D01*
X105392858Y-103102381D01*
X105535715Y-103150000D01*
X105583334Y-103197619D01*
X105964286Y-103197619D02*
X106011905Y-103150000D01*
X106107143Y-103102381D01*
X106345239Y-103102381D01*
X106440477Y-103150000D01*
X106488096Y-103197619D01*
X106535715Y-103292857D01*
X106535715Y-103388095D01*
X106488096Y-103530952D01*
X105916667Y-104102381D01*
X106535715Y-104102381D01*
X107328334Y-86312143D02*
X107280715Y-86359762D01*
X107137858Y-86407381D01*
X107042620Y-86407381D01*
X106899762Y-86359762D01*
X106804524Y-86264524D01*
X106756905Y-86169286D01*
X106709286Y-85978810D01*
X106709286Y-85835952D01*
X106756905Y-85645476D01*
X106804524Y-85550238D01*
X106899762Y-85455000D01*
X107042620Y-85407381D01*
X107137858Y-85407381D01*
X107280715Y-85455000D01*
X107328334Y-85502619D01*
X108185477Y-85740714D02*
X108185477Y-86407381D01*
X107947381Y-85359762D02*
X107709286Y-86074048D01*
X108328334Y-86074048D01*
X105502381Y-95632857D02*
X105026190Y-95966191D01*
X105502381Y-96204286D02*
X104502381Y-96204286D01*
X104502381Y-95823333D01*
X104550000Y-95728095D01*
X104597619Y-95680476D01*
X104692857Y-95632857D01*
X104835714Y-95632857D01*
X104930952Y-95680476D01*
X104978571Y-95728095D01*
X105026190Y-95823333D01*
X105026190Y-96204286D01*
X105502381Y-94680476D02*
X105502381Y-95251905D01*
X105502381Y-94966191D02*
X104502381Y-94966191D01*
X104645238Y-95061429D01*
X104740476Y-95156667D01*
X104788095Y-95251905D01*
X105502381Y-93728095D02*
X105502381Y-94299524D01*
X105502381Y-94013810D02*
X104502381Y-94013810D01*
X104645238Y-94109048D01*
X104740476Y-94204286D01*
X104788095Y-94299524D01*
X81052381Y-90642857D02*
X80576190Y-90976191D01*
X81052381Y-91214286D02*
X80052381Y-91214286D01*
X80052381Y-90833333D01*
X80100000Y-90738095D01*
X80147619Y-90690476D01*
X80242857Y-90642857D01*
X80385714Y-90642857D01*
X80480952Y-90690476D01*
X80528571Y-90738095D01*
X80576190Y-90833333D01*
X80576190Y-91214286D01*
X81052381Y-89690476D02*
X81052381Y-90261905D01*
X81052381Y-89976191D02*
X80052381Y-89976191D01*
X80195238Y-90071429D01*
X80290476Y-90166667D01*
X80338095Y-90261905D01*
X80147619Y-89309524D02*
X80100000Y-89261905D01*
X80052381Y-89166667D01*
X80052381Y-88928571D01*
X80100000Y-88833333D01*
X80147619Y-88785714D01*
X80242857Y-88738095D01*
X80338095Y-88738095D01*
X80480952Y-88785714D01*
X81052381Y-89357143D01*
X81052381Y-88738095D01*
X65502381Y-82639523D02*
X66216667Y-82639523D01*
X66359524Y-82687143D01*
X66454762Y-82782381D01*
X66502381Y-82925238D01*
X66502381Y-83020476D01*
X65597619Y-82210952D02*
X65550000Y-82163333D01*
X65502381Y-82068095D01*
X65502381Y-81829999D01*
X65550000Y-81734761D01*
X65597619Y-81687142D01*
X65692857Y-81639523D01*
X65788095Y-81639523D01*
X65930952Y-81687142D01*
X66502381Y-82258571D01*
X66502381Y-81639523D01*
X65502381Y-80734761D02*
X65502381Y-81210952D01*
X65978571Y-81258571D01*
X65930952Y-81210952D01*
X65883333Y-81115714D01*
X65883333Y-80877618D01*
X65930952Y-80782380D01*
X65978571Y-80734761D01*
X66073810Y-80687142D01*
X66311905Y-80687142D01*
X66407143Y-80734761D01*
X66454762Y-80782380D01*
X66502381Y-80877618D01*
X66502381Y-81115714D01*
X66454762Y-81210952D01*
X66407143Y-81258571D01*
X92687143Y-89852381D02*
X92353809Y-89376190D01*
X92115714Y-89852381D02*
X92115714Y-88852381D01*
X92496667Y-88852381D01*
X92591905Y-88900000D01*
X92639524Y-88947619D01*
X92687143Y-89042857D01*
X92687143Y-89185714D01*
X92639524Y-89280952D01*
X92591905Y-89328571D01*
X92496667Y-89376190D01*
X92115714Y-89376190D01*
X93639524Y-89852381D02*
X93068095Y-89852381D01*
X93353809Y-89852381D02*
X93353809Y-88852381D01*
X93258571Y-88995238D01*
X93163333Y-89090476D01*
X93068095Y-89138095D01*
X93972857Y-88852381D02*
X94591905Y-88852381D01*
X94258571Y-89233333D01*
X94401429Y-89233333D01*
X94496667Y-89280952D01*
X94544286Y-89328571D01*
X94591905Y-89423810D01*
X94591905Y-89661905D01*
X94544286Y-89757143D01*
X94496667Y-89804762D01*
X94401429Y-89852381D01*
X94115714Y-89852381D01*
X94020476Y-89804762D01*
X93972857Y-89757143D01*
X100833334Y-82307143D02*
X100785715Y-82354762D01*
X100642858Y-82402381D01*
X100547620Y-82402381D01*
X100404762Y-82354762D01*
X100309524Y-82259524D01*
X100261905Y-82164286D01*
X100214286Y-81973810D01*
X100214286Y-81830952D01*
X100261905Y-81640476D01*
X100309524Y-81545238D01*
X100404762Y-81450000D01*
X100547620Y-81402381D01*
X100642858Y-81402381D01*
X100785715Y-81450000D01*
X100833334Y-81497619D01*
X101166667Y-81402381D02*
X101833334Y-81402381D01*
X101404762Y-82402381D01*
X103083334Y-84452381D02*
X102750000Y-83976190D01*
X102511905Y-84452381D02*
X102511905Y-83452381D01*
X102892858Y-83452381D01*
X102988096Y-83500000D01*
X103035715Y-83547619D01*
X103083334Y-83642857D01*
X103083334Y-83785714D01*
X103035715Y-83880952D01*
X102988096Y-83928571D01*
X102892858Y-83976190D01*
X102511905Y-83976190D01*
X104035715Y-84452381D02*
X103464286Y-84452381D01*
X103750000Y-84452381D02*
X103750000Y-83452381D01*
X103654762Y-83595238D01*
X103559524Y-83690476D01*
X103464286Y-83738095D01*
X87193334Y-94652381D02*
X86860000Y-94176190D01*
X86621905Y-94652381D02*
X86621905Y-93652381D01*
X87002858Y-93652381D01*
X87098096Y-93700000D01*
X87145715Y-93747619D01*
X87193334Y-93842857D01*
X87193334Y-93985714D01*
X87145715Y-94080952D01*
X87098096Y-94128571D01*
X87002858Y-94176190D01*
X86621905Y-94176190D01*
X87526667Y-93652381D02*
X88193334Y-93652381D01*
X87764762Y-94652381D01*
X87053334Y-88492381D02*
X86720000Y-88016190D01*
X86481905Y-88492381D02*
X86481905Y-87492381D01*
X86862858Y-87492381D01*
X86958096Y-87540000D01*
X87005715Y-87587619D01*
X87053334Y-87682857D01*
X87053334Y-87825714D01*
X87005715Y-87920952D01*
X86958096Y-87968571D01*
X86862858Y-88016190D01*
X86481905Y-88016190D01*
X87624762Y-87920952D02*
X87529524Y-87873333D01*
X87481905Y-87825714D01*
X87434286Y-87730476D01*
X87434286Y-87682857D01*
X87481905Y-87587619D01*
X87529524Y-87540000D01*
X87624762Y-87492381D01*
X87815239Y-87492381D01*
X87910477Y-87540000D01*
X87958096Y-87587619D01*
X88005715Y-87682857D01*
X88005715Y-87730476D01*
X87958096Y-87825714D01*
X87910477Y-87873333D01*
X87815239Y-87920952D01*
X87624762Y-87920952D01*
X87529524Y-87968571D01*
X87481905Y-88016190D01*
X87434286Y-88111429D01*
X87434286Y-88301905D01*
X87481905Y-88397143D01*
X87529524Y-88444762D01*
X87624762Y-88492381D01*
X87815239Y-88492381D01*
X87910477Y-88444762D01*
X87958096Y-88397143D01*
X88005715Y-88301905D01*
X88005715Y-88111429D01*
X87958096Y-88016190D01*
X87910477Y-87968571D01*
X87815239Y-87920952D01*
X90237143Y-101552857D02*
X90284762Y-101600476D01*
X90332381Y-101743333D01*
X90332381Y-101838571D01*
X90284762Y-101981429D01*
X90189524Y-102076667D01*
X90094286Y-102124286D01*
X89903810Y-102171905D01*
X89760952Y-102171905D01*
X89570476Y-102124286D01*
X89475238Y-102076667D01*
X89380000Y-101981429D01*
X89332381Y-101838571D01*
X89332381Y-101743333D01*
X89380000Y-101600476D01*
X89427619Y-101552857D01*
X90332381Y-100600476D02*
X90332381Y-101171905D01*
X90332381Y-100886191D02*
X89332381Y-100886191D01*
X89475238Y-100981429D01*
X89570476Y-101076667D01*
X89618095Y-101171905D01*
X89332381Y-99981429D02*
X89332381Y-99886190D01*
X89380000Y-99790952D01*
X89427619Y-99743333D01*
X89522857Y-99695714D01*
X89713333Y-99648095D01*
X89951429Y-99648095D01*
X90141905Y-99695714D01*
X90237143Y-99743333D01*
X90284762Y-99790952D01*
X90332381Y-99886190D01*
X90332381Y-99981429D01*
X90284762Y-100076667D01*
X90237143Y-100124286D01*
X90141905Y-100171905D01*
X89951429Y-100219524D01*
X89713333Y-100219524D01*
X89522857Y-100171905D01*
X89427619Y-100124286D01*
X89380000Y-100076667D01*
X89332381Y-99981429D01*
X75057143Y-94507143D02*
X75009524Y-94554762D01*
X74866667Y-94602381D01*
X74771429Y-94602381D01*
X74628571Y-94554762D01*
X74533333Y-94459524D01*
X74485714Y-94364286D01*
X74438095Y-94173810D01*
X74438095Y-94030952D01*
X74485714Y-93840476D01*
X74533333Y-93745238D01*
X74628571Y-93650000D01*
X74771429Y-93602381D01*
X74866667Y-93602381D01*
X75009524Y-93650000D01*
X75057143Y-93697619D01*
X76009524Y-94602381D02*
X75438095Y-94602381D01*
X75723809Y-94602381D02*
X75723809Y-93602381D01*
X75628571Y-93745238D01*
X75533333Y-93840476D01*
X75438095Y-93888095D01*
X76866667Y-93602381D02*
X76676190Y-93602381D01*
X76580952Y-93650000D01*
X76533333Y-93697619D01*
X76438095Y-93840476D01*
X76390476Y-94030952D01*
X76390476Y-94411905D01*
X76438095Y-94507143D01*
X76485714Y-94554762D01*
X76580952Y-94602381D01*
X76771429Y-94602381D01*
X76866667Y-94554762D01*
X76914286Y-94507143D01*
X76961905Y-94411905D01*
X76961905Y-94173810D01*
X76914286Y-94078571D01*
X76866667Y-94030952D01*
X76771429Y-93983333D01*
X76580952Y-93983333D01*
X76485714Y-94030952D01*
X76438095Y-94078571D01*
X76390476Y-94173810D01*
X102257143Y-106002381D02*
X101923809Y-105526190D01*
X101685714Y-106002381D02*
X101685714Y-105002381D01*
X102066667Y-105002381D01*
X102161905Y-105050000D01*
X102209524Y-105097619D01*
X102257143Y-105192857D01*
X102257143Y-105335714D01*
X102209524Y-105430952D01*
X102161905Y-105478571D01*
X102066667Y-105526190D01*
X101685714Y-105526190D01*
X103209524Y-106002381D02*
X102638095Y-106002381D01*
X102923809Y-106002381D02*
X102923809Y-105002381D01*
X102828571Y-105145238D01*
X102733333Y-105240476D01*
X102638095Y-105288095D01*
X104114286Y-105002381D02*
X103638095Y-105002381D01*
X103590476Y-105478571D01*
X103638095Y-105430952D01*
X103733333Y-105383333D01*
X103971429Y-105383333D01*
X104066667Y-105430952D01*
X104114286Y-105478571D01*
X104161905Y-105573810D01*
X104161905Y-105811905D01*
X104114286Y-105907143D01*
X104066667Y-105954762D01*
X103971429Y-106002381D01*
X103733333Y-106002381D01*
X103638095Y-105954762D01*
X103590476Y-105907143D01*
X92757143Y-84692381D02*
X92423809Y-84216190D01*
X92185714Y-84692381D02*
X92185714Y-83692381D01*
X92566667Y-83692381D01*
X92661905Y-83740000D01*
X92709524Y-83787619D01*
X92757143Y-83882857D01*
X92757143Y-84025714D01*
X92709524Y-84120952D01*
X92661905Y-84168571D01*
X92566667Y-84216190D01*
X92185714Y-84216190D01*
X93709524Y-84692381D02*
X93138095Y-84692381D01*
X93423809Y-84692381D02*
X93423809Y-83692381D01*
X93328571Y-83835238D01*
X93233333Y-83930476D01*
X93138095Y-83978095D01*
X94566667Y-83692381D02*
X94376190Y-83692381D01*
X94280952Y-83740000D01*
X94233333Y-83787619D01*
X94138095Y-83930476D01*
X94090476Y-84120952D01*
X94090476Y-84501905D01*
X94138095Y-84597143D01*
X94185714Y-84644762D01*
X94280952Y-84692381D01*
X94471429Y-84692381D01*
X94566667Y-84644762D01*
X94614286Y-84597143D01*
X94661905Y-84501905D01*
X94661905Y-84263810D01*
X94614286Y-84168571D01*
X94566667Y-84120952D01*
X94471429Y-84073333D01*
X94280952Y-84073333D01*
X94185714Y-84120952D01*
X94138095Y-84168571D01*
X94090476Y-84263810D01*
X79452381Y-101452857D02*
X78976190Y-101786191D01*
X79452381Y-102024286D02*
X78452381Y-102024286D01*
X78452381Y-101643333D01*
X78500000Y-101548095D01*
X78547619Y-101500476D01*
X78642857Y-101452857D01*
X78785714Y-101452857D01*
X78880952Y-101500476D01*
X78928571Y-101548095D01*
X78976190Y-101643333D01*
X78976190Y-102024286D01*
X79452381Y-100500476D02*
X79452381Y-101071905D01*
X79452381Y-100786191D02*
X78452381Y-100786191D01*
X78595238Y-100881429D01*
X78690476Y-100976667D01*
X78738095Y-101071905D01*
X78452381Y-100167143D02*
X78452381Y-99500476D01*
X79452381Y-99929048D01*
X92707143Y-86282381D02*
X92373809Y-85806190D01*
X92135714Y-86282381D02*
X92135714Y-85282381D01*
X92516667Y-85282381D01*
X92611905Y-85330000D01*
X92659524Y-85377619D01*
X92707143Y-85472857D01*
X92707143Y-85615714D01*
X92659524Y-85710952D01*
X92611905Y-85758571D01*
X92516667Y-85806190D01*
X92135714Y-85806190D01*
X93659524Y-86282381D02*
X93088095Y-86282381D01*
X93373809Y-86282381D02*
X93373809Y-85282381D01*
X93278571Y-85425238D01*
X93183333Y-85520476D01*
X93088095Y-85568095D01*
X94230952Y-85710952D02*
X94135714Y-85663333D01*
X94088095Y-85615714D01*
X94040476Y-85520476D01*
X94040476Y-85472857D01*
X94088095Y-85377619D01*
X94135714Y-85330000D01*
X94230952Y-85282381D01*
X94421429Y-85282381D01*
X94516667Y-85330000D01*
X94564286Y-85377619D01*
X94611905Y-85472857D01*
X94611905Y-85520476D01*
X94564286Y-85615714D01*
X94516667Y-85663333D01*
X94421429Y-85710952D01*
X94230952Y-85710952D01*
X94135714Y-85758571D01*
X94088095Y-85806190D01*
X94040476Y-85901429D01*
X94040476Y-86091905D01*
X94088095Y-86187143D01*
X94135714Y-86234762D01*
X94230952Y-86282381D01*
X94421429Y-86282381D01*
X94516667Y-86234762D01*
X94564286Y-86187143D01*
X94611905Y-86091905D01*
X94611905Y-85901429D01*
X94564286Y-85806190D01*
X94516667Y-85758571D01*
X94421429Y-85710952D01*
X78107143Y-85084381D02*
X77773809Y-84608190D01*
X77535714Y-85084381D02*
X77535714Y-84084381D01*
X77916667Y-84084381D01*
X78011905Y-84132000D01*
X78059524Y-84179619D01*
X78107143Y-84274857D01*
X78107143Y-84417714D01*
X78059524Y-84512952D01*
X78011905Y-84560571D01*
X77916667Y-84608190D01*
X77535714Y-84608190D01*
X79059524Y-85084381D02*
X78488095Y-85084381D01*
X78773809Y-85084381D02*
X78773809Y-84084381D01*
X78678571Y-84227238D01*
X78583333Y-84322476D01*
X78488095Y-84370095D01*
X79535714Y-85084381D02*
X79726190Y-85084381D01*
X79821429Y-85036762D01*
X79869048Y-84989143D01*
X79964286Y-84846286D01*
X80011905Y-84655810D01*
X80011905Y-84274857D01*
X79964286Y-84179619D01*
X79916667Y-84132000D01*
X79821429Y-84084381D01*
X79630952Y-84084381D01*
X79535714Y-84132000D01*
X79488095Y-84179619D01*
X79440476Y-84274857D01*
X79440476Y-84512952D01*
X79488095Y-84608190D01*
X79535714Y-84655810D01*
X79630952Y-84703429D01*
X79821429Y-84703429D01*
X79916667Y-84655810D01*
X79964286Y-84608190D01*
X80011905Y-84512952D01*
X99927143Y-93227143D02*
X99879524Y-93274762D01*
X99736667Y-93322381D01*
X99641429Y-93322381D01*
X99498571Y-93274762D01*
X99403333Y-93179524D01*
X99355714Y-93084286D01*
X99308095Y-92893810D01*
X99308095Y-92750952D01*
X99355714Y-92560476D01*
X99403333Y-92465238D01*
X99498571Y-92370000D01*
X99641429Y-92322381D01*
X99736667Y-92322381D01*
X99879524Y-92370000D01*
X99927143Y-92417619D01*
X100879524Y-93322381D02*
X100308095Y-93322381D01*
X100593809Y-93322381D02*
X100593809Y-92322381D01*
X100498571Y-92465238D01*
X100403333Y-92560476D01*
X100308095Y-92608095D01*
X101831905Y-93322381D02*
X101260476Y-93322381D01*
X101546190Y-93322381D02*
X101546190Y-92322381D01*
X101450952Y-92465238D01*
X101355714Y-92560476D01*
X101260476Y-92608095D01*
X99937143Y-94537143D02*
X99889524Y-94584762D01*
X99746667Y-94632381D01*
X99651429Y-94632381D01*
X99508571Y-94584762D01*
X99413333Y-94489524D01*
X99365714Y-94394286D01*
X99318095Y-94203810D01*
X99318095Y-94060952D01*
X99365714Y-93870476D01*
X99413333Y-93775238D01*
X99508571Y-93680000D01*
X99651429Y-93632381D01*
X99746667Y-93632381D01*
X99889524Y-93680000D01*
X99937143Y-93727619D01*
X100889524Y-94632381D02*
X100318095Y-94632381D01*
X100603809Y-94632381D02*
X100603809Y-93632381D01*
X100508571Y-93775238D01*
X100413333Y-93870476D01*
X100318095Y-93918095D01*
X101270476Y-93727619D02*
X101318095Y-93680000D01*
X101413333Y-93632381D01*
X101651429Y-93632381D01*
X101746667Y-93680000D01*
X101794286Y-93727619D01*
X101841905Y-93822857D01*
X101841905Y-93918095D01*
X101794286Y-94060952D01*
X101222857Y-94632381D01*
X101841905Y-94632381D01*
X91907143Y-101027381D02*
X91573809Y-100551190D01*
X91335714Y-101027381D02*
X91335714Y-100027381D01*
X91716667Y-100027381D01*
X91811905Y-100075000D01*
X91859524Y-100122619D01*
X91907143Y-100217857D01*
X91907143Y-100360714D01*
X91859524Y-100455952D01*
X91811905Y-100503571D01*
X91716667Y-100551190D01*
X91335714Y-100551190D01*
X92288095Y-100122619D02*
X92335714Y-100075000D01*
X92430952Y-100027381D01*
X92669048Y-100027381D01*
X92764286Y-100075000D01*
X92811905Y-100122619D01*
X92859524Y-100217857D01*
X92859524Y-100313095D01*
X92811905Y-100455952D01*
X92240476Y-101027381D01*
X92859524Y-101027381D01*
X93240476Y-100122619D02*
X93288095Y-100075000D01*
X93383333Y-100027381D01*
X93621429Y-100027381D01*
X93716667Y-100075000D01*
X93764286Y-100122619D01*
X93811905Y-100217857D01*
X93811905Y-100313095D01*
X93764286Y-100455952D01*
X93192857Y-101027381D01*
X93811905Y-101027381D01*
X105104762Y-89917619D02*
X105009524Y-89870000D01*
X104914286Y-89774762D01*
X104771429Y-89631905D01*
X104676190Y-89584286D01*
X104580952Y-89584286D01*
X104628571Y-89822381D02*
X104533333Y-89774762D01*
X104438095Y-89679524D01*
X104390476Y-89489048D01*
X104390476Y-89155714D01*
X104438095Y-88965238D01*
X104533333Y-88870000D01*
X104628571Y-88822381D01*
X104819048Y-88822381D01*
X104914286Y-88870000D01*
X105009524Y-88965238D01*
X105057143Y-89155714D01*
X105057143Y-89489048D01*
X105009524Y-89679524D01*
X104914286Y-89774762D01*
X104819048Y-89822381D01*
X104628571Y-89822381D01*
X105438095Y-88917619D02*
X105485714Y-88870000D01*
X105580952Y-88822381D01*
X105819048Y-88822381D01*
X105914286Y-88870000D01*
X105961905Y-88917619D01*
X106009524Y-89012857D01*
X106009524Y-89108095D01*
X105961905Y-89250952D01*
X105390476Y-89822381D01*
X106009524Y-89822381D01*
X82081619Y-87725238D02*
X82034000Y-87820476D01*
X81938762Y-87915714D01*
X81795905Y-88058571D01*
X81748286Y-88153810D01*
X81748286Y-88249048D01*
X81986381Y-88201429D02*
X81938762Y-88296667D01*
X81843524Y-88391905D01*
X81653048Y-88439524D01*
X81319714Y-88439524D01*
X81129238Y-88391905D01*
X81034000Y-88296667D01*
X80986381Y-88201429D01*
X80986381Y-88010952D01*
X81034000Y-87915714D01*
X81129238Y-87820476D01*
X81319714Y-87772857D01*
X81653048Y-87772857D01*
X81843524Y-87820476D01*
X81938762Y-87915714D01*
X81986381Y-88010952D01*
X81986381Y-88201429D01*
X80986381Y-87439524D02*
X80986381Y-86820476D01*
X81367333Y-87153810D01*
X81367333Y-87010952D01*
X81414952Y-86915714D01*
X81462571Y-86868095D01*
X81557810Y-86820476D01*
X81795905Y-86820476D01*
X81891143Y-86868095D01*
X81938762Y-86915714D01*
X81986381Y-87010952D01*
X81986381Y-87296667D01*
X81938762Y-87391905D01*
X81891143Y-87439524D01*
X80574762Y-94787619D02*
X80479524Y-94740000D01*
X80384286Y-94644762D01*
X80241429Y-94501905D01*
X80146190Y-94454286D01*
X80050952Y-94454286D01*
X80098571Y-94692381D02*
X80003333Y-94644762D01*
X79908095Y-94549524D01*
X79860476Y-94359048D01*
X79860476Y-94025714D01*
X79908095Y-93835238D01*
X80003333Y-93740000D01*
X80098571Y-93692381D01*
X80289048Y-93692381D01*
X80384286Y-93740000D01*
X80479524Y-93835238D01*
X80527143Y-94025714D01*
X80527143Y-94359048D01*
X80479524Y-94549524D01*
X80384286Y-94644762D01*
X80289048Y-94692381D01*
X80098571Y-94692381D01*
X81384286Y-94025714D02*
X81384286Y-94692381D01*
X81146190Y-93644762D02*
X80908095Y-94359048D01*
X81527143Y-94359048D01*
X89447619Y-96855238D02*
X89400000Y-96950476D01*
X89304762Y-97045714D01*
X89161905Y-97188571D01*
X89114286Y-97283810D01*
X89114286Y-97379048D01*
X89352381Y-97331429D02*
X89304762Y-97426667D01*
X89209524Y-97521905D01*
X89019048Y-97569524D01*
X88685714Y-97569524D01*
X88495238Y-97521905D01*
X88400000Y-97426667D01*
X88352381Y-97331429D01*
X88352381Y-97140952D01*
X88400000Y-97045714D01*
X88495238Y-96950476D01*
X88685714Y-96902857D01*
X89019048Y-96902857D01*
X89209524Y-96950476D01*
X89304762Y-97045714D01*
X89352381Y-97140952D01*
X89352381Y-97331429D01*
X88352381Y-95998095D02*
X88352381Y-96474286D01*
X88828571Y-96521905D01*
X88780952Y-96474286D01*
X88733333Y-96379048D01*
X88733333Y-96140952D01*
X88780952Y-96045714D01*
X88828571Y-95998095D01*
X88923810Y-95950476D01*
X89161905Y-95950476D01*
X89257143Y-95998095D01*
X89304762Y-96045714D01*
X89352381Y-96140952D01*
X89352381Y-96379048D01*
X89304762Y-96474286D01*
X89257143Y-96521905D01*
X84194762Y-94827619D02*
X84099524Y-94780000D01*
X84004286Y-94684762D01*
X83861429Y-94541905D01*
X83766190Y-94494286D01*
X83670952Y-94494286D01*
X83718571Y-94732381D02*
X83623333Y-94684762D01*
X83528095Y-94589524D01*
X83480476Y-94399048D01*
X83480476Y-94065714D01*
X83528095Y-93875238D01*
X83623333Y-93780000D01*
X83718571Y-93732381D01*
X83909048Y-93732381D01*
X84004286Y-93780000D01*
X84099524Y-93875238D01*
X84147143Y-94065714D01*
X84147143Y-94399048D01*
X84099524Y-94589524D01*
X84004286Y-94684762D01*
X83909048Y-94732381D01*
X83718571Y-94732381D01*
X85004286Y-93732381D02*
X84813809Y-93732381D01*
X84718571Y-93780000D01*
X84670952Y-93827619D01*
X84575714Y-93970476D01*
X84528095Y-94160952D01*
X84528095Y-94541905D01*
X84575714Y-94637143D01*
X84623333Y-94684762D01*
X84718571Y-94732381D01*
X84909048Y-94732381D01*
X85004286Y-94684762D01*
X85051905Y-94637143D01*
X85099524Y-94541905D01*
X85099524Y-94303810D01*
X85051905Y-94208571D01*
X85004286Y-94160952D01*
X84909048Y-94113333D01*
X84718571Y-94113333D01*
X84623333Y-94160952D01*
X84575714Y-94208571D01*
X84528095Y-94303810D01*
X91697619Y-86145238D02*
X91650000Y-86240476D01*
X91554762Y-86335714D01*
X91411905Y-86478571D01*
X91364286Y-86573810D01*
X91364286Y-86669048D01*
X91602381Y-86621429D02*
X91554762Y-86716667D01*
X91459524Y-86811905D01*
X91269048Y-86859524D01*
X90935714Y-86859524D01*
X90745238Y-86811905D01*
X90650000Y-86716667D01*
X90602381Y-86621429D01*
X90602381Y-86430952D01*
X90650000Y-86335714D01*
X90745238Y-86240476D01*
X90935714Y-86192857D01*
X91269048Y-86192857D01*
X91459524Y-86240476D01*
X91554762Y-86335714D01*
X91602381Y-86430952D01*
X91602381Y-86621429D01*
X90602381Y-85859524D02*
X90602381Y-85192857D01*
X91602381Y-85621429D01*
X105472619Y-98470238D02*
X105425000Y-98565476D01*
X105329762Y-98660714D01*
X105186905Y-98803571D01*
X105139286Y-98898810D01*
X105139286Y-98994048D01*
X105377381Y-98946429D02*
X105329762Y-99041667D01*
X105234524Y-99136905D01*
X105044048Y-99184524D01*
X104710714Y-99184524D01*
X104520238Y-99136905D01*
X104425000Y-99041667D01*
X104377381Y-98946429D01*
X104377381Y-98755952D01*
X104425000Y-98660714D01*
X104520238Y-98565476D01*
X104710714Y-98517857D01*
X105044048Y-98517857D01*
X105234524Y-98565476D01*
X105329762Y-98660714D01*
X105377381Y-98755952D01*
X105377381Y-98946429D01*
X105377381Y-97565476D02*
X105377381Y-98136905D01*
X105377381Y-97851191D02*
X104377381Y-97851191D01*
X104520238Y-97946429D01*
X104615476Y-98041667D01*
X104663095Y-98136905D01*
M02*
